<svg xmlns="http://www.w3.org/2000/svg" width="63" height="63" viewBox="0 0 63 63">
  <g id="_15" data-name="15" transform="translate(-1000 -9717)">
    <circle id="Elipse_9960" data-name="Elipse 9960" cx="31.5" cy="31.5" r="31.5" transform="translate(1000 9717)" fill="#273a89"/>
    <g id="noun-add-3141724" transform="translate(814 9700.449)">
      <g id="Grupo_1074872" data-name="Grupo 1074872" transform="translate(201 28.551)">
        <g id="Grupo_1074871" data-name="Grupo 1074871">
          <path id="Trazado_824956" data-name="Trazado 824956" d="M58.141,315H35v14.563H64.983v-6.955A8.153,8.153,0,0,1,58.141,315Zm-19.714,8.138a.428.428,0,0,1-.857,0V318a.428.428,0,0,1,.857,0Zm14.135,4.283H50.848v-1.713h1.713Zm3.427,0H54.275v-1.713h1.713Zm3.427,0H57.7v-1.713h1.713Zm1.713-1.713h1.713v1.713H61.128Z" transform="translate(-35 -291.014)" fill="#fff"/>
          <path id="Trazado_824957" data-name="Trazado 824957" d="M64.983,35H35V46.136H64.983ZM38.427,43.138a.428.428,0,1,1-.857,0V38a.428.428,0,0,1,.857,0Zm14.135.857H50.848V42.282h1.713Zm3.427,0H54.275V42.282h1.713Zm3.427,0H57.7V42.282h1.713Zm3.427,0H61.128V42.282h1.713Z" transform="translate(-35 -35)" fill="#fff"/>
          <path id="Trazado_824958" data-name="Trazado 824958" d="M64.983,178.528V175H35v11.136H58.141A8.153,8.153,0,0,1,64.983,178.528Zm-26.556,4.61a.428.428,0,1,1-.857,0V178a.428.428,0,0,1,.857,0Zm14.135.857H50.848v-1.713h1.713Zm3.427,0H54.275v-1.713h1.713Z" transform="translate(-35 -163.007)" fill="#fff"/>
          <path id="Trazado_824959" data-name="Trazado 824959" d="M322.282,225a7.282,7.282,0,1,0,7.282,7.282A7.29,7.29,0,0,0,322.282,225Zm4.283,7.71H322.71v3.855a.428.428,0,1,1-.857,0V232.71H318a.428.428,0,0,1,0-.857h3.855V228a.428.428,0,0,1,.857,0v3.855h3.855a.428.428,0,0,1,0,.857Z" transform="translate(-291.014 -208.724)" fill="#fff"/>
        </g>
      </g>
    </g>
  </g>
</svg>
