<svg xmlns="http://www.w3.org/2000/svg" xmlns:xlink="http://www.w3.org/1999/xlink" width="1239" height="559.23" viewBox="0 0 1239 559.23">
  <defs>
    <clipPath id="clip-path">
      <rect id="Rectángulo_382371" data-name="Rectángulo 382371" width="1239" height="491.23" transform="translate(180.002 3266.25)" fill="#12263f" stroke="#e8e8e8" stroke-width="1" opacity="0.53"/>
    </clipPath>
  </defs>
  <g id="_20" data-name="20" transform="translate(-181.002 -850.25)">
    <rect id="Rectángulo_4933" data-name="Rectángulo 4933" width="1239" height="559.23" rx="8" transform="translate(181.002 850.25)" fill="#fff8dd"/>
    <g id="Enmascarar_grupo_269" data-name="Enmascarar grupo 269" transform="translate(1 -2415)" clip-path="url(#clip-path)">
      <g id="Grupo_1095114" data-name="Grupo 1095114" transform="translate(1288.772 3179.266)">
        <path id="Trazado_829573" data-name="Trazado 829573" d="M93.7,0c51.751,0,93.7,46.183,93.7,103.152S145.454,206.3,93.7,206.3,0,160.122,0,103.152,41.952,0,93.7,0Z" transform="translate(28.777)" fill="#ffeea8"/>
        <g id="Grupo_1075132" data-name="Grupo 1075132" transform="translate(0 103.153)">
          <g id="Grupo_1075136" data-name="Grupo 1075136">
            <path id="Trazado_829564" data-name="Trazado 829564" d="M106.492,10.822l-1.782,1.962a11.425,11.425,0,0,1-17.253,0L86.384,11.6a11.429,11.429,0,0,0-17.253,0,11.425,11.425,0,0,1-17.253,0l-.1-.107a11.429,11.429,0,0,0-17.253,0l-.878.966a11.425,11.425,0,0,1-17.253,0l-.68-.751A11.376,11.376,0,0,0,0,10.3v5.916a11.374,11.374,0,0,1,15.718,1.413l.68.751a11.425,11.425,0,0,0,17.253,0l.878-.966a11.425,11.425,0,0,1,17.253,0l.1.107a11.425,11.425,0,0,0,17.253,0,11.425,11.425,0,0,1,17.253,0L87.457,18.7a11.425,11.425,0,0,0,17.253,0l1.782-1.962Z" transform="translate(0 11.32)" fill="#ffce00"/>
            <path id="Trazado_829565" data-name="Trazado 829565" d="M106.492,3.259,104.71,5.221a11.425,11.425,0,0,1-17.253,0L86.384,4.04a11.425,11.425,0,0,0-17.253,0,11.425,11.425,0,0,1-17.253,0l-.1-.107a11.425,11.425,0,0,0-17.253,0l-.878.966A11.425,11.425,0,0,1,16.4,4.9l-.68-.751A11.376,11.376,0,0,0,0,2.732V8.646a11.376,11.376,0,0,1,15.718,1.415l.68.751a11.425,11.425,0,0,0,17.253,0l.878-.966a11.425,11.425,0,0,1,17.253,0l.1.107a11.425,11.425,0,0,0,17.253,0,11.425,11.425,0,0,1,17.253,0l1.073,1.181a11.425,11.425,0,0,0,17.253,0l1.782-1.962Z" transform="translate(0 0.001)" fill="#ffce00"/>
          </g>
        </g>
      </g>
    </g>
    <g id="Grupo_1095118" data-name="Grupo 1095118" transform="translate(0 -10)">
      <ellipse id="Elipse_9991" data-name="Elipse 9991" cx="69" cy="31.5" rx="69" ry="31.5" transform="translate(285 1064)" fill="#ffe888"/>
      <path id="Trazado_829988" data-name="Trazado 829988" d="M7.6-2.977H2.836L1.766,0H.219L4.563-11.375H5.875L10.227,0H8.688ZM3.289-4.2H7.156L5.219-9.523Zm10.07-6.3v2.047h1.578v1.117H13.359v5.249a1.173,1.173,0,0,0,.211.763.888.888,0,0,0,.719.254,3.5,3.5,0,0,0,.688-.094V0a4.215,4.215,0,0,1-1.109.155A1.8,1.8,0,0,1,12.406-.43a2.517,2.517,0,0,1-.492-1.664V-7.336H10.375V-8.453h1.539V-10.5Zm7.352,3.344A4.331,4.331,0,0,0,20-7.211,1.9,1.9,0,0,0,18.07-6V0H16.625V-8.453h1.406l.023.977A2.251,2.251,0,0,1,20.07-8.609a1.477,1.477,0,0,1,.641.109ZM23.609,0H22.164V-8.453h1.445ZM22.047-10.7a.863.863,0,0,1,.215-.594.807.807,0,0,1,.637-.242.819.819,0,0,1,.641.242.854.854,0,0,1,.219.594.826.826,0,0,1-.219.586.834.834,0,0,1-.641.234.821.821,0,0,1-.637-.234A.834.834,0,0,1,22.047-10.7ZM33.078-4.133a5.026,5.026,0,0,1-.891,3.113A2.846,2.846,0,0,1,29.8.156,2.947,2.947,0,0,1,27.32-.977L27.25,0H25.922V-12h1.445v4.477a2.93,2.93,0,0,1,2.414-1.086A2.863,2.863,0,0,1,32.2-7.445a5.177,5.177,0,0,1,.879,3.188ZM31.633-4.3a3.906,3.906,0,0,0-.57-2.281,1.888,1.888,0,0,0-1.641-.8,2.122,2.122,0,0,0-2.055,1.328V-2.4a2.181,2.181,0,0,0,2.07,1.328,1.878,1.878,0,0,0,1.617-.8A4.153,4.153,0,0,0,31.633-4.3ZM40.117-.836a3.07,3.07,0,0,1-2.477.992,2.628,2.628,0,0,1-2.059-.785,3.4,3.4,0,0,1-.715-2.324v-5.5h1.445v5.461q0,1.922,1.563,1.922a2.163,2.163,0,0,0,2.2-1.234V-8.453h1.445V0H40.148ZM45.68-10.5v2.047h1.578v1.117H45.68v5.249a1.173,1.173,0,0,0,.211.763.888.888,0,0,0,.719.254,3.5,3.5,0,0,0,.688-.094V0a4.215,4.215,0,0,1-1.109.155A1.8,1.8,0,0,1,44.727-.43a2.517,2.517,0,0,1-.492-1.664V-7.336H42.7V-8.453h1.539V-10.5Zm2.727,6.2a4.993,4.993,0,0,1,.488-2.234A3.643,3.643,0,0,1,50.254-8.07a3.7,3.7,0,0,1,1.988-.539,3.565,3.565,0,0,1,2.793,1.2A4.6,4.6,0,0,1,56.1-4.234v.1a5.036,5.036,0,0,1-.473,2.215A3.589,3.589,0,0,1,54.277-.391a3.743,3.743,0,0,1-2.02.547,3.556,3.556,0,0,1-2.785-1.2A4.575,4.575,0,0,1,48.406-4.2Zm1.453.172a3.616,3.616,0,0,0,.652,2.258,2.088,2.088,0,0,0,1.746.852,2.075,2.075,0,0,0,1.75-.863A3.955,3.955,0,0,0,54.656-4.3,3.61,3.61,0,0,0,54-6.559a2.1,2.1,0,0,0-1.754-.863,2.075,2.075,0,0,0-1.727.852A3.925,3.925,0,0,0,49.859-4.133ZM62.836-2.242a1.064,1.064,0,0,0-.441-.91,4.249,4.249,0,0,0-1.539-.559,7.277,7.277,0,0,1-1.742-.562,2.479,2.479,0,0,1-.953-.781,1.869,1.869,0,0,1-.309-1.078,2.193,2.193,0,0,1,.879-1.758,3.432,3.432,0,0,1,2.246-.719,3.532,3.532,0,0,1,2.332.742,2.357,2.357,0,0,1,.895,1.9H62.75a1.3,1.3,0,0,0-.5-1.023,1.888,1.888,0,0,0-1.27-.43,1.976,1.976,0,0,0-1.234.344,1.082,1.082,0,0,0-.445.9.877.877,0,0,0,.414.789,5.1,5.1,0,0,0,1.5.508,7.8,7.8,0,0,1,1.754.578,2.558,2.558,0,0,1,1,.809,1.988,1.988,0,0,1,.324,1.152,2.163,2.163,0,0,1-.906,1.816,3.8,3.8,0,0,1-2.352.684,4.257,4.257,0,0,1-1.8-.359,2.922,2.922,0,0,1-1.223-1A2.42,2.42,0,0,1,57.563-2.6h1.445a1.5,1.5,0,0,0,.582,1.152,2.258,2.258,0,0,0,1.434.426,2.331,2.331,0,0,0,1.316-.332A1.02,1.02,0,0,0,62.836-2.242Z" transform="translate(322 1101)" fill="#12263f"/>
      <ellipse id="Elipse_9992" data-name="Elipse 9992" cx="69" cy="31.5" rx="69" ry="31.5" transform="translate(357 914)" fill="#ffe888"/>
      <path id="Trazado_829987" data-name="Trazado 829987" d="M7.6-2.977H2.836L1.766,0H.219L4.563-11.375H5.875L10.227,0H8.688ZM3.289-4.2H7.156L5.219-9.523Zm10.07-6.3v2.047h1.578v1.117H13.359v5.249a1.173,1.173,0,0,0,.211.763.888.888,0,0,0,.719.254,3.5,3.5,0,0,0,.688-.094V0a4.215,4.215,0,0,1-1.109.155A1.8,1.8,0,0,1,12.406-.43a2.517,2.517,0,0,1-.492-1.664V-7.336H10.375V-8.453h1.539V-10.5Zm7.352,3.344A4.331,4.331,0,0,0,20-7.211,1.9,1.9,0,0,0,18.07-6V0H16.625V-8.453h1.406l.023.977A2.251,2.251,0,0,1,20.07-8.609a1.477,1.477,0,0,1,.641.109ZM23.609,0H22.164V-8.453h1.445ZM22.047-10.7a.863.863,0,0,1,.215-.594.807.807,0,0,1,.637-.242.819.819,0,0,1,.641.242.854.854,0,0,1,.219.594.826.826,0,0,1-.219.586.834.834,0,0,1-.641.234.821.821,0,0,1-.637-.234A.834.834,0,0,1,22.047-10.7ZM33.078-4.133a5.026,5.026,0,0,1-.891,3.113A2.846,2.846,0,0,1,29.8.156,2.947,2.947,0,0,1,27.32-.977L27.25,0H25.922V-12h1.445v4.477a2.93,2.93,0,0,1,2.414-1.086A2.863,2.863,0,0,1,32.2-7.445a5.177,5.177,0,0,1,.879,3.188ZM31.633-4.3a3.906,3.906,0,0,0-.57-2.281,1.888,1.888,0,0,0-1.641-.8,2.122,2.122,0,0,0-2.055,1.328V-2.4a2.181,2.181,0,0,0,2.07,1.328,1.878,1.878,0,0,0,1.617-.8A4.153,4.153,0,0,0,31.633-4.3ZM40.117-.836a3.07,3.07,0,0,1-2.477.992,2.628,2.628,0,0,1-2.059-.785,3.4,3.4,0,0,1-.715-2.324v-5.5h1.445v5.461q0,1.922,1.563,1.922a2.163,2.163,0,0,0,2.2-1.234V-8.453h1.445V0H40.148ZM45.68-10.5v2.047h1.578v1.117H45.68v5.249a1.173,1.173,0,0,0,.211.763.888.888,0,0,0,.719.254,3.5,3.5,0,0,0,.688-.094V0a4.215,4.215,0,0,1-1.109.155A1.8,1.8,0,0,1,44.727-.43a2.517,2.517,0,0,1-.492-1.664V-7.336H42.7V-8.453h1.539V-10.5Zm2.727,6.2a4.993,4.993,0,0,1,.488-2.234A3.643,3.643,0,0,1,50.254-8.07a3.7,3.7,0,0,1,1.988-.539,3.565,3.565,0,0,1,2.793,1.2A4.6,4.6,0,0,1,56.1-4.234v.1a5.036,5.036,0,0,1-.473,2.215A3.589,3.589,0,0,1,54.277-.391a3.743,3.743,0,0,1-2.02.547,3.556,3.556,0,0,1-2.785-1.2A4.575,4.575,0,0,1,48.406-4.2Zm1.453.172a3.616,3.616,0,0,0,.652,2.258,2.088,2.088,0,0,0,1.746.852,2.075,2.075,0,0,0,1.75-.863A3.955,3.955,0,0,0,54.656-4.3,3.61,3.61,0,0,0,54-6.559a2.1,2.1,0,0,0-1.754-.863,2.075,2.075,0,0,0-1.727.852A3.925,3.925,0,0,0,49.859-4.133ZM62.836-2.242a1.064,1.064,0,0,0-.441-.91,4.249,4.249,0,0,0-1.539-.559,7.277,7.277,0,0,1-1.742-.562,2.479,2.479,0,0,1-.953-.781,1.869,1.869,0,0,1-.309-1.078,2.193,2.193,0,0,1,.879-1.758,3.432,3.432,0,0,1,2.246-.719,3.532,3.532,0,0,1,2.332.742,2.357,2.357,0,0,1,.895,1.9H62.75a1.3,1.3,0,0,0-.5-1.023,1.888,1.888,0,0,0-1.27-.43,1.976,1.976,0,0,0-1.234.344,1.082,1.082,0,0,0-.445.9.877.877,0,0,0,.414.789,5.1,5.1,0,0,0,1.5.508,7.8,7.8,0,0,1,1.754.578,2.558,2.558,0,0,1,1,.809,1.988,1.988,0,0,1,.324,1.152,2.163,2.163,0,0,1-.906,1.816,3.8,3.8,0,0,1-2.352.684,4.257,4.257,0,0,1-1.8-.359,2.922,2.922,0,0,1-1.223-1A2.42,2.42,0,0,1,57.563-2.6h1.445a1.5,1.5,0,0,0,.582,1.152,2.258,2.258,0,0,0,1.434.426,2.331,2.331,0,0,0,1.316-.332A1.02,1.02,0,0,0,62.836-2.242Z" transform="translate(394 951)" fill="#12263f"/>
      <ellipse id="Elipse_9995" data-name="Elipse 9995" cx="69" cy="31.5" rx="69" ry="31.5" transform="translate(1125 914)" fill="#ffe888"/>
      <path id="Trazado_829994" data-name="Trazado 829994" d="M7.6-2.977H2.836L1.766,0H.219L4.563-11.375H5.875L10.227,0H8.688ZM3.289-4.2H7.156L5.219-9.523Zm10.07-6.3v2.047h1.578v1.117H13.359v5.249a1.173,1.173,0,0,0,.211.763.888.888,0,0,0,.719.254,3.5,3.5,0,0,0,.688-.094V0a4.215,4.215,0,0,1-1.109.155A1.8,1.8,0,0,1,12.406-.43a2.517,2.517,0,0,1-.492-1.664V-7.336H10.375V-8.453h1.539V-10.5Zm7.352,3.344A4.331,4.331,0,0,0,20-7.211,1.9,1.9,0,0,0,18.07-6V0H16.625V-8.453h1.406l.023.977A2.251,2.251,0,0,1,20.07-8.609a1.477,1.477,0,0,1,.641.109ZM23.609,0H22.164V-8.453h1.445ZM22.047-10.7a.863.863,0,0,1,.215-.594.807.807,0,0,1,.637-.242.819.819,0,0,1,.641.242.854.854,0,0,1,.219.594.826.826,0,0,1-.219.586.834.834,0,0,1-.641.234.821.821,0,0,1-.637-.234A.834.834,0,0,1,22.047-10.7ZM33.078-4.133a5.026,5.026,0,0,1-.891,3.113A2.846,2.846,0,0,1,29.8.156,2.947,2.947,0,0,1,27.32-.977L27.25,0H25.922V-12h1.445v4.477a2.93,2.93,0,0,1,2.414-1.086A2.863,2.863,0,0,1,32.2-7.445a5.177,5.177,0,0,1,.879,3.188ZM31.633-4.3a3.906,3.906,0,0,0-.57-2.281,1.888,1.888,0,0,0-1.641-.8,2.122,2.122,0,0,0-2.055,1.328V-2.4a2.181,2.181,0,0,0,2.07,1.328,1.878,1.878,0,0,0,1.617-.8A4.153,4.153,0,0,0,31.633-4.3ZM40.117-.836a3.07,3.07,0,0,1-2.477.992,2.628,2.628,0,0,1-2.059-.785,3.4,3.4,0,0,1-.715-2.324v-5.5h1.445v5.461q0,1.922,1.563,1.922a2.163,2.163,0,0,0,2.2-1.234V-8.453h1.445V0H40.148ZM45.68-10.5v2.047h1.578v1.117H45.68v5.249a1.173,1.173,0,0,0,.211.763.888.888,0,0,0,.719.254,3.5,3.5,0,0,0,.688-.094V0a4.215,4.215,0,0,1-1.109.155A1.8,1.8,0,0,1,44.727-.43a2.517,2.517,0,0,1-.492-1.664V-7.336H42.7V-8.453h1.539V-10.5Zm2.727,6.2a4.993,4.993,0,0,1,.488-2.234A3.643,3.643,0,0,1,50.254-8.07a3.7,3.7,0,0,1,1.988-.539,3.565,3.565,0,0,1,2.793,1.2A4.6,4.6,0,0,1,56.1-4.234v.1a5.036,5.036,0,0,1-.473,2.215A3.589,3.589,0,0,1,54.277-.391a3.743,3.743,0,0,1-2.02.547,3.556,3.556,0,0,1-2.785-1.2A4.575,4.575,0,0,1,48.406-4.2Zm1.453.172a3.616,3.616,0,0,0,.652,2.258,2.088,2.088,0,0,0,1.746.852,2.075,2.075,0,0,0,1.75-.863A3.955,3.955,0,0,0,54.656-4.3,3.61,3.61,0,0,0,54-6.559a2.1,2.1,0,0,0-1.754-.863,2.075,2.075,0,0,0-1.727.852A3.925,3.925,0,0,0,49.859-4.133ZM62.836-2.242a1.064,1.064,0,0,0-.441-.91,4.249,4.249,0,0,0-1.539-.559,7.277,7.277,0,0,1-1.742-.562,2.479,2.479,0,0,1-.953-.781,1.869,1.869,0,0,1-.309-1.078,2.193,2.193,0,0,1,.879-1.758,3.432,3.432,0,0,1,2.246-.719,3.532,3.532,0,0,1,2.332.742,2.357,2.357,0,0,1,.895,1.9H62.75a1.3,1.3,0,0,0-.5-1.023,1.888,1.888,0,0,0-1.27-.43,1.976,1.976,0,0,0-1.234.344,1.082,1.082,0,0,0-.445.9.877.877,0,0,0,.414.789,5.1,5.1,0,0,0,1.5.508,7.8,7.8,0,0,1,1.754.578,2.558,2.558,0,0,1,1,.809,1.988,1.988,0,0,1,.324,1.152,2.163,2.163,0,0,1-.906,1.816,3.8,3.8,0,0,1-2.352.684,4.257,4.257,0,0,1-1.8-.359,2.922,2.922,0,0,1-1.223-1A2.42,2.42,0,0,1,57.563-2.6h1.445a1.5,1.5,0,0,0,.582,1.152,2.258,2.258,0,0,0,1.434.426,2.331,2.331,0,0,0,1.316-.332A1.02,1.02,0,0,0,62.836-2.242Z" transform="translate(1162 951)" fill="#12263f"/>
      <ellipse id="Elipse_9996" data-name="Elipse 9996" cx="69" cy="31.5" rx="69" ry="31.5" transform="translate(1125 1206)" fill="#ffe888"/>
      <path id="Trazado_829995" data-name="Trazado 829995" d="M7.6-2.977H2.836L1.766,0H.219L4.563-11.375H5.875L10.227,0H8.688ZM3.289-4.2H7.156L5.219-9.523Zm10.07-6.3v2.047h1.578v1.117H13.359v5.249a1.173,1.173,0,0,0,.211.763.888.888,0,0,0,.719.254,3.5,3.5,0,0,0,.688-.094V0a4.215,4.215,0,0,1-1.109.155A1.8,1.8,0,0,1,12.406-.43a2.517,2.517,0,0,1-.492-1.664V-7.336H10.375V-8.453h1.539V-10.5Zm7.352,3.344A4.331,4.331,0,0,0,20-7.211,1.9,1.9,0,0,0,18.07-6V0H16.625V-8.453h1.406l.023.977A2.251,2.251,0,0,1,20.07-8.609a1.477,1.477,0,0,1,.641.109ZM23.609,0H22.164V-8.453h1.445ZM22.047-10.7a.863.863,0,0,1,.215-.594.807.807,0,0,1,.637-.242.819.819,0,0,1,.641.242.854.854,0,0,1,.219.594.826.826,0,0,1-.219.586.834.834,0,0,1-.641.234.821.821,0,0,1-.637-.234A.834.834,0,0,1,22.047-10.7ZM33.078-4.133a5.026,5.026,0,0,1-.891,3.113A2.846,2.846,0,0,1,29.8.156,2.947,2.947,0,0,1,27.32-.977L27.25,0H25.922V-12h1.445v4.477a2.93,2.93,0,0,1,2.414-1.086A2.863,2.863,0,0,1,32.2-7.445a5.177,5.177,0,0,1,.879,3.188ZM31.633-4.3a3.906,3.906,0,0,0-.57-2.281,1.888,1.888,0,0,0-1.641-.8,2.122,2.122,0,0,0-2.055,1.328V-2.4a2.181,2.181,0,0,0,2.07,1.328,1.878,1.878,0,0,0,1.617-.8A4.153,4.153,0,0,0,31.633-4.3ZM40.117-.836a3.07,3.07,0,0,1-2.477.992,2.628,2.628,0,0,1-2.059-.785,3.4,3.4,0,0,1-.715-2.324v-5.5h1.445v5.461q0,1.922,1.563,1.922a2.163,2.163,0,0,0,2.2-1.234V-8.453h1.445V0H40.148ZM45.68-10.5v2.047h1.578v1.117H45.68v5.249a1.173,1.173,0,0,0,.211.763.888.888,0,0,0,.719.254,3.5,3.5,0,0,0,.688-.094V0a4.215,4.215,0,0,1-1.109.155A1.8,1.8,0,0,1,44.727-.43a2.517,2.517,0,0,1-.492-1.664V-7.336H42.7V-8.453h1.539V-10.5Zm2.727,6.2a4.993,4.993,0,0,1,.488-2.234A3.643,3.643,0,0,1,50.254-8.07a3.7,3.7,0,0,1,1.988-.539,3.565,3.565,0,0,1,2.793,1.2A4.6,4.6,0,0,1,56.1-4.234v.1a5.036,5.036,0,0,1-.473,2.215A3.589,3.589,0,0,1,54.277-.391a3.743,3.743,0,0,1-2.02.547,3.556,3.556,0,0,1-2.785-1.2A4.575,4.575,0,0,1,48.406-4.2Zm1.453.172a3.616,3.616,0,0,0,.652,2.258,2.088,2.088,0,0,0,1.746.852,2.075,2.075,0,0,0,1.75-.863A3.955,3.955,0,0,0,54.656-4.3,3.61,3.61,0,0,0,54-6.559a2.1,2.1,0,0,0-1.754-.863,2.075,2.075,0,0,0-1.727.852A3.925,3.925,0,0,0,49.859-4.133ZM62.836-2.242a1.064,1.064,0,0,0-.441-.91,4.249,4.249,0,0,0-1.539-.559,7.277,7.277,0,0,1-1.742-.562,2.479,2.479,0,0,1-.953-.781,1.869,1.869,0,0,1-.309-1.078,2.193,2.193,0,0,1,.879-1.758,3.432,3.432,0,0,1,2.246-.719,3.532,3.532,0,0,1,2.332.742,2.357,2.357,0,0,1,.895,1.9H62.75a1.3,1.3,0,0,0-.5-1.023,1.888,1.888,0,0,0-1.27-.43,1.976,1.976,0,0,0-1.234.344,1.082,1.082,0,0,0-.445.9.877.877,0,0,0,.414.789,5.1,5.1,0,0,0,1.5.508,7.8,7.8,0,0,1,1.754.578,2.558,2.558,0,0,1,1,.809,1.988,1.988,0,0,1,.324,1.152,2.163,2.163,0,0,1-.906,1.816,3.8,3.8,0,0,1-2.352.684,4.257,4.257,0,0,1-1.8-.359,2.922,2.922,0,0,1-1.223-1A2.42,2.42,0,0,1,57.563-2.6h1.445a1.5,1.5,0,0,0,.582,1.152,2.258,2.258,0,0,0,1.434.426,2.331,2.331,0,0,0,1.316-.332A1.02,1.02,0,0,0,62.836-2.242Z" transform="translate(1162 1243)" fill="#12263f"/>
      <path id="Trazado_829567" data-name="Trazado 829567" d="M-5819-10591.5h492" transform="translate(6242 11687)" fill="none" stroke="#707070" stroke-width="1"/>
      <path id="Trazado_829568" data-name="Trazado 829568" d="M-5775.109-10714.73l133.109,97.512" transform="translate(6242 11687)" fill="none" stroke="#707070" stroke-width="1"/>
      <path id="Trazado_829569" data-name="Trazado 829569" d="M-5775.109-10617.219-5642-10714.73" transform="translate(6242 11841.73)" fill="none" stroke="#707070" stroke-width="1"/>
      <ellipse id="Elipse_9993" data-name="Elipse 9993" cx="69" cy="31.5" rx="69" ry="31.5" transform="translate(357 1206)" fill="#ffe888"/>
      <path id="Trazado_829991" data-name="Trazado 829991" d="M7.6-2.977H2.836L1.766,0H.219L4.563-11.375H5.875L10.227,0H8.688ZM3.289-4.2H7.156L5.219-9.523Zm10.07-6.3v2.047h1.578v1.117H13.359v5.249a1.173,1.173,0,0,0,.211.763.888.888,0,0,0,.719.254,3.5,3.5,0,0,0,.688-.094V0a4.215,4.215,0,0,1-1.109.155A1.8,1.8,0,0,1,12.406-.43a2.517,2.517,0,0,1-.492-1.664V-7.336H10.375V-8.453h1.539V-10.5Zm7.352,3.344A4.331,4.331,0,0,0,20-7.211,1.9,1.9,0,0,0,18.07-6V0H16.625V-8.453h1.406l.023.977A2.251,2.251,0,0,1,20.07-8.609a1.477,1.477,0,0,1,.641.109ZM23.609,0H22.164V-8.453h1.445ZM22.047-10.7a.863.863,0,0,1,.215-.594.807.807,0,0,1,.637-.242.819.819,0,0,1,.641.242.854.854,0,0,1,.219.594.826.826,0,0,1-.219.586.834.834,0,0,1-.641.234.821.821,0,0,1-.637-.234A.834.834,0,0,1,22.047-10.7ZM33.078-4.133a5.026,5.026,0,0,1-.891,3.113A2.846,2.846,0,0,1,29.8.156,2.947,2.947,0,0,1,27.32-.977L27.25,0H25.922V-12h1.445v4.477a2.93,2.93,0,0,1,2.414-1.086A2.863,2.863,0,0,1,32.2-7.445a5.177,5.177,0,0,1,.879,3.188ZM31.633-4.3a3.906,3.906,0,0,0-.57-2.281,1.888,1.888,0,0,0-1.641-.8,2.122,2.122,0,0,0-2.055,1.328V-2.4a2.181,2.181,0,0,0,2.07,1.328,1.878,1.878,0,0,0,1.617-.8A4.153,4.153,0,0,0,31.633-4.3ZM40.117-.836a3.07,3.07,0,0,1-2.477.992,2.628,2.628,0,0,1-2.059-.785,3.4,3.4,0,0,1-.715-2.324v-5.5h1.445v5.461q0,1.922,1.563,1.922a2.163,2.163,0,0,0,2.2-1.234V-8.453h1.445V0H40.148ZM45.68-10.5v2.047h1.578v1.117H45.68v5.249a1.173,1.173,0,0,0,.211.763.888.888,0,0,0,.719.254,3.5,3.5,0,0,0,.688-.094V0a4.215,4.215,0,0,1-1.109.155A1.8,1.8,0,0,1,44.727-.43a2.517,2.517,0,0,1-.492-1.664V-7.336H42.7V-8.453h1.539V-10.5Zm2.727,6.2a4.993,4.993,0,0,1,.488-2.234A3.643,3.643,0,0,1,50.254-8.07a3.7,3.7,0,0,1,1.988-.539,3.565,3.565,0,0,1,2.793,1.2A4.6,4.6,0,0,1,56.1-4.234v.1a5.036,5.036,0,0,1-.473,2.215A3.589,3.589,0,0,1,54.277-.391a3.743,3.743,0,0,1-2.02.547,3.556,3.556,0,0,1-2.785-1.2A4.575,4.575,0,0,1,48.406-4.2Zm1.453.172a3.616,3.616,0,0,0,.652,2.258,2.088,2.088,0,0,0,1.746.852,2.075,2.075,0,0,0,1.75-.863A3.955,3.955,0,0,0,54.656-4.3,3.61,3.61,0,0,0,54-6.559a2.1,2.1,0,0,0-1.754-.863,2.075,2.075,0,0,0-1.727.852A3.925,3.925,0,0,0,49.859-4.133ZM62.836-2.242a1.064,1.064,0,0,0-.441-.91,4.249,4.249,0,0,0-1.539-.559,7.277,7.277,0,0,1-1.742-.562,2.479,2.479,0,0,1-.953-.781,1.869,1.869,0,0,1-.309-1.078,2.193,2.193,0,0,1,.879-1.758,3.432,3.432,0,0,1,2.246-.719,3.532,3.532,0,0,1,2.332.742,2.357,2.357,0,0,1,.895,1.9H62.75a1.3,1.3,0,0,0-.5-1.023,1.888,1.888,0,0,0-1.27-.43,1.976,1.976,0,0,0-1.234.344,1.082,1.082,0,0,0-.445.9.877.877,0,0,0,.414.789,5.1,5.1,0,0,0,1.5.508,7.8,7.8,0,0,1,1.754.578,2.558,2.558,0,0,1,1,.809,1.988,1.988,0,0,1,.324,1.152,2.163,2.163,0,0,1-.906,1.816,3.8,3.8,0,0,1-2.352.684,4.257,4.257,0,0,1-1.8-.359,2.922,2.922,0,0,1-1.223-1A2.42,2.42,0,0,1,57.563-2.6h1.445a1.5,1.5,0,0,0,.582,1.152,2.258,2.258,0,0,0,1.434.426,2.331,2.331,0,0,0,1.316-.332A1.02,1.02,0,0,0,62.836-2.242Z" transform="translate(394 1243)" fill="#12263f"/>
      <path id="Trazado_829570" data-name="Trazado 829570" d="M-5747-10591.5h-72" transform="translate(6924 11687)" fill="none" stroke="#707070" stroke-width="1"/>
      <path id="Trazado_829571" data-name="Trazado 829571" d="M-5642-10714.73l-133.109,97.512" transform="translate(6808.109 11687)" fill="none" stroke="#707070" stroke-width="1"/>
      <path id="Trazado_829572" data-name="Trazado 829572" d="M-5642-10617.219l-133.109-97.512" transform="translate(6808.109 11841.73)" fill="none" stroke="#707070" stroke-width="1"/>
      <ellipse id="Elipse_9994" data-name="Elipse 9994" cx="69" cy="31.5" rx="69" ry="31.5" transform="translate(1154 1064)" fill="#ffe888"/>
      <path id="Trazado_829993" data-name="Trazado 829993" d="M7.6-2.977H2.836L1.766,0H.219L4.563-11.375H5.875L10.227,0H8.688ZM3.289-4.2H7.156L5.219-9.523Zm10.07-6.3v2.047h1.578v1.117H13.359v5.249a1.173,1.173,0,0,0,.211.763.888.888,0,0,0,.719.254,3.5,3.5,0,0,0,.688-.094V0a4.215,4.215,0,0,1-1.109.155A1.8,1.8,0,0,1,12.406-.43a2.517,2.517,0,0,1-.492-1.664V-7.336H10.375V-8.453h1.539V-10.5Zm7.352,3.344A4.331,4.331,0,0,0,20-7.211,1.9,1.9,0,0,0,18.07-6V0H16.625V-8.453h1.406l.023.977A2.251,2.251,0,0,1,20.07-8.609a1.477,1.477,0,0,1,.641.109ZM23.609,0H22.164V-8.453h1.445ZM22.047-10.7a.863.863,0,0,1,.215-.594.807.807,0,0,1,.637-.242.819.819,0,0,1,.641.242.854.854,0,0,1,.219.594.826.826,0,0,1-.219.586.834.834,0,0,1-.641.234.821.821,0,0,1-.637-.234A.834.834,0,0,1,22.047-10.7ZM33.078-4.133a5.026,5.026,0,0,1-.891,3.113A2.846,2.846,0,0,1,29.8.156,2.947,2.947,0,0,1,27.32-.977L27.25,0H25.922V-12h1.445v4.477a2.93,2.93,0,0,1,2.414-1.086A2.863,2.863,0,0,1,32.2-7.445a5.177,5.177,0,0,1,.879,3.188ZM31.633-4.3a3.906,3.906,0,0,0-.57-2.281,1.888,1.888,0,0,0-1.641-.8,2.122,2.122,0,0,0-2.055,1.328V-2.4a2.181,2.181,0,0,0,2.07,1.328,1.878,1.878,0,0,0,1.617-.8A4.153,4.153,0,0,0,31.633-4.3ZM40.117-.836a3.07,3.07,0,0,1-2.477.992,2.628,2.628,0,0,1-2.059-.785,3.4,3.4,0,0,1-.715-2.324v-5.5h1.445v5.461q0,1.922,1.563,1.922a2.163,2.163,0,0,0,2.2-1.234V-8.453h1.445V0H40.148ZM45.68-10.5v2.047h1.578v1.117H45.68v5.249a1.173,1.173,0,0,0,.211.763.888.888,0,0,0,.719.254,3.5,3.5,0,0,0,.688-.094V0a4.215,4.215,0,0,1-1.109.155A1.8,1.8,0,0,1,44.727-.43a2.517,2.517,0,0,1-.492-1.664V-7.336H42.7V-8.453h1.539V-10.5Zm2.727,6.2a4.993,4.993,0,0,1,.488-2.234A3.643,3.643,0,0,1,50.254-8.07a3.7,3.7,0,0,1,1.988-.539,3.565,3.565,0,0,1,2.793,1.2A4.6,4.6,0,0,1,56.1-4.234v.1a5.036,5.036,0,0,1-.473,2.215A3.589,3.589,0,0,1,54.277-.391a3.743,3.743,0,0,1-2.02.547,3.556,3.556,0,0,1-2.785-1.2A4.575,4.575,0,0,1,48.406-4.2Zm1.453.172a3.616,3.616,0,0,0,.652,2.258,2.088,2.088,0,0,0,1.746.852,2.075,2.075,0,0,0,1.75-.863A3.955,3.955,0,0,0,54.656-4.3,3.61,3.61,0,0,0,54-6.559a2.1,2.1,0,0,0-1.754-.863,2.075,2.075,0,0,0-1.727.852A3.925,3.925,0,0,0,49.859-4.133ZM62.836-2.242a1.064,1.064,0,0,0-.441-.91,4.249,4.249,0,0,0-1.539-.559,7.277,7.277,0,0,1-1.742-.562,2.479,2.479,0,0,1-.953-.781,1.869,1.869,0,0,1-.309-1.078,2.193,2.193,0,0,1,.879-1.758,3.432,3.432,0,0,1,2.246-.719,3.532,3.532,0,0,1,2.332.742,2.357,2.357,0,0,1,.895,1.9H62.75a1.3,1.3,0,0,0-.5-1.023,1.888,1.888,0,0,0-1.27-.43,1.976,1.976,0,0,0-1.234.344,1.082,1.082,0,0,0-.445.9.877.877,0,0,0,.414.789,5.1,5.1,0,0,0,1.5.508,7.8,7.8,0,0,1,1.754.578,2.558,2.558,0,0,1,1,.809,1.988,1.988,0,0,1,.324,1.152,2.163,2.163,0,0,1-.906,1.816,3.8,3.8,0,0,1-2.352.684,4.257,4.257,0,0,1-1.8-.359,2.922,2.922,0,0,1-1.223-1A2.42,2.42,0,0,1,57.563-2.6h1.445a1.5,1.5,0,0,0,.582,1.152,2.258,2.258,0,0,0,1.434.426,2.331,2.331,0,0,0,1.316-.332A1.02,1.02,0,0,0,62.836-2.242Z" transform="translate(1191 1101)" fill="#12263f"/>
      <rect id="Rectángulo_383311" data-name="Rectángulo 383311" width="190" height="58" transform="translate(495 1069)" fill="#273a89"/>
      <path id="Trazado_829989" data-name="Trazado 829989" d="M7.75-5.258H2.82v4.031H8.547V0H1.32V-11.375H8.469v1.227H2.82v3.664H7.75Zm3.8-3.2L11.6-7.391a3.08,3.08,0,0,1,2.531-1.219q2.68,0,2.7,3.023V0H15.391V-5.594a1.946,1.946,0,0,0-.418-1.352A1.675,1.675,0,0,0,13.7-7.383a2.086,2.086,0,0,0-1.234.375,2.546,2.546,0,0,0-.828.984V0H10.188V-8.453ZM20.977-10.5v2.047h1.578v1.117H20.977v5.249a1.173,1.173,0,0,0,.211.763.888.888,0,0,0,.719.254,3.5,3.5,0,0,0,.688-.094V0a4.215,4.215,0,0,1-1.109.155A1.8,1.8,0,0,1,20.023-.43a2.517,2.517,0,0,1-.492-1.664V-7.336H17.992V-8.453h1.539V-10.5ZM25.813,0H24.367V-8.453h1.445ZM24.25-10.7a.863.863,0,0,1,.215-.594.807.807,0,0,1,.637-.242.819.819,0,0,1,.641.242.854.854,0,0,1,.219.594.826.826,0,0,1-.219.586.834.834,0,0,1-.641.234.821.821,0,0,1-.637-.234A.834.834,0,0,1,24.25-10.7Zm3.523,6.4A4.952,4.952,0,0,1,28.7-7.426a2.915,2.915,0,0,1,2.414-1.184,2.932,2.932,0,0,1,2.352,1.016V-12h1.445V0H33.578l-.07-.906A2.943,2.943,0,0,1,31.094.156a2.887,2.887,0,0,1-2.395-1.2,5.008,5.008,0,0,1-.926-3.141Zm1.445.164a3.749,3.749,0,0,0,.594,2.25,1.92,1.92,0,0,0,1.641.813A2.108,2.108,0,0,0,33.461-2.3V-6.187a2.125,2.125,0,0,0-1.992-1.2,1.929,1.929,0,0,0-1.656.82A4.128,4.128,0,0,0,29.219-4.133ZM42.367,0a3.036,3.036,0,0,1-.2-.891A3.225,3.225,0,0,1,39.758.156a2.984,2.984,0,0,1-2.051-.707,2.287,2.287,0,0,1-.8-1.793,2.39,2.39,0,0,1,1-2.051,4.733,4.733,0,0,1,2.824-.73h1.406v-.664A1.623,1.623,0,0,0,41.688-7a1.821,1.821,0,0,0-1.336-.449,2.107,2.107,0,0,0-1.3.391,1.151,1.151,0,0,0-.523.945H37.078a2,2,0,0,1,.449-1.223,3.066,3.066,0,0,1,1.219-.934,4.1,4.1,0,0,1,1.691-.344,3.342,3.342,0,0,1,2.289.73,2.635,2.635,0,0,1,.859,2.012v3.891a4.757,4.757,0,0,0,.3,1.852V0Zm-2.4-1.1a2.54,2.54,0,0,0,1.289-.352,2.127,2.127,0,0,0,.883-.914V-4.1H41.008q-2.656,0-2.656,1.555A1.316,1.316,0,0,0,38.8-1.484,1.742,1.742,0,0,0,39.969-1.1ZM45.5-4.3a4.952,4.952,0,0,1,.922-3.129,2.915,2.915,0,0,1,2.414-1.184,2.932,2.932,0,0,1,2.352,1.016V-12h1.445V0H51.3l-.07-.906A2.943,2.943,0,0,1,48.82.156a2.887,2.887,0,0,1-2.395-1.2A5.008,5.008,0,0,1,45.5-4.187Zm1.445.164a3.749,3.749,0,0,0,.594,2.25,1.92,1.92,0,0,0,1.641.813A2.108,2.108,0,0,0,51.188-2.3V-6.187a2.125,2.125,0,0,0-1.992-1.2,1.929,1.929,0,0,0-1.656.82A4.128,4.128,0,0,0,46.945-4.133ZM60.094,0a3.036,3.036,0,0,1-.2-.891A3.225,3.225,0,0,1,57.484.156a2.984,2.984,0,0,1-2.051-.707,2.287,2.287,0,0,1-.8-1.793,2.39,2.39,0,0,1,1-2.051,4.733,4.733,0,0,1,2.824-.73h1.406v-.664A1.623,1.623,0,0,0,59.414-7a1.821,1.821,0,0,0-1.336-.449,2.107,2.107,0,0,0-1.3.391,1.151,1.151,0,0,0-.523.945H54.8a2,2,0,0,1,.449-1.223,3.066,3.066,0,0,1,1.219-.934,4.1,4.1,0,0,1,1.691-.344,3.342,3.342,0,0,1,2.289.73,2.635,2.635,0,0,1,.859,2.012v3.891a4.757,4.757,0,0,0,.3,1.852V0ZM57.7-1.1a2.54,2.54,0,0,0,1.289-.352,2.127,2.127,0,0,0,.883-.914V-4.1H58.734q-2.656,0-2.656,1.555a1.316,1.316,0,0,0,.453,1.063A1.742,1.742,0,0,0,57.7-1.1Zm5.531-3.2a4.952,4.952,0,0,1,.922-3.129,2.915,2.915,0,0,1,2.414-1.184,2.932,2.932,0,0,1,2.352,1.016V-12h1.445V0H69.031l-.07-.906A2.943,2.943,0,0,1,66.547.156a2.887,2.887,0,0,1-2.395-1.2,5.008,5.008,0,0,1-.926-3.141Zm1.445.164a3.749,3.749,0,0,0,.594,2.25,1.92,1.92,0,0,0,1.641.813A2.109,2.109,0,0,0,68.914-2.3V-6.187a2.125,2.125,0,0,0-1.992-1.2,1.929,1.929,0,0,0-1.656.82A4.128,4.128,0,0,0,64.672-4.133Z" transform="translate(554 1104)" fill="#fff"/>
      <path id="Trazado_829566" data-name="Trazado 829566" d="M-5537-10598c2.184-.109,95.3-37.051,95.3-37.051L-5347-10598l-93.7,38.979Z" transform="translate(6242 11692.536)" fill="#3ee2a8"/>
      <path id="Trazado_829990" data-name="Trazado 829990" d="M5.492-4.6H2.82V0H1.313V-11.375H5.078a4.457,4.457,0,0,1,2.957.875A3.148,3.148,0,0,1,9.07-7.953,3.062,3.062,0,0,1,8.5-6.1a3.428,3.428,0,0,1-1.6,1.18L9.57-.094V0H7.961ZM2.82-5.828h2.3A2.6,2.6,0,0,0,6.9-6.407a1.959,1.959,0,0,0,.66-1.55,2.062,2.062,0,0,0-.629-1.62,2.663,2.663,0,0,0-1.816-.571H2.82ZM14.453.156a3.693,3.693,0,0,1-2.8-1.129,4.19,4.19,0,0,1-1.078-3.02v-.266a5.073,5.073,0,0,1,.48-2.246A3.748,3.748,0,0,1,12.4-8.051a3.378,3.378,0,0,1,1.871-.559,3.166,3.166,0,0,1,2.563,1.086,4.7,4.7,0,0,1,.914,3.109v.6H12.023a3,3,0,0,0,.73,2.02,2.3,2.3,0,0,0,1.777.77,2.517,2.517,0,0,0,1.3-.312,3.259,3.259,0,0,0,.93-.828l.883.688A3.55,3.55,0,0,1,14.453.156Zm-.18-7.578a1.928,1.928,0,0,0-1.469.637A3.1,3.1,0,0,0,12.07-5H16.3v-.109a2.753,2.753,0,0,0-.594-1.707A1.815,1.815,0,0,0,14.273-7.422ZM20.992,0H19.547V-12h1.445Zm7.531,0a3.036,3.036,0,0,1-.2-.891A3.225,3.225,0,0,1,25.914.156a2.984,2.984,0,0,1-2.051-.707,2.287,2.287,0,0,1-.8-1.793,2.39,2.39,0,0,1,1-2.051,4.733,4.733,0,0,1,2.824-.73H28.3v-.664A1.623,1.623,0,0,0,27.844-7a1.821,1.821,0,0,0-1.336-.449,2.108,2.108,0,0,0-1.3.391,1.151,1.151,0,0,0-.523.945H23.234a2,2,0,0,1,.449-1.223A3.066,3.066,0,0,1,24.9-8.266a4.1,4.1,0,0,1,1.691-.344,3.342,3.342,0,0,1,2.289.73,2.635,2.635,0,0,1,.859,2.012v3.891a4.757,4.757,0,0,0,.3,1.852V0Zm-2.4-1.1a2.54,2.54,0,0,0,1.289-.352,2.127,2.127,0,0,0,.883-.914V-4.1H27.164q-2.656,0-2.656,1.555a1.316,1.316,0,0,0,.453,1.063A1.742,1.742,0,0,0,26.125-1.1Zm9.273.078a2.082,2.082,0,0,0,1.352-.469,1.649,1.649,0,0,0,.641-1.172h1.367a2.621,2.621,0,0,1-.5,1.383,3.293,3.293,0,0,1-1.23,1.047A3.55,3.55,0,0,1,35.4.156,3.482,3.482,0,0,1,32.652-1a4.59,4.59,0,0,1-1.02-3.152v-.242a5.089,5.089,0,0,1,.453-2.2,3.451,3.451,0,0,1,1.3-1.492,3.7,3.7,0,0,1,2-.531,3.39,3.39,0,0,1,2.363.852,3.043,3.043,0,0,1,1,2.211H37.391a1.992,1.992,0,0,0-.621-1.348,1.932,1.932,0,0,0-1.379-.527,2.023,2.023,0,0,0-1.707.793,3.724,3.724,0,0,0-.605,2.293v.273a3.65,3.65,0,0,0,.6,2.25A2.033,2.033,0,0,0,35.4-1.023ZM41.953,0H40.508V-8.453h1.445ZM40.391-10.7a.863.863,0,0,1,.215-.594.807.807,0,0,1,.637-.242.819.819,0,0,1,.641.242.854.854,0,0,1,.219.594.826.826,0,0,1-.219.586.834.834,0,0,1-.641.234.821.821,0,0,1-.637-.234A.834.834,0,0,1,40.391-10.7ZM43.883-4.3a4.993,4.993,0,0,1,.488-2.234A3.643,3.643,0,0,1,45.73-8.07a3.7,3.7,0,0,1,1.988-.539,3.565,3.565,0,0,1,2.793,1.2,4.6,4.6,0,0,1,1.066,3.18v.1a5.036,5.036,0,0,1-.473,2.215A3.589,3.589,0,0,1,49.754-.391a3.743,3.743,0,0,1-2.02.547,3.556,3.556,0,0,1-2.785-1.2A4.575,4.575,0,0,1,43.883-4.2Zm1.453.172a3.616,3.616,0,0,0,.652,2.258,2.088,2.088,0,0,0,1.746.852,2.075,2.075,0,0,0,1.75-.863A3.955,3.955,0,0,0,50.133-4.3a3.61,3.61,0,0,0-.66-2.254,2.1,2.1,0,0,0-1.754-.863,2.075,2.075,0,0,0-1.727.852A3.925,3.925,0,0,0,45.336-4.133Zm9.422-4.32L54.8-7.391a3.08,3.08,0,0,1,2.531-1.219q2.68,0,2.7,3.023V0H58.594V-5.594a1.946,1.946,0,0,0-.418-1.352A1.675,1.675,0,0,0,56.9-7.383a2.086,2.086,0,0,0-1.234.375,2.546,2.546,0,0,0-.828.984V0H53.391V-8.453ZM65.727.156a3.693,3.693,0,0,1-2.8-1.129,4.19,4.19,0,0,1-1.078-3.02v-.266a5.073,5.073,0,0,1,.48-2.246,3.748,3.748,0,0,1,1.344-1.547,3.378,3.378,0,0,1,1.871-.559,3.166,3.166,0,0,1,2.563,1.086,4.7,4.7,0,0,1,.914,3.109v.6H63.3a3,3,0,0,0,.73,2.02,2.3,2.3,0,0,0,1.777.77,2.517,2.517,0,0,0,1.3-.312,3.259,3.259,0,0,0,.93-.828l.883.688A3.55,3.55,0,0,1,65.727.156Zm-.18-7.578a1.928,1.928,0,0,0-1.469.637A3.1,3.1,0,0,0,63.344-5h4.234v-.109a2.753,2.753,0,0,0-.594-1.707A1.815,1.815,0,0,0,65.547-7.422Zm10.07,5.18a1.064,1.064,0,0,0-.441-.91,4.249,4.249,0,0,0-1.539-.559,7.277,7.277,0,0,1-1.742-.562,2.479,2.479,0,0,1-.953-.781,1.869,1.869,0,0,1-.309-1.078,2.193,2.193,0,0,1,.879-1.758,3.432,3.432,0,0,1,2.246-.719,3.532,3.532,0,0,1,2.332.742,2.357,2.357,0,0,1,.895,1.9H75.531a1.3,1.3,0,0,0-.5-1.023,1.888,1.888,0,0,0-1.27-.43,1.976,1.976,0,0,0-1.234.344,1.082,1.082,0,0,0-.445.9.877.877,0,0,0,.414.789,5.1,5.1,0,0,0,1.5.508,7.8,7.8,0,0,1,1.754.578,2.558,2.558,0,0,1,1,.809,1.988,1.988,0,0,1,.324,1.152,2.163,2.163,0,0,1-.906,1.816A3.8,3.8,0,0,1,73.8.156a4.257,4.257,0,0,1-1.8-.359,2.922,2.922,0,0,1-1.223-1A2.42,2.42,0,0,1,70.344-2.6h1.445a1.5,1.5,0,0,0,.582,1.152,2.258,2.258,0,0,0,1.434.426,2.331,2.331,0,0,0,1.316-.332A1.02,1.02,0,0,0,75.617-2.242Z" transform="translate(764 1101.536)"/>
      <rect id="Rectángulo_383313" data-name="Rectángulo 383313" width="190" height="58" transform="translate(915 1069)" fill="#273a89"/>
      <path id="Trazado_829992" data-name="Trazado 829992" d="M7.75-5.258H2.82v4.031H8.547V0H1.32V-11.375H8.469v1.227H2.82v3.664H7.75Zm3.8-3.2L11.6-7.391a3.08,3.08,0,0,1,2.531-1.219q2.68,0,2.7,3.023V0H15.391V-5.594a1.946,1.946,0,0,0-.418-1.352A1.675,1.675,0,0,0,13.7-7.383a2.086,2.086,0,0,0-1.234.375,2.546,2.546,0,0,0-.828.984V0H10.188V-8.453ZM20.977-10.5v2.047h1.578v1.117H20.977v5.249a1.173,1.173,0,0,0,.211.763.888.888,0,0,0,.719.254,3.5,3.5,0,0,0,.688-.094V0a4.215,4.215,0,0,1-1.109.155A1.8,1.8,0,0,1,20.023-.43a2.517,2.517,0,0,1-.492-1.664V-7.336H17.992V-8.453h1.539V-10.5ZM25.813,0H24.367V-8.453h1.445ZM24.25-10.7a.863.863,0,0,1,.215-.594.807.807,0,0,1,.637-.242.819.819,0,0,1,.641.242.854.854,0,0,1,.219.594.826.826,0,0,1-.219.586.834.834,0,0,1-.641.234.821.821,0,0,1-.637-.234A.834.834,0,0,1,24.25-10.7Zm3.523,6.4A4.952,4.952,0,0,1,28.7-7.426a2.915,2.915,0,0,1,2.414-1.184,2.932,2.932,0,0,1,2.352,1.016V-12h1.445V0H33.578l-.07-.906A2.943,2.943,0,0,1,31.094.156a2.887,2.887,0,0,1-2.395-1.2,5.008,5.008,0,0,1-.926-3.141Zm1.445.164a3.749,3.749,0,0,0,.594,2.25,1.92,1.92,0,0,0,1.641.813A2.108,2.108,0,0,0,33.461-2.3V-6.187a2.125,2.125,0,0,0-1.992-1.2,1.929,1.929,0,0,0-1.656.82A4.128,4.128,0,0,0,29.219-4.133ZM42.367,0a3.036,3.036,0,0,1-.2-.891A3.225,3.225,0,0,1,39.758.156a2.984,2.984,0,0,1-2.051-.707,2.287,2.287,0,0,1-.8-1.793,2.39,2.39,0,0,1,1-2.051,4.733,4.733,0,0,1,2.824-.73h1.406v-.664A1.623,1.623,0,0,0,41.688-7a1.821,1.821,0,0,0-1.336-.449,2.107,2.107,0,0,0-1.3.391,1.151,1.151,0,0,0-.523.945H37.078a2,2,0,0,1,.449-1.223,3.066,3.066,0,0,1,1.219-.934,4.1,4.1,0,0,1,1.691-.344,3.342,3.342,0,0,1,2.289.73,2.635,2.635,0,0,1,.859,2.012v3.891a4.757,4.757,0,0,0,.3,1.852V0Zm-2.4-1.1a2.54,2.54,0,0,0,1.289-.352,2.127,2.127,0,0,0,.883-.914V-4.1H41.008q-2.656,0-2.656,1.555A1.316,1.316,0,0,0,38.8-1.484,1.742,1.742,0,0,0,39.969-1.1ZM45.5-4.3a4.952,4.952,0,0,1,.922-3.129,2.915,2.915,0,0,1,2.414-1.184,2.932,2.932,0,0,1,2.352,1.016V-12h1.445V0H51.3l-.07-.906A2.943,2.943,0,0,1,48.82.156a2.887,2.887,0,0,1-2.395-1.2A5.008,5.008,0,0,1,45.5-4.187Zm1.445.164a3.749,3.749,0,0,0,.594,2.25,1.92,1.92,0,0,0,1.641.813A2.108,2.108,0,0,0,51.188-2.3V-6.187a2.125,2.125,0,0,0-1.992-1.2,1.929,1.929,0,0,0-1.656.82A4.128,4.128,0,0,0,46.945-4.133ZM60.094,0a3.036,3.036,0,0,1-.2-.891A3.225,3.225,0,0,1,57.484.156a2.984,2.984,0,0,1-2.051-.707,2.287,2.287,0,0,1-.8-1.793,2.39,2.39,0,0,1,1-2.051,4.733,4.733,0,0,1,2.824-.73h1.406v-.664A1.623,1.623,0,0,0,59.414-7a1.821,1.821,0,0,0-1.336-.449,2.107,2.107,0,0,0-1.3.391,1.151,1.151,0,0,0-.523.945H54.8a2,2,0,0,1,.449-1.223,3.066,3.066,0,0,1,1.219-.934,4.1,4.1,0,0,1,1.691-.344,3.342,3.342,0,0,1,2.289.73,2.635,2.635,0,0,1,.859,2.012v3.891a4.757,4.757,0,0,0,.3,1.852V0ZM57.7-1.1a2.54,2.54,0,0,0,1.289-.352,2.127,2.127,0,0,0,.883-.914V-4.1H58.734q-2.656,0-2.656,1.555a1.316,1.316,0,0,0,.453,1.063A1.742,1.742,0,0,0,57.7-1.1Zm5.531-3.2a4.952,4.952,0,0,1,.922-3.129,2.915,2.915,0,0,1,2.414-1.184,2.932,2.932,0,0,1,2.352,1.016V-12h1.445V0H69.031l-.07-.906A2.943,2.943,0,0,1,66.547.156a2.887,2.887,0,0,1-2.395-1.2,5.008,5.008,0,0,1-.926-3.141Zm1.445.164a3.749,3.749,0,0,0,.594,2.25,1.92,1.92,0,0,0,1.641.813A2.109,2.109,0,0,0,68.914-2.3V-6.187a2.125,2.125,0,0,0-1.992-1.2,1.929,1.929,0,0,0-1.656.82A4.128,4.128,0,0,0,64.672-4.133Z" transform="translate(974 1104)" fill="#fff"/>
    </g>
  </g>
</svg>
