<svg xmlns="http://www.w3.org/2000/svg" xmlns:xlink="http://www.w3.org/1999/xlink" width="190" height="145" viewBox="0 0 190 145">
  <defs>
    <clipPath id="clip-path">
      <rect id="Rectángulo_383377" data-name="Rectángulo 383377" width="91.464" height="89.796" fill="none"/>
    </clipPath>
  </defs>
  <g id="_25" data-name="25" transform="translate(-285 -4688)">
    <rect id="Rectángulo_383372" data-name="Rectángulo 383372" width="190" height="145" rx="8" transform="translate(285 4688)" fill="#273a89"/>
    <g id="Grupo_1095140" data-name="Grupo 1095140" transform="translate(0 -33)">
      <g id="Grupo_1095139" data-name="Grupo 1095139" transform="translate(317.828 4748.602)">
        <rect id="Rectángulo_383373" data-name="Rectángulo 383373" width="83.734" height="65.358" transform="translate(3.865)" fill="#ffce00"/>
        <g id="Grupo_1095138" data-name="Grupo 1095138">
          <g id="Grupo_1095137" data-name="Grupo 1095137" clip-path="url(#clip-path)">
            <path id="Trazado_829632" data-name="Trazado 829632" d="M0,76.035l.4,55.076,80.172-.577c6.064-.044,10.942-5.333,10.9-11.814l-.312-43.341L45.78,104.122Z" transform="translate(0 -41.314)" fill="#3ee2a8"/>
            <rect id="Rectángulo_383374" data-name="Rectángulo 383374" width="61.984" height="1.335" transform="translate(19.015 12.162)" fill="#f7f7f7"/>
            <rect id="Rectángulo_383375" data-name="Rectángulo 383375" width="70.534" height="1.385" transform="translate(10.465 22.565)" fill="#f7f7f7"/>
            <rect id="Rectángulo_383376" data-name="Rectángulo 383376" width="70.534" height="1.385" transform="translate(10.465 32.993)" fill="#f7f7f7"/>
          </g>
        </g>
      </g>
      <path id="Trazado_829633" data-name="Trazado 829633" d="M31.4-9.069a12.049,12.049,0,0,1-2.168,6.9A6.258,6.258,0,0,1,24.01.361a4.1,4.1,0,0,1-4.336-3.035A6.878,6.878,0,0,1,17.443-.388a4.993,4.993,0,0,1-2.593.75,4.3,4.3,0,0,1-3.884-2.1,9.2,9.2,0,0,1-.976-5.8,15.883,15.883,0,0,1,1.364-5.321,9.771,9.771,0,0,1,2.818-3.677A5.831,5.831,0,0,1,17.8-17.868a8.2,8.2,0,0,1,2.62.388,9.057,9.057,0,0,1,2.6,1.527L22.077-5.944q-.343,4.173,2.313,4.173A3.783,3.783,0,0,0,27.7-3.794a10.512,10.512,0,0,0,1.373-5.275q.343-7.028-2.611-10.713T17.47-23.468a11.734,11.734,0,0,0-6.45,1.8,12.241,12.241,0,0,0-4.444,5.194A20.076,20.076,0,0,0,4.751-8.636,18.643,18.643,0,0,0,5.835-.858,10.363,10.363,0,0,0,9.8,4.182a11.505,11.505,0,0,0,6.441,1.743,13.763,13.763,0,0,0,3.261-.4A10.186,10.186,0,0,0,22.222,4.5l.668,2.078a10.125,10.125,0,0,1-2.972,1.156,15.765,15.765,0,0,1-3.749.452A14.361,14.361,0,0,1,8.4,6.152,12.368,12.368,0,0,1,3.532.3a20.517,20.517,0,0,1-1.4-8.934A21.656,21.656,0,0,1,4.354-17.57a15.071,15.071,0,0,1,5.438-6.125,14.253,14.253,0,0,1,7.75-2.159,14.19,14.19,0,0,1,7.714,2.023,12.137,12.137,0,0,1,4.788,5.835A20.931,20.931,0,0,1,31.4-9.069ZM12.863-7.534A7.038,7.038,0,0,0,13.342-3.6a2.449,2.449,0,0,0,2.322,1.373,3.069,3.069,0,0,0,2.087-.921A6.773,6.773,0,0,0,19.4-5.781l.018-.163.831-9.087a4.647,4.647,0,0,0-2.168-.524,4.067,4.067,0,0,0-3.5,2.15A13.061,13.061,0,0,0,12.863-7.534Z" transform="translate(415.559 4783)" fill="#fff"/>
    </g>
  </g>
</svg>
