<svg xmlns="http://www.w3.org/2000/svg" xmlns:xlink="http://www.w3.org/1999/xlink" width="505" height="343" viewBox="0 0 505 343">
  <defs>
    <clipPath id="clip-path">
      <rect id="Rectángulo_383111" data-name="Rectángulo 383111" width="371.938" height="305.49" fill="#bae9d9"/>
    </clipPath>
    <clipPath id="clip-path-4">
      <rect id="Rectángulo_383151" data-name="Rectángulo 383151" width="153.674" height="304.286" fill="none"/>
    </clipPath>
    <clipPath id="clip-path-7">
      <rect id="Rectángulo_383146" data-name="Rectángulo 383146" width="7.658" height="5.149" transform="translate(0)" fill="none"/>
    </clipPath>
    <clipPath id="clip-path-8">
      <rect id="Rectángulo_383147" data-name="Rectángulo 383147" width="24.319" height="14.516" transform="translate(0)" fill="none"/>
    </clipPath>
    <clipPath id="clip-path-9">
      <rect id="Rectángulo_383148" data-name="Rectángulo 383148" width="25.729" height="63.833" transform="translate(0)" fill="none"/>
    </clipPath>
    <clipPath id="clip-path-10">
      <rect id="Rectángulo_383149" data-name="Rectángulo 383149" width="23.306" height="13.728" transform="translate(0)" fill="none"/>
    </clipPath>
    <clipPath id="clip-path-11">
      <rect id="Rectángulo_383159" data-name="Rectángulo 383159" width="68.614" height="82.199" fill="none"/>
    </clipPath>
    <clipPath id="clip-path-12">
      <rect id="Rectángulo_383155" data-name="Rectángulo 383155" width="68.613" height="82.2" fill="none"/>
    </clipPath>
    <clipPath id="clip-path-13">
      <rect id="Rectángulo_383154" data-name="Rectángulo 383154" width="61.205" height="75.897" fill="#273a89"/>
    </clipPath>
    <clipPath id="clip-path-14">
      <rect id="Rectángulo_383158" data-name="Rectángulo 383158" width="68.613" height="82.2" fill="#3ee2a8"/>
    </clipPath>
    <clipPath id="clip-path-15">
      <rect id="Rectángulo_383156" data-name="Rectángulo 383156" width="61.197" height="75.898" fill="#3ee2a8"/>
    </clipPath>
    <clipPath id="clip-path-16">
      <rect id="Rectángulo_383157" data-name="Rectángulo 383157" width="21.103" height="21.104" fill="#3ee2a8"/>
    </clipPath>
    <clipPath id="clip-path-17">
      <rect id="Rectángulo_383159-2" data-name="Rectángulo 383159" width="52.918" height="63.396" fill="none"/>
    </clipPath>
    <clipPath id="clip-path-18">
      <rect id="Rectángulo_383155-2" data-name="Rectángulo 383155" width="52.918" height="63.397" fill="none"/>
    </clipPath>
    <clipPath id="clip-path-19">
      <rect id="Rectángulo_383154-2" data-name="Rectángulo 383154" width="47.205" height="58.535" fill="#273a89"/>
    </clipPath>
    <clipPath id="clip-path-20">
      <rect id="Rectángulo_383158-2" data-name="Rectángulo 383158" width="52.918" height="63.397" fill="#3ee2a8"/>
    </clipPath>
    <clipPath id="clip-path-21">
      <rect id="Rectángulo_383156-2" data-name="Rectángulo 383156" width="47.198" height="58.537" fill="#3ee2a8"/>
    </clipPath>
    <clipPath id="clip-path-22">
      <rect id="Rectángulo_383157-2" data-name="Rectángulo 383157" width="16.276" height="16.276" fill="#3ee2a8"/>
    </clipPath>
    <clipPath id="clip-path-23">
      <rect id="Rectángulo_383159-3" data-name="Rectángulo 383159" width="45.387" height="54.374" fill="none"/>
    </clipPath>
    <clipPath id="clip-path-25">
      <rect id="Rectángulo_383154-3" data-name="Rectángulo 383154" width="40.487" height="50.205" fill="#273a89"/>
    </clipPath>
    <clipPath id="clip-path-26">
      <rect id="Rectángulo_383158-3" data-name="Rectángulo 383158" width="45.387" height="54.374" fill="#3ee2a8"/>
    </clipPath>
    <clipPath id="clip-path-27">
      <rect id="Rectángulo_383156-3" data-name="Rectángulo 383156" width="40.481" height="50.206" fill="#3ee2a8"/>
    </clipPath>
    <clipPath id="clip-path-28">
      <rect id="Rectángulo_383157-3" data-name="Rectángulo 383157" width="13.96" height="13.96" fill="#3ee2a8"/>
    </clipPath>
  </defs>
  <g id="_5" data-name="5" transform="translate(-180 -5015)">
    <g id="Grupo_1074816" data-name="Grupo 1074816" transform="translate(298.062 5017.143)">
      <g id="Grupo_1074815" data-name="Grupo 1074815" clip-path="url(#clip-path)">
        <g id="Grupo_1074814" data-name="Grupo 1074814">
          <g id="Grupo_1074813" data-name="Grupo 1074813" clip-path="url(#clip-path)">
            <path id="Trazado_824663" data-name="Trazado 824663" d="M27.325,30.339A87.241,87.241,0,0,1,37.3,20.673C63.148-.612,100.086-4.666,132.013,4.878s59.244,31.2,81.365,56.446c10.107,11.535,19.708,24.234,33.234,31.288,17.441,9.1,37.645,7.19,56.5,9.866,68.563,9.731,90.908,101.157,44.061,148.729-18.467,18.752-44.245,29.328-68.68,37.267-33.847,11-69.254,18.2-104.767,16.856s-71.247-11.655-99.849-33.067c-37.46-28.045-59.983-73.088-69.358-119.374-4.745-23.424-6.431-47.8-1.723-71.23C6.579,62.82,14.758,44.591,27.325,30.339" transform="translate(0 0)" fill="#bae9d9"/>
            <g id="Grupo_1074812" data-name="Grupo 1074812" transform="translate(0)" opacity="0.7">
              <g id="Grupo_1074811" data-name="Grupo 1074811">
                <g id="Grupo_1074810" data-name="Grupo 1074810" clip-path="url(#clip-path)">
                  <path id="Trazado_824664" data-name="Trazado 824664" d="M303.113,102.478c-18.855-2.676-39.059-.77-56.5-9.866-13.527-7.054-23.127-19.754-33.234-31.288-22.122-25.246-49.439-46.9-81.365-56.446S63.148-.613,37.3,20.673a87.233,87.233,0,0,0-9.974,9.666C14.758,44.591,6.58,62.82,2.8,81.659c-4.707,23.432-3.021,47.806,1.722,71.23,9.375,46.285,31.9,91.329,69.358,119.374,28.6,21.413,64.336,31.721,99.85,33.066s70.92-5.858,104.767-16.855c24.435-7.939,50.212-18.514,68.68-37.267,46.847-47.572,24.5-139-44.061-148.729" transform="translate(0 0)" fill="#bae9d9"/>
                </g>
              </g>
            </g>
          </g>
        </g>
      </g>
    </g>
    <rect id="Rectángulo_383112" data-name="Rectángulo 383112" width="495" height="343" transform="translate(190 5015)" fill="none"/>
    <g id="Grupo_1074836" data-name="Grupo 1074836" transform="translate(446.326 5034.171)">
      <g id="Grupo_1074835" data-name="Grupo 1074835" clip-path="url(#clip-path-4)">
        <rect id="Rectángulo_383128" data-name="Rectángulo 383128" width="112.706" height="123.657" transform="translate(21.075 173.541)" fill="#263238"/>
        <rect id="Rectángulo_383129" data-name="Rectángulo 383129" width="123.209" height="30.568" transform="translate(27.028 198.273)" fill="#ffce00"/>
        <rect id="Rectángulo_383130" data-name="Rectángulo 383130" width="24.259" height="3.732" transform="translate(120.507 204.569)" fill="#263238"/>
        <rect id="Rectángulo_383131" data-name="Rectángulo 383131" width="24.259" height="3.732" transform="translate(120.507 210.991)" fill="#263238"/>
        <rect id="Rectángulo_383132" data-name="Rectángulo 383132" width="24.259" height="3.732" transform="translate(120.507 217.632)" fill="#263238"/>
        <g id="Grupo_1074820" data-name="Grupo 1074820">
          <g id="Grupo_1074819" data-name="Grupo 1074819" clip-path="url(#clip-path-4)">
            <path id="Trazado_824672" data-name="Trazado 824672" d="M39.977,206.824a1.391,1.391,0,1,0,1.392-1.392,1.392,1.392,0,0,0-1.392,1.392" transform="translate(70.937 0)" fill="#263238"/>
            <path id="Trazado_824673" data-name="Trazado 824673" d="M46.118,206.824a1.391,1.391,0,1,0,1.392-1.392,1.392,1.392,0,0,0-1.392,1.392" transform="translate(58.655 0)" fill="#263238"/>
            <path id="Trazado_824674" data-name="Trazado 824674" d="M52.259,206.824a1.392,1.392,0,1,0,1.391-1.392,1.392,1.392,0,0,0-1.391,1.392" transform="translate(46.373 0)" fill="#263238"/>
            <path id="Trazado_824675" data-name="Trazado 824675" d="M58.4,206.824a1.391,1.391,0,1,0,1.392-1.392,1.392,1.392,0,0,0-1.392,1.392" transform="translate(34.089 0)" fill="#263238"/>
            <path id="Trazado_824676" data-name="Trazado 824676" d="M105.99,206.824a1.392,1.392,0,1,0,1.392-1.392,1.392,1.392,0,0,0-1.392,1.392" transform="translate(-61.089 0)" fill="#263238"/>
            <path id="Trazado_824677" data-name="Trazado 824677" d="M112.252,206.824a1.392,1.392,0,1,0,1.392-1.392,1.392,1.392,0,0,0-1.392,1.392" transform="translate(-73.613 0)" fill="#263238"/>
            <path id="Trazado_824678" data-name="Trazado 824678" d="M64.542,206.824a1.391,1.391,0,1,0,1.392-1.392,1.392,1.392,0,0,0-1.392,1.392" transform="translate(21.807 0)" fill="#263238"/>
            <path id="Trazado_824679" data-name="Trazado 824679" d="M94.7,206.824a1.391,1.391,0,1,0,1.392-1.392,1.392,1.392,0,0,0-1.392,1.392" transform="translate(-38.511 0)" fill="#263238"/>
            <path id="Trazado_824680" data-name="Trazado 824680" d="M70.683,206.824a1.392,1.392,0,1,0,1.392-1.392,1.392,1.392,0,0,0-1.392,1.392" transform="translate(9.525 0)" fill="#f5f5f5"/>
            <path id="Trazado_824681" data-name="Trazado 824681" d="M76.824,206.824a1.392,1.392,0,1,0,1.392-1.392,1.392,1.392,0,0,0-1.392,1.392" transform="translate(-2.757 0)" fill="#f5f5f5"/>
            <path id="Trazado_824682" data-name="Trazado 824682" d="M89.284,206.824a1.392,1.392,0,1,0,1.392-1.392,1.392,1.392,0,0,0-1.392,1.392" transform="translate(-27.677 0)" fill="#f5f5f5"/>
            <path id="Trazado_824683" data-name="Trazado 824683" d="M117.347,206.824a1.391,1.391,0,1,0,1.392-1.392,1.392,1.392,0,0,0-1.392,1.392" transform="translate(-83.803 0)" fill="#f5f5f5"/>
            <path id="Trazado_824684" data-name="Trazado 824684" d="M82.965,206.824a1.392,1.392,0,1,0,1.392-1.392,1.392,1.392,0,0,0-1.392,1.392" transform="translate(-15.039 0)" fill="#e8505b"/>
            <path id="Trazado_824685" data-name="Trazado 824685" d="M100.549,206.824a1.391,1.391,0,1,0,1.392-1.392,1.392,1.392,0,0,0-1.392,1.392" transform="translate(-50.207 0)" fill="#e8505b"/>
            <path id="Trazado_824686" data-name="Trazado 824686" d="M120.13,213.532a1.391,1.391,0,1,0-1.392,1.392,1.392,1.392,0,0,0,1.392-1.392" transform="translate(-83.803 0)" fill="#263238"/>
            <path id="Trazado_824687" data-name="Trazado 824687" d="M113.989,213.532a1.391,1.391,0,1,0-1.392,1.392,1.392,1.392,0,0,0,1.392-1.392" transform="translate(-71.521 0)" fill="#263238"/>
            <path id="Trazado_824688" data-name="Trazado 824688" d="M107.848,213.532a1.391,1.391,0,1,0-1.392,1.392,1.392,1.392,0,0,0,1.392-1.392" transform="translate(-59.239 0)" fill="#263238"/>
            <path id="Trazado_824689" data-name="Trazado 824689" d="M101.706,213.532a1.391,1.391,0,1,0-1.391,1.392,1.392,1.392,0,0,0,1.391-1.392" transform="translate(-46.956 0)" fill="#263238"/>
            <path id="Trazado_824690" data-name="Trazado 824690" d="M54.118,213.532a1.391,1.391,0,1,0-1.392,1.392,1.392,1.392,0,0,0,1.392-1.392" transform="translate(48.221 0)" fill="#263238"/>
            <path id="Trazado_824691" data-name="Trazado 824691" d="M47.855,213.532a1.392,1.392,0,1,0-1.392,1.392,1.392,1.392,0,0,0,1.392-1.392" transform="translate(60.747 0)" fill="#263238"/>
            <path id="Trazado_824692" data-name="Trazado 824692" d="M95.565,213.532a1.392,1.392,0,1,0-1.392,1.392,1.392,1.392,0,0,0,1.392-1.392" transform="translate(-34.673 0)" fill="#263238"/>
            <path id="Trazado_824693" data-name="Trazado 824693" d="M65.406,213.532a1.391,1.391,0,1,0-1.392,1.392,1.392,1.392,0,0,0,1.392-1.392" transform="translate(25.645 0)" fill="#263238"/>
            <path id="Trazado_824694" data-name="Trazado 824694" d="M89.424,213.532a1.391,1.391,0,1,0-1.392,1.392,1.392,1.392,0,0,0,1.392-1.392" transform="translate(-22.391 0)" fill="#f5f5f5"/>
            <path id="Trazado_824695" data-name="Trazado 824695" d="M83.283,213.532a1.391,1.391,0,1,0-1.392,1.392,1.392,1.392,0,0,0,1.392-1.392" transform="translate(-10.109 0)" fill="#f5f5f5"/>
            <path id="Trazado_824696" data-name="Trazado 824696" d="M70.823,213.532a1.391,1.391,0,1,0-1.392,1.392,1.392,1.392,0,0,0,1.392-1.392" transform="translate(14.811 0)" fill="#f5f5f5"/>
            <path id="Trazado_824697" data-name="Trazado 824697" d="M42.76,213.532a1.391,1.391,0,1,0-1.392,1.392,1.392,1.392,0,0,0,1.392-1.392" transform="translate(70.937 0)" fill="#f5f5f5"/>
            <path id="Trazado_824698" data-name="Trazado 824698" d="M77.142,213.532a1.391,1.391,0,1,0-1.392,1.392,1.392,1.392,0,0,0,1.392-1.392" transform="translate(2.173 0)" fill="#e8505b"/>
            <path id="Trazado_824699" data-name="Trazado 824699" d="M59.558,213.532a1.391,1.391,0,1,0-1.392,1.392,1.392,1.392,0,0,0,1.392-1.392" transform="translate(37.341 0)" fill="#e8505b"/>
            <path id="Trazado_824700" data-name="Trazado 824700" d="M39.977,219.5a1.391,1.391,0,1,0,1.392-1.392,1.392,1.392,0,0,0-1.392,1.392" transform="translate(70.937 0)" fill="#263238"/>
            <path id="Trazado_824701" data-name="Trazado 824701" d="M46.118,219.5a1.391,1.391,0,1,0,1.392-1.392,1.392,1.392,0,0,0-1.392,1.392" transform="translate(58.655 0)" fill="#263238"/>
            <path id="Trazado_824702" data-name="Trazado 824702" d="M52.259,219.5a1.392,1.392,0,1,0,1.391-1.392,1.392,1.392,0,0,0-1.391,1.392" transform="translate(46.373 0)" fill="#263238"/>
            <path id="Trazado_824703" data-name="Trazado 824703" d="M58.4,219.5a1.391,1.391,0,1,0,1.392-1.392A1.392,1.392,0,0,0,58.4,219.5" transform="translate(34.089 0)" fill="#263238"/>
            <path id="Trazado_824704" data-name="Trazado 824704" d="M105.99,219.5a1.392,1.392,0,1,0,1.392-1.392,1.392,1.392,0,0,0-1.392,1.392" transform="translate(-61.089 0)" fill="#263238"/>
            <path id="Trazado_824705" data-name="Trazado 824705" d="M112.252,219.5a1.392,1.392,0,1,0,1.392-1.392,1.392,1.392,0,0,0-1.392,1.392" transform="translate(-73.613 0)" fill="#263238"/>
            <path id="Trazado_824706" data-name="Trazado 824706" d="M64.542,219.5a1.391,1.391,0,1,0,1.392-1.392,1.392,1.392,0,0,0-1.392,1.392" transform="translate(21.807 0)" fill="#263238"/>
            <path id="Trazado_824707" data-name="Trazado 824707" d="M94.7,219.5a1.391,1.391,0,1,0,1.392-1.392A1.392,1.392,0,0,0,94.7,219.5" transform="translate(-38.511 0)" fill="#263238"/>
            <path id="Trazado_824708" data-name="Trazado 824708" d="M70.683,219.5a1.392,1.392,0,1,0,1.392-1.392,1.392,1.392,0,0,0-1.392,1.392" transform="translate(9.525 0)" fill="#f5f5f5"/>
            <path id="Trazado_824709" data-name="Trazado 824709" d="M76.824,219.5a1.392,1.392,0,1,0,1.392-1.392,1.392,1.392,0,0,0-1.392,1.392" transform="translate(-2.757 0)" fill="#f5f5f5"/>
            <path id="Trazado_824710" data-name="Trazado 824710" d="M89.284,219.5a1.392,1.392,0,1,0,1.392-1.392,1.392,1.392,0,0,0-1.392,1.392" transform="translate(-27.677 0)" fill="#f5f5f5"/>
            <path id="Trazado_824711" data-name="Trazado 824711" d="M117.347,219.5a1.391,1.391,0,1,0,1.392-1.392,1.392,1.392,0,0,0-1.392,1.392" transform="translate(-83.803 0)" fill="#f5f5f5"/>
            <path id="Trazado_824712" data-name="Trazado 824712" d="M82.965,219.5a1.392,1.392,0,1,0,1.392-1.392,1.392,1.392,0,0,0-1.392,1.392" transform="translate(-15.039 0)" fill="#e8505b"/>
            <path id="Trazado_824713" data-name="Trazado 824713" d="M100.549,219.5a1.391,1.391,0,1,0,1.392-1.392,1.392,1.392,0,0,0-1.392,1.392" transform="translate(-50.207 0)" fill="#e8505b"/>
            <rect id="Rectángulo_383133" data-name="Rectángulo 383133" width="123.209" height="30.568" transform="translate(27.028 235.995)" fill="#ffce00"/>
            <path id="Trazado_824714" data-name="Trazado 824714" d="M39.672,244.243a1.391,1.391,0,1,0,1.392-1.392,1.392,1.392,0,0,0-1.392,1.392" transform="translate(71.547 0)" fill="#263238"/>
            <path id="Trazado_824715" data-name="Trazado 824715" d="M45.813,244.243a1.391,1.391,0,1,0,1.392-1.392,1.392,1.392,0,0,0-1.392,1.392" transform="translate(59.265 0)" fill="#263238"/>
            <path id="Trazado_824716" data-name="Trazado 824716" d="M51.954,244.243a1.392,1.392,0,1,0,1.392-1.392,1.392,1.392,0,0,0-1.392,1.392" transform="translate(46.983 0)" fill="#263238"/>
            <path id="Trazado_824717" data-name="Trazado 824717" d="M58.1,244.243a1.391,1.391,0,1,0,1.392-1.392,1.392,1.392,0,0,0-1.392,1.392" transform="translate(34.699 0)" fill="#263238"/>
            <path id="Trazado_824718" data-name="Trazado 824718" d="M105.685,244.243a1.391,1.391,0,1,0,1.391-1.392,1.392,1.392,0,0,0-1.391,1.392" transform="translate(-60.478 0)" fill="#263238"/>
            <path id="Trazado_824719" data-name="Trazado 824719" d="M111.947,244.243a1.392,1.392,0,1,0,1.392-1.392,1.392,1.392,0,0,0-1.392,1.392" transform="translate(-73.003 0)" fill="#263238"/>
            <path id="Trazado_824720" data-name="Trazado 824720" d="M64.237,244.243a1.391,1.391,0,1,0,1.392-1.392,1.392,1.392,0,0,0-1.392,1.392" transform="translate(22.417 0)" fill="#263238"/>
            <path id="Trazado_824721" data-name="Trazado 824721" d="M94.4,244.243a1.391,1.391,0,1,0,1.392-1.392,1.392,1.392,0,0,0-1.392,1.392" transform="translate(-37.901 0)" fill="#263238"/>
            <path id="Trazado_824722" data-name="Trazado 824722" d="M70.378,244.243a1.392,1.392,0,1,0,1.392-1.392,1.392,1.392,0,0,0-1.392,1.392" transform="translate(10.135 0)" fill="#f5f5f5"/>
            <path id="Trazado_824723" data-name="Trazado 824723" d="M76.519,244.243a1.392,1.392,0,1,0,1.392-1.392,1.392,1.392,0,0,0-1.392,1.392" transform="translate(-2.147 0)" fill="#f5f5f5"/>
            <path id="Trazado_824724" data-name="Trazado 824724" d="M88.979,244.243a1.392,1.392,0,1,0,1.392-1.392,1.392,1.392,0,0,0-1.392,1.392" transform="translate(-27.067 0)" fill="#f5f5f5"/>
            <path id="Trazado_824725" data-name="Trazado 824725" d="M117.042,244.243a1.391,1.391,0,1,0,1.392-1.392,1.392,1.392,0,0,0-1.392,1.392" transform="translate(-83.193 0)" fill="#f5f5f5"/>
            <path id="Trazado_824726" data-name="Trazado 824726" d="M82.66,244.243a1.391,1.391,0,1,0,1.392-1.392,1.392,1.392,0,0,0-1.392,1.392" transform="translate(-14.429 0)" fill="#e8505b"/>
            <path id="Trazado_824727" data-name="Trazado 824727" d="M100.244,244.243a1.391,1.391,0,1,0,1.392-1.392,1.392,1.392,0,0,0-1.392,1.392" transform="translate(-49.597 0)" fill="#e8505b"/>
            <path id="Trazado_824728" data-name="Trazado 824728" d="M119.825,250.951a1.391,1.391,0,1,0-1.392,1.392,1.392,1.392,0,0,0,1.392-1.392" transform="translate(-83.193 0)" fill="#263238"/>
            <path id="Trazado_824729" data-name="Trazado 824729" d="M113.684,250.951a1.391,1.391,0,1,0-1.392,1.392,1.392,1.392,0,0,0,1.392-1.392" transform="translate(-70.911 0)" fill="#263238"/>
            <path id="Trazado_824730" data-name="Trazado 824730" d="M107.543,250.951a1.391,1.391,0,1,0-1.392,1.392,1.392,1.392,0,0,0,1.392-1.392" transform="translate(-58.629 0)" fill="#263238"/>
            <path id="Trazado_824731" data-name="Trazado 824731" d="M101.4,250.951a1.392,1.392,0,1,0-1.392,1.392,1.392,1.392,0,0,0,1.392-1.392" transform="translate(-46.345 0)" fill="#263238"/>
            <path id="Trazado_824732" data-name="Trazado 824732" d="M53.813,250.951a1.392,1.392,0,1,0-1.392,1.392,1.392,1.392,0,0,0,1.392-1.392" transform="translate(48.832 0)" fill="#263238"/>
            <path id="Trazado_824733" data-name="Trazado 824733" d="M47.55,250.951a1.392,1.392,0,1,0-1.392,1.392,1.392,1.392,0,0,0,1.392-1.392" transform="translate(61.357 0)" fill="#263238"/>
            <path id="Trazado_824734" data-name="Trazado 824734" d="M95.26,250.951a1.392,1.392,0,1,0-1.392,1.392,1.392,1.392,0,0,0,1.392-1.392" transform="translate(-34.063 0)" fill="#263238"/>
            <path id="Trazado_824735" data-name="Trazado 824735" d="M65.1,250.951a1.391,1.391,0,1,0-1.392,1.392,1.392,1.392,0,0,0,1.392-1.392" transform="translate(26.255 0)" fill="#263238"/>
            <path id="Trazado_824736" data-name="Trazado 824736" d="M89.119,250.951a1.391,1.391,0,1,0-1.392,1.392,1.392,1.392,0,0,0,1.392-1.392" transform="translate(-21.781 0)" fill="#f5f5f5"/>
            <path id="Trazado_824737" data-name="Trazado 824737" d="M82.978,250.951a1.391,1.391,0,1,0-1.392,1.392,1.392,1.392,0,0,0,1.392-1.392" transform="translate(-9.499 0)" fill="#f5f5f5"/>
            <path id="Trazado_824738" data-name="Trazado 824738" d="M70.518,250.951a1.391,1.391,0,1,0-1.392,1.392,1.392,1.392,0,0,0,1.392-1.392" transform="translate(15.421 0)" fill="#f5f5f5"/>
            <path id="Trazado_824739" data-name="Trazado 824739" d="M42.455,250.951a1.391,1.391,0,1,0-1.392,1.392,1.392,1.392,0,0,0,1.392-1.392" transform="translate(71.547 0)" fill="#f5f5f5"/>
            <path id="Trazado_824740" data-name="Trazado 824740" d="M76.837,250.951a1.391,1.391,0,1,0-1.392,1.392,1.392,1.392,0,0,0,1.392-1.392" transform="translate(2.783 0)" fill="#e8505b"/>
            <path id="Trazado_824741" data-name="Trazado 824741" d="M59.253,250.951a1.391,1.391,0,1,0-1.392,1.392,1.392,1.392,0,0,0,1.392-1.392" transform="translate(37.951 0)" fill="#e8505b"/>
            <path id="Trazado_824742" data-name="Trazado 824742" d="M39.672,256.917a1.391,1.391,0,1,0,1.392-1.392,1.392,1.392,0,0,0-1.392,1.392" transform="translate(71.547 0)" fill="#263238"/>
            <path id="Trazado_824743" data-name="Trazado 824743" d="M45.813,256.917a1.391,1.391,0,1,0,1.392-1.392,1.392,1.392,0,0,0-1.392,1.392" transform="translate(59.265 0)" fill="#263238"/>
            <path id="Trazado_824744" data-name="Trazado 824744" d="M51.954,256.917a1.392,1.392,0,1,0,1.392-1.392,1.392,1.392,0,0,0-1.392,1.392" transform="translate(46.983 0)" fill="#263238"/>
            <path id="Trazado_824745" data-name="Trazado 824745" d="M58.1,256.917a1.391,1.391,0,1,0,1.392-1.392,1.392,1.392,0,0,0-1.392,1.392" transform="translate(34.699 0)" fill="#263238"/>
            <path id="Trazado_824746" data-name="Trazado 824746" d="M105.685,256.917a1.391,1.391,0,1,0,1.391-1.392,1.391,1.391,0,0,0-1.391,1.392" transform="translate(-60.478 0)" fill="#263238"/>
            <path id="Trazado_824747" data-name="Trazado 824747" d="M111.947,256.917a1.392,1.392,0,1,0,1.392-1.392,1.392,1.392,0,0,0-1.392,1.392" transform="translate(-73.003 0)" fill="#263238"/>
            <path id="Trazado_824748" data-name="Trazado 824748" d="M64.237,256.917a1.391,1.391,0,1,0,1.392-1.392,1.392,1.392,0,0,0-1.392,1.392" transform="translate(22.417 0)" fill="#263238"/>
            <path id="Trazado_824749" data-name="Trazado 824749" d="M94.4,256.917a1.391,1.391,0,1,0,1.392-1.392,1.392,1.392,0,0,0-1.392,1.392" transform="translate(-37.901 0)" fill="#263238"/>
            <path id="Trazado_824750" data-name="Trazado 824750" d="M70.378,256.917a1.392,1.392,0,1,0,1.392-1.392,1.392,1.392,0,0,0-1.392,1.392" transform="translate(10.135 0)" fill="#f5f5f5"/>
            <path id="Trazado_824751" data-name="Trazado 824751" d="M76.519,256.917a1.392,1.392,0,1,0,1.392-1.392,1.392,1.392,0,0,0-1.392,1.392" transform="translate(-2.147 0)" fill="#f5f5f5"/>
            <path id="Trazado_824752" data-name="Trazado 824752" d="M88.979,256.917a1.392,1.392,0,1,0,1.392-1.392,1.392,1.392,0,0,0-1.392,1.392" transform="translate(-27.067 0)" fill="#f5f5f5"/>
            <path id="Trazado_824753" data-name="Trazado 824753" d="M117.042,256.917a1.391,1.391,0,1,0,1.392-1.392,1.392,1.392,0,0,0-1.392,1.392" transform="translate(-83.193 0)" fill="#f5f5f5"/>
            <path id="Trazado_824754" data-name="Trazado 824754" d="M82.66,256.917a1.391,1.391,0,1,0,1.392-1.392,1.392,1.392,0,0,0-1.392,1.392" transform="translate(-14.429 0)" fill="#e8505b"/>
            <path id="Trazado_824755" data-name="Trazado 824755" d="M100.244,256.917a1.391,1.391,0,1,0,1.392-1.392,1.392,1.392,0,0,0-1.392,1.392" transform="translate(-49.597 0)" fill="#e8505b"/>
            <rect id="Rectángulo_383134" data-name="Rectángulo 383134" width="24.259" height="3.732" transform="translate(120.507 242.292)" fill="#263238"/>
            <rect id="Rectángulo_383135" data-name="Rectángulo 383135" width="24.259" height="3.732" transform="translate(120.507 248.714)" fill="#263238"/>
            <rect id="Rectángulo_383136" data-name="Rectángulo 383136" width="24.259" height="3.732" transform="translate(120.507 255.355)" fill="#263238"/>
            <rect id="Rectángulo_383137" data-name="Rectángulo 383137" width="123.209" height="30.568" transform="translate(27.028 273.718)" fill="#ffce00"/>
            <rect id="Rectángulo_383138" data-name="Rectángulo 383138" width="24.259" height="3.732" transform="translate(120.507 280.014)" fill="#263238"/>
            <rect id="Rectángulo_383139" data-name="Rectángulo 383139" width="24.259" height="3.732" transform="translate(120.507 286.436)" fill="#263238"/>
            <rect id="Rectángulo_383140" data-name="Rectángulo 383140" width="24.259" height="3.732" transform="translate(120.507 293.077)" fill="#263238"/>
            <path id="Trazado_824756" data-name="Trazado 824756" d="M39.226,281.965a1.391,1.391,0,1,0,1.392-1.392,1.392,1.392,0,0,0-1.392,1.392" transform="translate(72.439 0)" fill="#263238"/>
            <path id="Trazado_824757" data-name="Trazado 824757" d="M45.367,281.965a1.391,1.391,0,1,0,1.392-1.392,1.392,1.392,0,0,0-1.392,1.392" transform="translate(60.157 0)" fill="#263238"/>
            <path id="Trazado_824758" data-name="Trazado 824758" d="M51.508,281.965a1.391,1.391,0,1,0,1.392-1.392,1.392,1.392,0,0,0-1.392,1.392" transform="translate(47.875 0)" fill="#263238"/>
            <path id="Trazado_824759" data-name="Trazado 824759" d="M57.649,281.965a1.391,1.391,0,1,0,1.392-1.392,1.392,1.392,0,0,0-1.392,1.392" transform="translate(35.593 0)" fill="#263238"/>
            <path id="Trazado_824760" data-name="Trazado 824760" d="M105.238,281.965a1.392,1.392,0,1,0,1.392-1.392,1.392,1.392,0,0,0-1.392,1.392" transform="translate(-59.585 0)" fill="#263238"/>
            <path id="Trazado_824761" data-name="Trazado 824761" d="M111.5,281.965a1.391,1.391,0,1,0,1.392-1.392,1.392,1.392,0,0,0-1.392,1.392" transform="translate(-72.111 0)" fill="#263238"/>
            <path id="Trazado_824762" data-name="Trazado 824762" d="M63.791,281.965a1.391,1.391,0,1,0,1.392-1.392,1.392,1.392,0,0,0-1.392,1.392" transform="translate(23.309 0)" fill="#263238"/>
            <path id="Trazado_824763" data-name="Trazado 824763" d="M93.95,281.965a1.391,1.391,0,1,0,1.392-1.392,1.392,1.392,0,0,0-1.392,1.392" transform="translate(-37.009 0)" fill="#263238"/>
            <path id="Trazado_824764" data-name="Trazado 824764" d="M69.932,281.965a1.391,1.391,0,1,0,1.392-1.392,1.392,1.392,0,0,0-1.392,1.392" transform="translate(11.027 0)" fill="#f5f5f5"/>
            <path id="Trazado_824765" data-name="Trazado 824765" d="M76.073,281.965a1.392,1.392,0,1,0,1.392-1.392,1.392,1.392,0,0,0-1.392,1.392" transform="translate(-1.255 0)" fill="#f5f5f5"/>
            <path id="Trazado_824766" data-name="Trazado 824766" d="M88.533,281.965a1.391,1.391,0,1,0,1.392-1.392,1.392,1.392,0,0,0-1.392,1.392" transform="translate(-26.175 0)" fill="#f5f5f5"/>
            <path id="Trazado_824767" data-name="Trazado 824767" d="M116.6,281.965a1.391,1.391,0,1,0,1.392-1.392,1.392,1.392,0,0,0-1.392,1.392" transform="translate(-82.301 0)" fill="#f5f5f5"/>
            <path id="Trazado_824768" data-name="Trazado 824768" d="M82.214,281.965a1.392,1.392,0,1,0,1.392-1.392,1.392,1.392,0,0,0-1.392,1.392" transform="translate(-13.537 0)" fill="#e8505b"/>
            <path id="Trazado_824769" data-name="Trazado 824769" d="M99.8,281.965a1.392,1.392,0,1,0,1.392-1.392,1.392,1.392,0,0,0-1.392,1.392" transform="translate(-48.703 0)" fill="#e8505b"/>
            <path id="Trazado_824770" data-name="Trazado 824770" d="M119.379,288.673a1.391,1.391,0,1,0-1.392,1.392,1.392,1.392,0,0,0,1.392-1.392" transform="translate(-82.301 0)" fill="#263238"/>
            <path id="Trazado_824771" data-name="Trazado 824771" d="M113.237,288.673a1.391,1.391,0,1,0-1.392,1.392,1.392,1.392,0,0,0,1.392-1.392" transform="translate(-70.017 0)" fill="#263238"/>
            <path id="Trazado_824772" data-name="Trazado 824772" d="M107.1,288.673a1.391,1.391,0,1,0-1.392,1.392,1.392,1.392,0,0,0,1.392-1.392" transform="translate(-57.735 0)" fill="#263238"/>
            <path id="Trazado_824773" data-name="Trazado 824773" d="M100.955,288.673a1.392,1.392,0,1,0-1.392,1.392,1.392,1.392,0,0,0,1.392-1.392" transform="translate(-45.453 0)" fill="#263238"/>
            <path id="Trazado_824774" data-name="Trazado 824774" d="M53.366,288.673a1.391,1.391,0,1,0-1.392,1.392,1.392,1.392,0,0,0,1.392-1.392" transform="translate(49.725 0)" fill="#263238"/>
            <path id="Trazado_824775" data-name="Trazado 824775" d="M47.1,288.673a1.391,1.391,0,1,0-1.392,1.392,1.392,1.392,0,0,0,1.392-1.392" transform="translate(62.249 0)" fill="#263238"/>
            <path id="Trazado_824776" data-name="Trazado 824776" d="M94.814,288.673a1.392,1.392,0,1,0-1.392,1.392,1.392,1.392,0,0,0,1.392-1.392" transform="translate(-33.171 0)" fill="#263238"/>
            <path id="Trazado_824777" data-name="Trazado 824777" d="M64.654,288.673a1.391,1.391,0,1,0-1.392,1.392,1.392,1.392,0,0,0,1.392-1.392" transform="translate(27.149 0)" fill="#263238"/>
            <path id="Trazado_824778" data-name="Trazado 824778" d="M88.673,288.673a1.391,1.391,0,1,0-1.392,1.392,1.392,1.392,0,0,0,1.392-1.392" transform="translate(-20.889 0)" fill="#f5f5f5"/>
            <path id="Trazado_824779" data-name="Trazado 824779" d="M82.531,288.673a1.391,1.391,0,1,0-1.392,1.392,1.392,1.392,0,0,0,1.392-1.392" transform="translate(-8.605 0)" fill="#f5f5f5"/>
            <path id="Trazado_824780" data-name="Trazado 824780" d="M70.072,288.673a1.391,1.391,0,1,0-1.392,1.392,1.392,1.392,0,0,0,1.392-1.392" transform="translate(16.313 0)" fill="#f5f5f5"/>
            <path id="Trazado_824781" data-name="Trazado 824781" d="M42.008,288.673a1.391,1.391,0,1,0-1.392,1.392,1.392,1.392,0,0,0,1.392-1.392" transform="translate(72.441 0)" fill="#f5f5f5"/>
            <path id="Trazado_824782" data-name="Trazado 824782" d="M76.39,288.673A1.391,1.391,0,1,0,75,290.065a1.392,1.392,0,0,0,1.392-1.392" transform="translate(3.677 0)" fill="#e8505b"/>
            <path id="Trazado_824783" data-name="Trazado 824783" d="M58.807,288.673a1.391,1.391,0,1,0-1.392,1.392,1.392,1.392,0,0,0,1.392-1.392" transform="translate(38.843 0)" fill="#e8505b"/>
            <path id="Trazado_824784" data-name="Trazado 824784" d="M39.226,294.639a1.391,1.391,0,1,0,1.392-1.392,1.392,1.392,0,0,0-1.392,1.392" transform="translate(72.439 0)" fill="#263238"/>
            <path id="Trazado_824785" data-name="Trazado 824785" d="M45.367,294.639a1.391,1.391,0,1,0,1.392-1.392,1.392,1.392,0,0,0-1.392,1.392" transform="translate(60.157 0)" fill="#263238"/>
            <path id="Trazado_824786" data-name="Trazado 824786" d="M51.508,294.639a1.391,1.391,0,1,0,1.392-1.392,1.392,1.392,0,0,0-1.392,1.392" transform="translate(47.875 0)" fill="#263238"/>
            <path id="Trazado_824787" data-name="Trazado 824787" d="M57.649,294.639a1.391,1.391,0,1,0,1.392-1.392,1.392,1.392,0,0,0-1.392,1.392" transform="translate(35.593 0)" fill="#263238"/>
            <path id="Trazado_824788" data-name="Trazado 824788" d="M105.238,294.639a1.392,1.392,0,1,0,1.392-1.392,1.392,1.392,0,0,0-1.392,1.392" transform="translate(-59.585 0)" fill="#263238"/>
            <path id="Trazado_824789" data-name="Trazado 824789" d="M111.5,294.639a1.391,1.391,0,1,0,1.392-1.392,1.392,1.392,0,0,0-1.392,1.392" transform="translate(-72.111 0)" fill="#263238"/>
            <path id="Trazado_824790" data-name="Trazado 824790" d="M63.791,294.639a1.391,1.391,0,1,0,1.392-1.392,1.392,1.392,0,0,0-1.392,1.392" transform="translate(23.309 0)" fill="#263238"/>
            <path id="Trazado_824791" data-name="Trazado 824791" d="M93.95,294.639a1.391,1.391,0,1,0,1.392-1.392,1.392,1.392,0,0,0-1.392,1.392" transform="translate(-37.009 0)" fill="#263238"/>
            <path id="Trazado_824792" data-name="Trazado 824792" d="M69.932,294.639a1.391,1.391,0,1,0,1.392-1.392,1.392,1.392,0,0,0-1.392,1.392" transform="translate(11.027 0)" fill="#f5f5f5"/>
            <path id="Trazado_824793" data-name="Trazado 824793" d="M76.073,294.639a1.392,1.392,0,1,0,1.392-1.392,1.392,1.392,0,0,0-1.392,1.392" transform="translate(-1.255 0)" fill="#f5f5f5"/>
            <path id="Trazado_824794" data-name="Trazado 824794" d="M88.533,294.639a1.391,1.391,0,1,0,1.392-1.392,1.392,1.392,0,0,0-1.392,1.392" transform="translate(-26.175 0)" fill="#f5f5f5"/>
            <path id="Trazado_824795" data-name="Trazado 824795" d="M116.6,294.639a1.391,1.391,0,1,0,1.392-1.392,1.392,1.392,0,0,0-1.392,1.392" transform="translate(-82.301 0)" fill="#f5f5f5"/>
            <path id="Trazado_824796" data-name="Trazado 824796" d="M82.214,294.639a1.392,1.392,0,1,0,1.392-1.392,1.392,1.392,0,0,0-1.392,1.392" transform="translate(-13.537 0)" fill="#e8505b"/>
            <path id="Trazado_824797" data-name="Trazado 824797" d="M99.8,294.639a1.392,1.392,0,1,0,1.392-1.392,1.392,1.392,0,0,0-1.392,1.392" transform="translate(-48.703 0)" fill="#e8505b"/>
            <path id="Trazado_824798" data-name="Trazado 824798" d="M126.645,228.792l18.523.049V198.273l-18.523-.049Z" transform="translate(-118.14 0)" fill="#12263f"/>
            <path id="Trazado_824799" data-name="Trazado 824799" d="M126.645,191.624l18.523.049V161.105l-18.523-.049Z" transform="translate(-118.14 0)" fill="#12263f"/>
            <path id="Trazado_824800" data-name="Trazado 824800" d="M126.645,266.276l18.523.049V235.757l-18.523-.049Z" transform="translate(-118.14 0)" fill="#12263f"/>
            <path id="Trazado_824801" data-name="Trazado 824801" d="M126.645,304.237l18.523.049V273.718l-18.523-.049Z" transform="translate(-118.14 0)" fill="#12263f"/>
            <rect id="Rectángulo_383141" data-name="Rectángulo 383141" width="123.209" height="30.568" transform="translate(26.136 160.822)" fill="#ffce00"/>
            <rect id="Rectángulo_383142" data-name="Rectángulo 383142" width="24.259" height="3.732" transform="translate(119.615 167.119)" fill="#263238"/>
            <rect id="Rectángulo_383143" data-name="Rectángulo 383143" width="24.259" height="3.732" transform="translate(119.615 173.541)" fill="#263238"/>
            <rect id="Rectángulo_383144" data-name="Rectángulo 383144" width="24.259" height="3.732" transform="translate(119.615 180.182)" fill="#263238"/>
            <path id="Trazado_824802" data-name="Trazado 824802" d="M40.869,169.374a1.391,1.391,0,1,0,1.392-1.392,1.392,1.392,0,0,0-1.392,1.392" transform="translate(69.153 0)" fill="#263238"/>
            <path id="Trazado_824803" data-name="Trazado 824803" d="M47.01,169.374a1.391,1.391,0,1,0,1.391-1.392,1.392,1.392,0,0,0-1.391,1.392" transform="translate(56.871 0)" fill="#263238"/>
            <path id="Trazado_824804" data-name="Trazado 824804" d="M53.152,169.374a1.391,1.391,0,1,0,1.392-1.392,1.392,1.392,0,0,0-1.392,1.392" transform="translate(44.587 0)" fill="#263238"/>
            <path id="Trazado_824805" data-name="Trazado 824805" d="M59.293,169.374a1.392,1.392,0,1,0,1.392-1.392,1.392,1.392,0,0,0-1.392,1.392" transform="translate(32.305 0)" fill="#263238"/>
            <path id="Trazado_824806" data-name="Trazado 824806" d="M106.882,169.374a1.391,1.391,0,1,0,1.392-1.392,1.392,1.392,0,0,0-1.392,1.392" transform="translate(-62.873 0)" fill="#263238"/>
            <path id="Trazado_824807" data-name="Trazado 824807" d="M113.144,169.374a1.392,1.392,0,1,0,1.392-1.392,1.392,1.392,0,0,0-1.392,1.392" transform="translate(-75.397 0)" fill="#263238"/>
            <path id="Trazado_824808" data-name="Trazado 824808" d="M65.434,169.374a1.391,1.391,0,1,0,1.392-1.392,1.392,1.392,0,0,0-1.392,1.392" transform="translate(20.023 0)" fill="#263238"/>
            <path id="Trazado_824809" data-name="Trazado 824809" d="M95.594,169.374a1.391,1.391,0,1,0,1.392-1.392,1.392,1.392,0,0,0-1.392,1.392" transform="translate(-40.297 0)" fill="#263238"/>
            <path id="Trazado_824810" data-name="Trazado 824810" d="M71.575,169.374a1.392,1.392,0,1,0,1.392-1.392,1.392,1.392,0,0,0-1.392,1.392" transform="translate(7.741 0)" fill="#f5f5f5"/>
            <path id="Trazado_824811" data-name="Trazado 824811" d="M77.716,169.374a1.391,1.391,0,1,0,1.392-1.392,1.392,1.392,0,0,0-1.392,1.392" transform="translate(-4.541 0)" fill="#f5f5f5"/>
            <path id="Trazado_824812" data-name="Trazado 824812" d="M90.176,169.374a1.391,1.391,0,1,0,1.392-1.392,1.392,1.392,0,0,0-1.392,1.392" transform="translate(-29.461 0)" fill="#f5f5f5"/>
            <path id="Trazado_824813" data-name="Trazado 824813" d="M118.24,169.374a1.392,1.392,0,1,0,1.392-1.392,1.392,1.392,0,0,0-1.392,1.392" transform="translate(-85.589 0)" fill="#f5f5f5"/>
            <path id="Trazado_824814" data-name="Trazado 824814" d="M83.858,169.374a1.391,1.391,0,1,0,1.392-1.392,1.392,1.392,0,0,0-1.392,1.392" transform="translate(-16.825 0)" fill="#e8505b"/>
            <path id="Trazado_824815" data-name="Trazado 824815" d="M101.441,169.374a1.391,1.391,0,1,0,1.392-1.392,1.392,1.392,0,0,0-1.392,1.392" transform="translate(-51.991 0)" fill="#e8505b"/>
            <path id="Trazado_824816" data-name="Trazado 824816" d="M121.022,176.082a1.392,1.392,0,1,0-1.392,1.392,1.392,1.392,0,0,0,1.392-1.392" transform="translate(-85.587 0)" fill="#263238"/>
            <path id="Trazado_824817" data-name="Trazado 824817" d="M114.881,176.082a1.391,1.391,0,1,0-1.392,1.392,1.392,1.392,0,0,0,1.392-1.392" transform="translate(-73.305 0)" fill="#263238"/>
            <path id="Trazado_824818" data-name="Trazado 824818" d="M108.74,176.082a1.391,1.391,0,1,0-1.392,1.392,1.392,1.392,0,0,0,1.392-1.392" transform="translate(-61.023 0)" fill="#263238"/>
            <path id="Trazado_824819" data-name="Trazado 824819" d="M102.6,176.082a1.391,1.391,0,1,0-1.392,1.392,1.392,1.392,0,0,0,1.392-1.392" transform="translate(-48.741 0)" fill="#263238"/>
            <path id="Trazado_824820" data-name="Trazado 824820" d="M55.01,176.082a1.391,1.391,0,1,0-1.392,1.392,1.392,1.392,0,0,0,1.392-1.392" transform="translate(46.437 0)" fill="#263238"/>
            <path id="Trazado_824821" data-name="Trazado 824821" d="M48.747,176.082a1.391,1.391,0,1,0-1.392,1.392,1.392,1.392,0,0,0,1.392-1.392" transform="translate(58.963 0)" fill="#263238"/>
            <path id="Trazado_824822" data-name="Trazado 824822" d="M96.457,176.082a1.391,1.391,0,1,0-1.392,1.392,1.392,1.392,0,0,0,1.392-1.392" transform="translate(-36.457 0)" fill="#263238"/>
            <path id="Trazado_824823" data-name="Trazado 824823" d="M66.3,176.082a1.391,1.391,0,1,0-1.392,1.392,1.392,1.392,0,0,0,1.392-1.392" transform="translate(23.861 0)" fill="#263238"/>
            <path id="Trazado_824824" data-name="Trazado 824824" d="M90.316,176.082a1.391,1.391,0,1,0-1.392,1.392,1.392,1.392,0,0,0,1.392-1.392" transform="translate(-24.175 0)" fill="#f5f5f5"/>
            <path id="Trazado_824825" data-name="Trazado 824825" d="M84.175,176.082a1.391,1.391,0,1,0-1.392,1.392,1.392,1.392,0,0,0,1.392-1.392" transform="translate(-11.893 0)" fill="#f5f5f5"/>
            <path id="Trazado_824826" data-name="Trazado 824826" d="M71.715,176.082a1.391,1.391,0,1,0-1.392,1.392,1.392,1.392,0,0,0,1.392-1.392" transform="translate(13.027 0)" fill="#f5f5f5"/>
            <path id="Trazado_824827" data-name="Trazado 824827" d="M43.652,176.082a1.391,1.391,0,1,0-1.392,1.392,1.392,1.392,0,0,0,1.392-1.392" transform="translate(69.153 0)" fill="#f5f5f5"/>
            <path id="Trazado_824828" data-name="Trazado 824828" d="M78.034,176.082a1.391,1.391,0,1,0-1.392,1.392,1.392,1.392,0,0,0,1.392-1.392" transform="translate(0.389 0)" fill="#e8505b"/>
            <path id="Trazado_824829" data-name="Trazado 824829" d="M60.451,176.082a1.391,1.391,0,1,0-1.392,1.392,1.392,1.392,0,0,0,1.392-1.392" transform="translate(35.555 0)" fill="#e8505b"/>
            <path id="Trazado_824830" data-name="Trazado 824830" d="M40.869,182.047a1.391,1.391,0,1,0,1.392-1.392,1.392,1.392,0,0,0-1.392,1.392" transform="translate(69.153 0)" fill="#263238"/>
            <path id="Trazado_824831" data-name="Trazado 824831" d="M47.01,182.047a1.391,1.391,0,1,0,1.391-1.392,1.392,1.392,0,0,0-1.391,1.392" transform="translate(56.871 0)" fill="#263238"/>
            <path id="Trazado_824832" data-name="Trazado 824832" d="M53.152,182.047a1.391,1.391,0,1,0,1.392-1.392,1.392,1.392,0,0,0-1.392,1.392" transform="translate(44.587 0)" fill="#263238"/>
            <path id="Trazado_824833" data-name="Trazado 824833" d="M59.293,182.047a1.392,1.392,0,1,0,1.392-1.392,1.392,1.392,0,0,0-1.392,1.392" transform="translate(32.305 0)" fill="#263238"/>
            <path id="Trazado_824834" data-name="Trazado 824834" d="M106.882,182.047a1.391,1.391,0,1,0,1.392-1.392,1.392,1.392,0,0,0-1.392,1.392" transform="translate(-62.873 0)" fill="#263238"/>
            <path id="Trazado_824835" data-name="Trazado 824835" d="M113.144,182.047a1.392,1.392,0,1,0,1.392-1.392,1.392,1.392,0,0,0-1.392,1.392" transform="translate(-75.397 0)" fill="#263238"/>
            <path id="Trazado_824836" data-name="Trazado 824836" d="M65.434,182.047a1.391,1.391,0,1,0,1.392-1.392,1.392,1.392,0,0,0-1.392,1.392" transform="translate(20.023 0)" fill="#263238"/>
            <path id="Trazado_824837" data-name="Trazado 824837" d="M95.594,182.047a1.391,1.391,0,1,0,1.392-1.392,1.392,1.392,0,0,0-1.392,1.392" transform="translate(-40.297 0)" fill="#263238"/>
            <path id="Trazado_824838" data-name="Trazado 824838" d="M71.575,182.047a1.392,1.392,0,1,0,1.392-1.392,1.392,1.392,0,0,0-1.392,1.392" transform="translate(7.741 0)" fill="#f5f5f5"/>
            <path id="Trazado_824839" data-name="Trazado 824839" d="M77.716,182.047a1.391,1.391,0,1,0,1.392-1.392,1.392,1.392,0,0,0-1.392,1.392" transform="translate(-4.541 0)" fill="#f5f5f5"/>
            <path id="Trazado_824840" data-name="Trazado 824840" d="M90.176,182.047a1.391,1.391,0,1,0,1.392-1.392,1.392,1.392,0,0,0-1.392,1.392" transform="translate(-29.461 0)" fill="#f5f5f5"/>
            <path id="Trazado_824841" data-name="Trazado 824841" d="M118.24,182.047a1.392,1.392,0,1,0,1.392-1.392,1.392,1.392,0,0,0-1.392,1.392" transform="translate(-85.589 0)" fill="#f5f5f5"/>
            <path id="Trazado_824842" data-name="Trazado 824842" d="M83.858,182.047a1.391,1.391,0,1,0,1.392-1.392,1.392,1.392,0,0,0-1.392,1.392" transform="translate(-16.825 0)" fill="#e8505b"/>
            <path id="Trazado_824843" data-name="Trazado 824843" d="M101.441,182.047a1.391,1.391,0,1,0,1.392-1.392,1.392,1.392,0,0,0-1.392,1.392" transform="translate(-51.991 0)" fill="#e8505b"/>
          </g>
        </g>
        <path id="Trazado_824844" data-name="Trazado 824844" d="M141.352,146.664l-7.547,9.861-14.374-6.36,9.194-14.753Z" transform="translate(-107.108 0)" fill="#e0e0e0"/>
        <path id="Trazado_824845" data-name="Trazado 824845" d="M128.889,147.828l-.231,4.878-4.753,2.229.242-5Z" transform="translate(-99.121 0)" fill="#455a64"/>
        <path id="Trazado_824846" data-name="Trazado 824846" d="M133.4,145.1l-.231,4.878-4.753,2.229.242-5Z" transform="translate(-108.141 0)" fill="#455a64"/>
        <path id="Trazado_824847" data-name="Trazado 824847" d="M137.987,142.373l-.231,4.878L133,149.48l.242-5Z" transform="translate(-117.316 0)" fill="#455a64"/>
        <g id="Grupo_1074834" data-name="Grupo 1074834">
          <g id="Grupo_1074833" data-name="Grupo 1074833" clip-path="url(#clip-path-4)">
            <path id="Trazado_824848" data-name="Trazado 824848" d="M137.863,149.97l1.641-2.508,14.085,8.912-3.321,5.564-.924-.461c-4.1-2.086-20.674-10.9-22.858-13.241-2.436-2.617,11.377,1.734,11.377,1.734" transform="translate(-126.113 0)" fill="#e8505b"/>
            <g id="Grupo_1074823" data-name="Grupo 1074823" transform="translate(19.009 156.575)" opacity="0.5">
              <g id="Grupo_1074822" data-name="Grupo 1074822" transform="translate(0)">
                <g id="Grupo_1074821" data-name="Grupo 1074821" transform="translate(0)" clip-path="url(#clip-path-7)">
                  <path id="Trazado_824849" data-name="Trazado 824849" d="M127.007,158.795a5.873,5.873,0,0,1,3.576-2.144,4.85,4.85,0,0,1,4.082,1.079l-2.407,4Z" transform="translate(-127.007 -156.575)" fill="#fff"/>
                </g>
              </g>
            </g>
            <g id="Grupo_1074826" data-name="Grupo 1074826" transform="translate(0 147.422)" opacity="0.5">
              <g id="Grupo_1074825" data-name="Grupo 1074825" transform="translate(0)">
                <g id="Grupo_1074824" data-name="Grupo 1074824" transform="translate(0)" clip-path="url(#clip-path-8)">
                  <path id="Trazado_824850" data-name="Trazado 824850" d="M134.232,148.057s-5-1.254-4.875-.239,16.543,10.549,24.153,14.12l.164-.335-19.246-10.956s.621-2.069-.2-2.59" transform="translate(-129.355 -147.422)" fill="#fff"/>
                </g>
              </g>
            </g>
            <path id="Trazado_824851" data-name="Trazado 824851" d="M153.537,161.726a1.521,1.521,0,0,1-.263-.117l-.735-.369-2.679-1.4c-2.253-1.2-5.345-2.905-8.717-4.859s-6.387-3.792-8.551-5.15l-2.55-1.626-.686-.454a1.511,1.511,0,0,1-.232-.17,1.51,1.51,0,0,1,.254.136l.705.422q1.055.639,2.584,1.571c2.182,1.326,5.206,3.142,8.577,5.1s6.449,3.674,8.684,4.908l2.648,1.461.717.4a1.65,1.65,0,0,1,.244.153" transform="translate(-128.987 0)" fill="#263238"/>
            <path id="Trazado_824852" data-name="Trazado 824852" d="M148.368,150.873a6.832,6.832,0,0,0,.236-1.531,6.734,6.734,0,0,0-.31-1.518,2.685,2.685,0,0,1,.074,3.049" transform="translate(-143.421 0)" fill="#263238"/>
            <path id="Trazado_824853" data-name="Trazado 824853" d="M143.3,151.184a3.39,3.39,0,0,1-.065-1.638,3.39,3.39,0,0,1,.065,1.638" transform="translate(-132.859 0)" fill="#263238"/>
            <path id="Trazado_824854" data-name="Trazado 824854" d="M142.141,151.244c-.053.017-.192-.266-.31-.632s-.172-.678-.119-.695.192.266.31.632.172.678.119.7" transform="translate(-130.179 0)" fill="#263238"/>
            <path id="Trazado_824855" data-name="Trazado 824855" d="M141.7,150.314a1.958,1.958,0,0,1-.806-.34c-.417-.236-.734-.467-.706-.515a1.942,1.942,0,0,1,.806.34c.417.236.733.467.706.515" transform="translate(-128.214 0)" fill="#263238"/>
            <path id="Trazado_824856" data-name="Trazado 824856" d="M141.158,149.5a1.69,1.69,0,0,1-.979-.243c-.509-.245-.832-.578-.8-.617a72.642,72.642,0,0,0,1.776.86" transform="translate(-126.864 0)" fill="#263238"/>
            <path id="Trazado_824857" data-name="Trazado 824857" d="M145.279,149.646a3.082,3.082,0,0,1-.921-.542,6.343,6.343,0,0,1-.857-.788,3.112,3.112,0,0,1-.429-.559.576.576,0,0,1-.062-.42.42.42,0,0,1,.354-.288,1.958,1.958,0,0,1,1.808,1.712,1.91,1.91,0,0,1-.056.792c-.055.179-.11.268-.121.263a3.013,3.013,0,0,0,.036-1.032,1.924,1.924,0,0,0-.491-.972,1.66,1.66,0,0,0-1.145-.564c-.21.023-.253.229-.146.421a3.173,3.173,0,0,0,.391.524,7.522,7.522,0,0,0,.807.8c.5.419.849.625.832.653" transform="translate(-134.598 0)" fill="#263238"/>
            <path id="Trazado_824858" data-name="Trazado 824858" d="M141.174,149.553a1.053,1.053,0,0,1,.266-.7,1.751,1.751,0,0,1,.644-.529,1.073,1.073,0,0,1,1.043-.024.426.426,0,0,1,.037.592,1.161,1.161,0,0,1-.4.321,3.248,3.248,0,0,1-.762.306,1.537,1.537,0,0,1-.745.067c0-.032.28-.059.7-.2a3.752,3.752,0,0,0,.709-.33c.241-.122.531-.422.324-.6a.96.96,0,0,0-.837.039,1.761,1.761,0,0,0-.61.449,3.928,3.928,0,0,0-.377.614" transform="translate(-130.759 0)" fill="#263238"/>
            <path id="Trazado_824859" data-name="Trazado 824859" d="M134.6,157.621c-.022.031-.389-.278-1.084-.579a5.207,5.207,0,0,0-5.509.815c-.578.489-.839.891-.869.868a.921.921,0,0,1,.168-.29,4.416,4.416,0,0,1,.607-.685,5.054,5.054,0,0,1,5.663-.838,4.4,4.4,0,0,1,.779.48c.169.134.253.22.245.229" transform="translate(-108.055 0)" fill="#263238"/>
            <path id="Trazado_824860" data-name="Trazado 824860" d="M139.887,156.342a9.375,9.375,0,0,1-2.22-1.01,9.47,9.47,0,0,1-2.006-1.39c.034-.048.94.555,2.1,1.214s2.144,1.132,2.121,1.186" transform="translate(-121.874 0)" fill="#263238"/>
            <path id="Trazado_824861" data-name="Trazado 824861" d="M133.7,157.974c.015.056-.192.154-.413.314s-.385.321-.432.289.057-.271.315-.453.519-.2.53-.15" transform="translate(-112.861 0)" fill="#263238"/>
            <path id="Trazado_824862" data-name="Trazado 824862" d="M131.866,157.269c.015.054-.165.15-.4.214s-.44.073-.455.019.165-.149.4-.213.439-.074.454-.02" transform="translate(-109.202 0)" fill="#263238"/>
            <path id="Trazado_824863" data-name="Trazado 824863" d="M130.11,157.548c-.038.043-.229-.07-.483-.118s-.472-.024-.491-.079.217-.183.531-.118.483.279.443.315" transform="translate(-105.576 0)" fill="#263238"/>
            <path id="Trazado_824864" data-name="Trazado 824864" d="M128.421,157.891c-.009.055-.134.081-.281.058s-.257-.087-.248-.141.134-.081.28-.058.258.086.249.141" transform="translate(-102.639 0)" fill="#263238"/>
            <path id="Trazado_824865" data-name="Trazado 824865" d="M138.317,139.367,82.082,86.338a18.487,18.487,0,0,0-29.268,3.745L24.043,139.521,42.3,150.053l27.71-35.237,27.767,25.089Z" transform="translate(-8.686 0)" fill="#273a89"/>
            <path id="Trazado_824866" data-name="Trazado 824866" d="M109.643,142.026c.238.715,1.907,18.833-22.409,18.833H22.264a14.89,14.89,0,0,1,0-29.78H82.757a14.878,14.878,0,0,1,6.265,1.382Z" transform="translate(36.545 0)" fill="#273a89"/>
            <path id="Trazado_824867" data-name="Trazado 824867" d="M40.669,131.078c0,.144,13.419.26,29.968.26s29.971-.116,29.971-.26-13.416-.26-29.971-.26-29.968.116-29.968.26" transform="translate(12.397 0)" fill="#455a64"/>
            <path id="Trazado_824868" data-name="Trazado 824868" d="M92.254,102.42c-.156,0-.163,2.811-.673,6.219-.494,3.412-1.3,6.1-1.148,6.15a19.607,19.607,0,0,0,1.663-6.074,19.621,19.621,0,0,0,.158-6.295" transform="translate(-29.16 0)" fill="#455a64"/>
            <path id="Trazado_824869" data-name="Trazado 824869" d="M92.374,102.016a26.429,26.429,0,0,0,.025,6.4,26.417,26.417,0,0,0,1.064,6.306c.148-.026-.249-2.851-.545-6.351s-.394-6.349-.544-6.35" transform="translate(-32.04 0)" fill="#455a64"/>
            <path id="Trazado_824870" data-name="Trazado 824870" d="M74.168,22.261a1.9,1.9,0,0,0,3.057,1.693c1.108-.863.933-2.59.427-3.9s-1.251-2.669-.926-4.035a9.394,9.394,0,0,1,1.66-2.738,6.063,6.063,0,0,0,.669-5.369,5.1,5.1,0,0,0-4.207-3.263c-1.9-.153-4.023.836-5.623-.21-1.159-.757-1.522-2.3-2.5-3.283C65.215-.372,62.685-.168,60.65.526s-4.034,1.78-6.182,1.67C52.674,2.1,51.037,1.183,49.291.762a9.669,9.669,0,0,0-10.148,4.1,9.672,9.672,0,0,0,.592,10.929c.873,1.092,2.839,4.358,6.753,3.545" transform="translate(36.538 0)" fill="#273a89"/>
            <path id="Trazado_824871" data-name="Trazado 824871" d="M63.059,7.458l.527,2.817L71.746,52.4c.947,4.891-2.5,9.6-7.746,10.574h0c-5.295.984-10.426-2.208-11.464-7.132C51.445,50.671,50.2,45.25,50.2,45.25s-6.893.278-10.078-8.128c-1.584-4.18-2.839-11.313-3.677-17.183A9.375,9.375,0,0,1,44.8,9.279Z" transform="translate(45.418 0)" fill="#ffbe9d"/>
            <path id="Trazado_824872" data-name="Trazado 824872" d="M65.613,24.121a1.138,1.138,0,0,0,1.309.9,1.088,1.088,0,0,0,.94-1.243,1.14,1.14,0,0,0-1.308-.9,1.091,1.091,0,0,0-.941,1.245" transform="translate(20.199 0)" fill="#263238"/>
            <path id="Trazado_824873" data-name="Trazado 824873" d="M65.141,23.308c.168.117.883-.684,2.083-.93,1.2-.263,2.2.172,2.3,0,.05-.079-.145-.312-.586-.511a3.124,3.124,0,0,0-1.882-.178,3,3,0,0,0-1.62.921c-.31.36-.381.649-.3.7" transform="translate(19.029 0)" fill="#263238"/>
            <path id="Trazado_824874" data-name="Trazado 824874" d="M54.142,21.789a1.138,1.138,0,0,0,1.309.9,1.089,1.089,0,0,0,.94-1.243,1.14,1.14,0,0,0-1.309-.9,1.09,1.09,0,0,0-.94,1.245" transform="translate(43.14 0)" fill="#263238"/>
            <path id="Trazado_824875" data-name="Trazado 824875" d="M53.3,21.083c.169.117.885-.684,2.084-.93,1.195-.263,2.2.172,2.3,0,.05-.078-.144-.312-.587-.511a3.122,3.122,0,0,0-1.881-.178,3.005,3.005,0,0,0-1.621.921c-.309.36-.38.649-.3.7" transform="translate(42.707 0)" fill="#263238"/>
            <path id="Trazado_824876" data-name="Trazado 824876" d="M63.436,30.883a8.152,8.152,0,0,0-2.021.053c-.313.032-.616.032-.711-.167a1.6,1.6,0,0,1,.016-.95q.2-1.2.422-2.521a41,41,0,0,0,.767-6.524,41.21,41.21,0,0,0-1.291,6.447q-.2,1.323-.38,2.527a1.807,1.807,0,0,0,.091,1.235.783.783,0,0,0,.6.343,2.158,2.158,0,0,0,.536-.035,8.006,8.006,0,0,0,1.975-.408" transform="translate(30.066 0)" fill="#263238"/>
            <path id="Trazado_824877" data-name="Trazado 824877" d="M47.056,45.251a22.59,22.59,0,0,0,11-5.523S56.468,46.286,47.6,47.279Z" transform="translate(48.566 0)" fill="#eb996e"/>
            <path id="Trazado_824878" data-name="Trazado 824878" d="M59.254,30.98c-.2.029.071,1.332-.852,2.487s-2.339,1.3-2.311,1.485c0,.085.362.189.951.083a3.312,3.312,0,0,0,1.944-1.166,2.881,2.881,0,0,0,.631-2.068c-.063-.555-.275-.847-.363-.821" transform="translate(37.951 0)" fill="#263238"/>
            <path id="Trazado_824879" data-name="Trazado 824879" d="M53.382,16.446c.186.3,1.352-.1,2.794-.224,1.44-.152,2.661.024,2.787-.307.054-.157-.207-.423-.732-.643a4.87,4.87,0,0,0-4.252.4c-.473.315-.68.626-.6.77" transform="translate(41.34 0)" fill="#263238"/>
            <path id="Trazado_824880" data-name="Trazado 824880" d="M65.8,19.744c.268.229,1.035-.226,2.026-.445.983-.255,1.873-.2,2.008-.524.056-.156-.133-.4-.554-.583a3.007,3.007,0,0,0-3.251.781c-.293.353-.35.657-.229.771" transform="translate(18.09 0)" fill="#263238"/>
            <path id="Trazado_824881" data-name="Trazado 824881" d="M43.257,16.143s4.922,1.4,10.312-2.577c3.537-2.612,7.889-4.347,9.021-3.742s2.04,4.561,6.083,5.055c0,0,1.069,7.665,4.059,6.862s-.618-15.883-.618-15.883l-8.42,1.283-8.377-.114L47.865,9.441l-5.629,2.653Z" transform="translate(37.52 0)" fill="#273a89"/>
            <path id="Trazado_824882" data-name="Trazado 824882" d="M46.734,3.656c.018-.123-.75-.243-1.522.233s-1.018,1.211-.9,1.25c.119.062.491-.465,1.143-.854s1.28-.495,1.279-.629" transform="translate(62.656 0)" fill="#263238"/>
            <path id="Trazado_824883" data-name="Trazado 824883" d="M46.746,1.619c-.138.04.094.918.149,1.976s-.23,1.9-.106,1.952a2.392,2.392,0,0,0,.57-1.972,3.03,3.03,0,0,0-.613-1.956" transform="translate(59.605 0)" fill="#263238"/>
            <path id="Trazado_824884" data-name="Trazado 824884" d="M38.321,18.66c.111-.086,4.668-2.764,5.773,2.3s-4.2,5.126-4.242,4.982-1.531-7.277-1.531-7.277" transform="translate(71.108 0)" fill="#ffbe9d"/>
            <path id="Trazado_824885" data-name="Trazado 824885" d="M40.1,23.683c.019-.021.1.043.265.078a.9.9,0,0,0,.662-.13,2.231,2.231,0,0,0,.582-2.177,2.97,2.97,0,0,0-.523-1.208,1.043,1.043,0,0,0-.81-.532.46.46,0,0,0-.468.356c-.037.156.018.25-.007.264s-.127-.061-.132-.279a.572.572,0,0,1,.13-.36.676.676,0,0,1,.459-.235,1.265,1.265,0,0,1,1.092.583,3.057,3.057,0,0,1,.613,1.343,2.341,2.341,0,0,1-.808,2.466.967.967,0,0,1-.835.042c-.184-.091-.236-.2-.22-.211" transform="translate(71.985 0)" fill="#eb996e"/>
            <path id="Trazado_824886" data-name="Trazado 824886" d="M50.032,21.617c.054,0,.041-.479.267-1.288a5.373,5.373,0,0,1,1.969-2.841,5.154,5.154,0,1,1,0,8.257,5.37,5.37,0,0,1-1.97-2.84c-.225-.809-.212-1.291-.266-1.288-.018,0-.029.118-.035.346a4.137,4.137,0,0,0,.1.992,5.357,5.357,0,0,0,1.943,3.083,5.565,5.565,0,0,0,7.9-1.091,5.582,5.582,0,0,0,0-6.66,5.565,5.565,0,0,0-7.9-1.091A5.359,5.359,0,0,0,50.1,20.279a4.137,4.137,0,0,0-.1.992c.006.228.017.346.035.346" transform="translate(42.629 0)" fill="#455a64"/>
            <path id="Trazado_824887" data-name="Trazado 824887" d="M62.938,23.95c.053,0,.041-.479.267-1.289a5.369,5.369,0,0,1,1.969-2.84,5.154,5.154,0,1,1,0,8.257,5.36,5.36,0,0,1-1.969-2.84c-.226-.809-.214-1.291-.267-1.288-.018,0-.03.118-.035.346a4.086,4.086,0,0,0,.105.992,5.354,5.354,0,0,0,1.942,3.083,5.565,5.565,0,0,0,7.9-1.091,5.582,5.582,0,0,0,0-6.66,5.565,5.565,0,0,0-7.9-1.092,5.359,5.359,0,0,0-1.943,3.084,4.082,4.082,0,0,0-.105.992c.005.228.017.346.035.346" transform="translate(16.818 0)" fill="#455a64"/>
            <path id="Trazado_824888" data-name="Trazado 824888" d="M44.4,18.639a10.28,10.28,0,0,0,3.236.271,10.265,10.265,0,0,0,3.237-.25,10.28,10.28,0,0,0-3.236-.271,10.265,10.265,0,0,0-3.237.25" transform="translate(58.407 0)" fill="#455a64"/>
            <path id="Trazado_824889" data-name="Trazado 824889" d="M60.957,22.922c.131.056.448-.431,1.041-.6s1.119.063,1.2-.055c.04-.055-.048-.211-.289-.345a1.435,1.435,0,0,0-1.892.552c-.132.243-.122.421-.059.446" transform="translate(29.556 0)" fill="#455a64"/>
            <path id="Trazado_824890" data-name="Trazado 824890" d="M128.629,130.651v-3.337l-47.5.971-27.349-43.7L51.268,86.4l28.021,44.68Z" transform="translate(-26.223 0)" fill="#1682fb"/>
            <path id="Trazado_824891" data-name="Trazado 824891" d="M73.03,116.088l-2.391,3.546v7.3a1.582,1.582,0,0,0,1.731-.7,29.257,29.257,0,0,0,1.155-4.37l1.157,2.988a2.577,2.577,0,0,0,3.03,1.57l8.808-2.209-3.6-10.293Z" transform="translate(-3.485 0)" fill="#ffbe9d"/>
            <path id="Trazado_824892" data-name="Trazado 824892" d="M24.016,45.592s13.147,3.287,17.091,9.2,8.436,15.734,13.275,34.777c4.222,16.617,7.48,43.157,2.908,49.383-3.149,4.288-5.156,5.379-5.156,5.379L41.988,140.7a78.444,78.444,0,0,1-26.42-15.9L0,110.6l8.24-6.5s-6.268-33.862-4.6-45.7C5.095,48.057,24.016,45.592,24.016,45.592" transform="translate(94.166 0)" fill="#35d59c"/>
            <path id="Trazado_824893" data-name="Trazado 824893" d="M33.7,55.8c5.059,1.257,9.927,3.31,16.842,3.889a7.673,7.673,0,0,0,4.668-1.017c4.364-2.7,2.853-7.684.467-11.043C53.154,44.063,49.173,41,44.827,41.436c.829-2.16-.454-4.742-2.483-5.855a8.184,8.184,0,0,0-6.726-.152,24.273,24.273,0,0,0-5.893,3.621l-7.434,5.611A14.138,14.138,0,0,0,17.942,49.1c-.962,1.854-4.521,9.129-2.94,10.494,0,0,2.022.589,3,0a1.784,1.784,0,0,0,.182-.128A18.187,18.187,0,0,1,33.7,55.8" transform="translate(81.077 0)" fill="#3ee2a8"/>
            <path id="Trazado_824894" data-name="Trazado 824894" d="M65.437,61.961l8.691,40.623a14.545,14.545,0,0,1-9.248,16.71l-37.768,7.242L22.4,112.459,53.052,102.9,44.063,63.653Z" transform="translate(56.819 0)" fill="#3ee2a8"/>
            <path id="Trazado_824895" data-name="Trazado 824895" d="M74.761,110.309a1.272,1.272,0,0,0-.06.237c-.036.175-.083.406-.143.7q-.046.235-.1.52l-.22.605-.258.706-.414.755a10.071,10.071,0,0,1-3.054,3.229,17.142,17.142,0,0,1-5.541,2.416L27.6,126.316l.252.146c-1.555-4.459-3.2-9.175-4.913-14.083l-.156.311,30.654-9.544.235-.074-.061-.24c-.534-2.092-1.1-4.332-1.681-6.589-1.781-7.114-3.451-14.077-4.9-20.834-.711-3.38-1.386-6.71-1.851-9.991-.137-.821-.133-1.632-.207-2.441a10.814,10.814,0,0,1,.267-2.375A9.933,9.933,0,0,1,47.33,56.44a10.223,10.223,0,0,1,8.007-3.586,10.456,10.456,0,0,1,7.436,3.763,19.611,19.611,0,0,1,3.832,7.061,62.644,62.644,0,0,1,1.737,7.312C70.2,80.406,71.7,88.032,72.748,93.326c.528,2.618.94,4.659,1.224,6.068l.331,1.575c.077.354.13.533.13.533s-.018-.185-.078-.543c-.067-.377-.16-.9-.28-1.585-.262-1.413-.641-3.46-1.128-6.086L68.7,70.92a62.172,62.172,0,0,0-1.716-7.365A19.974,19.974,0,0,0,63.1,56.331,10.9,10.9,0,0,0,55.353,52.4a10.685,10.685,0,0,0-8.388,3.733,10.394,10.394,0,0,0-2.2,4.363,11.279,11.279,0,0,0-.285,2.49c.073.828.072,1.68.208,2.5.464,3.309,1.136,6.643,1.845,10.031,1.447,6.769,3.115,13.737,4.9,20.855.577,2.258,1.149,4.5,1.683,6.593l.174-.314-30.643,9.579-.24.075.083.236,4.947,14.071.064.182.189-.035c15.459-2.892,28.329-5.252,37.349-7.023a17.2,17.2,0,0,0,5.593-2.505,10.117,10.117,0,0,0,3.058-3.326l.4-.774c.087-.257.17-.5.246-.721l.206-.616q.047-.291.086-.529c.046-.3.082-.535.109-.713a1.282,1.282,0,0,0,.025-.241" transform="translate(56.51 0)" fill="#263238"/>
            <path id="Trazado_824896" data-name="Trazado 824896" d="M43.875,108.218c.059,0,.112-.477-.08-1.214a5.668,5.668,0,0,0-4.1-3.937c-.745-.162-1.216-.09-1.216-.031-.006.084.445.145,1.113.384a6.551,6.551,0,0,1,3.853,3.7c.266.657.346,1.106.429,1.1" transform="translate(71.265 0)" fill="#263238"/>
            <g id="Grupo_1074829" data-name="Grupo 1074829" transform="translate(107.013 61.419)" opacity="0.2">
              <g id="Grupo_1074828" data-name="Grupo 1074828" transform="translate(0)">
                <g id="Grupo_1074827" data-name="Grupo 1074827" transform="translate(0)" clip-path="url(#clip-path-9)">
                  <path id="Trazado_824897" data-name="Trazado 824897" d="M37.061,61.419a234.142,234.142,0,0,1,9.1,43.386,34.951,34.951,0,0,1,.2,10.207,12.613,12.613,0,0,1-5.112,8.547,12.7,12.7,0,0,1-9.229,1.406c-3.134-.593-8.2-1.287-11.085-2.649l16.9-3.484s10.9-.678,6.217-21.542-6.986-35.871-6.986-35.871" transform="translate(-20.932 -61.419)"/>
                </g>
              </g>
            </g>
            <g id="Grupo_1074832" data-name="Grupo 1074832" transform="translate(114.257 48.85)" opacity="0.2">
              <g id="Grupo_1074831" data-name="Grupo 1074831" transform="translate(0)">
                <g id="Grupo_1074830" data-name="Grupo 1074830" transform="translate(0)" clip-path="url(#clip-path-10)">
                  <path id="Trazado_824898" data-name="Trazado 824898" d="M39.405,57.952c.067,1.667-.089,3.723-1.6,4.421-1.558.717-3.246-.584-4.506-1.746A72.571,72.571,0,0,0,16.111,48.85a40.235,40.235,0,0,1,23.263,9.4" transform="translate(-16.112 -48.85)"/>
                </g>
              </g>
            </g>
            <path id="Trazado_824899" data-name="Trazado 824899" d="M15.767,52.86a28.286,28.286,0,0,1,4.657-2.486,19.737,19.737,0,0,1,5.547-1.26,18.373,18.373,0,0,1,6.892.749,34.631,34.631,0,0,1,6.416,2.809c1.9,1.035,3.6,2.018,5.058,2.784a38.473,38.473,0,0,0,3.528,1.671,6.887,6.887,0,0,0,1.359.455,8.339,8.339,0,0,0-1.277-.64c-.826-.4-2.007-1-3.433-1.809l-5-2.882a33.163,33.163,0,0,0-6.5-2.887,18.33,18.33,0,0,0-7.081-.729,19.124,19.124,0,0,0-5.644,1.4,16.488,16.488,0,0,0-3.421,1.906,9.631,9.631,0,0,0-.835.658c-.184.159-.275.249-.264.263" transform="translate(88.684 0)" fill="#263238"/>
            <path id="Trazado_824900" data-name="Trazado 824900" d="M28.049,54.966c.065.065,1.26-1.126,3.372-2.828a48.851,48.851,0,0,1,18.8-9.371c2.631-.662,4.3-.9,4.288-.99a5.284,5.284,0,0,0-1.184.082,31.915,31.915,0,0,0-3.188.549,43.615,43.615,0,0,0-18.953,9.446,31.33,31.33,0,0,0-2.358,2.216,5.232,5.232,0,0,0-.779.9" transform="translate(71.114 0)" fill="#263238"/>
            <path id="Trazado_824901" data-name="Trazado 824901" d="M59.23,87.841a3.407,3.407,0,0,0,.2-.845c.1-.553.238-1.363.33-2.4a12.1,12.1,0,0,0-.172-3.732,2.153,2.153,0,0,0-1.642-1.68,1.265,1.265,0,0,0-1.281.523,1.149,1.149,0,0,0,.072,1.464l.051.05.077.013a1.62,1.62,0,0,0,1.435-.563,2.645,2.645,0,0,0,.613-1.411c.121-1,.125-1.96.192-2.977.249-4.794.445-9.135.561-12.278.044-1.494.081-2.743.11-3.724a6.869,6.869,0,0,0-.03-1.369,6.926,6.926,0,0,0-.172,1.359c-.073.978-.165,2.225-.276,3.715-.21,3.138-.464,7.476-.713,12.27-.065,1-.073,2.022-.179,2.924a2.152,2.152,0,0,1-.479,1.151,1.13,1.13,0,0,1-.981.418l.127.063a.674.674,0,0,1-.012-.84.792.792,0,0,1,.817-.334,1.731,1.731,0,0,1,1.311,1.343,12.642,12.642,0,0,1,.267,3.6c-.117,2.047-.3,3.255-.227,3.263" transform="translate(37.409 0)" fill="#e0e0e0"/>
            <path id="Trazado_824902" data-name="Trazado 824902" d="M4.034,120.909a10.366,10.366,0,0,0,1.221,1.15c.8.721,2,1.72,3.516,2.921a110.578,110.578,0,0,0,12.448,8.511,105.42,105.42,0,0,0,13.516,6.692c1.788.728,3.252,1.274,4.276,1.616a10.314,10.314,0,0,0,1.6.489,10.285,10.285,0,0,0-1.533-.679c-1-.4-2.44-1-4.2-1.765a125.225,125.225,0,0,1-13.4-6.8A132.692,132.692,0,0,1,9,124.688c-1.536-1.16-2.769-2.113-3.612-2.785a10.389,10.389,0,0,0-1.35-.994" transform="translate(109.026 0)" fill="#263238"/>
            <path id="Trazado_824903" data-name="Trazado 824903" d="M7.9,143.641c.115.086.713-.514,1.335-1.34s1.033-1.567.918-1.653-.712.513-1.334,1.34-1.034,1.566-.919,1.653" transform="translate(135.613 0)" fill="#263238"/>
            <path id="Trazado_824904" data-name="Trazado 824904" d="M13.457,141.09c.081.114.906-.351,1.68-1.206s1.162-1.716,1.041-1.786-.687.627-1.427,1.436-1.383,1.438-1.294,1.556" transform="translate(124.025 0)" fill="#263238"/>
            <path id="Trazado_824905" data-name="Trazado 824905" d="M20.425,138.589c.108.1.945-.677,1.871-1.725s1.588-1.975,1.48-2.07-.945.677-1.871,1.725-1.588,1.975-1.48,2.07" transform="translate(109.473 0)" fill="#263238"/>
            <path id="Trazado_824906" data-name="Trazado 824906" d="M28.326,134.267c.111.092,1-.8,1.995-2a7.808,7.808,0,0,0,1.594-2.335c-.11-.092-1,.8-1.995,2a7.831,7.831,0,0,0-1.594,2.335" transform="translate(93.433 0)" fill="#263238"/>
            <path id="Trazado_824907" data-name="Trazado 824907" d="M35.552,128.614a6.937,6.937,0,0,0,2.135-1.579c1.083-.98,1.883-1.86,1.786-1.967a6.963,6.963,0,0,0-2.135,1.58c-1.083.979-1.882,1.859-1.786,1.966" transform="translate(78.649 0)" fill="#263238"/>
          </g>
        </g>
      </g>
    </g>
    <g id="Grupo_1074851" data-name="Grupo 1074851" transform="translate(285 5053.301)" style="isolation: isolate">
      <g id="Grupo_1074850" data-name="Grupo 1074850" clip-path="url(#clip-path-11)" style="isolation: isolate">
        <rect id="Rectángulo_383152" data-name="Rectángulo 383152" width="61.204" height="75.896" transform="translate(0 6.303)" fill="#407bff"/>
        <g id="Grupo_1074841" data-name="Grupo 1074841" transform="translate(0 -0.001)">
          <g id="Grupo_1074840" data-name="Grupo 1074840" clip-path="url(#clip-path-12)" style="isolation: isolate">
            <g id="Grupo_1074839" data-name="Grupo 1074839" transform="translate(0 6.303)" style="isolation: isolate">
              <g id="Grupo_1074838" data-name="Grupo 1074838">
                <g id="Grupo_1074837" data-name="Grupo 1074837" clip-path="url(#clip-path-13)">
                  <rect id="Rectángulo_383153" data-name="Rectángulo 383153" width="61.204" height="75.896" transform="translate(0 0)" fill="#273a89"/>
                </g>
              </g>
            </g>
          </g>
        </g>
        <g id="Grupo_1074849" data-name="Grupo 1074849" transform="translate(0.001 6.303)" style="isolation: isolate">
          <g id="Grupo_1074848" data-name="Grupo 1074848" clip-path="url(#clip-path-14)">
            <g id="Grupo_1074844" data-name="Grupo 1074844" transform="translate(7.417 0.001)" style="isolation: isolate">
              <g id="Grupo_1074843" data-name="Grupo 1074843" transform="translate(0 0)">
                <g id="Grupo_1074842" data-name="Grupo 1074842" clip-path="url(#clip-path-15)">
                  <path id="Trazado_824909" data-name="Trazado 824909" d="M3.617,0V54.794l21.1,21.1H64.813V0Z" transform="translate(-3.617 0)" fill="#3ee2a8"/>
                </g>
              </g>
            </g>
            <g id="Grupo_1074847" data-name="Grupo 1074847" transform="translate(7.417 54.795)" opacity="0.4">
              <g id="Grupo_1074846" data-name="Grupo 1074846">
                <g id="Grupo_1074845" data-name="Grupo 1074845" clip-path="url(#clip-path-16)">
                  <path id="Trazado_824910" data-name="Trazado 824910" d="M3.617,26.722l21.1,21.1v-21.1Z" transform="translate(-3.617 -26.722)" fill="#3ee2a8"/>
                </g>
              </g>
            </g>
          </g>
        </g>
      </g>
    </g>
    <g id="Grupo_1074852" data-name="Grupo 1074852" transform="translate(327.154 5094.4)" style="isolation: isolate">
      <g id="Grupo_1074850-2" data-name="Grupo 1074850" clip-path="url(#clip-path-17)" style="isolation: isolate">
        <rect id="Rectángulo_383152-2" data-name="Rectángulo 383152" width="47.204" height="58.535" transform="translate(0 4.861)" fill="#407bff"/>
        <g id="Grupo_1074841-2" data-name="Grupo 1074841" transform="translate(0 -0.001)">
          <g id="Grupo_1074840-2" data-name="Grupo 1074840" clip-path="url(#clip-path-18)" style="isolation: isolate">
            <g id="Grupo_1074839-2" data-name="Grupo 1074839" transform="translate(0 4.861)" style="isolation: isolate">
              <g id="Grupo_1074838-2" data-name="Grupo 1074838">
                <g id="Grupo_1074837-2" data-name="Grupo 1074837" clip-path="url(#clip-path-19)">
                  <rect id="Rectángulo_383153-2" data-name="Rectángulo 383153" width="47.204" height="58.535" transform="translate(0 0)" fill="#273a89"/>
                </g>
              </g>
            </g>
          </g>
        </g>
        <g id="Grupo_1074849-2" data-name="Grupo 1074849" transform="translate(0.001 4.861)" style="isolation: isolate">
          <g id="Grupo_1074848-2" data-name="Grupo 1074848" clip-path="url(#clip-path-20)">
            <g id="Grupo_1074844-2" data-name="Grupo 1074844" transform="translate(5.721 0.001)" style="isolation: isolate">
              <g id="Grupo_1074843-2" data-name="Grupo 1074843" transform="translate(0 0)">
                <g id="Grupo_1074842-2" data-name="Grupo 1074842" clip-path="url(#clip-path-21)">
                  <path id="Trazado_824909-2" data-name="Trazado 824909" d="M3.617,0V42.26L19.894,58.537H50.815V0Z" transform="translate(-3.617 0)" fill="#3ee2a8"/>
                </g>
              </g>
            </g>
            <g id="Grupo_1074847-2" data-name="Grupo 1074847" transform="translate(5.721 42.261)" opacity="0.4">
              <g id="Grupo_1074846-2" data-name="Grupo 1074846">
                <g id="Grupo_1074845-2" data-name="Grupo 1074845" clip-path="url(#clip-path-22)">
                  <path id="Trazado_824910-2" data-name="Trazado 824910" d="M3.617,26.722,19.894,43V26.722Z" transform="translate(-3.617 -26.722)" fill="#3ee2a8"/>
                </g>
              </g>
            </g>
          </g>
        </g>
      </g>
    </g>
    <g id="Grupo_1074853" data-name="Grupo 1074853" transform="translate(363.112 5135.5)" style="isolation: isolate">
      <g id="Grupo_1074850-3" data-name="Grupo 1074850" clip-path="url(#clip-path-23)" style="isolation: isolate">
        <rect id="Rectángulo_383152-3" data-name="Rectángulo 383152" width="40.486" height="50.204" transform="translate(0 4.169)" fill="#407bff"/>
        <g id="Grupo_1074841-3" data-name="Grupo 1074841" transform="translate(0 -0.001)">
          <g id="Grupo_1074840-3" data-name="Grupo 1074840" clip-path="url(#clip-path-23)" style="isolation: isolate">
            <g id="Grupo_1074839-3" data-name="Grupo 1074839" transform="translate(0 4.169)" style="isolation: isolate">
              <g id="Grupo_1074838-3" data-name="Grupo 1074838">
                <g id="Grupo_1074837-3" data-name="Grupo 1074837" clip-path="url(#clip-path-25)">
                  <rect id="Rectángulo_383153-3" data-name="Rectángulo 383153" width="40.486" height="50.204" transform="translate(0 0)" fill="#273a89"/>
                </g>
              </g>
            </g>
          </g>
        </g>
        <g id="Grupo_1074849-3" data-name="Grupo 1074849" transform="translate(0.001 4.169)" style="isolation: isolate">
          <g id="Grupo_1074848-3" data-name="Grupo 1074848" clip-path="url(#clip-path-26)">
            <g id="Grupo_1074844-3" data-name="Grupo 1074844" transform="translate(4.906 0.001)" style="isolation: isolate">
              <g id="Grupo_1074843-3" data-name="Grupo 1074843" transform="translate(0 0)">
                <g id="Grupo_1074842-3" data-name="Grupo 1074842" clip-path="url(#clip-path-27)">
                  <path id="Trazado_824909-3" data-name="Trazado 824909" d="M3.617,0V36.246l13.96,13.96H44.1V0Z" transform="translate(-3.617 0)" fill="#3ee2a8"/>
                </g>
              </g>
            </g>
            <g id="Grupo_1074847-3" data-name="Grupo 1074847" transform="translate(4.906 36.246)" opacity="0.4">
              <g id="Grupo_1074846-3" data-name="Grupo 1074846">
                <g id="Grupo_1074845-3" data-name="Grupo 1074845" clip-path="url(#clip-path-28)">
                  <path id="Trazado_824910-3" data-name="Trazado 824910" d="M3.617,26.722l13.96,13.96V26.722Z" transform="translate(-3.617 -26.722)" fill="#3ee2a8"/>
                </g>
              </g>
            </g>
          </g>
        </g>
      </g>
    </g>
    <rect id="Rectángulo_383160" data-name="Rectángulo 383160" width="505" height="304" transform="translate(180 5034)" fill="none"/>
  </g>
</svg>
