<svg xmlns="http://www.w3.org/2000/svg" width="610" height="256" viewBox="0 0 610 256">
  <g id="_68" data-name="68" transform="translate(-495 -14013)">
    <path id="Trazado_830263" data-name="Trazado 830263" d="M8,0H602a8,8,0,0,1,8,8V248a8,8,0,0,1-8,8H8a8,8,0,0,1-8-8V8A8,8,0,0,1,8,0Z" transform="translate(495 14013)" fill="#f6f6f6"/>
    <path id="Trazado_830264" data-name="Trazado 830264" d="M180.5,0C280.187,0,361,46.115,361,103S280.187,206,180.5,206,0,159.885,0,103,80.813,0,180.5,0Z" transform="translate(620 14036)" fill="#bae9d9"/>
    <path id="Trazado_830265" data-name="Trazado 830265" d="M6.306-2.834a1.056,1.056,0,0,0-.4-.879,4.961,4.961,0,0,0-1.4-.652,13.456,13.456,0,0,1-1.641-.652,3.107,3.107,0,0,1-2.073-2.8,2.509,2.509,0,0,1,.516-1.564,3.34,3.34,0,0,1,1.461-1.055,5.686,5.686,0,0,1,2.124-.377,4.974,4.974,0,0,1,2.062.41A3.264,3.264,0,0,1,8.372-9.232,3.051,3.051,0,0,1,8.877-7.5H6.313a1.289,1.289,0,0,0-.4-1.011,1.556,1.556,0,0,0-1.08-.359,1.755,1.755,0,0,0-1.088.3.932.932,0,0,0-.4.773.939.939,0,0,0,.439.743,5.542,5.542,0,0,0,1.545.688A9.467,9.467,0,0,1,7.148-5.6,3.052,3.052,0,0,1,8.877-2.849a2.6,2.6,0,0,1-1.055,2.2,4.691,4.691,0,0,1-2.893.8A5.74,5.74,0,0,1,2.582-.319,3.539,3.539,0,0,1,1-1.593,3.321,3.321,0,0,1,.469-3.457H3.047A1.635,1.635,0,0,0,3.49-2.194a2.094,2.094,0,0,0,1.439.406,1.655,1.655,0,0,0,1.007-.275A.907.907,0,0,0,6.306-2.834ZM19.241-5.112a6.3,6.3,0,0,1-.491,2.582A4.488,4.488,0,0,1,17.4-.762L19.116.6,17.527,1.948,15.234.1a4.765,4.765,0,0,1-.645.044,4.622,4.622,0,0,1-2.417-.63,4.284,4.284,0,0,1-1.644-1.8,6.119,6.119,0,0,1-.612-2.7v-.564a6.31,6.31,0,0,1,.575-2.769,4.285,4.285,0,0,1,1.641-1.846,4.586,4.586,0,0,1,2.443-.652,4.566,4.566,0,0,1,2.417.645,4.343,4.343,0,0,1,1.652,1.835,6.135,6.135,0,0,1,.6,2.728Zm-2.615-.447a4.484,4.484,0,0,0-.531-2.413,1.7,1.7,0,0,0-1.52-.824,1.692,1.692,0,0,0-1.531.813,4.543,4.543,0,0,0-.52,2.38v.491a4.609,4.609,0,0,0,.52,2.413,1.7,1.7,0,0,0,1.545.839,1.678,1.678,0,0,0,1.505-.828,4.512,4.512,0,0,0,.531-2.38Zm6.5,3.582H27.6V0H20.552V-10.664h2.571Z" transform="translate(667.185 14139.775)" fill="#12263f"/>
    <path id="Trazado_830266" data-name="Trazado 830266" d="M44.5,0C69.077,0,89,11.193,89,25S69.077,50,44.5,50,0,38.807,0,25,19.923,0,44.5,0Z" transform="translate(714 14066)" fill="#3ee2a8"/>
    <path id="Trazado_830267" data-name="Trazado 830267" d="M.806,0V-10.664H4.241a5.053,5.053,0,0,1,2.542.641A4.5,4.5,0,0,1,8.544-8.214,5.462,5.462,0,0,1,9.185-5.6V-5.1a5.494,5.494,0,0,1-.619,2.626A4.524,4.524,0,0,1,6.823-.663,4.942,4.942,0,0,1,4.314,0ZM3.376-8.679v6.7H4.27a2,2,0,0,0,1.7-.787A3.858,3.858,0,0,0,6.563-5.1v-.461A3.827,3.827,0,0,0,5.969-7.9a2.035,2.035,0,0,0-1.729-.784ZM10.5,0V-10.664h3.435a5.053,5.053,0,0,1,2.542.641,4.5,4.5,0,0,1,1.761,1.809A5.462,5.462,0,0,1,18.882-5.6V-5.1a5.494,5.494,0,0,1-.619,2.626A4.524,4.524,0,0,1,16.52-.663,4.942,4.942,0,0,1,14.011,0Zm2.571-8.679v6.7h.894a2,2,0,0,0,1.7-.787A3.858,3.858,0,0,0,16.26-5.1v-.461A3.827,3.827,0,0,0,15.667-7.9a2.035,2.035,0,0,0-1.729-.784Zm9.7,6.7h4.475V0H20.2V-10.664h2.571Z" transform="translate(742.242 14095.456)" fill="#12263f"/>
    <path id="Trazado_830268" data-name="Trazado 830268" d="M44.5,0C69.077,0,89,11.417,89,25.5S69.077,51,44.5,51,0,39.583,0,25.5,19.923,0,44.5,0Z" transform="translate(824 14085)" fill="#ffce00"/>
    <path id="Trazado_830269" data-name="Trazado 830269" d="M4.182-10.664l2.38,7.419,2.373-7.419h3.384V0H9.741V-2.49l.249-5.1L7.412,0h-1.7L3.127-7.6l.249,5.1V0H.806V-10.664ZM13.953,0V-10.664h3.435a5.053,5.053,0,0,1,2.542.641,4.5,4.5,0,0,1,1.761,1.809A5.462,5.462,0,0,1,22.332-5.6V-5.1a5.494,5.494,0,0,1-.619,2.626A4.524,4.524,0,0,1,19.969-.663,4.942,4.942,0,0,1,17.461,0Zm2.571-8.679v6.7h.894a2,2,0,0,0,1.7-.787,3.858,3.858,0,0,0,.593-2.34v-.461A3.827,3.827,0,0,0,19.116-7.9a2.035,2.035,0,0,0-1.729-.784Zm9.7,6.7H30.7V0H23.65V-10.664h2.571Z" transform="translate(853.04 14114.757)" fill="#12263f"/>
    <path id="Trazado_830270" data-name="Trazado 830270" d="M44.5,0C69.077,0,89,11.193,89,25S69.077,50,44.5,50,0,38.807,0,25,19.923,0,44.5,0Z" transform="translate(714 14158)" fill="#12263f"/>
    <path id="Trazado_830271" data-name="Trazado 830271" d="M9.177-8.679h-3.2V0H3.406V-8.679H.264v-1.985H9.177Zm9.712,5.068a3.9,3.9,0,0,1-.6,1.967A3.625,3.625,0,0,1,16.747-.322,5.248,5.248,0,0,1,14.48.146a4.188,4.188,0,0,1-3.311-1.37A5.655,5.655,0,0,1,9.961-5.09v-.527a6.455,6.455,0,0,1,.546-2.743,4.134,4.134,0,0,1,1.571-1.816,4.383,4.383,0,0,1,2.373-.641A4.6,4.6,0,0,1,17.571-9.8a4.037,4.037,0,0,1,1.34,2.816H16.348a1.91,1.91,0,0,0-.491-1.4A2.018,2.018,0,0,0,14.451-8.8a1.536,1.536,0,0,0-1.406.718,4.613,4.613,0,0,0-.469,2.292v.754A5.1,5.1,0,0,0,13-2.6a1.568,1.568,0,0,0,1.476.732,1.974,1.974,0,0,0,1.355-.417,1.772,1.772,0,0,0,.5-1.326Zm3.787,1.633h4.475V0H20.1V-10.664h2.571Z" transform="translate(742.242 14186.954)" fill="#fff"/>
    <path id="Trazado_830272" data-name="Trazado 830272" d="M44.5,0C69.077,0,89,11.417,89,25.5S69.077,51,44.5,51,0,39.583,0,25.5,19.923,0,44.5,0Z" transform="translate(819 14148)" fill="#afafaf"/>
    <path id="Trazado_830273" data-name="Trazado 830273" d="M.806,0V-10.664H4.241a5.053,5.053,0,0,1,2.542.641A4.5,4.5,0,0,1,8.544-8.214,5.462,5.462,0,0,1,9.185-5.6V-5.1a5.494,5.494,0,0,1-.619,2.626A4.524,4.524,0,0,1,6.823-.663,4.942,4.942,0,0,1,4.314,0ZM3.376-8.679v6.7H4.27a2,2,0,0,0,1.7-.787A3.858,3.858,0,0,0,6.563-5.1v-.461A3.827,3.827,0,0,0,5.969-7.9a2.035,2.035,0,0,0-1.729-.784ZM19.131-3.611a3.9,3.9,0,0,1-.6,1.967A3.625,3.625,0,0,1,16.989-.322a5.248,5.248,0,0,1-2.267.469,4.188,4.188,0,0,1-3.311-1.37A5.655,5.655,0,0,1,10.2-5.09v-.527a6.455,6.455,0,0,1,.546-2.743,4.134,4.134,0,0,1,1.571-1.816,4.383,4.383,0,0,1,2.373-.641A4.6,4.6,0,0,1,17.813-9.8a4.037,4.037,0,0,1,1.34,2.816H16.589a1.91,1.91,0,0,0-.491-1.4A2.018,2.018,0,0,0,14.692-8.8a1.536,1.536,0,0,0-1.406.718,4.613,4.613,0,0,0-.469,2.292v.754A5.1,5.1,0,0,0,13.246-2.6a1.568,1.568,0,0,0,1.476.732,1.974,1.974,0,0,0,1.355-.417,1.772,1.772,0,0,0,.5-1.326Zm3.787,1.633h4.475V0H20.347V-10.664h2.571Z" transform="translate(847.321 14177.661)" fill="#fff"/>
  </g>
</svg>
