<svg xmlns="http://www.w3.org/2000/svg" xmlns:xlink="http://www.w3.org/1999/xlink" width="1328" height="628" viewBox="0 0 1328 628">
  <defs>
    <clipPath id="clip-path">
      <rect id="Rectángulo_383171" data-name="Rectángulo 383171" width="1328" height="628" transform="translate(136 1489)" fill="#dcecfe"/>
    </clipPath>
  </defs>
  <g id="bg-slide1" transform="translate(-135 -7664)">
    <g id="Enmascarar_grupo_1074252" data-name="Enmascarar grupo 1074252" transform="translate(-1 6175)" clip-path="url(#clip-path)">
      <g id="Grupo_1074858" data-name="Grupo 1074858" transform="translate(-33.727 1486.365)">
        <g id="Trazado_824928" data-name="Trazado 824928" transform="translate(1352.139 136.174) rotate(30)" fill="#273a89" opacity="0.758">
          <path d="M 101.1118011474609 182.4610748291016 C 101.1096420288086 182.4610748291016 101.1083755493164 182.4610748291016 101.1062164306641 182.4610748291016 C 98.77484893798828 182.4608764648438 96.38985443115234 182.3386688232422 94.01748657226562 182.0978088378906 C 88.74382781982422 181.5623626708984 83.41889953613281 180.4334869384766 78.19064331054688 178.7425079345703 C 73.09273529052734 177.0937042236328 68.02489471435547 174.8909454345703 63.12789535522461 172.1954345703125 C 58.31764602661133 169.5476684570312 53.6236457824707 166.3980712890625 49.17621612548828 162.8341369628906 C 44.76969146728516 159.3029632568359 40.56692123413086 155.3345031738281 36.68462371826172 151.0390319824219 C 32.80171585083008 146.7428741455078 29.20755577087402 142.0843200683594 26.0019645690918 137.1927947998047 C 22.76555633544922 132.2542572021484 19.89698791503906 127.0348281860352 17.47594261169434 121.6795043945312 C 12.43957805633545 110.5390777587891 9.34473705291748 98.93495941162109 8.277374267578125 87.18950653076172 C 7.731964588165283 81.18791198730469 7.737282752990723 75.24909973144531 8.293124198913574 69.5379638671875 C 8.834396362304688 63.97666549682617 9.903487205505371 58.56709671020508 11.4706916809082 53.45952987670898 C 13.00860118865967 48.44750595092773 15.04035091400146 43.67887115478516 17.5095100402832 39.28602981567383 C 19.95475959777832 34.93575668334961 22.84841918945312 30.91905212402344 26.1101016998291 27.3475284576416 C 31.75198745727539 21.1696891784668 38.42162322998047 16.35548400878906 45.93373870849609 13.03861999511719 C 53.66164779663086 9.626483917236328 62.07492065429688 7.896392822265625 70.93984985351562 7.896392822265625 C 73.26927947998047 7.896392822265625 75.65425872802734 8.018620491027832 78.02853393554688 8.259665489196777 C 83.30219268798828 8.795097351074219 88.62712097167969 9.923983573913574 93.85537719726562 11.61496067047119 C 98.95328521728516 13.26375675201416 104.021125793457 15.46652889251709 108.9181213378906 18.16205215454102 C 113.7283706665039 20.80980110168457 118.4223937988281 23.95939254760742 122.8698043823242 27.52334785461426 C 127.2763290405273 31.05450630187988 131.4790954589844 35.0229606628418 135.3613891601562 39.31843948364258 C 139.2443084716797 43.61462020874023 142.8384857177734 48.27316665649414 146.0440826416016 53.16468811035156 C 149.2804870605469 58.10323333740234 152.1490631103516 63.3226432800293 154.5700836181641 68.67796325683594 C 159.6064453125 79.81838989257812 162.7012786865234 91.42250823974609 163.7686462402344 103.1679611206055 C 164.3140716552734 109.1698913574219 164.3087310791016 115.1091003417969 163.7528076171875 120.8206405639648 C 163.2114715576172 126.3823471069336 162.1422119140625 131.7922821044922 160.5747985839844 136.9002075195312 C 159.0366973876953 141.91259765625 157.0046844482422 146.6815795898438 154.5352630615234 151.0746612548828 C 152.0897216796875 155.4252166748047 149.1957397460938 159.4420928955078 145.9336853027344 163.0137329101562 C 140.2918548583984 169.1910095214844 133.6224670410156 174.0046234130859 126.1107864379883 177.3208465576172 C 118.385124206543 180.7315673828125 109.9736938476562 182.4610748291016 101.1118011474609 182.4610748291016 Z" stroke="none"/>
          <path d="M 101.11181640625 181.9610595703125 C 109.9051971435547 181.9610595703125 118.2491760253906 180.2454223632812 125.9119644165039 176.8618316650391 C 133.3590545654297 173.5734405517578 139.9715881347656 168.8001403808594 145.5658416748047 162.6744537353516 C 148.8020324707031 159.1308288574219 151.6733703613281 155.1449890136719 154.1001129150391 150.8276672363281 C 156.5518646240234 146.4657592773438 158.5695343017578 141.7299957275391 160.0970611572266 136.7519226074219 C 161.6545562744141 131.6761169433594 162.7171020507812 126.299446105957 163.2551727294922 120.7712554931641 C 163.8080596923828 115.091064453125 163.8132781982422 109.1836853027344 163.2707061767578 103.2132110595703 C 162.2083892822266 91.52344512939453 159.1277923583984 79.97342681884766 154.1144561767578 68.88394927978516 C 151.7040863037109 63.55218505859375 148.8480987548828 58.35566329956055 145.6258697509766 53.4387321472168 C 142.4343872070312 48.56875610351562 138.8561248779297 43.93078231811523 134.9904632568359 39.65370941162109 C 131.1260375976562 35.37799453735352 126.94287109375 31.42802047729492 122.55712890625 27.91351890563965 C 118.1321029663086 24.36749649047852 113.4621505737305 21.23399543762207 108.6770324707031 18.60006713867188 C 103.8077697753906 15.91982936859131 98.76929473876953 13.72975730895996 93.70150756835938 12.09068584442139 C 88.50677490234375 10.41056728363037 83.21662902832031 9.288995742797852 77.97803497314453 8.757114410400391 C 75.6204833984375 8.517757415771484 73.25251007080078 8.396400451660156 70.93986511230469 8.396400451660156 C 62.14491653442383 8.396400451660156 53.79958343505859 10.11216259002686 46.13570022583008 13.49604320526123 C 38.68743896484375 16.78470993041992 32.07408142089844 21.5584716796875 26.47929573059082 27.68473434448242 C 23.24322509765625 31.22823333740234 20.37198638916016 35.21390151977539 17.94536781311035 39.53106689453125 C 15.49370098114014 43.89278030395508 13.47612953186035 48.62835311889648 11.94870090484619 53.60623550415039 C 10.39127254486084 58.68185424804688 9.32879638671875 64.05838012695312 8.790772438049316 69.58642578125 C 8.23796272277832 75.26647186279297 8.232771873474121 81.17378234863281 8.775343894958496 87.14425659179688 C 9.837653160095215 98.83402252197266 12.91824817657471 110.3840637207031 17.93155860900879 121.4735412597656 C 20.34196281433105 126.805305480957 23.19791412353516 132.0018005371094 26.42015266418457 136.9187316894531 C 29.61165237426758 141.7887268066406 33.18991470336914 146.4266815185547 37.05558013916016 150.7037506103516 C 40.91998672485352 154.9794769287109 45.10317611694336 158.929443359375 49.4888916015625 162.4439697265625 C 53.9139404296875 165.9899749755859 58.58386611938477 169.1234741210938 63.36898803710938 171.7574005126953 C 68.23825073242188 174.4376373291016 73.27674865722656 176.6277160644531 78.34451293945312 178.2667846679688 C 83.53924560546875 179.9468994140625 88.82939147949219 181.0684661865234 94.06798553466797 181.6003570556641 C 96.42367553710938 181.8395233154297 98.79170227050781 181.9608764648438 101.1062469482422 181.9610595703125 L 101.11181640625 181.9610595703125 M 101.1061706542969 182.9610748291016 C 98.767822265625 182.9608764648438 96.3829345703125 182.8405151367188 93.96698760986328 182.5952301025391 C 50.75424957275391 178.2079010009766 12.16677188873291 135.5135498046875 7.779438972473145 87.23475646972656 C 3.637370824813843 41.65517425537109 31.45342826843262 7.396395206451416 70.93985748291016 7.396395206451416 C 73.27820587158203 7.396395206451416 75.6630859375 7.516945838928223 78.07903289794922 7.762233734130859 C 121.2917709350586 12.14956760406494 159.8792724609375 54.84394836425781 164.2666015625 103.1227111816406 C 168.4086456298828 148.7023315429688 140.5926055908203 182.9643402099609 101.1061706542969 182.9610748291016 Z" stroke="none" fill="#707070"/>
        </g>
        <g id="Trazado_824929" data-name="Trazado 824929" transform="translate(1405.976 217.855) rotate(30)" fill="#273a89" opacity="0.466">
          <path d="M 101.1314086914062 182.8773956298828 C 101.1297912597656 182.8773956298828 101.1286697387695 182.8773956298828 101.1270523071289 182.8773956298828 C 98.80159759521484 182.8772583007812 96.42223358154297 182.7552947998047 94.0550537109375 182.5149841308594 C 88.78145599365234 181.9795532226562 83.45648193359375 180.8492736816406 78.22805023193359 179.1555328369141 C 73.12993621826172 177.5039978027344 68.06175231933594 175.2971801757812 63.16429901123047 172.5964050292969 C 58.35359573364258 169.9434509277344 53.65900421142578 166.7874145507812 49.21091461181641 163.2159729003906 C 44.8037109375 159.6773681640625 40.60011672973633 155.7003631591797 36.71696090698242 151.3954620361328 C 32.83316421508789 147.0898742675781 29.23802757263184 142.4209289550781 26.03139114379883 137.5183715820312 C 22.79393577575684 132.5686645507812 19.92427635192871 127.3372955322266 17.50207328796387 121.969596862793 C 12.46329975128174 110.8033447265625 9.365913391113281 99.17179870605469 8.295981407165527 87.3980712890625 C 7.748436450958252 81.37293243408203 7.753300189971924 75.41095733642578 8.310436248779297 69.67768859863281 C 8.852913856506348 64.09497833251953 9.924822807312012 58.66504669189453 11.49634552001953 53.5386848449707 C 13.03848171234131 48.50825500488281 15.0758228302002 43.72286605834961 17.55182266235352 39.31541061401367 C 20.00386810302734 34.9505729675293 22.90545845031738 30.92159461975098 26.17595863342285 27.34041213989258 C 31.81604957580566 21.16450309753418 38.48025512695312 16.35211753845215 45.98345947265625 13.0369119644165 C 53.70220947265625 9.626480102539062 62.10423278808594 7.897230625152588 70.95616149902344 7.897230625152588 C 73.28016662597656 7.897230625152588 75.65953063964844 8.019162178039551 78.02816009521484 8.259639739990234 C 83.3017578125 8.795071601867676 88.62673187255859 9.925344467163086 93.85516357421875 11.6190938949585 C 98.95327758789062 13.27061653137207 104.0214614868164 15.47741222381592 108.9189147949219 18.17820739746094 C 113.7295989990234 20.83116149902344 118.4242095947266 23.98718452453613 122.8722991943359 27.55863952636719 C 127.2795028686523 31.09725379943848 131.4830780029297 35.0742301940918 135.3662567138672 39.3791389465332 C 139.2500457763672 43.68475341796875 142.8451843261719 48.35368347167969 146.0518188476562 53.25622940063477 C 149.2892761230469 58.20595932006836 152.158935546875 63.43732070922852 154.5811462402344 68.80502319335938 C 159.6199188232422 79.97125244140625 162.7172698974609 91.60279846191406 163.7872161865234 103.3765258789062 C 164.3347778320312 109.4019088745117 164.3298950195312 115.3642044067383 163.7726898193359 121.0977783203125 C 163.2301177978516 126.680778503418 162.1581115722656 132.1110229492188 160.5864105224609 137.2376403808594 C 159.0441436767578 142.2683715820312 157.006591796875 147.0540313720703 154.5303955078125 151.4616546630859 C 152.078125 155.8267059326172 149.1762847900391 159.8558502197266 145.9055023193359 163.4370880126953 C 140.2654113769531 169.6125640869141 133.6014099121094 174.4244995117188 126.0985717773438 177.7392272949219 C 118.3815078735352 181.1486053466797 109.9810333251953 182.8773956298828 101.1314086914062 182.8773956298828 Z" stroke="none"/>
          <path d="M 101.1313095092773 182.3773956298828 C 109.9117889404297 182.3773956298828 118.2446899414062 180.6625823974609 125.8984985351562 177.2805633544922 C 133.3369293212891 173.9937438964844 139.9442596435547 169.2220611572266 145.5369567871094 163.0980834960938 C 148.7819061279297 159.5448760986328 151.6611633300781 155.5467987060547 154.0947113037109 151.2149353027344 C 156.5533294677734 146.8384704589844 158.5766448974609 142.0860137939453 160.1083984375 137.0895538330078 C 161.6702575683594 131.9950103759766 162.7356414794922 126.598014831543 163.2749786376953 121.0484924316406 C 163.8291625976562 115.3462066650391 163.8339691162109 109.4157257080078 163.2892608642578 103.4217758178711 C 162.2243804931641 91.70360565185547 159.1412200927734 80.12603759765625 154.1253814697266 69.01068115234375 C 151.7138366699219 63.66648864746094 148.8567199707031 58.45803833007812 145.6333770751953 53.5299186706543 C 142.4408264160156 48.64886856079102 138.861572265625 44.00053787231445 134.9949951171875 39.71403503417969 C 131.1296691894531 35.42891693115234 126.9456939697266 31.4704418182373 122.5592651367188 27.94851303100586 C 118.133544921875 24.3950366973877 113.463020324707 21.2551326751709 108.6774749755859 18.61603736877441 C 103.8078079223633 15.93058395385742 98.76902770996094 13.73648929595947 93.70107269287109 12.09475135803223 C 88.50624084472656 10.41189384460449 83.21611785888672 9.288941383361816 77.97764587402344 8.757083892822266 C 75.62583160400391 8.518298149108887 73.26347351074219 8.39722728729248 70.95619201660156 8.39722728729248 C 62.17428588867188 8.39722728729248 53.84021377563477 10.11210823059082 46.18552398681641 13.49427509307861 C 38.74616622924805 16.78127479553223 32.13821411132812 21.55322647094727 26.545166015625 27.67758369445801 C 23.3003101348877 31.23070335388184 20.42116737365723 35.22863006591797 17.98773765563965 39.56032180786133 C 15.5292387008667 43.93663024902344 13.50604820251465 48.68894195556641 11.97440528869629 53.68524932861328 C 10.41264343261719 58.77967834472656 9.347357749938965 64.17658233642578 8.808072090148926 69.72603607177734 C 8.253976821899414 75.42825317382812 8.249214172363281 81.35874938964844 8.793929100036621 87.35282135009766 C 9.858809471130371 99.07099151611328 12.94200038909912 110.6485595703125 17.95783424377441 121.763916015625 C 20.36938095092773 127.1081085205078 23.22652435302734 132.3165893554688 26.44983291625977 137.2446746826172 C 29.64238166809082 142.125732421875 33.2216682434082 146.7740631103516 37.08823776245117 151.0605621337891 C 40.95354843139648 155.3456726074219 45.13752365112305 159.3041839599609 49.52395248413086 162.8261108398438 C 53.94966506958008 166.3795776367188 58.62018966674805 169.5194702148438 63.40576171875 172.1585540771484 C 68.27542877197266 174.8440399169922 73.31419372558594 177.0381011962891 78.38214111328125 178.6798706054688 C 83.57697296142578 180.3627319335938 88.86709594726562 181.4856719970703 94.10556793212891 182.0175323486328 C 96.45597839355469 182.2561798095703 98.818359375 182.3772583007812 101.1298828125 182.3773956298828 L 101.1313095092773 182.3773956298828 M 101.1269912719727 183.3773956298828 C 98.79362487792969 183.3772430419922 96.41521453857422 183.2571716308594 94.00454711914062 183.0124206542969 C 50.79180908203125 178.6250610351562 12.19583320617676 135.8373260498047 7.79802417755127 87.44332122802734 C 3.645551204681396 41.7490348815918 31.46250915527344 7.397223472595215 70.95618438720703 7.397223472595215 C 73.28955078125 7.397223472595215 75.66799163818359 7.517449855804443 78.07866668701172 7.762203216552734 C 121.2914047241211 12.14953708648682 159.8874053955078 54.93727493286133 164.2851715087891 103.3312759399414 C 168.4376373291016 149.0255584716797 140.6206512451172 183.3798828125 101.1269912719727 183.3773956298828 Z" stroke="none" fill="#707070"/>
        </g>
        <g id="Trazado_824930" data-name="Trazado 824930" transform="translate(1410.287) rotate(30)" fill="#273a89" opacity="0.518">
          <path d="M 95.49662017822266 172.6829833984375 C 95.49509429931641 172.6829833984375 95.49497985839844 172.6829833984375 95.49345397949219 172.6829833984375 C 93.29914855957031 172.6828765869141 91.05362701416016 172.5678100585938 88.81927490234375 172.3409576416016 C 83.84149932861328 171.8355712890625 78.81517028808594 170.7685852050781 73.87990570068359 169.169677734375 C 69.06752014160156 167.6105651855469 64.28336334228516 165.5271911621094 59.66032028198242 162.9774627685547 C 55.11903762817383 160.4728088378906 50.68734359741211 157.4931793212891 46.48830032348633 154.1213226318359 C 42.32775497436523 150.7803955078125 38.35945129394531 147.0255432128906 34.693603515625 142.9610595703125 C 31.02712631225586 138.8959197998047 27.63312721252441 134.4877014160156 24.60590934753418 129.85888671875 C 21.549560546875 125.185546875 18.84040832519531 120.2462844848633 16.55371284484863 115.1782836914062 C 11.79684352874756 104.635612487793 8.87269115447998 93.65365600585938 7.862517833709717 82.53746032714844 C 7.345517635345459 76.84852600097656 7.350104331970215 71.21922302246094 7.876104354858398 65.80591583251953 C 8.388278007507324 60.53495788574219 9.400257110595703 55.40828323364258 10.88395214080811 50.56830596923828 C 12.33982181549072 45.81904602050781 14.26321315765381 41.30119705200195 16.60064888000488 37.14023971557617 C 18.91545295715332 33.01963424682617 21.65456199645996 29.2161750793457 24.74193000793457 25.83552360534668 C 30.06506156921387 20.0067195892334 36.35451889038086 15.46478462219238 43.43556213378906 12.33593654632568 C 50.72012710571289 9.117154121398926 58.64951705932617 7.485110759735107 67.00349426269531 7.485110759735107 C 69.19673156738281 7.485110759735107 71.44223785400391 7.600175857543945 73.67765045166016 7.827132225036621 C 78.65543365478516 8.332523345947266 83.68175506591797 9.399501800537109 88.61701965332031 10.99841499328613 C 93.42940521240234 12.55752372741699 98.21356201171875 14.64089298248291 102.8366012573242 17.19063186645508 C 107.3778839111328 19.69528388977051 111.8095855712891 22.67493629455566 116.0086288452148 26.04678535461426 C 120.1691513061523 29.38772010803223 124.137451171875 33.1425666809082 127.8032989501953 37.20702362060547 C 131.4698028564453 41.27219772338867 134.8638000488281 45.68041610717773 137.8910217285156 50.30921936035156 C 140.9473419189453 54.9825439453125 143.656494140625 59.92182922363281 145.9431915283203 64.98983001708984 C 150.7000885009766 75.53250122070312 153.6242370605469 86.51445770263672 154.6344146728516 97.63065338134766 C 155.1514282226562 103.3197860717773 155.1468200683594 108.9492874145508 154.6207733154297 114.3628082275391 C 154.1085662841797 119.6339797973633 153.0964965820312 124.760871887207 151.6126861572266 129.6010437011719 C 150.1567077636719 134.3505249023438 148.2331848144531 138.8685455322266 145.8955841064453 143.0296325683594 C 143.5806274414062 147.1504211425781 140.8413391113281 150.9539642333984 137.7537841796875 154.3346557617188 C 132.4306488037109 160.1631774902344 126.1413421630859 164.7047576904297 119.0605621337891 167.8332672119141 C 111.7775268554688 171.0511016845703 103.8485488891602 172.6829833984375 95.49662017822266 172.6829833984375 Z" stroke="none"/>
          <path d="M 95.49663543701172 172.1829833984375 C 103.7793350219727 172.1829833984375 111.6397933959961 170.5652923583984 118.8596115112305 167.3748931884766 C 125.8761138916016 164.2743377685547 132.1088562011719 159.7730255126953 137.3847198486328 153.9959564208984 C 140.4465179443359 150.6432952880859 143.1633148193359 146.8707733154297 145.4595947265625 142.7831878662109 C 147.7796783447266 138.6532287597656 149.6890258789062 134.1683654785156 151.1345367431641 129.4531402587891 C 152.6085357666016 124.6449966430664 153.614013671875 119.5513153076172 154.123046875 114.313591003418 C 154.6461029052734 108.9313430786133 154.650634765625 103.333610534668 154.1364898681641 97.67588806152344 C 153.1313323974609 86.61527252197266 150.2213897705078 75.68727111816406 145.4874572753906 65.19545745849609 C 143.2113647460938 60.1510009765625 140.5147705078125 55.23461532592773 137.4725646972656 50.5828857421875 C 134.4594116210938 45.97558975219727 131.081298828125 41.58797836303711 127.4320220947266 37.54190826416016 C 123.7840194702148 33.49724960327148 119.8353118896484 29.76088714599609 115.6955642700195 26.43665885925293 C 111.5189056396484 23.08275032043457 107.1112899780273 20.11924934387207 102.5951309204102 17.62847709655762 C 93.21286010742188 12.4538631439209 83.46661376953125 9.323591232299805 73.62715911865234 8.324590682983398 C 71.40845489501953 8.099340438842773 69.179931640625 7.985113620758057 67.00347137451172 7.985113620758057 C 58.71952056884766 7.985113620758057 50.85811233520508 9.602818489074707 43.63761138916016 12.79329586029053 C 36.62040710449219 15.89393138885498 30.38717842102051 20.39540863037109 25.11111068725586 26.17270469665527 C 22.04938316345215 29.52524948120117 19.33272361755371 33.29766082763672 17.03656578063965 37.38511276245117 C 14.71658802032471 41.51493072509766 12.80738353729248 45.99970626831055 11.36197376251221 50.71483993530273 C 9.888088226318359 55.52290725708008 8.88270092010498 60.61654663085938 8.373769760131836 65.85427093505859 C 7.850769519805908 71.23650360107422 7.846292495727539 76.83432006835938 8.360451698303223 82.49220275878906 C 9.365588188171387 93.55284118652344 12.27554225921631 104.480842590332 17.00947380065918 114.9726333618164 C 19.28556442260742 120.0171127319336 21.98215675354004 124.9335021972656 25.02436065673828 129.5852203369141 C 28.03749656677246 134.1925201416016 31.41563415527344 138.5801391601562 35.06488418579102 142.6262054443359 C 38.71290588378906 146.6708679199219 42.6616096496582 150.4072113037109 46.80133819580078 153.7314605712891 C 50.97801971435547 157.0853424072266 55.3856315612793 160.0488433837891 59.90179061889648 162.5396423339844 C 69.28406524658203 167.7142486572266 79.03031158447266 170.8445281982422 88.86976623535156 171.843505859375 C 91.08736419677734 172.0686645507812 93.31590270996094 172.182861328125 95.49506378173828 172.1829833984375 L 95.49663543701172 172.1829833984375 M 95.49345397949219 173.1829833984375 C 93.29010009765625 173.1828765869141 91.04512023925781 173.0695037841797 88.76876831054688 172.83837890625 C 47.96381378173828 168.6955261230469 11.51790618896484 128.2866516113281 7.364564895629883 82.58270263671875 C 3.442901372909546 39.42839813232422 29.71041107177734 6.985110759735107 67.00347900390625 6.985110759735107 C 69.20683288574219 6.985110759735107 71.45180511474609 7.098588943481445 73.72815704345703 7.329704284667969 C 114.5331115722656 11.47259044647217 150.97900390625 51.88145446777344 155.1323852539062 97.58538818359375 C 159.0540466308594 140.7397155761719 132.7865142822266 173.184814453125 95.49345397949219 173.1829833984375 Z" stroke="none" fill="#707070"/>
        </g>
        <g id="Elipse_9951" data-name="Elipse 9951" transform="translate(160.803 439.441)" fill="#1682fb" stroke="#707070" stroke-width="1" opacity="0.901">
          <ellipse cx="151.068" cy="188.695" rx="151.068" ry="188.695" stroke="none"/>
          <ellipse cx="151.068" cy="188.695" rx="150.568" ry="188.195" fill="none"/>
        </g>
        <g id="Elipse_9952" data-name="Elipse 9952" transform="translate(0 366.485)" fill="#273a89" stroke="#707070" stroke-width="1" opacity="0.503">
          <ellipse cx="151.068" cy="189.145" rx="151.068" ry="189.145" stroke="none"/>
          <ellipse cx="151.068" cy="189.145" rx="150.568" ry="188.645" fill="none"/>
        </g>
        <g id="Elipse_9953" data-name="Elipse 9953" transform="translate(264.963 279.591)" fill="#273a89" stroke="#707070" stroke-width="1" opacity="0.426">
          <ellipse cx="79.568" cy="99.767" rx="79.568" ry="99.767" stroke="none"/>
          <ellipse cx="79.568" cy="99.767" rx="79.068" ry="99.267" fill="none"/>
        </g>
        <g id="Elipse_9954" data-name="Elipse 9954" transform="translate(31.407 97.378)" fill="#1682fb" stroke="#707070" stroke-width="1">
          <ellipse cx="124.646" cy="156.081" rx="124.646" ry="156.081" stroke="none"/>
          <ellipse cx="124.646" cy="156.081" rx="124.146" ry="155.581" fill="none"/>
        </g>
      </g>
    </g>
  </g>
</svg>
