<svg xmlns="http://www.w3.org/2000/svg" width="63" height="63" viewBox="0 0 63 63">
  <g id="_13" data-name="13" transform="translate(-359 -9717)">
    <circle id="Elipse_9958" data-name="Elipse 9958" cx="31.5" cy="31.5" r="31.5" transform="translate(359 9717)" fill="#273a89"/>
    <g id="bd" transform="translate(1793.339 9395)">
      <g id="Grupo_1074873" data-name="Grupo 1074873" transform="translate(-1417.539 334)">
        <path id="Trazado_824970" data-name="Trazado 824970" d="M33.161,20.82c8.416,0,14.7-2.33,14.7-4.41S41.577,12,33.161,12s-14.7,2.33-14.7,4.41S24.745,20.82,33.161,20.82Z" transform="translate(-18.461 -12)" fill="#fff"/>
        <path id="Trazado_824971" data-name="Trazado 824971" d="M47.384,22.565l-.132.088c-.176.11-.353.213-.544.323-.029.015-.066.029-.1.044-.169.088-.345.184-.537.264-.051.029-.1.051-.162.081-.213.1-.434.191-.661.279-.03.015-.059.022-.088.037-.213.081-.427.154-.647.228l-.184.066c-.25.081-.5.162-.764.243l-.088.022c-.243.066-.485.132-.735.2-.066.015-.14.037-.206.052l-.845.2a.3.3,0,0,0-.081.015c-.265.059-.537.11-.809.161-.073.015-.147.022-.228.037-.294.059-.6.1-.9.154-.022,0-.044.007-.074.007-.279.044-.573.081-.867.118-.074.015-.154.022-.235.037-.316.037-.632.074-.948.1a.127.127,0,0,0-.051.007c-.3.029-.61.051-.918.074l-.243.022c-.324.022-.647.044-.97.059H35.33c-.316.015-.633.022-.948.037h-.243c-.324.007-.655.015-.978.015s-.654-.007-.978-.015h-.243c-.316-.015-.632-.022-.948-.037h-.037c-.323-.015-.647-.037-.97-.059l-.243-.022c-.309-.022-.618-.044-.918-.074a.127.127,0,0,0-.051-.007c-.316-.029-.633-.066-.948-.1-.081-.015-.162-.022-.235-.037-.294-.037-.588-.074-.867-.118-.029,0-.052-.007-.074-.007-.309-.051-.61-.1-.9-.154-.081-.015-.154-.022-.228-.037-.272-.051-.544-.1-.809-.161a.3.3,0,0,0-.081-.015l-.845-.2c-.066-.015-.14-.037-.206-.052-.25-.066-.493-.132-.735-.2l-.088-.022c-.264-.081-.514-.162-.764-.243l-.184-.066c-.22-.074-.434-.147-.647-.228-.029-.015-.059-.022-.088-.037-.227-.088-.448-.184-.661-.279-.059-.029-.11-.051-.162-.081-.191-.081-.368-.176-.537-.264-.029-.015-.066-.029-.1-.044-.191-.11-.368-.213-.544-.323l-.132-.088c-.147-.1-.287-.2-.419-.3a.394.394,0,0,0-.059-.044v7.725c0,1.411,3.109,3.256,9.055,4.05a44.645,44.645,0,0,0,11.29,0c5.946-.794,9.055-2.639,9.055-4.05V22.22a.394.394,0,0,0-.059.044C47.67,22.367,47.53,22.47,47.384,22.565ZM22.842,30.371a1.837,1.837,0,1,1,1.838-1.838A1.838,1.838,0,0,1,22.842,30.371Zm4.9,1.058a1.838,1.838,0,1,1,1.838-1.838A1.838,1.838,0,0,1,27.744,31.43Z" transform="translate(-18.461 -15.245)" fill="#fff"/>
        <path id="Trazado_824972" data-name="Trazado 824972" d="M47.384,51.642l-.132.088c-.176.11-.353.213-.544.323-.029.015-.066.029-.1.044-.169.088-.345.184-.537.265-.051.029-.1.051-.162.081-.213.1-.434.191-.661.279-.03.015-.059.022-.088.037-.213.081-.427.154-.647.228l-.184.066c-.25.081-.5.162-.764.243l-.088.022c-.243.066-.485.132-.735.2-.066.015-.14.037-.206.051l-.845.2a.3.3,0,0,0-.081.015c-.265.059-.537.11-.809.161-.073.015-.147.022-.228.037-.294.059-.6.1-.9.154-.022,0-.044.007-.074.007-.279.044-.573.081-.867.118-.074.015-.154.022-.235.037-.316.037-.632.073-.948.1a.127.127,0,0,0-.051.007c-.3.029-.61.051-.918.074l-.243.022c-.324.022-.647.044-.97.059H35.33c-.316.015-.633.022-.948.037h-.243c-.324.007-.655.015-.978.015s-.654-.007-.978-.015h-.243c-.316-.015-.632-.022-.948-.037h-.037c-.323-.015-.647-.037-.97-.059l-.243-.022c-.309-.022-.618-.044-.918-.074a.127.127,0,0,0-.051-.007c-.316-.029-.633-.066-.948-.1-.081-.015-.162-.022-.235-.037-.294-.037-.588-.074-.867-.118-.029,0-.052-.007-.074-.007-.309-.051-.61-.1-.9-.154-.081-.015-.154-.022-.228-.037-.272-.051-.544-.1-.809-.161a.3.3,0,0,0-.081-.015l-.845-.2c-.066-.015-.14-.037-.206-.051-.25-.066-.493-.132-.735-.2l-.088-.022c-.264-.081-.514-.162-.764-.243l-.184-.066c-.22-.074-.434-.147-.647-.228-.029-.015-.059-.022-.088-.037-.227-.088-.448-.184-.661-.279-.059-.029-.11-.052-.162-.081-.191-.081-.368-.176-.537-.265-.029-.015-.066-.029-.1-.044-.191-.11-.368-.213-.544-.323l-.132-.088c-.147-.1-.287-.2-.419-.3a.394.394,0,0,0-.059-.044v6.99c0,2.08,6.284,4.41,14.7,4.41s14.7-2.33,14.7-4.41V51.3a.394.394,0,0,0-.059.044C47.67,51.444,47.53,51.547,47.384,51.642Zm-24.542,7.49a1.838,1.838,0,1,1,1.838-1.838A1.838,1.838,0,0,1,22.842,59.132Zm4.9,1.058a1.838,1.838,0,1,1,1.838-1.838A1.838,1.838,0,0,1,27.744,60.19Z" transform="translate(-18.461 -24.477)" fill="#fff"/>
        <path id="Trazado_824973" data-name="Trazado 824973" d="M47.171,37.757a2.57,2.57,0,0,1-.235.14c-.213.125-.441.25-.676.367a1.092,1.092,0,0,0-.161.081c-.3.14-.61.272-.933.4-.074.029-.162.059-.236.088-.265.1-.522.191-.793.279-.1.03-.2.066-.3.1-.316.1-.632.191-.963.272-.037.015-.074.022-.11.037-.367.1-.742.176-1.124.265-.1.022-.2.037-.294.059-.294.059-.588.118-.882.169-.1.015-.213.037-.316.051q-.573.1-1.147.176a44.159,44.159,0,0,1-5.836.375,44.159,44.159,0,0,1-5.836-.375q-.573-.077-1.147-.176c-.1-.015-.213-.037-.316-.051-.294-.051-.588-.11-.882-.169-.1-.022-.2-.037-.294-.059-.382-.088-.757-.169-1.124-.265-.037-.015-.074-.022-.118-.037-.324-.081-.639-.176-.955-.272-.1-.029-.2-.066-.3-.1-.272-.088-.529-.184-.786-.279-.081-.029-.169-.059-.243-.088-.323-.125-.632-.257-.933-.4a1.091,1.091,0,0,0-.161-.081c-.236-.118-.464-.243-.676-.367a2.543,2.543,0,0,1-.235-.14c-.206-.125-.4-.257-.573-.39-.037-.029-.081-.051-.118-.081v7c0,2.08,6.284,4.41,14.7,4.41s14.7-2.33,14.7-4.41v-7c-.037.029-.081.051-.118.081C47.567,37.5,47.376,37.632,47.171,37.757ZM22.842,44.93a1.838,1.838,0,1,1,1.838-1.838A1.838,1.838,0,0,1,22.842,44.93Zm4.9,1.059a1.838,1.838,0,1,1,1.838-1.838A1.839,1.839,0,0,1,27.744,45.989Z" transform="translate(-18.461 -20.028)" fill="#fff"/>
      </g>
    </g>
  </g>
</svg>
