<svg xmlns="http://www.w3.org/2000/svg" width="63" height="63" viewBox="0 0 63 63">
  <g id="_14" data-name="14" transform="translate(-675 -9717)">
    <circle id="Elipse_9959" data-name="Elipse 9959" cx="31.5" cy="31.5" r="31.5" transform="translate(675 9717)" fill="#273a89"/>
    <g id="noun-data-loss-5156118" transform="translate(606.484 9701.271)">
      <g id="Grupo_1074870" data-name="Grupo 1074870" transform="translate(85.41 27.68)">
        <path id="Trazado_824954" data-name="Trazado 824954" d="M114.622,33.773c0-3.957-7.526-6.093-14.606-6.093S85.41,29.815,85.41,33.773c0,.061.018.117.021.178a.884.884,0,0,0-.021.105V60.213a.606.606,0,0,1,0,.473c0,3.957,7.526,6.093,14.606,6.093s14.606-2.135,14.606-6.093a1.053,1.053,0,0,0-.021-.1.989.989,0,0,0,.021-.1V34.056a.848.848,0,0,0-.021-.105C114.6,33.89,114.622,33.834,114.622,33.773Zm-1.856,26.912c0,1.769-4.85,4.237-12.75,4.237s-12.75-2.468-12.75-4.237a.606.606,0,0,1,0-.473V55.084a11.257,11.257,0,0,0,2.761,1.445.912.912,0,0,0,.327.06.928.928,0,0,0,.328-1.8c-2.108-.794-3.416-1.862-3.416-2.787V46.611a11.323,11.323,0,0,0,2.762,1.445.928.928,0,1,0,.655-1.736c-2.109-.794-3.417-1.862-3.417-2.787V36.853c2.668,1.97,7.813,3.011,12.75,3.011s10.082-1.041,12.75-3.011v6.679c0,.939-1.34,2.018-3.5,2.818a.928.928,0,0,0,.323,1.8.906.906,0,0,0,.323-.058,11.4,11.4,0,0,0,2.853-1.481v5.4c0,.937-1.334,2.014-3.481,2.811a.928.928,0,0,0,.646,1.741,11.405,11.405,0,0,0,2.836-1.475v5.4a1.055,1.055,0,0,0,.021.1A.991.991,0,0,0,112.766,60.685Z" transform="translate(-85.41 -27.68)" fill="#fff"/>
        <path id="Trazado_824955" data-name="Trazado 824955" d="M199.062,250.094l3.689-3.856a.928.928,0,1,0-1.342-1.283l-3.689,3.856-3.856-3.689a.928.928,0,1,0-1.283,1.341l3.856,3.689-3.689,3.857a.928.928,0,1,0,1.341,1.283l3.689-3.856,3.857,3.689a.928.928,0,1,0,1.283-1.342Z" transform="translate(-183.143 -226.089)" fill="#fff"/>
      </g>
    </g>
  </g>
</svg>
