<svg xmlns="http://www.w3.org/2000/svg" width="63" height="63" viewBox="0 0 63 63">
  <g id="_16" data-name="16" transform="translate(7370 1983)">
    <circle id="Elipse_9961" data-name="Elipse 9961" cx="31.5" cy="31.5" r="31.5" transform="translate(-7370 -1983)" fill="#273a89"/>
    <g id="multi" transform="translate(-7364.17 -1974.31)">
      <path id="Trazado_824960" data-name="Trazado 824960" d="M28.351,10.485c5.113,0,9.481-2.077,9.534-4.541h0c0-.013.007-.027.007-.047h-.013c0-2.49-4.368-4.587-9.534-4.587S18.81,3.414,18.81,5.9,23.184,10.485,28.351,10.485Z" transform="translate(-2.888 0)" fill="#fff"/>
      <path id="Trazado_824961" data-name="Trazado 824961" d="M28.288,21.9c5.073,0,9.408-2.064,9.461-4.507l.087-4.887c-1.838,1.8-5.366,3-9.481,3-4.168,0-7.717-1.218-9.534-3.049v4.894C18.82,19.814,23.154,21.9,28.288,21.9Zm-.007-3.629c3.336,0,6.472-.892,8.2-2.317a.648.648,0,1,1,.826,1c-1.971,1.638-5.346,2.623-9.028,2.623a.654.654,0,0,1-.652-.652A.668.668,0,0,1,28.281,18.269Z" transform="translate(-2.891 -3.723)" fill="#fff"/>
      <path id="Trazado_824962" data-name="Trazado 824962" d="M28.284,33.424c5.073,0,9.408-2.064,9.461-4.507l.067-3.775.007-1.232c-1.784,1.864-5.353,3.116-9.541,3.116-4.135,0-7.657-1.205-9.468-3.023V28.87C18.817,31.34,23.151,33.424,28.284,33.424Zm-.007-4.155c3.336,0,6.472-.892,8.2-2.317a.648.648,0,0,1,.826,1c-1.971,1.638-5.346,2.623-9.028,2.623a.652.652,0,1,1,.007-1.3Z" transform="translate(-2.888 -7.553)" fill="#fff"/>
      <path id="Trazado_824963" data-name="Trazado 824963" d="M28.284,44.655c5.073,0,9.408-2.064,9.461-4.507l.027-4.607c-1.8,1.831-5.346,3.063-9.494,3.063S20.621,37.4,18.81,35.58V40.1C18.817,42.571,23.151,44.655,28.284,44.655Zm-.007-3.835c3.336,0,6.478-.892,8.2-2.317a.648.648,0,0,1,.826,1c-1.971,1.638-5.346,2.623-9.028,2.623a.654.654,0,0,1-.652-.652A.668.668,0,0,1,28.278,40.82Z" transform="translate(-2.888 -11.44)" fill="#fff"/>
      <path id="Trazado_824964" data-name="Trazado 824964" d="M38.44,60.15a3.446,3.446,0,0,1,.06.652,3.551,3.551,0,0,1-.06.652h6.878a2.969,2.969,0,0,1-.073-.652,3.063,3.063,0,0,1,.073-.652Z" transform="translate(-9.448 -19.665)" fill="#fff"/>
      <path id="Trazado_824965" data-name="Trazado 824965" d="M17.23,60.15a2.968,2.968,0,0,1,.073.652,3.062,3.062,0,0,1-.073.652h6.891a2.971,2.971,0,0,1-.067-.652,3.057,3.057,0,0,1,.067-.652Z" transform="translate(-2.359 -19.665)" fill="#fff"/>
      <path id="Trazado_824966" data-name="Trazado 824966" d="M31.817,57.56a2.374,2.374,0,1,0,2.377,2.37A2.377,2.377,0,0,0,31.817,57.56Z" transform="translate(-6.44 -18.799)" fill="#fff"/>
      <path id="Trazado_824967" data-name="Trazado 824967" d="M11.908,58.52a1.738,1.738,0,1,0,1.738,1.738A1.739,1.739,0,0,0,11.908,58.52Z" transform="translate(0 -19.12)" fill="#fff"/>
      <path id="Trazado_824968" data-name="Trazado 824968" d="M52.348,58.52a1.738,1.738,0,1,0,1.738,1.738A1.739,1.739,0,0,0,52.348,58.52Z" transform="translate(-13.515 -19.12)" fill="#fff"/>
      <path id="Trazado_824969" data-name="Trazado 824969" d="M32.03,54.183a3.446,3.446,0,0,1,.652-.06,3.551,3.551,0,0,1,.652.06V51.16c-.213.007-.419.02-.633.02s-.446-.013-.666-.02v3.023Z" transform="translate(-7.306 -16.66)" fill="#fff"/>
    </g>
  </g>
</svg>
