<svg xmlns="http://www.w3.org/2000/svg" width="63" height="63" viewBox="0 0 63 63">
  <g id="_17" data-name="17" transform="translate(7056 1983)">
    <circle id="Elipse_9962" data-name="Elipse 9962" cx="31.5" cy="31.5" r="31.5" transform="translate(-7056 -1983)" fill="#273a89"/>
    <g id="admin2" transform="translate(-7050.293 -1974.727)">
      <path id="Trazado_824978" data-name="Trazado 824978" d="M10.112,14.821H35.575A1.824,1.824,0,0,0,37.394,13V7.546a1.824,1.824,0,0,0-1.819-1.819H10.112A1.824,1.824,0,0,0,8.293,7.546V13A1.824,1.824,0,0,0,10.112,14.821Z" transform="translate(0 0)" fill="#fff"/>
      <path id="Trazado_824979" data-name="Trazado 824979" d="M37.07,40.377a1.806,1.806,0,0,0,.324-1.032V33.888a1.824,1.824,0,0,0-1.819-1.819H10.112a1.824,1.824,0,0,0-1.819,1.819v5.456a1.824,1.824,0,0,0,1.819,1.819H31.607a9.058,9.058,0,0,1,3.968-.909A9.162,9.162,0,0,1,37.07,40.377Z" transform="translate(0 -15.429)" fill="#fff"/>
      <path id="Trazado_824980" data-name="Trazado 824980" d="M29.082,58.411H10.112A1.824,1.824,0,0,0,8.293,60.23v5.456A1.824,1.824,0,0,0,10.112,67.5H26.9a9.1,9.1,0,0,1,2.184-9.094Z" transform="translate(0 -30.858)" fill="#fff"/>
      <path id="Trazado_824981" data-name="Trazado 824981" d="M65.057,56.314a7.338,7.338,0,0,0-1.2-.1,7.273,7.273,0,1,0,1.2.1ZM62.988,67.346,59.5,63.854l1.528-1.6,1.964,1.965,4.147-4.147,1.528,1.6Z" transform="translate(-28.286 -29.572)" fill="#fff"/>
    </g>
  </g>
</svg>
