<svg xmlns="http://www.w3.org/2000/svg" xmlns:xlink="http://www.w3.org/1999/xlink" width="451" height="213" viewBox="0 0 451 213">
  <defs>
    <clipPath id="clip-path">
      <rect id="Rectángulo_383302" data-name="Rectángulo 383302" width="189.164" height="165.894" fill="none"/>
    </clipPath>
    <clipPath id="clip-path-3">
      <rect id="Rectángulo_383196" data-name="Rectángulo 383196" width="85.573" height="146.6" fill="#e1f6ef"/>
    </clipPath>
    <clipPath id="clip-path-4">
      <rect id="Rectángulo_383249" data-name="Rectángulo 383249" width="73.516" height="135.023" fill="none"/>
    </clipPath>
    <clipPath id="clip-path-6">
      <rect id="Rectángulo_383251" data-name="Rectángulo 383251" width="49.451" height="41.082" fill="none"/>
    </clipPath>
    <clipPath id="clip-path-7">
      <rect id="Rectángulo_383252" data-name="Rectángulo 383252" width="49.451" height="41.082" fill="#1682fb"/>
    </clipPath>
    <clipPath id="clip-path-14">
      <rect id="Rectángulo_383279" data-name="Rectángulo 383279" width="20.487" height="29.501" fill="none"/>
    </clipPath>
    <clipPath id="clip-path-16">
      <rect id="Rectángulo_383281" data-name="Rectángulo 383281" width="49.451" height="41.083" fill="none"/>
    </clipPath>
    <clipPath id="clip-path-17">
      <rect id="Rectángulo_383282" data-name="Rectángulo 383282" width="49.451" height="41.082" fill="#ffce00"/>
    </clipPath>
    <clipPath id="clip-path-19">
      <rect id="Rectángulo_383300" data-name="Rectángulo 383300" width="49.168" height="22.126" fill="#3ee2a8"/>
    </clipPath>
    <clipPath id="clip-path-20">
      <rect id="Rectángulo_383291" data-name="Rectángulo 383291" width="17.824" height="10.682" fill="none"/>
    </clipPath>
    <clipPath id="clip-path-21">
      <rect id="Rectángulo_383292" data-name="Rectángulo 383292" width="14.415" height="8.154" fill="none"/>
    </clipPath>
    <clipPath id="clip-path-23">
      <rect id="Rectángulo_383294" data-name="Rectángulo 383294" width="7.566" height="6.965" fill="none"/>
    </clipPath>
    <clipPath id="clip-path-27">
      <rect id="Rectángulo_383298" data-name="Rectángulo 383298" width="7.567" height="6.965" fill="none"/>
    </clipPath>
    <clipPath id="clip-path-28">
      <rect id="Rectángulo_383299" data-name="Rectángulo 383299" width="42.613" height="29.501" fill="none"/>
    </clipPath>
  </defs>
  <g id="_18" data-name="18" transform="translate(-810 -10015.347)">
    <rect id="Rectángulo_383195" data-name="Rectángulo 383195" width="451" height="213" transform="translate(810 10015.347)" fill="#dcecfe"/>
    <g id="Grupo_1074955" data-name="Grupo 1074955" transform="translate(895 10038.9)">
      <g id="Grupo_1074954" data-name="Grupo 1074954" clip-path="url(#clip-path)">
        <g id="Grupo_1074886" data-name="Grupo 1074886">
          <g id="Grupo_1074885" data-name="Grupo 1074885" clip-path="url(#clip-path)">
            <path id="Trazado_824982" data-name="Trazado 824982" d="M83.629,151.132H1.944A1.944,1.944,0,0,1,0,149.188V6.476A1.944,1.944,0,0,1,1.944,4.532H83.629a1.944,1.944,0,0,1,1.944,1.944V149.188a1.944,1.944,0,0,1-1.944,1.944" transform="translate(0 -0.818)" fill="#407bff"/>
            <g id="Grupo_1074881" data-name="Grupo 1074881" transform="translate(0 3.713)" style="isolation: isolate">
              <g id="Grupo_1074880" data-name="Grupo 1074880">
                <g id="Grupo_1074879" data-name="Grupo 1074879" clip-path="url(#clip-path-3)">
                  <path id="Trazado_824983" data-name="Trazado 824983" d="M83.629,151.132H1.944A1.944,1.944,0,0,1,0,149.188V6.476A1.944,1.944,0,0,1,1.944,4.532H83.629a1.944,1.944,0,0,1,1.944,1.944V149.188a1.944,1.944,0,0,1-1.944,1.944" transform="translate(0 -4.531)" fill="#e1f6ef"/>
                </g>
              </g>
            </g>
            <rect id="Rectángulo_383197" data-name="Rectángulo 383197" width="16.117" height="2.186" transform="translate(5.811 22.285)" fill="#407bff"/>
            <rect id="Rectángulo_383198" data-name="Rectángulo 383198" width="16.117" height="2.186" transform="translate(5.811 27.202)" fill="#407bff"/>
            <rect id="Rectángulo_383199" data-name="Rectángulo 383199" width="16.117" height="2.186" transform="translate(63.21 22.285)" fill="#407bff"/>
            <rect id="Rectángulo_383200" data-name="Rectángulo 383200" width="16.117" height="2.186" transform="translate(33.162 12.17)" fill="#407bff"/>
            <rect id="Rectángulo_383201" data-name="Rectángulo 383201" width="73.516" height="2.186" transform="translate(5.811 8.346)" fill="#407bff"/>
            <rect id="Rectángulo_383202" data-name="Rectángulo 383202" width="65.315" height="2.186" transform="translate(14.011 34.022)" fill="#407bff"/>
            <rect id="Rectángulo_383203" data-name="Rectángulo 383203" width="73.516" height="2.186" transform="translate(5.811 38.393)" fill="#407bff"/>
            <rect id="Rectángulo_383204" data-name="Rectángulo 383204" width="73.516" height="2.186" transform="translate(5.811 42.763)" fill="#407bff"/>
            <rect id="Rectángulo_383205" data-name="Rectángulo 383205" width="73.516" height="2.186" transform="translate(5.811 47.134)" fill="#407bff"/>
            <rect id="Rectángulo_383206" data-name="Rectángulo 383206" width="65.315" height="2.186" transform="translate(5.812 51.505)" fill="#407bff"/>
            <rect id="Rectángulo_383207" data-name="Rectángulo 383207" width="65.315" height="2.186" transform="translate(14.011 59.442)" fill="#407bff"/>
            <rect id="Rectángulo_383208" data-name="Rectángulo 383208" width="73.516" height="2.186" transform="translate(5.811 63.812)" fill="#407bff"/>
            <rect id="Rectángulo_383209" data-name="Rectángulo 383209" width="73.516" height="2.186" transform="translate(5.811 68.184)" fill="#407bff"/>
            <rect id="Rectángulo_383210" data-name="Rectángulo 383210" width="73.516" height="2.186" transform="translate(5.811 72.554)" fill="#407bff"/>
            <rect id="Rectángulo_383211" data-name="Rectángulo 383211" width="65.315" height="2.186" transform="translate(5.812 76.924)" fill="#407bff"/>
            <rect id="Rectángulo_383212" data-name="Rectángulo 383212" width="65.315" height="2.186" transform="translate(14.011 84.862)" fill="#407bff"/>
            <rect id="Rectángulo_383213" data-name="Rectángulo 383213" width="73.516" height="2.186" transform="translate(5.811 89.233)" fill="#407bff"/>
            <rect id="Rectángulo_383214" data-name="Rectángulo 383214" width="73.516" height="2.186" transform="translate(5.811 93.603)" fill="#407bff"/>
            <rect id="Rectángulo_383215" data-name="Rectángulo 383215" width="73.516" height="2.186" transform="translate(5.811 97.974)" fill="#407bff"/>
            <rect id="Rectángulo_383216" data-name="Rectángulo 383216" width="65.315" height="2.186" transform="translate(5.812 102.344)" fill="#407bff"/>
            <rect id="Rectángulo_383217" data-name="Rectángulo 383217" width="65.315" height="2.186" transform="translate(14.011 111.102)" fill="#407bff"/>
            <rect id="Rectángulo_383218" data-name="Rectángulo 383218" width="73.516" height="2.186" transform="translate(5.811 115.472)" fill="#407bff"/>
            <rect id="Rectángulo_383219" data-name="Rectángulo 383219" width="73.516" height="2.186" transform="translate(5.811 119.842)" fill="#407bff"/>
            <rect id="Rectángulo_383220" data-name="Rectángulo 383220" width="73.516" height="2.186" transform="translate(5.811 124.213)" fill="#407bff"/>
            <rect id="Rectángulo_383221" data-name="Rectángulo 383221" width="65.315" height="2.186" transform="translate(5.812 128.584)" fill="#407bff"/>
            <rect id="Rectángulo_383222" data-name="Rectángulo 383222" width="16.117" height="2.186" transform="translate(63.21 141.183)" fill="#407bff"/>
            <g id="Grupo_1074884" data-name="Grupo 1074884" transform="translate(5.811 8.346)" opacity="0.2" style="isolation: isolate">
              <g id="Grupo_1074883" data-name="Grupo 1074883">
                <g id="Grupo_1074882" data-name="Grupo 1074882" clip-path="url(#clip-path-4)">
                  <rect id="Rectángulo_383223" data-name="Rectángulo 383223" width="16.117" height="2.186" transform="translate(0 13.939)" fill="#fff"/>
                  <rect id="Rectángulo_383224" data-name="Rectángulo 383224" width="16.117" height="2.186" transform="translate(0 18.856)" fill="#fff"/>
                  <rect id="Rectángulo_383225" data-name="Rectángulo 383225" width="16.117" height="2.186" transform="translate(57.399 13.939)" fill="#fff"/>
                  <rect id="Rectángulo_383226" data-name="Rectángulo 383226" width="16.117" height="2.186" transform="translate(27.352 3.824)" fill="#fff"/>
                  <rect id="Rectángulo_383227" data-name="Rectángulo 383227" width="73.516" height="2.186" transform="translate(0)" fill="#fff"/>
                  <rect id="Rectángulo_383228" data-name="Rectángulo 383228" width="65.315" height="2.186" transform="translate(8.2 25.677)" fill="#fff"/>
                  <rect id="Rectángulo_383229" data-name="Rectángulo 383229" width="73.516" height="2.186" transform="translate(0 30.048)" fill="#fff"/>
                  <rect id="Rectángulo_383230" data-name="Rectángulo 383230" width="73.516" height="2.186" transform="translate(0 34.418)" fill="#fff"/>
                  <rect id="Rectángulo_383231" data-name="Rectángulo 383231" width="73.516" height="2.186" transform="translate(0 38.788)" fill="#fff"/>
                  <rect id="Rectángulo_383232" data-name="Rectángulo 383232" width="65.315" height="2.186" transform="translate(0.001 43.159)" fill="#fff"/>
                  <rect id="Rectángulo_383233" data-name="Rectángulo 383233" width="65.315" height="2.186" transform="translate(8.2 51.097)" fill="#fff"/>
                  <rect id="Rectángulo_383234" data-name="Rectángulo 383234" width="73.516" height="2.186" transform="translate(0 55.467)" fill="#fff"/>
                  <rect id="Rectángulo_383235" data-name="Rectángulo 383235" width="73.516" height="2.186" transform="translate(0 59.838)" fill="#fff"/>
                  <rect id="Rectángulo_383236" data-name="Rectángulo 383236" width="73.516" height="2.186" transform="translate(0 64.208)" fill="#fff"/>
                  <rect id="Rectángulo_383237" data-name="Rectángulo 383237" width="65.315" height="2.186" transform="translate(0.001 68.579)" fill="#fff"/>
                  <rect id="Rectángulo_383238" data-name="Rectángulo 383238" width="65.315" height="2.186" transform="translate(8.2 76.517)" fill="#fff"/>
                  <rect id="Rectángulo_383239" data-name="Rectángulo 383239" width="73.516" height="2.186" transform="translate(0 80.887)" fill="#fff"/>
                  <rect id="Rectángulo_383240" data-name="Rectángulo 383240" width="73.516" height="2.186" transform="translate(0 85.257)" fill="#fff"/>
                  <rect id="Rectángulo_383241" data-name="Rectángulo 383241" width="73.516" height="2.186" transform="translate(0 89.628)" fill="#fff"/>
                  <rect id="Rectángulo_383242" data-name="Rectángulo 383242" width="65.315" height="2.186" transform="translate(0.001 93.999)" fill="#fff"/>
                  <rect id="Rectángulo_383243" data-name="Rectángulo 383243" width="65.315" height="2.186" transform="translate(8.2 102.756)" fill="#fff"/>
                  <rect id="Rectángulo_383244" data-name="Rectángulo 383244" width="73.516" height="2.186" transform="translate(0 107.127)" fill="#fff"/>
                  <rect id="Rectángulo_383245" data-name="Rectángulo 383245" width="73.516" height="2.186" transform="translate(0 111.497)" fill="#fff"/>
                  <rect id="Rectángulo_383246" data-name="Rectángulo 383246" width="73.516" height="2.186" transform="translate(0 115.868)" fill="#fff"/>
                  <rect id="Rectángulo_383247" data-name="Rectángulo 383247" width="65.315" height="2.186" transform="translate(0.001 120.238)" fill="#fff"/>
                  <rect id="Rectángulo_383248" data-name="Rectángulo 383248" width="16.117" height="2.186" transform="translate(57.399 132.838)" fill="#fff"/>
                </g>
              </g>
            </g>
          </g>
        </g>
        <g id="Grupo_1074894" data-name="Grupo 1074894">
          <g id="Grupo_1074893" data-name="Grupo 1074893" clip-path="url(#clip-path)">
            <g id="Grupo_1074889" data-name="Grupo 1074889" transform="translate(40.22 117.036)" opacity="0.1" style="isolation: isolate">
              <g id="Grupo_1074888" data-name="Grupo 1074888">
                <g id="Grupo_1074887" data-name="Grupo 1074887" clip-path="url(#clip-path-6)">
                  <path id="Trazado_824984" data-name="Trazado 824984" d="M96.59,183.9H51.021a1.942,1.942,0,0,1-1.941-1.941v-37.2a1.942,1.942,0,0,1,1.941-1.941H96.59a1.942,1.942,0,0,1,1.941,1.941v37.2A1.942,1.942,0,0,1,96.59,183.9" transform="translate(-49.08 -142.818)"/>
                </g>
              </g>
            </g>
            <path id="Trazado_824985" data-name="Trazado 824985" d="M104.032,193.389H58.463a1.942,1.942,0,0,1-1.941-1.941v-37.2a1.942,1.942,0,0,1,1.941-1.941h45.568a1.942,1.942,0,0,1,1.941,1.941v37.2a1.942,1.942,0,0,1-1.941,1.941" transform="translate(-10.204 -27.495)" fill="#407bff"/>
            <g id="Grupo_1074892" data-name="Grupo 1074892" transform="translate(46.318 124.811)" style="isolation: isolate">
              <g id="Grupo_1074891" data-name="Grupo 1074891">
                <g id="Grupo_1074890" data-name="Grupo 1074890" clip-path="url(#clip-path-7)">
                  <path id="Trazado_824986" data-name="Trazado 824986" d="M104.032,193.389H58.463a1.942,1.942,0,0,1-1.941-1.941v-37.2a1.942,1.942,0,0,1,1.941-1.941h45.568a1.942,1.942,0,0,1,1.941,1.941v37.2a1.942,1.942,0,0,1-1.941,1.941" transform="translate(-56.522 -152.306)" fill="#1682fb"/>
                </g>
              </g>
            </g>
            <rect id="Rectángulo_383253" data-name="Rectángulo 383253" width="9.834" height="4.917" transform="translate(51.155 148.749)" fill="#fff"/>
            <rect id="Rectángulo_383254" data-name="Rectángulo 383254" width="27.862" height="4.917" transform="translate(61.808 148.749)" fill="#fff"/>
            <rect id="Rectángulo_383255" data-name="Rectángulo 383255" width="9.834" height="5.736" transform="translate(51.155 142.193)" fill="#fff"/>
            <rect id="Rectángulo_383256" data-name="Rectángulo 383256" width="9.834" height="4.917" transform="translate(51.155 136.457)" fill="#fff"/>
            <rect id="Rectángulo_383257" data-name="Rectángulo 383257" width="27.862" height="5.736" transform="translate(61.808 142.193)" fill="#fff"/>
            <rect id="Rectángulo_383258" data-name="Rectángulo 383258" width="27.862" height="5.736" transform="translate(61.808 154.486)" fill="#fff"/>
            <rect id="Rectángulo_383259" data-name="Rectángulo 383259" width="27.862" height="4.917" transform="translate(61.808 136.457)" fill="#fff"/>
            <rect id="Rectángulo_383260" data-name="Rectángulo 383260" width="9.834" height="5.736" transform="translate(51.155 154.486)" fill="#fff"/>
            <rect id="Rectángulo_383261" data-name="Rectángulo 383261" width="9.834" height="5.736" transform="translate(51.155 129.901)" fill="#fff"/>
            <rect id="Rectángulo_383262" data-name="Rectángulo 383262" width="27.862" height="5.736" transform="translate(61.808 129.901)" fill="#fff"/>
          </g>
        </g>
        <g id="Grupo_1074902" data-name="Grupo 1074902">
          <g id="Grupo_1074901" data-name="Grupo 1074901" clip-path="url(#clip-path)">
            <g id="Grupo_1074897" data-name="Grupo 1074897" transform="translate(54.372 46.004)" opacity="0.1" style="isolation: isolate">
              <g id="Grupo_1074896" data-name="Grupo 1074896">
                <g id="Grupo_1074895" data-name="Grupo 1074895" clip-path="url(#clip-path-6)">
                  <path id="Trazado_824987" data-name="Trazado 824987" d="M113.86,97.22H68.291a1.942,1.942,0,0,1-1.941-1.941v-37.2a1.941,1.941,0,0,1,1.941-1.941H113.86a1.941,1.941,0,0,1,1.941,1.941v37.2a1.942,1.942,0,0,1-1.941,1.941" transform="translate(-66.35 -56.138)"/>
                </g>
              </g>
            </g>
            <path id="Trazado_824988" data-name="Trazado 824988" d="M125.032,94.851H79.463a1.941,1.941,0,0,1-1.941-1.941V55.71a1.941,1.941,0,0,1,1.941-1.941h45.568a1.941,1.941,0,0,1,1.941,1.941v37.2a1.941,1.941,0,0,1-1.941,1.941" transform="translate(-13.995 -9.707)" fill="#407bff"/>
            <g id="Grupo_1074900" data-name="Grupo 1074900" transform="translate(63.527 44.062)" opacity="0.3" style="isolation: isolate">
              <g id="Grupo_1074899" data-name="Grupo 1074899">
                <g id="Grupo_1074898" data-name="Grupo 1074898" clip-path="url(#clip-path-6)">
                  <path id="Trazado_824989" data-name="Trazado 824989" d="M125.032,94.851H79.463a1.941,1.941,0,0,1-1.941-1.941V55.71a1.941,1.941,0,0,1,1.941-1.941h45.568a1.941,1.941,0,0,1,1.941,1.941v37.2a1.941,1.941,0,0,1-1.941,1.941" transform="translate(-77.522 -53.769)" fill="#fff"/>
                </g>
              </g>
            </g>
            <rect id="Rectángulo_383266" data-name="Rectángulo 383266" width="12.292" height="5.736" transform="translate(95.406 49.593)" fill="#407bff"/>
            <rect id="Rectángulo_383267" data-name="Rectángulo 383267" width="12.292" height="5.736" transform="translate(82.295 49.593)" fill="#407bff"/>
            <rect id="Rectángulo_383268" data-name="Rectángulo 383268" width="12.292" height="24.584" transform="translate(82.295 55.329)" fill="#407bff"/>
            <rect id="Rectángulo_383269" data-name="Rectángulo 383269" width="12.292" height="24.584" transform="translate(95.406 55.329)" fill="#407bff"/>
            <rect id="Rectángulo_383270" data-name="Rectángulo 383270" width="12.292" height="5.736" transform="translate(69.183 49.593)" fill="#407bff"/>
            <rect id="Rectángulo_383271" data-name="Rectángulo 383271" width="12.292" height="24.584" transform="translate(69.183 55.329)" fill="#407bff"/>
          </g>
        </g>
        <g id="Grupo_1074913" data-name="Grupo 1074913">
          <g id="Grupo_1074912" data-name="Grupo 1074912" clip-path="url(#clip-path)">
            <g id="Grupo_1074905" data-name="Grupo 1074905" transform="translate(69.862 89.12)" opacity="0.1" style="isolation: isolate">
              <g id="Grupo_1074904" data-name="Grupo 1074904">
                <g id="Grupo_1074903" data-name="Grupo 1074903" clip-path="url(#clip-path-6)">
                  <path id="Trazado_824990" data-name="Trazado 824990" d="M132.762,149.835H87.193a1.942,1.942,0,0,1-1.941-1.941v-37.2a1.941,1.941,0,0,1,1.941-1.941h45.568a1.941,1.941,0,0,1,1.941,1.941v37.2a1.942,1.942,0,0,1-1.941,1.941" transform="translate(-85.252 -108.752)"/>
                </g>
              </g>
            </g>
            <path id="Trazado_824991" data-name="Trazado 824991" d="M153.032,146.62H107.463a1.942,1.942,0,0,1-1.941-1.941v-37.2a1.941,1.941,0,0,1,1.941-1.941h45.568a1.941,1.941,0,0,1,1.941,1.941v37.2a1.942,1.942,0,0,1-1.941,1.941" transform="translate(-19.049 -19.052)" fill="#407bff"/>
            <g id="Grupo_1074908" data-name="Grupo 1074908" transform="translate(86.473 86.485)" opacity="0.3" style="isolation: isolate">
              <g id="Grupo_1074907" data-name="Grupo 1074907">
                <g id="Grupo_1074906" data-name="Grupo 1074906" clip-path="url(#clip-path-6)">
                  <path id="Trazado_824992" data-name="Trazado 824992" d="M153.032,146.62H107.463a1.942,1.942,0,0,1-1.941-1.941v-37.2a1.941,1.941,0,0,1,1.941-1.941h45.568a1.941,1.941,0,0,1,1.941,1.941v37.2a1.942,1.942,0,0,1-1.941,1.941" transform="translate(-105.522 -105.538)" fill="#fff"/>
                </g>
              </g>
            </g>
            <rect id="Rectángulo_383275" data-name="Rectángulo 383275" width="18.848" height="13.931" transform="translate(111.796 92.206)" fill="#407bff"/>
            <rect id="Rectángulo_383276" data-name="Rectángulo 383276" width="18.848" height="13.931" transform="translate(92.129 92.206)" fill="#407bff"/>
            <rect id="Rectángulo_383277" data-name="Rectángulo 383277" width="18.848" height="15.57" transform="translate(92.129 106.956)" fill="#407bff"/>
            <rect id="Rectángulo_383278" data-name="Rectángulo 383278" width="18.848" height="15.57" transform="translate(111.796 106.956)" fill="#407bff"/>
            <g id="Grupo_1074911" data-name="Grupo 1074911" transform="translate(115.074 86.469)" opacity="0.2" style="isolation: isolate">
              <g id="Grupo_1074910" data-name="Grupo 1074910">
                <g id="Grupo_1074909" data-name="Grupo 1074909" clip-path="url(#clip-path-14)">
                  <path id="Trazado_824993" data-name="Trazado 824993" d="M160.911,107.477v27.543H143.923a3.4,3.4,0,0,1-3.5-3.655V105.518h18.905c1.074,0,1.582.885,1.582,1.959" transform="translate(-140.424 -105.518)"/>
                </g>
              </g>
            </g>
          </g>
        </g>
        <g id="Grupo_1074921" data-name="Grupo 1074921">
          <g id="Grupo_1074920" data-name="Grupo 1074920" clip-path="url(#clip-path)">
            <g id="Grupo_1074916" data-name="Grupo 1074916" transform="translate(70.897 7.379)" opacity="0.1" style="isolation: isolate">
              <g id="Grupo_1074915" data-name="Grupo 1074915">
                <g id="Grupo_1074914" data-name="Grupo 1074914" clip-path="url(#clip-path-16)">
                  <path id="Trazado_824994" data-name="Trazado 824994" d="M134.026,50.088H88.457a1.942,1.942,0,0,1-1.941-1.941v-37.2a1.942,1.942,0,0,1,1.941-1.941h45.568a1.942,1.942,0,0,1,1.941,1.941v37.2a1.942,1.942,0,0,1-1.941,1.941" transform="translate(-86.516 -9.005)"/>
                </g>
              </g>
            </g>
            <path id="Trazado_824995" data-name="Trazado 824995" d="M144.032,41.082H98.463a1.942,1.942,0,0,1-1.941-1.941V1.941A1.941,1.941,0,0,1,98.463,0h45.568a1.941,1.941,0,0,1,1.941,1.941v37.2a1.942,1.942,0,0,1-1.941,1.941" transform="translate(-17.425)" fill="#407bff"/>
            <g id="Grupo_1074919" data-name="Grupo 1074919" transform="translate(79.097)" style="isolation: isolate">
              <g id="Grupo_1074918" data-name="Grupo 1074918">
                <g id="Grupo_1074917" data-name="Grupo 1074917" clip-path="url(#clip-path-17)">
                  <path id="Trazado_824996" data-name="Trazado 824996" d="M144.032,41.082H98.463a1.942,1.942,0,0,1-1.941-1.941V1.941A1.941,1.941,0,0,1,98.463,0h45.568a1.941,1.941,0,0,1,1.941,1.941v37.2a1.942,1.942,0,0,1-1.941,1.941" transform="translate(-96.522)" fill="#ffce00"/>
                </g>
              </g>
            </g>
            <rect id="Rectángulo_383283" data-name="Rectángulo 383283" width="15.57" height="4.097" transform="translate(98.684 5.341)" fill="#273a89"/>
            <rect id="Rectángulo_383284" data-name="Rectángulo 383284" width="7.375" height="25.404" transform="translate(98.684 10.258)" fill="#273a89"/>
            <rect id="Rectángulo_383285" data-name="Rectángulo 383285" width="8.195" height="4.097" transform="translate(115.074 5.341)" fill="#273a89"/>
            <rect id="Rectángulo_383286" data-name="Rectángulo 383286" width="8.195" height="25.404" transform="translate(115.074 10.258)" fill="#273a89"/>
            <rect id="Rectángulo_383287" data-name="Rectángulo 383287" width="7.375" height="25.404" transform="translate(106.879 10.258)" fill="#273a89"/>
            <rect id="Rectángulo_383288" data-name="Rectángulo 383288" width="13.112" height="25.404" transform="translate(84.753 10.258)" fill="#273a89"/>
            <rect id="Rectángulo_383289" data-name="Rectángulo 383289" width="13.112" height="4.097" transform="translate(84.753 5.341)" fill="#273a89"/>
          </g>
        </g>
        <g id="Grupo_1074953" data-name="Grupo 1074953">
          <g id="Grupo_1074952" data-name="Grupo 1074952" clip-path="url(#clip-path)">
            <path id="Trazado_824997" data-name="Trazado 824997" d="M212.989,114.91h-55.8a3.857,3.857,0,0,1-3.856-3.856v-55.8a3.856,3.856,0,0,1,3.856-3.856h55.8a3.856,3.856,0,0,1,3.856,3.856v55.8a3.856,3.856,0,0,1-3.856,3.856" transform="translate(-27.681 -9.279)" fill="#273a89"/>
            <g id="Grupo_1074951" data-name="Grupo 1074951" transform="translate(139.658 42.122)" style="isolation: isolate">
              <g id="Grupo_1074950" data-name="Grupo 1074950">
                <g id="Grupo_1074949" data-name="Grupo 1074949" clip-path="url(#clip-path-19)">
                  <path id="Trazado_825009" data-name="Trazado 825009" d="M219.592,55.279V73.644H174.579a4.3,4.3,0,0,1-4.155-4.065V51.518h45.653a3.5,3.5,0,0,1,3.516,3.761" transform="translate(-170.424 -51.518)" fill="#3ee2a8"/>
                </g>
              </g>
            </g>
            <g id="Grupo_1074956" data-name="Grupo 1074956" transform="translate(148.365 48.745)" opacity="0.8">
              <g id="Grupo_1074923" data-name="Grupo 1074923">
                <g id="Grupo_1074922" data-name="Grupo 1074922" clip-path="url(#clip-path-20)">
                  <path id="Trazado_824998" data-name="Trazado 824998" d="M198.159,70.165h-16.4a.715.715,0,0,1-.715-.714V60.2a.715.715,0,0,1,.715-.714h16.4a.714.714,0,0,1,.714.714v9.254a.714.714,0,0,1-.714.714" transform="translate(-181.049 -59.483)" fill="#fff"/>
                </g>
              </g>
            </g>
            <g id="Grupo_1074957" data-name="Grupo 1074957" transform="translate(139.266 71.719)" opacity="0.6">
              <g id="Grupo_1074926" data-name="Grupo 1074926">
                <g id="Grupo_1074925" data-name="Grupo 1074925" clip-path="url(#clip-path-21)">
                  <path id="Trazado_824999" data-name="Trazado 824999" d="M183.647,95.672H170.66a.714.714,0,0,1-.714-.714V88.232a.714.714,0,0,1,.714-.714h12.987a.714.714,0,0,1,.714.714v6.726a.714.714,0,0,1-.714.714" transform="translate(-169.946 -87.518)" fill="#fff"/>
                </g>
              </g>
            </g>
            <g id="Grupo_1074958" data-name="Grupo 1074958" transform="translate(161.137 71.719)" opacity="0.6">
              <g id="Grupo_1074929" data-name="Grupo 1074929">
                <g id="Grupo_1074928" data-name="Grupo 1074928" clip-path="url(#clip-path-21)">
                  <path id="Trazado_825000" data-name="Trazado 825000" d="M210.336,95.672H197.349a.714.714,0,0,1-.714-.714V88.232a.714.714,0,0,1,.714-.714h12.987a.714.714,0,0,1,.714.714v6.726a.714.714,0,0,1-.714.714" transform="translate(-196.635 -87.518)" fill="#fff"/>
                </g>
              </g>
            </g>
            <g id="Grupo_1074959" data-name="Grupo 1074959" transform="translate(154.538 88.972)" opacity="0.4">
              <g id="Grupo_1074932" data-name="Grupo 1074932">
                <g id="Grupo_1074931" data-name="Grupo 1074931" clip-path="url(#clip-path-23)">
                  <path id="Trazado_825001" data-name="Trazado 825001" d="M195.434,115.537H189.3a.714.714,0,0,1-.715-.714v-5.536a.714.714,0,0,1,.715-.715h6.138a.714.714,0,0,1,.714.715v5.536a.714.714,0,0,1-.714.714" transform="translate(-188.582 -108.572)" fill="#fff"/>
                </g>
              </g>
            </g>
            <g id="Grupo_1074960" data-name="Grupo 1074960" transform="translate(164.147 88.972)" opacity="0.4">
              <g id="Grupo_1074935" data-name="Grupo 1074935">
                <g id="Grupo_1074934" data-name="Grupo 1074934" clip-path="url(#clip-path-23)">
                  <path id="Trazado_825002" data-name="Trazado 825002" d="M207.159,115.537h-6.138a.715.715,0,0,1-.715-.714v-5.536a.715.715,0,0,1,.715-.715h6.138a.714.714,0,0,1,.714.715v5.536a.714.714,0,0,1-.714.714" transform="translate(-200.308 -108.572)" fill="#fff"/>
                </g>
              </g>
            </g>
            <g id="Grupo_1074961" data-name="Grupo 1074961" transform="translate(173.756 88.972)" opacity="0.4">
              <g id="Grupo_1074938" data-name="Grupo 1074938">
                <g id="Grupo_1074937" data-name="Grupo 1074937" clip-path="url(#clip-path-23)">
                  <path id="Trazado_825003" data-name="Trazado 825003" d="M218.885,115.537h-6.138a.714.714,0,0,1-.715-.714v-5.536a.715.715,0,0,1,.715-.715h6.138a.714.714,0,0,1,.714.715v5.536a.714.714,0,0,1-.714.714" transform="translate(-212.034 -108.572)" fill="#fff"/>
                </g>
              </g>
            </g>
            <g id="Grupo_1074962" data-name="Grupo 1074962" transform="translate(132.304 88.972)" opacity="0.4">
              <g id="Grupo_1074941" data-name="Grupo 1074941">
                <g id="Grupo_1074940" data-name="Grupo 1074940" clip-path="url(#clip-path-23)">
                  <path id="Trazado_825004" data-name="Trazado 825004" d="M168.3,115.537h-6.138a.715.715,0,0,1-.715-.714v-5.536a.715.715,0,0,1,.715-.715H168.3a.714.714,0,0,1,.714.715v5.536a.714.714,0,0,1-.714.714" transform="translate(-161.45 -108.572)" fill="#fff"/>
                </g>
              </g>
            </g>
            <g id="Grupo_1074963" data-name="Grupo 1074963" transform="translate(142.733 88.972)" opacity="0.4">
              <g id="Grupo_1074944" data-name="Grupo 1074944">
                <g id="Grupo_1074943" data-name="Grupo 1074943" clip-path="url(#clip-path-27)">
                  <path id="Trazado_825005" data-name="Trazado 825005" d="M181.028,115.537h-6.138a.715.715,0,0,1-.715-.714v-5.536a.715.715,0,0,1,.715-.715h6.138a.714.714,0,0,1,.714.715v5.536a.714.714,0,0,1-.714.714" transform="translate(-174.176 -108.572)" fill="#fff"/>
                </g>
              </g>
            </g>
            <g id="Grupo_1074964" data-name="Grupo 1074964" transform="translate(135.561 59.427)" opacity="0.3">
              <g id="Grupo_1074947" data-name="Grupo 1074947">
                <g id="Grupo_1074946" data-name="Grupo 1074946" clip-path="url(#clip-path-28)">
                  <path id="Trazado_825006" data-name="Trazado 825006" d="M199.731,84.81h.819V79.074H189.9V72.518h-.819v6.556H178.424V84.81h.819V79.893h20.487Z" transform="translate(-167.771 -72.518)" fill="#fff"/>
                  <path id="Trazado_825007" data-name="Trazado 825007" d="M176.078,102.435H165.424v4.1h.819v-3.278h9.834v3.278h.819V97.518h-.819Z" transform="translate(-165.424 -77.031)" fill="#fff"/>
                  <path id="Trazado_825008" data-name="Trazado 825008" d="M203.078,103.254V97.518h-.819v5.736h-9.834v3.278h.819v-2.458h9.014v2.458h.819v-2.458h9.014v2.458h.819v-3.278Z" transform="translate(-170.298 -77.031)" fill="#fff"/>
                </g>
              </g>
            </g>
          </g>
        </g>
      </g>
    </g>
  </g>
</svg>
