<svg xmlns="http://www.w3.org/2000/svg" xmlns:xlink="http://www.w3.org/1999/xlink" width="190" height="145" viewBox="0 0 190 145">
  <defs>
    <clipPath id="clip-path">
      <rect id="Rectángulo_383336" data-name="Rectángulo 383336" width="135.118" height="93.189" fill="none"/>
    </clipPath>
    <clipPath id="clip-path-2">
      <path id="Rectángulo_383337" data-name="Rectángulo 383337" d="M6.334,0H30.285a6.334,6.334,0,0,1,6.334,6.334V42.49a6.333,6.333,0,0,1-6.333,6.333H6.333A6.333,6.333,0,0,1,0,42.49V6.334A6.334,6.334,0,0,1,6.334,0Z" fill="none"/>
    </clipPath>
    <clipPath id="clip-path-5">
      <path id="Rectángulo_383364" data-name="Rectángulo 383364" d="M6.334,0H30.285a6.334,6.334,0,0,1,6.334,6.334V42.491a6.333,6.333,0,0,1-6.333,6.333H6.334A6.334,6.334,0,0,1,0,42.49V6.334A6.334,6.334,0,0,1,6.334,0Z" fill="#515f9a"/>
    </clipPath>
  </defs>
  <g id="_24" data-name="24" transform="translate(-270 -4295)">
    <rect id="Rectángulo_383369" data-name="Rectángulo 383369" width="190" height="145" rx="8" transform="translate(270 4295)" fill="#273a89"/>
    <g id="Grupo_1095134" data-name="Grupo 1095134" transform="translate(298.441 4321)">
      <rect id="Rectángulo_383325" data-name="Rectángulo 383325" width="123.65" height="1.927" transform="translate(5.112 89.21)" fill="#338dc9"/>
      <rect id="Rectángulo_383326" data-name="Rectángulo 383326" width="9.636" height="3.293" transform="translate(118.107 66.946)" fill="#338dc9"/>
      <rect id="Rectángulo_383327" data-name="Rectángulo 383327" width="9.636" height="3.639" transform="translate(118.107 63.307)" fill="#338dc9"/>
      <rect id="Rectángulo_383328" data-name="Rectángulo 383328" width="9.636" height="2.599" transform="translate(118.107 70.24)" fill="#338dc9"/>
      <rect id="Rectángulo_383329" data-name="Rectángulo 383329" width="9.636" height="2.946" transform="translate(118.107 72.839)" fill="#338dc9"/>
      <rect id="Rectángulo_383330" data-name="Rectángulo 383330" width="9.636" height="3.49" transform="translate(118.107 59.818)" fill="#338dc9"/>
      <rect id="Rectángulo_383331" data-name="Rectángulo 383331" width="9.636" height="1.409" transform="translate(118.107 37.108)" fill="#338dc9"/>
      <rect id="Rectángulo_383332" data-name="Rectángulo 383332" width="9.636" height="3.916" transform="translate(118.107 38.518)" fill="#338dc9"/>
      <rect id="Rectángulo_383333" data-name="Rectángulo 383333" width="9.636" height="6.735" transform="translate(118.107 53.082)" fill="#338dc9"/>
      <rect id="Rectángulo_383334" data-name="Rectángulo 383334" width="9.636" height="5.459" transform="translate(118.107 47.624)" fill="#338dc9"/>
      <rect id="Rectángulo_383335" data-name="Rectángulo 383335" width="9.636" height="5.19" transform="translate(118.107 42.434)" fill="#338dc9"/>
      <g id="Grupo_1095123" data-name="Grupo 1095123">
        <g id="Grupo_1095122" data-name="Grupo 1095122" clip-path="url(#clip-path)">
          <path id="Trazado_829603" data-name="Trazado 829603" d="M52.508,98.189H24.028a4.069,4.069,0,0,1-4.069-4.068V53.433a4.069,4.069,0,0,1,4.069-4.068h28.48a4.068,4.068,0,0,1,4.068,4.068V94.12a4.068,4.068,0,0,1-4.068,4.068" transform="translate(-7.137 -17.652)" fill="#338dc9"/>
        </g>
      </g>
      <g id="Grupo_1095125" data-name="Grupo 1095125" transform="translate(12.821 31.714)">
        <g id="Grupo_1095124" data-name="Grupo 1095124" clip-path="url(#clip-path-2)">
          <path id="Trazado_829604" data-name="Trazado 829604" d="M52.508,98.189H24.028a4.069,4.069,0,0,1-4.069-4.068V53.433a4.069,4.069,0,0,1,4.069-4.068h28.48a4.068,4.068,0,0,1,4.068,4.068V94.12a4.068,4.068,0,0,1-4.068,4.068" transform="translate(-19.958 -49.366)" fill="#338dc9"/>
          <path id="Trazado_829605" data-name="Trazado 829605" d="M56.122,113.134c0,8.344-8.38,15.107-18.718,15.107s-18.718-6.763-18.718-15.107S27.067,98.027,37.4,98.027s18.718,6.763,18.718,15.107" transform="translate(-19.504 -66.766)" fill="#338dc9"/>
          <path id="Trazado_829606" data-name="Trazado 829606" d="M52.722,84.026h-22.1V70.21c0-5.945,2.2-7.783,4.542-8.687a20.216,20.216,0,0,1,13.017,0c2.327.938,4.543,2.371,4.543,8.687Z" transform="translate(-23.771 -53.328)" fill="#338dc9"/>
          <path id="Trazado_829607" data-name="Trazado 829607" d="M51.032,69.3a10.176,10.176,0,0,0-8.893-5.767c-5.722,0-10.36,5.28-10.36,11.794,0,.187.017.369.024.554C38.677,76.6,46.391,74.4,51.032,69.3" transform="translate(-24.185 -54.43)" fill="#338dc9"/>
          <path id="Trazado_829608" data-name="Trazado 829608" d="M31.817,79.087c.256,6.255,4.778,11.241,10.335,11.241,5.722,0,10.36-5.281,10.36-11.795a12.971,12.971,0,0,0-1.467-6.027c-4.641,5.108-12.355,7.3-19.229,6.581" transform="translate(-24.199 -57.64)" fill="#338dc9"/>
          <path id="Trazado_829609" data-name="Trazado 829609" d="M31.774,72.258c.047.64,6.585-.43,7.156-.618a14.48,14.48,0,0,0,7.105-5.075,9.279,9.279,0,0,0,1.589,4.464c1.43,1.777,2.966,1.23,4.87,1.23,0,0,0-10.466-9.244-10.466-12.179,0-11.48,10.4-11.476,10.466" transform="translate(-24.18 -53.809)" fill="#338dc9"/>
          <path id="Trazado_829610" data-name="Trazado 829610" d="M39.387,88.091H50.119S47.728,91.6,44.859,91.6s-5.472-3.506-5.472-3.506" transform="translate(-26.905 -63.213)" fill="#338dc9"/>
          <path id="Trazado_829611" data-name="Trazado 829611" d="M25.926,102.975c-4.4,2.764-7.239,7.078-7.239,11.928,0,7.518,6.8,13.75,15.712,14.911-.538-9.629,1.8-21.179-8.473-26.839" transform="translate(-19.504 -68.536)" fill="#338dc9"/>
          <path id="Trazado_829612" data-name="Trazado 829612" d="M60.974,102.975c4.4,2.764,7.239,7.078,7.239,11.928,0,7.518-6.8,13.75-15.712,14.911.538-9.629-1.8-21.179,8.473-26.839" transform="translate(-31.595 -68.536)" fill="#338dc9"/>
          <path id="Trazado_829613" data-name="Trazado 829613" d="M48.1,110.187a.826.826,0,1,1-.826-.826.826.826,0,0,1,.826.826" transform="translate(-29.43 -70.819)" fill="#338dc9"/>
          <path id="Trazado_829614" data-name="Trazado 829614" d="M48.1,126.084a.826.826,0,1,1-.826-.826.826.826,0,0,1,.826.826" transform="translate(-29.43 -76.504)" fill="#338dc9"/>
          <path id="Trazado_829615" data-name="Trazado 829615" d="M48.1,117.763a.826.826,0,1,1-.826-.826.826.826,0,0,1,.826.826" transform="translate(-29.43 -73.528)" fill="#338dc9"/>
        </g>
      </g>
      <g id="Grupo_1095127" data-name="Grupo 1095127">
        <g id="Grupo_1095126" data-name="Grupo 1095126" clip-path="url(#clip-path)">
          <rect id="Rectángulo_383338" data-name="Rectángulo 383338" width="47.218" height="4.246" transform="translate(61.325 71.539)" fill="#338dc9"/>
          <rect id="Rectángulo_383339" data-name="Rectángulo 383339" width="47.218" height="4.246" transform="translate(61.325 60.047)" fill="#338dc9"/>
          <rect id="Rectángulo_383340" data-name="Rectángulo 383340" width="47.218" height="4.246" transform="translate(61.325 48.23)" fill="#338dc9"/>
        </g>
      </g>
      <text id="ID_CARD" data-name="ID CARD" transform="translate(62.014 40.826)" fill="#338dc9" font-size="9" font-family="SegoeUI, Segoe UI"><tspan x="0" y="0" letter-spacing="0.05em">ID </tspan><tspan y="0" letter-spacing="0.054em">C</tspan><tspan y="0" letter-spacing="0.05em">A</tspan><tspan y="0" letter-spacing="0.049em">R</tspan><tspan y="0">D</tspan></text>
      <g id="Grupo_1095129" data-name="Grupo 1095129">
        <g id="Grupo_1095128" data-name="Grupo 1095128" clip-path="url(#clip-path)">
          <path id="Trazado_829616" data-name="Trazado 829616" d="M114.869,117.449c-1.2-3.409-1.3-7.654,1.291-10.171,2.41-2.338,6.4-2.31,9.417-.841s5.3,4.085,7.487,6.631a2.2,2.2,0,0,1,.578.975,2.13,2.13,0,0,1-.408,1.408c-2.105,3.609-5.884,8.432-9.958,9.952-4.384,1.635-7.205-4.535-8.407-7.954" transform="translate(-40.785 -37.694)" fill="#338dc9"/>
          <path id="Trazado_829617" data-name="Trazado 829617" d="M126.208,109.234c2.216.552,4.393,2.04,6.716,5.324,6.15,1.223,12.551-.55,16.188,7.718.312.263.622.491.933.749a185.011,185.011,0,0,1,15.143-10.768c-12.983-5.34-28.219-8.466-38.981-3.023" transform="translate(-45.13 -38.043)" fill="#dc9780"/>
          <path id="Trazado_829618" data-name="Trazado 829618" d="M0,90a10.383,10.383,0,0,0,10.383,10.383H124.735A10.383,10.383,0,0,0,135.118,90V22.365H0Z" transform="translate(0 -7.997)" fill="#f3f3f3"/>
          <path id="Trazado_829619" data-name="Trazado 829619" d="M124.735,0H10.383A10.383,10.383,0,0,0,0,10.383v3.985H135.118V10.383A10.383,10.383,0,0,0,124.735,0" fill="#3ee2a8"/>
          <rect id="Rectángulo_383342" data-name="Rectángulo 383342" width="123.65" height="1.927" transform="translate(5.112 78.931)" fill="#3ee2a8"/>
          <rect id="Rectángulo_383343" data-name="Rectángulo 383343" width="9.636" height="3.293" transform="translate(118.107 56.667)" fill="#666"/>
          <rect id="Rectángulo_383344" data-name="Rectángulo 383344" width="9.636" height="3.293" transform="translate(118.107 56.667)" fill="none" stroke="#f3f3f3" stroke-miterlimit="10" stroke-width="4"/>
          <rect id="Rectángulo_383345" data-name="Rectángulo 383345" width="9.636" height="3.639" transform="translate(118.107 53.028)" fill="#666"/>
          <rect id="Rectángulo_383346" data-name="Rectángulo 383346" width="9.636" height="3.639" transform="translate(118.107 53.028)" fill="none" stroke="#f3f3f3" stroke-miterlimit="10" stroke-width="4"/>
          <rect id="Rectángulo_383347" data-name="Rectángulo 383347" width="9.636" height="2.599" transform="translate(118.107 59.961)" fill="#666"/>
          <rect id="Rectángulo_383348" data-name="Rectángulo 383348" width="9.636" height="2.599" transform="translate(118.107 59.961)" fill="none" stroke="#f3f3f3" stroke-miterlimit="10" stroke-width="4"/>
          <rect id="Rectángulo_383349" data-name="Rectángulo 383349" width="9.636" height="2.946" transform="translate(118.107 62.56)" fill="#666"/>
          <rect id="Rectángulo_383350" data-name="Rectángulo 383350" width="9.636" height="2.946" transform="translate(118.107 62.56)" fill="none" stroke="#f3f3f3" stroke-miterlimit="10" stroke-width="4"/>
          <rect id="Rectángulo_383351" data-name="Rectángulo 383351" width="9.636" height="3.49" transform="translate(118.107 49.539)" fill="#666"/>
          <rect id="Rectángulo_383352" data-name="Rectángulo 383352" width="9.636" height="3.49" transform="translate(118.107 49.539)" fill="none" stroke="#f3f3f3" stroke-miterlimit="10" stroke-width="4"/>
          <rect id="Rectángulo_383353" data-name="Rectángulo 383353" width="9.636" height="1.409" transform="translate(118.107 26.829)" fill="#666"/>
          <rect id="Rectángulo_383354" data-name="Rectángulo 383354" width="9.636" height="1.409" transform="translate(118.107 26.829)" fill="none" stroke="#f3f3f3" stroke-miterlimit="10" stroke-width="4"/>
          <rect id="Rectángulo_383355" data-name="Rectángulo 383355" width="9.636" height="3.916" transform="translate(118.107 28.239)" fill="#666"/>
          <rect id="Rectángulo_383356" data-name="Rectángulo 383356" width="9.636" height="3.916" transform="translate(118.107 28.239)" fill="none" stroke="#f3f3f3" stroke-miterlimit="10" stroke-width="4"/>
          <rect id="Rectángulo_383357" data-name="Rectángulo 383357" width="9.636" height="6.735" transform="translate(118.107 42.803)" fill="#666"/>
          <rect id="Rectángulo_383358" data-name="Rectángulo 383358" width="9.636" height="6.735" transform="translate(118.107 42.803)" fill="none" stroke="#f3f3f3" stroke-miterlimit="10" stroke-width="4"/>
          <rect id="Rectángulo_383359" data-name="Rectángulo 383359" width="9.636" height="5.459" transform="translate(118.107 37.345)" fill="#666"/>
          <rect id="Rectángulo_383360" data-name="Rectángulo 383360" width="9.636" height="5.459" transform="translate(118.107 37.345)" fill="none" stroke="#f3f3f3" stroke-miterlimit="10" stroke-width="4"/>
          <rect id="Rectángulo_383361" data-name="Rectángulo 383361" width="9.636" height="5.19" transform="translate(118.107 32.155)" fill="#666"/>
          <rect id="Rectángulo_383362" data-name="Rectángulo 383362" width="9.636" height="5.19" transform="translate(118.107 32.155)" fill="none" stroke="#f3f3f3" stroke-miterlimit="10" stroke-width="4"/>
        </g>
      </g>
      <g id="Grupo_1095131" data-name="Grupo 1095131" transform="translate(12.821 21.434)">
        <g id="Grupo_1095130" data-name="Grupo 1095130" clip-path="url(#clip-path-5)">
          <path id="Trazado_829620" data-name="Trazado 829620" d="M52.508,82.189H24.028a4.069,4.069,0,0,1-4.069-4.068V37.433a4.069,4.069,0,0,1,4.069-4.068h28.48a4.068,4.068,0,0,1,4.068,4.068V78.12a4.068,4.068,0,0,1-4.068,4.068" transform="translate(-19.958 -33.365)" fill="#273a89"/>
          <path id="Trazado_829621" data-name="Trazado 829621" d="M56.122,97.134c0,8.344-8.38,15.107-18.718,15.107s-18.718-6.763-18.718-15.107S27.067,82.027,37.4,82.027,56.122,88.79,56.122,97.134" transform="translate(-19.504 -50.766)" fill="#3ee2a8"/>
          <path id="Trazado_829622" data-name="Trazado 829622" d="M52.722,68.026h-22.1V54.21c0-5.945,2.2-7.783,4.542-8.687a20.216,20.216,0,0,1,13.017,0c2.327.938,4.543,2.371,4.543,8.687Z" transform="translate(-23.771 -37.328)" fill="#ffce00"/>
          <path id="Trazado_829623" data-name="Trazado 829623" d="M51.032,53.3a10.176,10.176,0,0,0-8.893-5.767c-5.722,0-10.36,5.28-10.36,11.794,0,.187.017.369.024.554C38.677,60.6,46.391,58.4,51.032,53.3" transform="translate(-24.185 -38.43)" fill="#ffa472"/>
          <path id="Trazado_829624" data-name="Trazado 829624" d="M31.817,63.087c.256,6.255,4.778,11.241,10.335,11.241,5.722,0,10.36-5.281,10.36-11.795a12.971,12.971,0,0,0-1.467-6.027c-4.641,5.108-12.355,7.3-19.229,6.581" transform="translate(-24.199 -41.64)" fill="#ffb085"/>
          <path id="Trazado_829625" data-name="Trazado 829625" d="M31.774,56.258c.047.64,6.585-.43,7.156-.618a14.48,14.48,0,0,0,7.105-5.075,9.279,9.279,0,0,0,1.589,4.464c1.43,1.777,2.966,1.23,4.87,1.23,0,0,0-10.466-9.244-10.466-12.179,0-11.48,10.4-11.476,10.466" transform="translate(-24.18 -37.809)" fill="#ffce00"/>
          <path id="Trazado_829626" data-name="Trazado 829626" d="M39.387,72.091H50.119S47.728,75.6,44.859,75.6s-5.472-3.506-5.472-3.506" transform="translate(-26.905 -47.213)" fill="#fff"/>
          <path id="Trazado_829627" data-name="Trazado 829627" d="M25.926,86.975c-4.4,2.764-7.239,7.078-7.239,11.928,0,7.518,6.8,13.75,15.712,14.911-.538-9.629,1.8-21.179-8.473-26.839" transform="translate(-19.504 -52.535)" fill="#1682fb"/>
          <path id="Trazado_829628" data-name="Trazado 829628" d="M60.974,86.975c4.4,2.764,7.239,7.078,7.239,11.928,0,7.518-6.8,13.75-15.712,14.911.538-9.629-1.8-21.179,8.473-26.839" transform="translate(-31.595 -52.535)" fill="#1682fb"/>
          <path id="Trazado_829629" data-name="Trazado 829629" d="M48.1,94.187a.826.826,0,1,1-.826-.826.826.826,0,0,1,.826.826" transform="translate(-29.43 -54.818)" fill="#7e3092"/>
          <path id="Trazado_829630" data-name="Trazado 829630" d="M48.1,110.084a.826.826,0,1,1-.826-.826.826.826,0,0,1,.826.826" transform="translate(-29.43 -60.503)" fill="#7e3092"/>
          <path id="Trazado_829631" data-name="Trazado 829631" d="M48.1,101.763a.826.826,0,1,1-.826-.826.826.826,0,0,1,.826.826" transform="translate(-29.43 -57.527)" fill="#7e3092"/>
        </g>
      </g>
      <g id="Grupo_1095133" data-name="Grupo 1095133">
        <g id="Grupo_1095132" data-name="Grupo 1095132" clip-path="url(#clip-path)">
          <rect id="Rectángulo_383365" data-name="Rectángulo 383365" width="47.218" height="4.246" transform="translate(61.325 61.26)" fill="#d6dde0"/>
          <rect id="Rectángulo_383366" data-name="Rectángulo 383366" width="47.218" height="4.246" transform="translate(61.325 49.768)" fill="#d6dde0"/>
          <rect id="Rectángulo_383367" data-name="Rectángulo 383367" width="47.218" height="4.246" transform="translate(61.325 37.952)" fill="#d6dde0"/>
        </g>
      </g>
      <text id="ID_CARD-2" data-name="ID CARD" transform="translate(62.014 30.547)" fill="#3ee2a8" font-size="9" font-family="SegoeUI, Segoe UI"><tspan x="0" y="0" letter-spacing="0.05em">ID </tspan><tspan y="0" letter-spacing="0.054em">C</tspan><tspan y="0" letter-spacing="0.05em">A</tspan><tspan y="0" letter-spacing="0.049em">R</tspan><tspan y="0">D</tspan></text>
    </g>
  </g>
</svg>
