<svg xmlns="http://www.w3.org/2000/svg" xmlns:xlink="http://www.w3.org/1999/xlink" width="190" height="145" viewBox="0 0 190 145">
  <defs>
    <clipPath id="clip-path">
      <rect id="Rectángulo_383386" data-name="Rectángulo 383386" width="95.257" height="100.658" fill="none"/>
    </clipPath>
  </defs>
  <g id="_27" data-name="27" transform="translate(-285 -5774)">
    <path id="Trazado_829655" data-name="Trazado 829655" d="M8,0H182a8,8,0,0,1,8,8V137a8,8,0,0,1-8,8H8a8,8,0,0,1-8-8V8A8,8,0,0,1,8,0Z" transform="translate(285 5774)" fill="#273a89"/>
    <g id="Grupo_1095144" data-name="Grupo 1095144" transform="translate(332.371 5796)">
      <g id="Grupo_1095143" data-name="Grupo 1095143" clip-path="url(#clip-path)">
        <path id="Trazado_829642" data-name="Trazado 829642" d="M95.258,53.957A47.629,47.629,0,1,1,47.629,6.328,47.629,47.629,0,0,1,95.258,53.957" transform="translate(0 -0.929)" fill="#3ee2a8"/>
        <rect id="Rectángulo_383383" data-name="Rectángulo 383383" width="25.199" height="28.463" transform="translate(35.029 46.755)" fill="#e2988f"/>
        <path id="Trazado_829643" data-name="Trazado 829643" d="M76.186,26.775a2.87,2.87,0,0,0-4.23-1.692C73.6,9.974,65.912,0,51.507,0S29.417,9.974,31.057,25.083a2.87,2.87,0,0,0-4.23,1.692c-1.39,3.323,1.148,11.12,2.719,13.6A17.456,17.456,0,0,0,33.9,44.724a19.967,19.967,0,0,0,.906,4.713c.725,1.933,8.944,10.825,11.361,12.185,3.169,1.865,7.837,1.865,10.683,0,2.416-1.359,10.635-10.251,11.36-12.185a19.988,19.988,0,0,0,.907-4.713,17.46,17.46,0,0,0,4.351-4.352c1.571-2.477,4.109-10.273,2.719-13.6" transform="translate(-3.878)" fill="#e2988f"/>
        <path id="Trazado_829644" data-name="Trazado 829644" d="M53.738,72.7a11.276,11.276,0,0,1-5.63-1.435c-1.463-.823-4.829-4.19-7.333-6.969l.474-.428c2.551,2.829,5.835,6.088,7.178,6.844,3.066,1.8,7.61,1.807,10.35.011,1.363-.767,4.647-4.027,7.2-6.855l.475.428c-2.505,2.78-5.87,6.147-7.34,6.973A9.931,9.931,0,0,1,53.738,72.7" transform="translate(-5.983 -9.372)" fill="#c46966"/>
        <rect id="Rectángulo_383384" data-name="Rectángulo 383384" width="0.64" height="6.53" transform="translate(28.904 38.281) rotate(-7.025)" fill="#c46966"/>
        <rect id="Rectángulo_383385" data-name="Rectángulo 383385" width="6.522" height="0.64" transform="translate(64.946 44.688) rotate(-83.651)" fill="#c46966"/>
        <path id="Trazado_829645" data-name="Trazado 829645" d="M28.982,39.057c-.134-.49-1.266-4.82.3-6.005a1.364,1.364,0,0,1,1.206-.215A2.4,2.4,0,0,1,31.72,34.19l-.6.23c-.088-.224-.407-.836-.838-.974a.726.726,0,0,0-.639.131c-.9.683-.509,3.623-.047,5.312Z" transform="translate(-4.176 -4.81)" fill="#c46966"/>
        <path id="Trazado_829646" data-name="Trazado 829646" d="M82.1,39.057l-.617-.169c.462-1.689.853-4.63-.066-5.326a.713.713,0,0,0-.621-.117c-.514.167-.833.966-.835.974l-.6-.229a2.4,2.4,0,0,1,1.236-1.353,1.349,1.349,0,0,1,1.187.2c1.581,1.2.449,5.528.315,6.018" transform="translate(-11.645 -4.81)" fill="#c46966"/>
        <path id="Trazado_829647" data-name="Trazado 829647" d="M33.858,33.03c4.276.022,1.042-13.774,4.4-17.114,1.7-1.7,4.194-1.42,6.327-.876A35.308,35.308,0,0,0,52.256,16.6c2.777.073,5.41-.944,8.071-1.589,2.066-.5,4.312-.722,5.948.906,3.354,3.34.121,17.136,4.4,17.114-.3-3.189-.3-6.685,2.042-7.946l0,0C74.353,9.971,66.671,0,52.266,0S30.177,9.973,31.816,25.083h0c1.906,1.239,2.341,4.609,2.042,7.946" transform="translate(-4.637)" fill="#273a89"/>
        <path id="Trazado_829648" data-name="Trazado 829648" d="M89.525,89.745a121.517,121.517,0,0,0-28.107-8.127c-6.727,7.013-19.255,7.112-25.2,0A121.517,121.517,0,0,0,8.113,89.745a47.641,47.641,0,0,0,81.412,0" transform="translate(-1.19 -11.976)" fill="#ffce00"/>
        <path id="Trazado_829649" data-name="Trazado 829649" d="M37.063,81.136l3.4-6.107,11.024,9.9-6.745,7.391Z" transform="translate(-5.438 -11.01)" fill="#fff"/>
        <path id="Trazado_829650" data-name="Trazado 829650" d="M72.079,81.136l-3.4-6.107-11.024,9.9L64.4,92.316Z" transform="translate(-8.459 -11.01)" fill="#fff"/>
      </g>
    </g>
  </g>
</svg>
