<svg xmlns="http://www.w3.org/2000/svg" width="610" height="549" viewBox="0 0 610 549">
  <g id="Grupo_1095387" data-name="Grupo 1095387" transform="translate(-495 -6663)">
    <g id="Grupo_1095146" data-name="Grupo 1095146" transform="translate(0 491)">
      <g id="Rect치ngulo_383379" data-name="Rect치ngulo 383379" transform="translate(495 6172)" fill="#fff" stroke="#3ee2a8" stroke-width="1">
        <rect width="610" height="549" rx="10" stroke="none"/>
        <rect x="0.5" y="0.5" width="609" height="548" rx="9.5" fill="none"/>
      </g>
      <ellipse id="Elipse_9992" data-name="Elipse 9992" cx="69" cy="31.5" rx="69" ry="31.5" transform="translate(645.242 6261)" fill="#ffe888"/>
      <path id="Trazado_830000" data-name="Trazado 830000" d="M6.313,0a3.036,3.036,0,0,1-.2-.891A3.225,3.225,0,0,1,3.7.156,2.984,2.984,0,0,1,1.652-.551a2.287,2.287,0,0,1-.8-1.793,2.39,2.39,0,0,1,1-2.051,4.733,4.733,0,0,1,2.824-.73H6.086v-.664A1.623,1.623,0,0,0,5.633-7,1.821,1.821,0,0,0,4.3-7.445,2.107,2.107,0,0,0,3-7.055a1.151,1.151,0,0,0-.523.945H1.023a2,2,0,0,1,.449-1.223,3.066,3.066,0,0,1,1.219-.934,4.1,4.1,0,0,1,1.691-.344,3.342,3.342,0,0,1,2.289.73,2.635,2.635,0,0,1,.859,2.012v3.891a4.757,4.757,0,0,0,.3,1.852V0Zm-2.4-1.1A2.54,2.54,0,0,0,5.2-1.453a2.127,2.127,0,0,0,.883-.914V-4.1H4.953Q2.3-4.1,2.3-2.547A1.316,1.316,0,0,0,2.75-1.484,1.742,1.742,0,0,0,3.914-1.1ZM16.938-4.133a5.062,5.062,0,0,1-.883,3.109A2.829,2.829,0,0,1,13.664.156,3.1,3.1,0,0,1,11.242-.82V3.25H9.8v-11.7h1.32l.07.938a2.977,2.977,0,0,1,2.453-1.094,2.882,2.882,0,0,1,2.41,1.148,5.117,5.117,0,0,1,.887,3.2ZM15.492-4.3a3.735,3.735,0,0,0-.609-2.258,1.963,1.963,0,0,0-1.672-.828,2.125,2.125,0,0,0-1.969,1.164V-2.18a2.129,2.129,0,0,0,1.984,1.156,1.954,1.954,0,0,0,1.652-.824A4.077,4.077,0,0,0,15.492-4.3ZM22.281.156a3.693,3.693,0,0,1-2.8-1.129,4.19,4.19,0,0,1-1.078-3.02v-.266a5.073,5.073,0,0,1,.48-2.246A3.748,3.748,0,0,1,20.23-8.051,3.378,3.378,0,0,1,22.1-8.609a3.166,3.166,0,0,1,2.563,1.086,4.7,4.7,0,0,1,.914,3.109v.6H19.852a3,3,0,0,0,.73,2.02,2.3,2.3,0,0,0,1.777.77,2.517,2.517,0,0,0,1.3-.312,3.259,3.259,0,0,0,.93-.828l.883.688A3.55,3.55,0,0,1,22.281.156ZM22.1-7.422a1.928,1.928,0,0,0-1.469.637A3.1,3.1,0,0,0,19.9-5h4.234v-.109a2.753,2.753,0,0,0-.594-1.707A1.815,1.815,0,0,0,22.1-7.422ZM28.82,0H27.375V-12H28.82ZM32.7,0H31.258V-12H32.7Zm3.883,0H35.141V-8.453h1.445ZM35.023-10.7a.863.863,0,0,1,.215-.594.807.807,0,0,1,.637-.242.819.819,0,0,1,.641.242.854.854,0,0,1,.219.594.826.826,0,0,1-.219.586.834.834,0,0,1-.641.234.821.821,0,0,1-.637-.234A.834.834,0,0,1,35.023-10.7Zm3.523,6.4a4.952,4.952,0,0,1,.922-3.129,2.915,2.915,0,0,1,2.414-1.184,2.932,2.932,0,0,1,2.352,1.016V-12H45.68V0H44.352l-.07-.906A2.943,2.943,0,0,1,41.867.156a2.887,2.887,0,0,1-2.395-1.2,5.008,5.008,0,0,1-.926-3.141Zm1.445.164a3.749,3.749,0,0,0,.594,2.25,1.92,1.92,0,0,0,1.641.813A2.108,2.108,0,0,0,44.234-2.3V-6.187a2.125,2.125,0,0,0-1.992-1.2,1.929,1.929,0,0,0-1.656.82A4.128,4.128,0,0,0,39.992-4.133ZM47.539-4.3a4.993,4.993,0,0,1,.488-2.234A3.643,3.643,0,0,1,49.387-8.07a3.7,3.7,0,0,1,1.988-.539,3.565,3.565,0,0,1,2.793,1.2,4.6,4.6,0,0,1,1.066,3.18v.1a5.036,5.036,0,0,1-.473,2.215A3.589,3.589,0,0,1,53.41-.391a3.743,3.743,0,0,1-2.02.547,3.556,3.556,0,0,1-2.785-1.2A4.575,4.575,0,0,1,47.539-4.2Zm1.453.172a3.616,3.616,0,0,0,.652,2.258,2.088,2.088,0,0,0,1.746.852,2.075,2.075,0,0,0,1.75-.863A3.955,3.955,0,0,0,53.789-4.3a3.61,3.61,0,0,0-.66-2.254,2.1,2.1,0,0,0-1.754-.863,2.075,2.075,0,0,0-1.727.852A3.925,3.925,0,0,0,48.992-4.133ZM61.969-2.242a1.064,1.064,0,0,0-.441-.91,4.249,4.249,0,0,0-1.539-.559,7.277,7.277,0,0,1-1.742-.562,2.479,2.479,0,0,1-.953-.781,1.869,1.869,0,0,1-.309-1.078,2.193,2.193,0,0,1,.879-1.758,3.432,3.432,0,0,1,2.246-.719,3.532,3.532,0,0,1,2.332.742,2.357,2.357,0,0,1,.895,1.9H61.883a1.3,1.3,0,0,0-.5-1.023,1.888,1.888,0,0,0-1.27-.43,1.976,1.976,0,0,0-1.234.344,1.082,1.082,0,0,0-.445.9.877.877,0,0,0,.414.789,5.1,5.1,0,0,0,1.5.508,7.8,7.8,0,0,1,1.754.578,2.558,2.558,0,0,1,1,.809,1.988,1.988,0,0,1,.324,1.152,2.163,2.163,0,0,1-.906,1.816,3.8,3.8,0,0,1-2.352.684,4.257,4.257,0,0,1-1.8-.359,2.922,2.922,0,0,1-1.223-1A2.42,2.42,0,0,1,56.7-2.6h1.445a1.5,1.5,0,0,0,.582,1.152,2.258,2.258,0,0,0,1.434.426,2.331,2.331,0,0,0,1.316-.332A1.02,1.02,0,0,0,61.969-2.242Z" transform="translate(682.242 6298)" fill="#12263f"/>
      <ellipse id="Elipse_9999" data-name="Elipse 9999" cx="69" cy="31.5" rx="69" ry="31.5" transform="translate(562.758 6345)" fill="#ffe888"/>
      <path id="Trazado_830001" data-name="Trazado 830001" d="M4.484-1.023a2.082,2.082,0,0,0,1.352-.469,1.649,1.649,0,0,0,.641-1.172H7.844a2.621,2.621,0,0,1-.5,1.383A3.293,3.293,0,0,1,6.113-.234,3.55,3.55,0,0,1,4.484.156,3.482,3.482,0,0,1,1.738-1,4.59,4.59,0,0,1,.719-4.148v-.242a5.089,5.089,0,0,1,.453-2.2,3.451,3.451,0,0,1,1.3-1.492,3.7,3.7,0,0,1,2-.531,3.39,3.39,0,0,1,2.363.852,3.043,3.043,0,0,1,1,2.211H6.477a1.992,1.992,0,0,0-.621-1.348,1.932,1.932,0,0,0-1.379-.527,2.023,2.023,0,0,0-1.707.793,3.724,3.724,0,0,0-.605,2.293v.273a3.65,3.65,0,0,0,.6,2.25A2.033,2.033,0,0,0,4.484-1.023ZM9.086-4.3a4.993,4.993,0,0,1,.488-2.234A3.643,3.643,0,0,1,10.934-8.07a3.7,3.7,0,0,1,1.988-.539,3.565,3.565,0,0,1,2.793,1.2,4.6,4.6,0,0,1,1.066,3.18v.1a5.036,5.036,0,0,1-.473,2.215A3.589,3.589,0,0,1,14.957-.391a3.743,3.743,0,0,1-2.02.547,3.556,3.556,0,0,1-2.785-1.2A4.575,4.575,0,0,1,9.086-4.2Zm1.453.172a3.616,3.616,0,0,0,.652,2.258,2.088,2.088,0,0,0,1.746.852,2.075,2.075,0,0,0,1.75-.863A3.955,3.955,0,0,0,15.336-4.3a3.61,3.61,0,0,0-.66-2.254,2.1,2.1,0,0,0-1.754-.863A2.075,2.075,0,0,0,11.2-6.57,3.925,3.925,0,0,0,10.539-4.133ZM22.68-7.156a4.331,4.331,0,0,0-.711-.055A1.9,1.9,0,0,0,20.039-6V0H18.594V-8.453H20l.023.977a2.251,2.251,0,0,1,2.016-1.133,1.477,1.477,0,0,1,.641.109Zm5.414,0a4.331,4.331,0,0,0-.711-.055A1.9,1.9,0,0,0,25.453-6V0H24.008V-8.453h1.406l.023.977a2.251,2.251,0,0,1,2.016-1.133,1.477,1.477,0,0,1,.641.109ZM32.781.156a3.693,3.693,0,0,1-2.8-1.129,4.19,4.19,0,0,1-1.078-3.02v-.266a5.073,5.073,0,0,1,.48-2.246A3.748,3.748,0,0,1,30.73-8.051,3.378,3.378,0,0,1,32.6-8.609a3.166,3.166,0,0,1,2.563,1.086,4.7,4.7,0,0,1,.914,3.109v.6H30.352a3,3,0,0,0,.73,2.02,2.3,2.3,0,0,0,1.777.77,2.517,2.517,0,0,0,1.3-.312,3.259,3.259,0,0,0,.93-.828l.883.688A3.55,3.55,0,0,1,32.781.156ZM32.6-7.422a1.928,1.928,0,0,0-1.469.637A3.1,3.1,0,0,0,30.4-5h4.234v-.109a2.753,2.753,0,0,0-.594-1.707A1.815,1.815,0,0,0,32.6-7.422ZM37.367-4.3a4.993,4.993,0,0,1,.488-2.234A3.643,3.643,0,0,1,39.215-8.07,3.7,3.7,0,0,1,41.2-8.609,3.565,3.565,0,0,1,44-7.414a4.6,4.6,0,0,1,1.066,3.18v.1a5.036,5.036,0,0,1-.473,2.215A3.589,3.589,0,0,1,43.238-.391a3.743,3.743,0,0,1-2.02.547,3.556,3.556,0,0,1-2.785-1.2A4.575,4.575,0,0,1,37.367-4.2Zm1.453.172a3.616,3.616,0,0,0,.652,2.258,2.088,2.088,0,0,0,1.746.852,2.075,2.075,0,0,0,1.75-.863A3.955,3.955,0,0,0,43.617-4.3a3.61,3.61,0,0,0-.66-2.254A2.1,2.1,0,0,0,41.2-7.422a2.075,2.075,0,0,0-1.727.852A3.925,3.925,0,0,0,38.82-4.133Z" transform="translate(605.242 6379)" fill="#12263f"/>
      <path id="Trazado_829598" data-name="Trazado 829598" d="M-5786.552-8106.016l53.037,46.542" transform="translate(6475.758 14501)" fill="none" stroke="#707070" stroke-width="1"/>
      <path id="Trazado_829599" data-name="Trazado 829599" d="M-5786.552-8059.475l53.037-46.542" transform="translate(6475.758 14580.745)" fill="none" stroke="#707070" stroke-width="1"/>
      <ellipse id="Elipse_9993" data-name="Elipse 9993" cx="69" cy="31.5" rx="69" ry="31.5" transform="translate(562.758 6498)" fill="#ffe888"/>
      <path id="Trazado_830002" data-name="Trazado 830002" d="M4.6.156A3.693,3.693,0,0,1,1.8-.973,4.19,4.19,0,0,1,.727-3.992v-.266A5.073,5.073,0,0,1,1.207-6.5,3.748,3.748,0,0,1,2.551-8.051a3.378,3.378,0,0,1,1.871-.559A3.166,3.166,0,0,1,6.984-7.523,4.7,4.7,0,0,1,7.9-4.414v.6H2.172a3,3,0,0,0,.73,2.02,2.3,2.3,0,0,0,1.777.77,2.517,2.517,0,0,0,1.3-.312,3.259,3.259,0,0,0,.93-.828l.883.688A3.55,3.55,0,0,1,4.6.156Zm-.18-7.578a1.928,1.928,0,0,0-1.469.637A3.1,3.1,0,0,0,2.219-5H6.453v-.109a2.753,2.753,0,0,0-.594-1.707A1.815,1.815,0,0,0,4.422-7.422ZM9.219-4.3a4.952,4.952,0,0,1,.922-3.129,2.915,2.915,0,0,1,2.414-1.184,2.932,2.932,0,0,1,2.352,1.016V-12h1.445V0H15.023l-.07-.906A2.943,2.943,0,0,1,12.539.156a2.887,2.887,0,0,1-2.395-1.2,5.008,5.008,0,0,1-.926-3.141Zm1.445.164a3.749,3.749,0,0,0,.594,2.25A1.92,1.92,0,0,0,12.9-1.07,2.108,2.108,0,0,0,14.906-2.3V-6.187a2.125,2.125,0,0,0-1.992-1.2,1.929,1.929,0,0,0-1.656.82A4.128,4.128,0,0,0,10.664-4.133ZM23.813,0a3.036,3.036,0,0,1-.2-.891A3.225,3.225,0,0,1,21.2.156a2.984,2.984,0,0,1-2.051-.707,2.287,2.287,0,0,1-.8-1.793,2.39,2.39,0,0,1,1-2.051,4.733,4.733,0,0,1,2.824-.73h1.406v-.664A1.623,1.623,0,0,0,23.133-7,1.821,1.821,0,0,0,21.8-7.445a2.108,2.108,0,0,0-1.3.391,1.151,1.151,0,0,0-.523.945H18.523a2,2,0,0,1,.449-1.223,3.066,3.066,0,0,1,1.219-.934,4.1,4.1,0,0,1,1.691-.344,3.342,3.342,0,0,1,2.289.73,2.635,2.635,0,0,1,.859,2.012v3.891a4.757,4.757,0,0,0,.3,1.852V0Zm-2.4-1.1A2.54,2.54,0,0,0,22.7-1.453a2.127,2.127,0,0,0,.883-.914V-4.1H22.453Q19.8-4.1,19.8-2.547a1.316,1.316,0,0,0,.453,1.063A1.742,1.742,0,0,0,21.414-1.1Zm5.531-3.2a4.952,4.952,0,0,1,.922-3.129,2.915,2.915,0,0,1,2.414-1.184,2.932,2.932,0,0,1,2.352,1.016V-12h1.445V0H32.75l-.07-.906A2.943,2.943,0,0,1,30.266.156a2.887,2.887,0,0,1-2.395-1.2,5.008,5.008,0,0,1-.926-3.141Zm1.445.164a3.749,3.749,0,0,0,.594,2.25,1.92,1.92,0,0,0,1.641.813A2.108,2.108,0,0,0,32.633-2.3V-6.187a2.125,2.125,0,0,0-1.992-1.2,1.929,1.929,0,0,0-1.656.82A4.128,4.128,0,0,0,28.391-4.133Z" transform="translate(613.758 6535)" fill="#12263f"/>
      <path id="Trazado_829600" data-name="Trazado 829600" d="M-5786.552-8106.016l131.484,115.383" transform="translate(6504.794 14429.159)" fill="none" stroke="#707070" stroke-width="1"/>
      <path id="Trazado_829601" data-name="Trazado 829601" d="M-5786.552-7990.633l131.484-115.383" transform="translate(6491.794 14589.016)" fill="none" stroke="#707070" stroke-width="1"/>
      <ellipse id="Elipse_9991" data-name="Elipse 9991" cx="69" cy="31.5" rx="69" ry="31.5" transform="translate(645.242 6577)" fill="#ffe888"/>
      <path id="Trazado_830003" data-name="Trazado 830003" d="M8.234-4.133a5.062,5.062,0,0,1-.883,3.109A2.829,2.829,0,0,1,4.961.156,3.1,3.1,0,0,1,2.539-.82V3.25H1.094v-11.7h1.32l.07.938A2.977,2.977,0,0,1,4.938-8.609a2.882,2.882,0,0,1,2.41,1.148,5.117,5.117,0,0,1,.887,3.2ZM6.789-4.3A3.735,3.735,0,0,0,6.18-6.555a1.963,1.963,0,0,0-1.672-.828A2.125,2.125,0,0,0,2.539-6.219V-2.18A2.129,2.129,0,0,0,4.523-1.023a1.954,1.954,0,0,0,1.652-.824A4.077,4.077,0,0,0,6.789-4.3Zm8.5,4.3a3.036,3.036,0,0,1-.2-.891A3.225,3.225,0,0,1,12.68.156a2.984,2.984,0,0,1-2.051-.707,2.287,2.287,0,0,1-.8-1.793,2.39,2.39,0,0,1,1-2.051,4.733,4.733,0,0,1,2.824-.73h1.406v-.664A1.623,1.623,0,0,0,14.609-7a1.821,1.821,0,0,0-1.336-.449,2.107,2.107,0,0,0-1.3.391,1.151,1.151,0,0,0-.523.945H10a2,2,0,0,1,.449-1.223,3.066,3.066,0,0,1,1.219-.934,4.1,4.1,0,0,1,1.691-.344,3.342,3.342,0,0,1,2.289.73,2.635,2.635,0,0,1,.859,2.012v3.891a4.757,4.757,0,0,0,.3,1.852V0Zm-2.4-1.1a2.54,2.54,0,0,0,1.289-.352,2.127,2.127,0,0,0,.883-.914V-4.1H13.93q-2.656,0-2.656,1.555a1.316,1.316,0,0,0,.453,1.063A1.742,1.742,0,0,0,12.891-1.1ZM20.344,0H18.9V-8.453h1.445ZM18.781-10.7A.863.863,0,0,1,19-11.289a.807.807,0,0,1,.637-.242.819.819,0,0,1,.641.242.854.854,0,0,1,.219.594.826.826,0,0,1-.219.586.834.834,0,0,1-.641.234A.821.821,0,0,1,19-10.109.834.834,0,0,1,18.781-10.7Zm8.8,8.453a1.064,1.064,0,0,0-.441-.91A4.249,4.249,0,0,0,25.6-3.711a7.277,7.277,0,0,1-1.742-.562,2.479,2.479,0,0,1-.953-.781,1.869,1.869,0,0,1-.309-1.078,2.193,2.193,0,0,1,.879-1.758,3.432,3.432,0,0,1,2.246-.719,3.532,3.532,0,0,1,2.332.742,2.357,2.357,0,0,1,.895,1.9H27.492a1.3,1.3,0,0,0-.5-1.023,1.888,1.888,0,0,0-1.27-.43,1.976,1.976,0,0,0-1.234.344,1.082,1.082,0,0,0-.445.9.877.877,0,0,0,.414.789,5.1,5.1,0,0,0,1.5.508A7.8,7.8,0,0,1,27.7-4.3a2.558,2.558,0,0,1,1,.809,1.988,1.988,0,0,1,.324,1.152,2.163,2.163,0,0,1-.906,1.816,3.8,3.8,0,0,1-2.352.684,4.257,4.257,0,0,1-1.8-.359,2.922,2.922,0,0,1-1.223-1A2.42,2.42,0,0,1,22.3-2.6H23.75a1.5,1.5,0,0,0,.582,1.152,2.258,2.258,0,0,0,1.434.426,2.331,2.331,0,0,0,1.316-.332A1.02,1.02,0,0,0,27.578-2.242ZM3.539,1H29.813V2H3.539Z" transform="translate(699.242 6614)" fill="#12263f"/>
      <rect id="Rect치ngulo_383311" data-name="Rect치ngulo 383311" width="190" height="58" transform="translate(738.242 6425)" fill="#273a89"/>
      <path id="Trazado_829997" data-name="Trazado 829997" d="M2.82-4.453V0H1.32V-11.375h4.2a4.215,4.215,0,0,1,2.926.953A3.231,3.231,0,0,1,9.5-7.9,3.189,3.189,0,0,1,8.465-5.348,4.4,4.4,0,0,1,5.5-4.453Zm0-1.227h2.7a2.7,2.7,0,0,0,1.844-.566A2.069,2.069,0,0,0,8-7.883a2.138,2.138,0,0,0-.641-1.625A2.528,2.528,0,0,0,5.6-10.141H2.82ZM14.594.156A3.693,3.693,0,0,1,11.8-.973a4.19,4.19,0,0,1-1.078-3.02v-.266A5.073,5.073,0,0,1,11.2-6.5a3.748,3.748,0,0,1,1.344-1.547,3.378,3.378,0,0,1,1.871-.559,3.166,3.166,0,0,1,2.563,1.086,4.7,4.7,0,0,1,.914,3.109v.6H12.164a3,3,0,0,0,.73,2.02,2.3,2.3,0,0,0,1.777.77,2.517,2.517,0,0,0,1.3-.312,3.259,3.259,0,0,0,.93-.828l.883.688A3.55,3.55,0,0,1,14.594.156Zm-.18-7.578a1.928,1.928,0,0,0-1.469.637A3.1,3.1,0,0,0,12.211-5h4.234v-.109a2.753,2.753,0,0,0-.594-1.707A1.815,1.815,0,0,0,14.414-7.422Zm9.234.266a4.331,4.331,0,0,0-.711-.055A1.9,1.9,0,0,0,21.008-6V0H19.563V-8.453h1.406l.023.977a2.251,2.251,0,0,1,2.016-1.133,1.477,1.477,0,0,1,.641.109ZM29.9-2.242a1.064,1.064,0,0,0-.441-.91,4.249,4.249,0,0,0-1.539-.559,7.277,7.277,0,0,1-1.742-.562,2.479,2.479,0,0,1-.953-.781,1.869,1.869,0,0,1-.309-1.078,2.193,2.193,0,0,1,.879-1.758,3.432,3.432,0,0,1,2.246-.719,3.532,3.532,0,0,1,2.332.742,2.357,2.357,0,0,1,.895,1.9H29.813a1.3,1.3,0,0,0-.5-1.023,1.888,1.888,0,0,0-1.27-.43,1.976,1.976,0,0,0-1.234.344,1.082,1.082,0,0,0-.445.9.877.877,0,0,0,.414.789,5.1,5.1,0,0,0,1.5.508,7.8,7.8,0,0,1,1.754.578,2.558,2.558,0,0,1,1,.809,1.988,1.988,0,0,1,.324,1.152,2.163,2.163,0,0,1-.906,1.816,3.8,3.8,0,0,1-2.352.684,4.257,4.257,0,0,1-1.8-.359,2.922,2.922,0,0,1-1.223-1A2.42,2.42,0,0,1,24.625-2.6H26.07a1.5,1.5,0,0,0,.582,1.152,2.258,2.258,0,0,0,1.434.426A2.331,2.331,0,0,0,29.4-1.355,1.02,1.02,0,0,0,29.9-2.242ZM32.844-4.3a4.993,4.993,0,0,1,.488-2.234A3.643,3.643,0,0,1,34.691-8.07a3.7,3.7,0,0,1,1.988-.539,3.565,3.565,0,0,1,2.793,1.2,4.6,4.6,0,0,1,1.066,3.18v.1a5.036,5.036,0,0,1-.473,2.215A3.589,3.589,0,0,1,38.715-.391,3.743,3.743,0,0,1,36.7.156a3.556,3.556,0,0,1-2.785-1.2A4.575,4.575,0,0,1,32.844-4.2Zm1.453.172a3.616,3.616,0,0,0,.652,2.258,2.088,2.088,0,0,0,1.746.852,2.075,2.075,0,0,0,1.75-.863A3.955,3.955,0,0,0,39.094-4.3a3.61,3.61,0,0,0-.66-2.254,2.1,2.1,0,0,0-1.754-.863,2.075,2.075,0,0,0-1.727.852A3.925,3.925,0,0,0,34.3-4.133Zm9.422-4.32.047,1.063A3.08,3.08,0,0,1,46.3-8.609q2.68,0,2.7,3.023V0H47.555V-5.594a1.946,1.946,0,0,0-.418-1.352,1.675,1.675,0,0,0-1.277-.437,2.086,2.086,0,0,0-1.234.375,2.546,2.546,0,0,0-.828.984V0H42.352V-8.453ZM56.4,0a3.036,3.036,0,0,1-.2-.891A3.225,3.225,0,0,1,53.789.156a2.984,2.984,0,0,1-2.051-.707,2.287,2.287,0,0,1-.8-1.793,2.39,2.39,0,0,1,1-2.051,4.733,4.733,0,0,1,2.824-.73h1.406v-.664A1.623,1.623,0,0,0,55.719-7a1.821,1.821,0,0,0-1.336-.449,2.107,2.107,0,0,0-1.3.391,1.151,1.151,0,0,0-.523.945H51.109a2,2,0,0,1,.449-1.223,3.066,3.066,0,0,1,1.219-.934,4.1,4.1,0,0,1,1.691-.344,3.342,3.342,0,0,1,2.289.73,2.635,2.635,0,0,1,.859,2.012v3.891a4.757,4.757,0,0,0,.3,1.852V0ZM54-1.1a2.54,2.54,0,0,0,1.289-.352,2.127,2.127,0,0,0,.883-.914V-4.1H55.039q-2.656,0-2.656,1.555a1.316,1.316,0,0,0,.453,1.063A1.742,1.742,0,0,0,54-1.1Z" transform="translate(810 6460)" fill="#fff"/>
      <path id="Trazado_829634" data-name="Trazado 829634" d="M-5624.234-6421v-150.937" transform="translate(6489.242 12846)" fill="none" stroke="#707070" stroke-width="1"/>
      <path id="Trazado_829635" data-name="Trazado 829635" d="M-5624.234-6421v-150.937" transform="translate(6489.242 13054.938)" fill="none" stroke="#707070" stroke-width="1"/>
      <ellipse id="Elipse_10000" data-name="Elipse 10000" cx="69" cy="31.5" rx="69" ry="31.5" transform="translate(794.242 6211)" fill="#ffe888"/>
      <path id="Trazado_829998" data-name="Trazado 829998" d="M2.461-8.453l.047,1.063A3.08,3.08,0,0,1,5.039-8.609q2.68,0,2.7,3.023V0H6.3V-5.594a1.946,1.946,0,0,0-.418-1.352A1.675,1.675,0,0,0,4.6-7.383a2.086,2.086,0,0,0-1.234.375,2.546,2.546,0,0,0-.828.984V0H1.094V-8.453ZM9.539-4.3a4.993,4.993,0,0,1,.488-2.234A3.643,3.643,0,0,1,11.387-8.07a3.7,3.7,0,0,1,1.988-.539,3.565,3.565,0,0,1,2.793,1.2,4.6,4.6,0,0,1,1.066,3.18v.1a5.036,5.036,0,0,1-.473,2.215A3.589,3.589,0,0,1,15.41-.391a3.743,3.743,0,0,1-2.02.547,3.556,3.556,0,0,1-2.785-1.2A4.575,4.575,0,0,1,9.539-4.2Zm1.453.172a3.616,3.616,0,0,0,.652,2.258,2.088,2.088,0,0,0,1.746.852,2.075,2.075,0,0,0,1.75-.863A3.955,3.955,0,0,0,15.789-4.3a3.61,3.61,0,0,0-.66-2.254,2.1,2.1,0,0,0-1.754-.863,2.075,2.075,0,0,0-1.727.852A3.925,3.925,0,0,0,10.992-4.133Zm9.414-4.32.039.938a3.122,3.122,0,0,1,2.508-1.094A2.417,2.417,0,0,1,25.367-7.25a3.2,3.2,0,0,1,1.1-.984,3.242,3.242,0,0,1,1.6-.375q2.781,0,2.828,2.945V0H29.445V-5.578a1.941,1.941,0,0,0-.414-1.355,1.823,1.823,0,0,0-1.391-.449A1.916,1.916,0,0,0,26.3-6.9a1.949,1.949,0,0,0-.617,1.293V0H24.234V-5.539a1.613,1.613,0,0,0-1.8-1.844,1.934,1.934,0,0,0-1.945,1.211V0H19.039V-8.453Zm19.82,4.32a5.026,5.026,0,0,1-.891,3.113A2.846,2.846,0,0,1,36.945.156,2.947,2.947,0,0,1,34.469-.977L34.4,0H33.07V-12h1.445v4.477A2.93,2.93,0,0,1,36.93-8.609a2.863,2.863,0,0,1,2.418,1.164,5.177,5.177,0,0,1,.879,3.188ZM38.781-4.3a3.906,3.906,0,0,0-.57-2.281,1.888,1.888,0,0,0-1.641-.8,2.122,2.122,0,0,0-2.055,1.328V-2.4a2.181,2.181,0,0,0,2.07,1.328,1.878,1.878,0,0,0,1.617-.8A4.153,4.153,0,0,0,38.781-4.3Zm7.352-2.859a4.331,4.331,0,0,0-.711-.055A1.9,1.9,0,0,0,43.492-6V0H42.047V-8.453h1.406l.023.977a2.251,2.251,0,0,1,2.016-1.133,1.477,1.477,0,0,1,.641.109ZM50.82.156a3.693,3.693,0,0,1-2.8-1.129,4.19,4.19,0,0,1-1.078-3.02v-.266a5.073,5.073,0,0,1,.48-2.246A3.748,3.748,0,0,1,48.77-8.051a3.378,3.378,0,0,1,1.871-.559A3.166,3.166,0,0,1,53.2-7.523a4.7,4.7,0,0,1,.914,3.109v.6H48.391a3,3,0,0,0,.73,2.02,2.3,2.3,0,0,0,1.777.77,2.517,2.517,0,0,0,1.3-.312,3.259,3.259,0,0,0,.93-.828l.883.688A3.55,3.55,0,0,1,50.82.156Zm-.18-7.578a1.928,1.928,0,0,0-1.469.637A3.1,3.1,0,0,0,48.438-5h4.234v-.109a2.753,2.753,0,0,0-.594-1.707A1.815,1.815,0,0,0,50.641-7.422Zm10.07,5.18a1.064,1.064,0,0,0-.441-.91,4.249,4.249,0,0,0-1.539-.559,7.277,7.277,0,0,1-1.742-.562,2.479,2.479,0,0,1-.953-.781,1.869,1.869,0,0,1-.309-1.078,2.193,2.193,0,0,1,.879-1.758,3.432,3.432,0,0,1,2.246-.719,3.532,3.532,0,0,1,2.332.742,2.357,2.357,0,0,1,.895,1.9H60.625a1.3,1.3,0,0,0-.5-1.023,1.888,1.888,0,0,0-1.27-.43,1.976,1.976,0,0,0-1.234.344,1.082,1.082,0,0,0-.445.9.877.877,0,0,0,.414.789,5.1,5.1,0,0,0,1.5.508,7.8,7.8,0,0,1,1.754.578,2.558,2.558,0,0,1,1,.809,1.988,1.988,0,0,1,.324,1.152A2.163,2.163,0,0,1,61.25-.527,3.8,3.8,0,0,1,58.9.156,4.257,4.257,0,0,1,57.1-.2a2.922,2.922,0,0,1-1.223-1A2.42,2.42,0,0,1,55.438-2.6h1.445a1.5,1.5,0,0,0,.582,1.152,2.258,2.258,0,0,0,1.434.426,2.331,2.331,0,0,0,1.316-.332A1.02,1.02,0,0,0,60.711-2.242Z" transform="translate(831.242 6248)" fill="#12263f"/>
      <ellipse id="Elipse_10001" data-name="Elipse 10001" cx="69" cy="31.5" rx="69" ry="31.5" transform="translate(794.242 6617)" fill="#ffe888"/>
      <path id="Trazado_830004" data-name="Trazado 830004" d="M2.664,0H1.219V-8.453H2.664ZM1.1-10.7a.863.863,0,0,1,.215-.594.807.807,0,0,1,.637-.242.819.819,0,0,1,.641.242.854.854,0,0,1,.219.594.826.826,0,0,1-.219.586.834.834,0,0,1-.641.234.821.821,0,0,1-.637-.234A.834.834,0,0,1,1.1-10.7ZM4.625-4.3a4.952,4.952,0,0,1,.922-3.129A2.915,2.915,0,0,1,7.961-8.609a2.932,2.932,0,0,1,2.352,1.016V-12h1.445V0H10.43l-.07-.906A2.943,2.943,0,0,1,7.945.156a2.887,2.887,0,0,1-2.395-1.2,5.008,5.008,0,0,1-.926-3.141Zm1.445.164a3.749,3.749,0,0,0,.594,2.25A1.92,1.92,0,0,0,8.3-1.07,2.108,2.108,0,0,0,10.313-2.3V-6.187a2.125,2.125,0,0,0-1.992-1.2,1.929,1.929,0,0,0-1.656.82A4.128,4.128,0,0,0,6.07-4.133ZM17.508.156a3.693,3.693,0,0,1-2.8-1.129,4.19,4.19,0,0,1-1.078-3.02v-.266a5.073,5.073,0,0,1,.48-2.246,3.748,3.748,0,0,1,1.344-1.547,3.378,3.378,0,0,1,1.871-.559,3.166,3.166,0,0,1,2.563,1.086A4.7,4.7,0,0,1,20.8-4.414v.6H15.078a3,3,0,0,0,.73,2.02,2.3,2.3,0,0,0,1.777.77,2.517,2.517,0,0,0,1.3-.312,3.259,3.259,0,0,0,.93-.828l.883.688A3.55,3.55,0,0,1,17.508.156Zm-.18-7.578a1.928,1.928,0,0,0-1.469.637A3.1,3.1,0,0,0,15.125-5h4.234v-.109a2.753,2.753,0,0,0-.594-1.707A1.815,1.815,0,0,0,17.328-7.422Zm6.516-1.031.047,1.063a3.08,3.08,0,0,1,2.531-1.219q2.68,0,2.7,3.023V0H27.68V-5.594a1.946,1.946,0,0,0-.418-1.352,1.675,1.675,0,0,0-1.277-.437,2.086,2.086,0,0,0-1.234.375,2.546,2.546,0,0,0-.828.984V0H22.477V-8.453ZM33.266-10.5v2.047h1.578v1.117H33.266v5.242a1.171,1.171,0,0,0,.211.762.888.888,0,0,0,.719.254,3.5,3.5,0,0,0,.688-.094V0a4.19,4.19,0,0,1-1.109.156A1.8,1.8,0,0,1,32.313-.43a2.517,2.517,0,0,1-.492-1.664V-7.336H30.281V-8.453H31.82V-10.5ZM38.1,0H36.656V-8.453H38.1ZM36.539-10.7a.863.863,0,0,1,.215-.594.807.807,0,0,1,.637-.242.819.819,0,0,1,.641.242.854.854,0,0,1,.219.594.826.826,0,0,1-.219.586.834.834,0,0,1-.641.234.821.821,0,0,1-.637-.234A.834.834,0,0,1,36.539-10.7ZM40.9,0V-7.336H39.563V-8.453H40.9v-.719a2.937,2.937,0,0,1,.809-2.2,3.136,3.136,0,0,1,2.285-.789,6.881,6.881,0,0,1,2.211.477l-.242,1.219a5.008,5.008,0,0,0-1.859-.391,1.819,1.819,0,0,0-1.34.418,1.723,1.723,0,0,0-.41,1.254v.734h1.727v1.117H42.352V0Zm6.023,0H45.469V-8.453h1.453Zm5.742-1.023a2.082,2.082,0,0,0,1.352-.469,1.649,1.649,0,0,0,.641-1.172h1.367a2.621,2.621,0,0,1-.5,1.383,3.293,3.293,0,0,1-1.23,1.047,3.55,3.55,0,0,1-1.629.391A3.482,3.482,0,0,1,49.918-1,4.59,4.59,0,0,1,48.9-4.148v-.242a5.089,5.089,0,0,1,.453-2.2,3.451,3.451,0,0,1,1.3-1.492,3.7,3.7,0,0,1,2-.531,3.39,3.39,0,0,1,2.363.852,3.043,3.043,0,0,1,1,2.211H54.656a1.992,1.992,0,0,0-.621-1.348,1.932,1.932,0,0,0-1.379-.527,2.023,2.023,0,0,0-1.707.793,3.724,3.724,0,0,0-.605,2.293v.273a3.65,3.65,0,0,0,.6,2.25A2.033,2.033,0,0,0,52.664-1.023ZM62.867,0a3.036,3.036,0,0,1-.2-.891A3.225,3.225,0,0,1,60.258.156a2.984,2.984,0,0,1-2.051-.707,2.287,2.287,0,0,1-.8-1.793,2.39,2.39,0,0,1,1-2.051,4.733,4.733,0,0,1,2.824-.73h1.406v-.664A1.623,1.623,0,0,0,62.188-7a1.821,1.821,0,0,0-1.336-.449,2.107,2.107,0,0,0-1.3.391,1.151,1.151,0,0,0-.523.945H57.578a2,2,0,0,1,.449-1.223,3.066,3.066,0,0,1,1.219-.934,4.1,4.1,0,0,1,1.691-.344,3.342,3.342,0,0,1,2.289.73,2.635,2.635,0,0,1,.859,2.012v3.891a4.757,4.757,0,0,0,.3,1.852V0Zm-2.4-1.1a2.54,2.54,0,0,0,1.289-.352,2.127,2.127,0,0,0,.883-.914V-4.1H61.508q-2.656,0-2.656,1.555A1.316,1.316,0,0,0,59.3-1.484,1.742,1.742,0,0,0,60.469-1.1Zm9.273.078a2.082,2.082,0,0,0,1.352-.469,1.649,1.649,0,0,0,.641-1.172H73.1a2.621,2.621,0,0,1-.5,1.383,3.293,3.293,0,0,1-1.23,1.047,3.55,3.55,0,0,1-1.629.391A3.482,3.482,0,0,1,67-1a4.59,4.59,0,0,1-1.02-3.152v-.242a5.089,5.089,0,0,1,.453-2.2,3.451,3.451,0,0,1,1.3-1.492,3.7,3.7,0,0,1,2-.531,3.39,3.39,0,0,1,2.363.852,3.043,3.043,0,0,1,1,2.211H71.734a1.992,1.992,0,0,0-.621-1.348,1.932,1.932,0,0,0-1.379-.527,2.023,2.023,0,0,0-1.707.793,3.724,3.724,0,0,0-.605,2.293v.273a3.65,3.65,0,0,0,.6,2.25A2.033,2.033,0,0,0,69.742-1.023ZM76.3,0H74.852V-8.453H76.3ZM74.734-10.7a.863.863,0,0,1,.215-.594.807.807,0,0,1,.637-.242.819.819,0,0,1,.641.242.854.854,0,0,1,.219.594.826.826,0,0,1-.219.586.834.834,0,0,1-.641.234.821.821,0,0,1-.637-.234A.834.834,0,0,1,74.734-10.7ZM78.227-4.3a4.993,4.993,0,0,1,.488-2.234A3.643,3.643,0,0,1,80.074-8.07a3.7,3.7,0,0,1,1.988-.539,3.565,3.565,0,0,1,2.793,1.2,4.6,4.6,0,0,1,1.066,3.18v.1a5.036,5.036,0,0,1-.473,2.215A3.589,3.589,0,0,1,84.1-.391a3.743,3.743,0,0,1-2.02.547,3.556,3.556,0,0,1-2.785-1.2A4.575,4.575,0,0,1,78.227-4.2Zm1.453.172a3.616,3.616,0,0,0,.652,2.258,2.088,2.088,0,0,0,1.746.852,2.075,2.075,0,0,0,1.75-.863A3.955,3.955,0,0,0,84.477-4.3a3.61,3.61,0,0,0-.66-2.254,2.1,2.1,0,0,0-1.754-.863,2.075,2.075,0,0,0-1.727.852A3.925,3.925,0,0,0,79.68-4.133ZM82.719-12h1.75L82.375-9.7H81.211ZM89.1-8.453l.047,1.063A3.08,3.08,0,0,1,91.68-8.609q2.68,0,2.7,3.023V0H92.938V-5.594a1.946,1.946,0,0,0-.418-1.352,1.675,1.675,0,0,0-1.277-.437,2.086,2.086,0,0,0-1.234.375,2.546,2.546,0,0,0-.828.984V0H87.734V-8.453Z" transform="translate(823.242 6654)" fill="#12263f"/>
      <ellipse id="Elipse_10008" data-name="Elipse 10008" cx="69" cy="31.5" rx="69" ry="31.5" transform="translate(915 6283)" fill="#ffe888"/>
      <path id="Trazado_829999" data-name="Trazado 829999" d="M2.664,0H1.219V-8.453H2.664ZM1.1-10.7a.863.863,0,0,1,.215-.594.807.807,0,0,1,.637-.242.819.819,0,0,1,.641.242.854.854,0,0,1,.219.594.826.826,0,0,1-.219.586.834.834,0,0,1-.641.234.821.821,0,0,1-.637-.234A.834.834,0,0,1,1.1-10.7ZM4.625-4.3a4.952,4.952,0,0,1,.922-3.129A2.915,2.915,0,0,1,7.961-8.609a2.932,2.932,0,0,1,2.352,1.016V-12h1.445V0H10.43l-.07-.906A2.943,2.943,0,0,1,7.945.156a2.887,2.887,0,0,1-2.395-1.2,5.008,5.008,0,0,1-.926-3.141Zm1.445.164a3.749,3.749,0,0,0,.594,2.25A1.92,1.92,0,0,0,8.3-1.07,2.108,2.108,0,0,0,10.313-2.3V-6.187a2.125,2.125,0,0,0-1.992-1.2,1.929,1.929,0,0,0-1.656.82A4.128,4.128,0,0,0,6.07-4.133Zm19.031,0a5.062,5.062,0,0,1-.883,3.109A2.829,2.829,0,0,1,21.828.156,3.1,3.1,0,0,1,19.406-.82V3.25H17.961v-11.7h1.32l.07.938A2.977,2.977,0,0,1,21.8-8.609a2.882,2.882,0,0,1,2.41,1.148,5.117,5.117,0,0,1,.887,3.2ZM23.656-4.3a3.735,3.735,0,0,0-.609-2.258,1.963,1.963,0,0,0-1.672-.828,2.125,2.125,0,0,0-1.969,1.164V-2.18a2.129,2.129,0,0,0,1.984,1.156,1.954,1.954,0,0,0,1.652-.824A4.077,4.077,0,0,0,23.656-4.3ZM30.445.156a3.693,3.693,0,0,1-2.8-1.129,4.19,4.19,0,0,1-1.078-3.02v-.266a5.073,5.073,0,0,1,.48-2.246,3.748,3.748,0,0,1,1.344-1.547,3.378,3.378,0,0,1,1.871-.559,3.166,3.166,0,0,1,2.563,1.086,4.7,4.7,0,0,1,.914,3.109v.6H28.016a3,3,0,0,0,.73,2.02,2.3,2.3,0,0,0,1.777.77,2.517,2.517,0,0,0,1.3-.312,3.259,3.259,0,0,0,.93-.828l.883.688A3.55,3.55,0,0,1,30.445.156Zm-.18-7.578a1.928,1.928,0,0,0-1.469.637A3.1,3.1,0,0,0,28.063-5H32.3v-.109A2.753,2.753,0,0,0,31.7-6.816,1.815,1.815,0,0,0,30.266-7.422Zm9.234.266a4.331,4.331,0,0,0-.711-.055A1.9,1.9,0,0,0,36.859-6V0H35.414V-8.453H36.82l.023.977a2.251,2.251,0,0,1,2.016-1.133A1.477,1.477,0,0,1,39.5-8.5Zm6.25,4.914a1.064,1.064,0,0,0-.441-.91,4.249,4.249,0,0,0-1.539-.559,7.277,7.277,0,0,1-1.742-.562,2.479,2.479,0,0,1-.953-.781,1.869,1.869,0,0,1-.309-1.078,2.193,2.193,0,0,1,.879-1.758,3.432,3.432,0,0,1,2.246-.719,3.532,3.532,0,0,1,2.332.742,2.357,2.357,0,0,1,.895,1.9H45.664a1.3,1.3,0,0,0-.5-1.023,1.888,1.888,0,0,0-1.27-.43,1.976,1.976,0,0,0-1.234.344,1.082,1.082,0,0,0-.445.9.877.877,0,0,0,.414.789,5.1,5.1,0,0,0,1.5.508,7.8,7.8,0,0,1,1.754.578,2.558,2.558,0,0,1,1,.809A1.988,1.988,0,0,1,47.2-2.344a2.163,2.163,0,0,1-.906,1.816,3.8,3.8,0,0,1-2.352.684,4.257,4.257,0,0,1-1.8-.359,2.922,2.922,0,0,1-1.223-1A2.42,2.42,0,0,1,40.477-2.6h1.445A1.5,1.5,0,0,0,42.5-1.449a2.258,2.258,0,0,0,1.434.426,2.331,2.331,0,0,0,1.316-.332A1.02,1.02,0,0,0,45.75-2.242ZM48.7-4.3a4.993,4.993,0,0,1,.488-2.234A3.643,3.643,0,0,1,50.543-8.07a3.7,3.7,0,0,1,1.988-.539,3.565,3.565,0,0,1,2.793,1.2,4.6,4.6,0,0,1,1.066,3.18v.1a5.036,5.036,0,0,1-.473,2.215A3.589,3.589,0,0,1,54.566-.391a3.743,3.743,0,0,1-2.02.547,3.556,3.556,0,0,1-2.785-1.2A4.575,4.575,0,0,1,48.7-4.2Zm1.453.172A3.616,3.616,0,0,0,50.8-1.875a2.088,2.088,0,0,0,1.746.852,2.075,2.075,0,0,0,1.75-.863A3.955,3.955,0,0,0,54.945-4.3a3.61,3.61,0,0,0-.66-2.254,2.1,2.1,0,0,0-1.754-.863A2.075,2.075,0,0,0,50.8-6.57,3.925,3.925,0,0,0,50.148-4.133Zm9.422-4.32.047,1.063a3.08,3.08,0,0,1,2.531-1.219q2.68,0,2.7,3.023V0H63.406V-5.594a1.946,1.946,0,0,0-.418-1.352,1.675,1.675,0,0,0-1.277-.437,2.086,2.086,0,0,0-1.234.375,2.546,2.546,0,0,0-.828.984V0H58.2V-8.453ZM72.25,0a3.036,3.036,0,0,1-.2-.891A3.225,3.225,0,0,1,69.641.156,2.984,2.984,0,0,1,67.59-.551a2.288,2.288,0,0,1-.8-1.793,2.39,2.39,0,0,1,1-2.051,4.733,4.733,0,0,1,2.824-.73h1.406v-.664A1.623,1.623,0,0,0,71.57-7a1.821,1.821,0,0,0-1.336-.449,2.108,2.108,0,0,0-1.3.391,1.151,1.151,0,0,0-.523.945H66.961a2,2,0,0,1,.449-1.223,3.066,3.066,0,0,1,1.219-.934,4.1,4.1,0,0,1,1.691-.344,3.342,3.342,0,0,1,2.289.73,2.635,2.635,0,0,1,.859,2.012v3.891a4.757,4.757,0,0,0,.3,1.852V0Zm-2.4-1.1a2.54,2.54,0,0,0,1.289-.352,2.127,2.127,0,0,0,.883-.914V-4.1H70.891q-2.656,0-2.656,1.555a1.316,1.316,0,0,0,.453,1.063A1.742,1.742,0,0,0,69.852-1.1ZM0,1H16.961V2H0ZM20.406,1H74.641V2H20.406Z" transform="translate(952 6320)" fill="#12263f"/>
      <path id="Trazado_829651" data-name="Trazado 829651" d="M-3739-5274l82.594-81.09" transform="translate(4619.289 11699)" fill="none" stroke="#707070" stroke-width="1"/>
    </g>
  </g>
</svg>
