<svg xmlns="http://www.w3.org/2000/svg" width="190" height="174" viewBox="0 0 190 174">
  <g id="Grupo_1095379" data-name="Grupo 1095379" transform="translate(-1125 -7941)">
    <rect id="Rectángulo_383574" data-name="Rectángulo 383574" width="190" height="174" rx="8" transform="translate(1125 7941)" fill="#ffce00"/>
    <g id="noun-unlock-6376350" transform="translate(1482.505 7429.287)">
      <path id="Trazado_829979" data-name="Trazado 829979" d="M94.929,28.66A22.066,22.066,0,0,0,72.923,50.666V61.52H34.776A7.256,7.256,0,0,0,27.5,68.756v37.472a7.276,7.276,0,0,0,7.276,7.276h44.39a7.276,7.276,0,0,0,7.276-7.276V68.756a7.256,7.256,0,0,0-7.276-7.236h-.2V50.666a15.983,15.983,0,1,1,31.965,0V62.713a2.982,2.982,0,0,0,3.041,3.022,3.022,3.022,0,0,0,3.022-3.022V50.666A22.066,22.066,0,0,0,94.929,28.66ZM60.419,88.814v7.594a3.459,3.459,0,1,1-6.9,0V88.814a6.56,6.56,0,1,1,6.9,0Z" transform="translate(-319.5 530.632)" fill="#273a89"/>
    </g>
    <g id="noun-key-2766391" transform="translate(1143.37 7943.712)">
      <path id="Trazado_829980" data-name="Trazado 829980" d="M72.508,57.54a3.088,3.088,0,0,1-3.122-3.122V48.174H63.141V51.3a3.122,3.122,0,1,1-6.245,0V48.174H31.766a15.5,15.5,0,1,1,0-6.168H72.508a3.088,3.088,0,0,1,3.122,3.122v9.367A3.072,3.072,0,0,1,72.508,57.54ZM16.535,35.761A9.367,9.367,0,1,0,25.9,45.127a9.36,9.36,0,0,0-9.367-9.367Z" transform="translate(0 9.72)" fill="#1682fb"/>
    </g>
  </g>
</svg>
