<svg xmlns="http://www.w3.org/2000/svg" xmlns:xlink="http://www.w3.org/1999/xlink" width="286.439" height="196.635" viewBox="0 0 286.439 196.635">
  <defs>
    <clipPath id="clip-path">
      <path id="Trazado_818456" data-name="Trazado 818456" d="M89.027,46.8A35.857,35.857,0,1,1,53.17,10.939,35.858,35.858,0,0,1,89.027,46.8" transform="translate(-17.313 -10.939)" fill="none"/>
    </clipPath>
    <clipPath id="clip-path-2">
      <rect id="Rectángulo_382537" data-name="Rectángulo 382537" width="58.676" height="54.437" transform="translate(0 0)" fill="#273a89"/>
    </clipPath>
    <clipPath id="clip-path-3">
      <rect id="Rectángulo_383022" data-name="Rectángulo 383022" width="180.994" height="154.287" fill="none"/>
    </clipPath>
  </defs>
  <g id="_3" data-name="3" transform="translate(-223.515 -765)">
    <rect id="Rectángulo_382244" data-name="Rectángulo 382244" width="250.306" height="147.233" rx="7" transform="translate(223.515 798.798)" fill="#273a89"/>
    <rect id="Rectángulo_382243" data-name="Rectángulo 382243" width="242.721" height="147.233" rx="7" transform="translate(265.232 798.798)" fill="#3ee2a8"/>
    <rect id="Rectángulo_382242" data-name="Rectángulo 382242" width="245.249" height="178.837" rx="7" transform="translate(242.478 782.798)" fill="#1682fb"/>
    <g id="Grupo_1072902" data-name="Grupo 1072902" transform="translate(226.047 765)">
      <g id="Grupo_1071496" data-name="Grupo 1071496" transform="translate(0 0)" clip-path="url(#clip-path)">
        <path id="Trazado_818450" data-name="Trazado 818450" d="M14.6,17.494,28.077,4.021,40.761,16.706,53.517,3.95,66.847,17.279,80.032,4.093,91.944,16l1.975-1.975L80.032.143,66.847,13.328,53.517,0,40.761,12.755,28.077.071,14.6,13.544,1.976.916,0,2.89Z" transform="translate(-8.169 -8.868)" fill="#fff"/>
        <path id="Trazado_818451" data-name="Trazado 818451" d="M14.6,34.289,28.077,20.817,40.761,33.5,53.517,20.745,66.847,34.074,80.032,20.888,91.944,32.8l1.975-1.976L80.032,16.939,66.847,30.125,53.517,16.8,40.761,29.551,28.077,16.867,14.6,30.339,1.976,17.711,0,19.685Z" transform="translate(-8.169 -12.048)" fill="#fff"/>
        <path id="Trazado_818452" data-name="Trazado 818452" d="M14.6,51.084,28.077,37.612,40.761,50.3,53.517,37.541,66.847,50.869,80.032,37.684,91.944,49.6l1.975-1.976L80.032,33.734,66.847,46.92,53.517,33.59,40.761,46.347,28.077,33.663,14.6,47.135,1.976,34.506,0,36.481Z" transform="translate(-8.169 -15.227)" fill="#fff"/>
        <path id="Trazado_818453" data-name="Trazado 818453" d="M14.6,67.88,28.077,54.408,40.761,67.092,53.517,54.336,66.847,67.666,80.032,54.479,91.944,66.391l1.975-1.975L80.032,50.53,66.847,63.716,53.517,50.387,40.761,63.143,28.077,50.458,14.6,63.931,1.976,51.3,0,53.277Z" transform="translate(-8.169 -18.407)" fill="#fff"/>
        <path id="Trazado_818454" data-name="Trazado 818454" d="M14.6,84.676,28.077,71.2,40.761,83.887,53.517,71.131,66.847,84.461,80.032,71.275,91.944,83.187l1.975-1.975L80.032,67.325,66.847,80.511,53.517,67.182,40.761,79.938,28.077,67.254,14.6,80.727,1.976,68.1,0,70.073Z" transform="translate(-8.169 -21.586)" fill="#fff"/>
        <path id="Trazado_818455" data-name="Trazado 818455" d="M14.6,101.471,28.077,88l12.684,12.684L53.517,87.927l13.329,13.329L80.032,88.07,91.944,99.982l1.975-1.976L80.032,84.12,66.847,97.306,53.517,83.977,40.761,96.733,28.077,84.049,14.6,97.521,1.976,84.893,0,86.868Z" transform="translate(-8.169 -24.766)" fill="#fff"/>
      </g>
    </g>
    <g id="Grupo_1074758" data-name="Grupo 1074758">
      <g id="Grupo_1073276" data-name="Grupo 1073276" transform="translate(451.277 782.798)">
        <g id="Grupo_1073275" data-name="Grupo 1073275" clip-path="url(#clip-path-2)">
          <path id="Trazado_820968" data-name="Trazado 820968" d="M51.362,0H5.991A6.009,6.009,0,0,0,0,5.993V52.172a.66.66,0,0,0,.412.62.656.656,0,0,0,.728-.147L11.351,42.436H51.362a6.009,6.009,0,0,0,5.991-5.994V5.993A6.01,6.01,0,0,0,51.362,0" fill="#273a89" fill-rule="evenodd"/>
        </g>
      </g>
      <g id="Grupo_1074757" data-name="Grupo 1074757" transform="translate(265 798.798)">
        <rect id="Rectángulo_383018" data-name="Rectángulo 383018" width="48.054" height="6.008" transform="translate(127.692 49.774)" fill="#fff"/>
        <g id="Grupo_1074756" data-name="Grupo 1074756">
          <g id="Grupo_1074755" data-name="Grupo 1074755" clip-path="url(#clip-path-3)">
            <path id="Trazado_824443" data-name="Trazado 824443" d="M300.541,79.9h-53.8a2.377,2.377,0,0,1-2.377-2.377V62.762a2.377,2.377,0,0,1,2.377-2.377h53.8a2.377,2.377,0,0,1,2.377,2.377V77.525a2.377,2.377,0,0,1-2.377,2.377" transform="translate(-121.924 -30.128)" fill="#ffce00"/>
            <path id="Trazado_824444" data-name="Trazado 824444" d="M329.39,72.725H313.439a1.83,1.83,0,0,1,0-3.659H329.39a1.83,1.83,0,0,1,0,3.659" transform="translate(-155.474 -34.46)" fill="#e1f6ef"/>
            <path id="Trazado_824445" data-name="Trazado 824445" d="M329.39,86.835H313.439a1.83,1.83,0,0,1,0-3.659H329.39a1.83,1.83,0,0,1,0,3.659" transform="translate(-155.474 -41.5)" fill="#273a89"/>
            <rect id="Rectángulo_383019" data-name="Rectángulo 383019" width="48.054" height="6.008" transform="translate(127.692 75.298)" fill="#fff"/>
            <path id="Trazado_824446" data-name="Trazado 824446" d="M300.541,130.843h-53.8a2.377,2.377,0,0,1-2.377-2.377V113.7a2.377,2.377,0,0,1,2.377-2.377h53.8a2.377,2.377,0,0,1,2.377,2.377v14.764a2.377,2.377,0,0,1-2.377,2.377" transform="translate(-121.924 -55.545)" fill="#ffce00"/>
            <path id="Trazado_824447" data-name="Trazado 824447" d="M329.39,123.666H313.439a1.83,1.83,0,0,1,0-3.659H329.39a1.83,1.83,0,0,1,0,3.659" transform="translate(-155.474 -59.876)" fill="#e1f6ef"/>
            <path id="Trazado_824448" data-name="Trazado 824448" d="M329.39,137.776H313.439a1.83,1.83,0,0,1,0-3.659H329.39a1.83,1.83,0,0,1,0,3.659" transform="translate(-155.474 -66.916)" fill="#273a89"/>
            <rect id="Rectángulo_383020" data-name="Rectángulo 383020" width="48.054" height="6.008" transform="translate(127.692 100.822)" fill="#fff"/>
            <path id="Trazado_824449" data-name="Trazado 824449" d="M300.541,181.784h-53.8a2.377,2.377,0,0,1-2.377-2.377V164.644a2.377,2.377,0,0,1,2.377-2.377h53.8a2.377,2.377,0,0,1,2.377,2.377v14.764a2.377,2.377,0,0,1-2.377,2.377" transform="translate(-121.924 -80.961)" fill="#ffce00"/>
            <path id="Trazado_824450" data-name="Trazado 824450" d="M329.39,174.606H313.439a1.83,1.83,0,0,1,0-3.659H329.39a1.83,1.83,0,0,1,0,3.659" transform="translate(-155.474 -85.292)" fill="#e1f6ef"/>
            <path id="Trazado_824451" data-name="Trazado 824451" d="M329.39,188.717H313.439a1.83,1.83,0,0,1,0-3.659H329.39a1.83,1.83,0,0,1,0,3.659" transform="translate(-155.474 -92.332)" fill="#273a89"/>
            <rect id="Rectángulo_383021" data-name="Rectángulo 383021" width="48.054" height="6.008" transform="translate(127.692 126.347)" fill="#fff"/>
            <path id="Trazado_824452" data-name="Trazado 824452" d="M300.541,232.724h-53.8a2.377,2.377,0,0,1-2.377-2.377V215.584a2.377,2.377,0,0,1,2.377-2.377h53.8a2.377,2.377,0,0,1,2.377,2.377v14.764a2.377,2.377,0,0,1-2.377,2.377" transform="translate(-121.924 -106.377)" fill="#ffce00"/>
            <path id="Trazado_824453" data-name="Trazado 824453" d="M329.39,225.547H313.439a1.83,1.83,0,0,1,0-3.659H329.39a1.83,1.83,0,0,1,0,3.659" transform="translate(-155.474 -110.708)" fill="#e1f6ef"/>
            <path id="Trazado_824454" data-name="Trazado 824454" d="M329.39,239.657H313.439a1.83,1.83,0,0,1-1.829-1.829h0A1.83,1.83,0,0,1,313.439,236H329.39a1.829,1.829,0,0,1,1.829,1.829h0a1.829,1.829,0,0,1-1.829,1.829" transform="translate(-155.474 -117.748)" fill="#273a89"/>
            <path id="Trazado_824455" data-name="Trazado 824455" d="M300.541,283.665h-53.8a2.377,2.377,0,0,1-2.377-2.377V266.525a2.377,2.377,0,0,1,2.377-2.377h53.8a2.377,2.377,0,0,1,2.377,2.377v14.764a2.377,2.377,0,0,1-2.377,2.377" transform="translate(-121.924 -131.793)" fill="#ffce00"/>
            <path id="Trazado_824456" data-name="Trazado 824456" d="M329.39,276.488H313.439a1.83,1.83,0,0,1,0-3.659H329.39a1.83,1.83,0,0,1,0,3.659" transform="translate(-155.474 -136.125)" fill="#e1f6ef"/>
            <path id="Trazado_824457" data-name="Trazado 824457" d="M329.39,290.6H313.439a1.83,1.83,0,0,1,0-3.659H329.39a1.83,1.83,0,0,1,0,3.659" transform="translate(-155.474 -143.165)" fill="#273a89"/>
            <path id="Trazado_824458" data-name="Trazado 824458" d="M235.652,36.758l-.956-1.3a3.146,3.146,0,0,0-2.534-1.282H217.322a3.145,3.145,0,0,0-3.145,3.145V66.577a3.145,3.145,0,0,0,3.145,3.145h42.619a3.145,3.145,0,0,0,3.145-3.145V41.185a3.145,3.145,0,0,0-3.145-3.145H238.186a3.145,3.145,0,0,1-2.534-1.282" transform="translate(-106.861 -17.052)" fill="#3ee2a8"/>
            <line id="Línea_184" data-name="Línea 184" x2="18.889" transform="translate(108.742 21.377)" fill="none" stroke="#430f76" stroke-linecap="round" stroke-linejoin="round" stroke-width="1"/>
            <path id="Trazado_824459" data-name="Trazado 824459" d="M219.37,50.206l-.956-1.3a3.146,3.146,0,0,0-2.534-1.282H201.04a3.145,3.145,0,0,0-3.145,3.145V80.025a3.145,3.145,0,0,0,3.145,3.145h42.619a3.145,3.145,0,0,0,3.145-3.145V54.633a3.145,3.145,0,0,0-3.145-3.145H221.9a3.145,3.145,0,0,1-2.534-1.282" transform="translate(-98.737 -23.761)" fill="#273a89"/>
            <line id="Línea_185" data-name="Línea 185" x2="18.889" transform="translate(100.584 28.115)" fill="none" stroke="#430f76" stroke-linecap="round" stroke-linejoin="round" stroke-width="1"/>
            <path id="Trazado_824460" data-name="Trazado 824460" d="M33.537,168.481q-.2,1.586-.416,3.262c-8.488-2.956-13.073-6.394-15.333-8.583a11.9,11.9,0,0,1-1.9-2.22q.714-1.593,1.473-3.072a32.759,32.759,0,0,0,16.174,10.612" transform="translate(-7.928 -78.767)" fill="#5c7cef"/>
            <path id="Trazado_824461" data-name="Trazado 824461" d="M192.3,156.529c.386,1.052.742,2.145,1.072,3.287a13.815,13.815,0,0,1-2.27,2.17c-2.555,2.059-7.546,5.221-16.285,7.837l-.145.01-.241-3.217c.3-.07,11.514-2.641,17.868-10.086" transform="translate(-87.03 -78.098)" fill="#5c7cef"/>
            <path id="Trazado_824462" data-name="Trazado 824462" d="M120.86,109.515l-.12.21c-7.185,5.351-16.229,7.877-22.052,9.019a36.691,36.691,0,0,1-15.262-.07c-11.414-2.621-16.6-9.7-16.6-9.7a25.515,25.515,0,0,1,5.421-1.613c.346-.025.686-.065,1.012-.115a37.07,37.07,0,0,0,19.617,5.517s12.937.361,21.325-6.153a27.7,27.7,0,0,1,6.654,2.906" transform="translate(-33.344 -53.191)" fill="#5c7cef"/>
            <path id="Trazado_824463" data-name="Trazado 824463" d="M35,145.261A32.759,32.759,0,0,1,18.83,134.648c7.516-14.691,17.833-20.834,24.051-23.319,0,0,5.181,7.08,16.6,9.7a36.691,36.691,0,0,0,15.262.07c5.822-1.142,14.867-3.668,22.052-9.019l.12-.21c5.557,3.222,13.268,9.706,17.753,22.107C108.31,141.423,97.1,143.993,96.8,144.063l.241,3.217,1.092,14.6,3.282,43.848s-46.173,9.235-72.143,0c0,0,.977-13.428,2.4-29.082.852-9.385,1.869-19.566,2.921-28.125q.21-1.676.416-3.262" transform="translate(-9.395 -55.546)" fill="#3ee2a8"/>
            <path id="Trazado_824464" data-name="Trazado 824464" d="M25.193,177.012c-1.052,8.558-2.069,18.74-2.921,28.125,0,0-5.532,5.432-11.474,6.91A8.626,8.626,0,0,1,.1,204.32c-.471-5.8.391-17.547,9.761-35.891,2.26,2.19,6.845,5.627,15.332,8.583" transform="translate(0 -84.036)" fill="#fff"/>
            <path id="Trazado_824465" data-name="Trazado 824465" d="M211.788,107.816c-.581,37.95-8.7,51-12.932,55.242a7.068,7.068,0,0,1-7.165,1.809C182.817,161.926,176,144.439,176,144.439l-1.092-14.6.145-.01c8.739-2.616,13.729-5.777,16.285-7.837,0,0,1.428,4.479,2.956,10.036l8.739-27-2.37-5.2a18.867,18.867,0,0,1-1.648-9.2l.5-6.885a2.06,2.06,0,0,1,4.109.005l.506,7.305a58.955,58.955,0,0,0,6.293-13.869,1.107,1.107,0,0,1,2.175.291c0,.045-.005.1-.01.145a57.607,57.607,0,0,1-2.606,11.224c.215-.406,3.668-6.95,5.527-11.114a1.541,1.541,0,0,1,2.951.626,1.529,1.529,0,0,1-.11.576L214,89.758c.256-.371,4.324-6.394,5.882-9.33a1.132,1.132,0,0,1,2.13.531,1.243,1.243,0,0,1-.03.271,45.665,45.665,0,0,1-4.52,11.2l3.893-4.986a1.33,1.33,0,0,1,1.859-.235,1.31,1.31,0,0,1,.521,1.047,1.273,1.273,0,0,1-.065.406c-1.112,3.5-5.557,16.229-11.885,19.156" transform="translate(-87.269 -38.104)" fill="#fff"/>
            <path id="Trazado_824466" data-name="Trazado 824466" d="M120.612,64.4c-8.388,6.514-21.325,6.153-21.325,6.153A37.07,37.07,0,0,1,79.67,65.035c10.182-1.528,9.9-13.634,9.886-14.145a14.049,14.049,0,0,0,8.9-.9,9.49,9.49,0,0,0,3.036-1.724,14.485,14.485,0,0,0,4.961-8.934,3.467,3.467,0,0,1-.671-.326,4.7,4.7,0,0,1-2.1-4.064c-.005-3.823,2.175-4.49,3.482-4.545a3.916,3.916,0,0,1,2.079-1.889,20.353,20.353,0,0,0,7.255-6.5c.1.586,2.355,13.634.932,21.085a5.575,5.575,0,0,1-2.49,3.648c-.286.18-.606.371-.957.556l-.075.04a.069.069,0,0,1-.02.015c-.361.311-4.905,4.459,1.107,11.79a33.6,33.6,0,0,0,5.612,5.256" transform="translate(-39.75 -10.981)" fill="#fff"/>
            <path id="Trazado_824467" data-name="Trazado 824467" d="M86.692,39.909a17.6,17.6,0,0,1-8.3-4.69c-6.123-7.972-1.167-17.983-1.167-17.983a11.709,11.709,0,0,0-3.3,1.062,8.869,8.869,0,0,1,3.688-4.66,10.973,10.973,0,0,1-.6-4.9c-.08,1.453,2.741,2.18,2.741,2.18C82.819,3.377,90,.906,95.7.185a28.319,28.319,0,0,1,11.1.987c6.915,1.929,10.858.516,10.858.516a24.976,24.976,0,0,1-4.019,9.34,20.353,20.353,0,0,1-7.255,6.5,3.916,3.916,0,0,0-2.079,1.889c-1.308.055-3.487.722-3.482,4.545a4.7,4.7,0,0,0,2.1,4.064,3.467,3.467,0,0,0,.671.326,14.485,14.485,0,0,1-4.961,8.934A9.49,9.49,0,0,1,95.6,39.007a14.049,14.049,0,0,1-8.9.9" transform="translate(-36.886 0)" fill="#273a89"/>
            <path id="Trazado_824468" data-name="Trazado 824468" d="M132.044,38.8a4.2,4.2,0,0,0-.962-.06c-1.308.055-3.487.722-3.482,4.545a4.7,4.7,0,0,0,2.1,4.064,3.467,3.467,0,0,0,.671.326c1.172.431,2.7.276,4.495-1.518" transform="translate(-63.664 -19.329)" fill="none" stroke="#430f76" stroke-linecap="round" stroke-linejoin="round" stroke-width="1"/>
            <path id="Trazado_824469" data-name="Trazado 824469" d="M137.891,84.379c-10.157.556-12.341-10.643-12.341-10.643a15.736,15.736,0,0,0,11.234-1.147c-.361.311-4.905,4.459,1.107,11.79" transform="translate(-62.642 -36.217)" fill="#430f76"/>
            <path id="Trazado_824470" data-name="Trazado 824470" d="M50.28,167.672q.21-1.676.416-3.262a106.614,106.614,0,0,1,2.631-14.7" transform="translate(-25.087 -74.696)" fill="none" stroke="#430f76" stroke-linecap="round" stroke-linejoin="round" stroke-width="1"/>
            <path id="Trazado_824471" data-name="Trazado 824471" d="M172.41,149.709l1.012,13.5.241,3.217,1.092,14.6" transform="translate(-86.022 -74.695)" fill="none" stroke="#430f76" stroke-linecap="round" stroke-linejoin="round" stroke-width="1"/>
            <path id="Trazado_824472" data-name="Trazado 824472" d="M207.7,167.419s1.428,4.479,2.956,10.036c1.1,4,2.245,8.563,2.951,12.411" transform="translate(-103.629 -83.532)" fill="none" stroke="#430f76" stroke-linecap="round" stroke-linejoin="round" stroke-width="1"/>
            <path id="Trazado_824473" data-name="Trazado 824473" d="M255.119,119.486c-2.068,4.147-4.85,8.321-8.141,9.842a6.651,6.651,0,0,1-1.538.5" transform="translate(-122.459 -59.616)" fill="none" stroke="#430f76" stroke-linecap="round" stroke-linejoin="round" stroke-width="1"/>
          </g>
        </g>
      </g>
      <path id="Trazado_824474" data-name="Trazado 824474" d="M.967,0V-12.8h4.6a6.509,6.509,0,0,1,3.757.905,3.012,3.012,0,0,1,1.288,2.628,3.045,3.045,0,0,1-.457,1.7A2.663,2.663,0,0,1,8.807-6.53a2.7,2.7,0,0,1,1.538.984,2.862,2.862,0,0,1,.536,1.758A3.388,3.388,0,0,1,9.69-.962,5.667,5.667,0,0,1,6.161,0ZM4.052-5.44v3.067H6.073a1.923,1.923,0,0,0,1.283-.382A1.338,1.338,0,0,0,7.8-3.832,1.419,1.419,0,0,0,6.214-5.44Zm0-2.021H5.66A2.29,2.29,0,0,0,7.1-7.831a1.308,1.308,0,0,0,.431-1.063,1.373,1.373,0,0,0-.466-1.165,2.5,2.5,0,0,0-1.5-.356H4.052ZM12.577,0V-12.8H16.7a6.064,6.064,0,0,1,3.05.769,5.406,5.406,0,0,1,2.114,2.171,6.554,6.554,0,0,1,.769,3.142v.589a6.592,6.592,0,0,1-.743,3.151A5.429,5.429,0,0,1,19.8-.8a5.93,5.93,0,0,1-3.01.8Zm3.085-10.415v8.042h1.072a2.4,2.4,0,0,0,2.039-.945,4.63,4.63,0,0,0,.712-2.808V-6.68a4.592,4.592,0,0,0-.712-2.795,2.442,2.442,0,0,0-2.074-.94ZM24.214,0V-12.8h4.122a6.064,6.064,0,0,1,3.05.769A5.406,5.406,0,0,1,33.5-9.857a6.554,6.554,0,0,1,.769,3.142v.589a6.592,6.592,0,0,1-.743,3.151A5.429,5.429,0,0,1,31.434-.8a5.93,5.93,0,0,1-3.01.8ZM27.3-10.415v8.042h1.072a2.4,2.4,0,0,0,2.039-.945,4.63,4.63,0,0,0,.712-2.808V-6.68a4.592,4.592,0,0,0-.712-2.795,2.442,2.442,0,0,0-2.074-.94Z" transform="translate(463 809.798)" fill="#fff"/>
    </g>
  </g>
</svg>
