<svg xmlns="http://www.w3.org/2000/svg" width="190" height="174" viewBox="0 0 190 174">
  <g id="Grupo_1095381" data-name="Grupo 1095381" transform="translate(-1125 -8191)">
    <rect id="Rectángulo_383575" data-name="Rectángulo 383575" width="190" height="174" rx="8" transform="translate(1125 8191)" fill="#ffce00"/>
    <g id="noun-key-2766391" transform="translate(1165.967 8236.654)">
      <path id="Trazado_829980" data-name="Trazado 829980" d="M100.681,68.561a4.3,4.3,0,0,1-4.352-4.352V55.5h-8.7v4.352a4.352,4.352,0,1,1-8.7,0V55.5H43.887a21.61,21.61,0,1,1,0-8.6h56.794a4.3,4.3,0,0,1,4.352,4.352V64.315A4.283,4.283,0,0,1,100.681,68.561ZM22.656,38.2A13.057,13.057,0,1,0,35.713,51.258,13.048,13.048,0,0,0,22.656,38.2Z" transform="translate(0 9.72)" fill="#1682fb"/>
    </g>
    <g id="noun-star-1088688" transform="translate(1145.418 8220.925)">
      <g id="Grupo_1095380" data-name="Grupo 1095380" transform="translate(5.049 7.075)">
        <path id="Trazado_829981" data-name="Trazado 829981" d="M28.254,7.779,33,22.458h15.47a1.033,1.033,0,0,1,.593,1.878l-12.5,9.094,4.794,14.679a1.025,1.025,0,0,1-1.582,1.137L27.265,40.2,14.761,49.3a1.021,1.021,0,0,1-1.582-1.137L17.974,33.48,5.47,24.386a1.041,1.041,0,0,1,.593-1.878h15.47L26.277,7.779A1.046,1.046,0,0,1,28.254,7.779Z" transform="translate(-5.049 -7.075)" fill="#273a89"/>
      </g>
    </g>
  </g>
</svg>
