<svg xmlns="http://www.w3.org/2000/svg" width="86" height="86" viewBox="0 0 86 86">
  <g id="_34" data-name="34" transform="translate(-265 -13696)">
    <g id="Grupo_1074505" data-name="Grupo 1074505" transform="translate(-61 10213)">
      <circle id="Elipse_9884" data-name="Elipse 9884" cx="43" cy="43" r="43" transform="translate(326 3483)" fill="#ffce00"/>
    </g>
    <g id="noun-table-5813916_1_" data-name="noun-table-5813916 (1)" transform="translate(282 13714.078)">
      <g id="Layer_31" data-name="Layer 31" transform="translate(3 3)">
        <path id="Trazado_829597" data-name="Trazado 829597" d="M42.656,3H7.188A4.188,4.188,0,0,0,3,7.188V42.656a4.188,4.188,0,0,0,4.188,4.188H42.656a4.188,4.188,0,0,0,4.188-4.188V7.188A4.188,4.188,0,0,0,42.656,3Zm-9.925,9.978h12.6v6.955h-12.6Zm-14.106,0H31.219v6.955H18.625Zm0,8.466H31.219V28.4H18.625ZM4.512,12.978h12.6v6.955H4.512Zm12.6,32.354H7.188a2.684,2.684,0,0,1-2.676-2.676V38.377h12.6Zm0-8.466H4.512V29.911h12.6Zm14.106,8.466H18.625V38.377H31.219Zm14.113-2.676a2.684,2.684,0,0,1-2.676,2.676H32.731V38.377h12.6Zm0-5.79h-12.6V29.911h12.6Z" transform="translate(-3 -3)" fill="#273a89"/>
      </g>
    </g>
  </g>
</svg>
