<svg xmlns="http://www.w3.org/2000/svg" xmlns:xlink="http://www.w3.org/1999/xlink" width="610" height="422" viewBox="0 0 610 422">
  <defs>
    <clipPath id="clip-path">
      <rect id="Rectángulo_383409" data-name="Rectángulo 383409" width="305.803" height="336.824" fill="none"/>
    </clipPath>
    <clipPath id="clip-path-2">
      <rect id="Rectángulo_383401" data-name="Rectángulo 383401" width="305.803" height="349.688" fill="none"/>
    </clipPath>
    <clipPath id="clip-path-3">
      <path id="Trazado_829672" data-name="Trazado 829672" d="M154.623,295.364a135.877,135.877,0,0,0,57.24-29.929c11.348,10.018,36.614,26.7,46.637,47.831,14.03,29.582-.29,91.881-.29,91.881H31.7s18.631-31.784,21.572-47.8,18.141-66.964,29.908-82.006c8.948-11.439,44.26-17.827,62.822-24.286a144.759,144.759,0,0,0,8.624,44.3" transform="translate(-31.696 -251.059)" fill="none"/>
    </clipPath>
    <clipPath id="clip-path-4">
      <rect id="Rectángulo_383402" data-name="Rectángulo 383402" width="240.739" height="170.697" fill="none"/>
    </clipPath>
    <clipPath id="clip-path-6">
      <rect id="Rectángulo_383403" data-name="Rectángulo 383403" width="15.103" height="27.326" fill="none"/>
    </clipPath>
    <clipPath id="clip-path-7">
      <rect id="Rectángulo_383404" data-name="Rectángulo 383404" width="23.389" height="28.031" fill="none"/>
    </clipPath>
    <clipPath id="clip-path-8">
      <path id="Trazado_829699" data-name="Trazado 829699" d="M149.121,178.208c5.282.773,13.533-2.529,13.533-2.529s-5.9,12.812-15.134,11.46-10-15.348-10-15.348,6.319,5.645,11.6,6.418" transform="translate(-137.52 -171.79)" fill="none"/>
    </clipPath>
    <clipPath id="clip-path-10">
      <rect id="Rectángulo_383406" data-name="Rectángulo 383406" width="14.957" height="14.803" fill="none"/>
    </clipPath>
  </defs>
  <g id="_35" data-name="35" transform="translate(-810 -13662)">
    <g id="Grupo_1095201" data-name="Grupo 1095201">
      <rect id="Rectángulo_383410" data-name="Rectángulo 383410" width="610" height="422" rx="10" transform="translate(810 13662)" fill="#3ee2a8"/>
      <g id="Grupo_1095199" data-name="Grupo 1095199" transform="translate(895 13747.176)">
        <g id="Grupo_1095198" data-name="Grupo 1095198" clip-path="url(#clip-path)">
          <g id="Grupo_1095174" data-name="Grupo 1095174">
            <g id="Grupo_1095173" data-name="Grupo 1095173" clip-path="url(#clip-path-2)">
              <path id="Trazado_829662" data-name="Trazado 829662" d="M111.205,224.354a188.773,188.773,0,0,0,3.787-19.141l40.871-2.392s-.848,5.6-1.417,13.176a58.125,58.125,0,0,1-43.241,8.357" transform="translate(68.156 -55.196)" fill="#050a12"/>
              <path id="Trazado_829663" data-name="Trazado 829663" d="M107.494,241.049c3.345-1.446,5.672-2.919,6.5-4.476,1.563-2.939,3.187-2.974,4.32-7.293a58.122,58.122,0,0,0,43.241-8.357c-.93,12.385-1.377,25.928,4.1,33.153.015.02.034.04.049.06a124.522,124.522,0,0,1-50.393,25.654,132.486,132.486,0,0,1-7.813-38.74" transform="translate(61.048 -60.122)" fill="#dd8082"/>
              <path id="Trazado_829664" data-name="Trazado 829664" d="M53.268,357.351c2.942-16.013,18.141-66.963,29.908-82.006,8.947-11.439,44.26-17.827,62.822-24.286a144.777,144.777,0,0,0,8.625,44.3,135.881,135.881,0,0,0,57.239-29.928c11.349,10.017,36.614,26.7,46.637,47.831,14.03,29.582-.289,91.881-.289,91.881H31.7s18.631-31.784,21.572-47.8" transform="translate(17.832 -68.323)" fill="#ffce00"/>
            </g>
          </g>
          <g id="Grupo_1095179" data-name="Grupo 1095179" transform="translate(49.528 182.736)">
            <g id="Grupo_1095178" data-name="Grupo 1095178" clip-path="url(#clip-path-3)">
              <g id="Grupo_1095177" data-name="Grupo 1095177" transform="translate(10.931 -3.745)" opacity="0.5" style="mix-blend-mode: multiply;isolation: isolate">
                <g id="Grupo_1095176" data-name="Grupo 1095176">
                  <g id="Grupo_1095175" data-name="Grupo 1095175" clip-path="url(#clip-path-4)">
                    <path id="Trazado_829665" data-name="Trazado 829665" d="M189.953,246.03c-3.824,15.766-5.84,33.564,3.062,47.176,4.813,7.361,12.362,12.67,17.087,20.087,3.578,5.616,5.359,12.18,6.372,18.743,1.322,8.572,1.382,17.517-1.453,25.721s-8.873,15.6-17.061,18.687" transform="translate(-109.316 -245.946)" fill="none" stroke="#446ee4" stroke-miterlimit="10" stroke-width="1"/>
                    <path id="Trazado_829666" data-name="Trazado 829666" d="M237.106,260.107a45.412,45.412,0,0,0,1.239,25.191c2.792,8.1,7.961,15.835,7.353,24.371a19.039,19.039,0,0,1-7.107,13.4" transform="translate(-173.882 -249.776)" fill="none" stroke="#446ee4" stroke-miterlimit="10" stroke-width="1"/>
                    <path id="Trazado_829667" data-name="Trazado 829667" d="M90.764,366.749a48.741,48.741,0,0,0-59.894-12.824c-7.779,3.932-15.793,10.173-24.217,7.886" transform="translate(149.688 -273.886)" fill="none" stroke="#446ee4" stroke-miterlimit="10" stroke-width="1"/>
                    <path id="Trazado_829668" data-name="Trazado 829668" d="M140.4,285.875a103.146,103.146,0,0,1-41.889,28.986c-6.483,2.4-13.631,4.159-20.277,2.238C68.491,314.281,62.6,304.4,59.8,294.737" transform="translate(60.962 -256.789)" fill="none" stroke="#446ee4" stroke-miterlimit="10" stroke-width="1"/>
                    <path id="Trazado_829669" data-name="Trazado 829669" d="M114.087,396.644a35.129,35.129,0,0,0-25.324-1.312,34.7,34.7,0,0,0-19.355,16.217c-3.29,6.091-5.027,13.559-10.8,17.433-6.06,4.062-14.253,2.577-21.23,4.766a20.777,20.777,0,0,0-14.192,20.219" transform="translate(114.225 -286.098)" fill="none" stroke="#446ee4" stroke-miterlimit="10" stroke-width="1"/>
                    <path id="Trazado_829670" data-name="Trazado 829670" d="M227.263,406.7a21.188,21.188,0,0,1,16.961,1.109,20.806,20.806,0,0,1,10.4,13.3c1.23,5.071.986,11.391,5.446,14.169,1.865,1.162,4.158,1.364,6.254,2.039,7.348,2.363,11.588,11.5,8.613,18.557" transform="translate(-197.696 -289.326)" fill="none" stroke="#446ee4" stroke-miterlimit="10" stroke-width="1"/>
                    <path id="Trazado_829671" data-name="Trazado 829671" d="M308.927,408.456c6.773,6.912,12.608,14.939,15.674,24.078s3.156,19.488-1.088,28.152" transform="translate(-308.663 -290.148)" fill="none" stroke="#446ee4" stroke-miterlimit="10" stroke-width="1"/>
                  </g>
                </g>
              </g>
            </g>
          </g>
          <g id="Grupo_1095187" data-name="Grupo 1095187">
            <g id="Grupo_1095186" data-name="Grupo 1095186" clip-path="url(#clip-path-2)">
              <path id="Trazado_829673" data-name="Trazado 829673" d="M103.489,250.383c1.727-.6,3.309-1.2,4.712-1.809a132.48,132.48,0,0,0,7.813,38.74,124.527,124.527,0,0,0,50.393-25.654,22.109,22.109,0,0,0,2.945,3.1,135.87,135.87,0,0,1-57.239,29.929,144.758,144.758,0,0,1-8.624-44.3" transform="translate(60.341 -67.647)" fill="#fdf"/>
              <path id="Trazado_829674" data-name="Trazado 829674" d="M144.185,322.477c-9.88,1.929-18.362,8.118-24.655,15.559s-10.67,16.13-14.991,24.733L73.5,424.583h3.29q14.8-30.908,29.6-61.814c4.119-8.6,8.292-17.293,14.292-24.733s14.088-13.63,23.507-15.559" transform="translate(107.565 -87.759)" fill="#050a12"/>
              <path id="Trazado_829675" data-name="Trazado 829675" d="M66.836,423.29,49.65,452.018h6.581Z" transform="translate(202.453 -115.194)" fill="#050a12"/>
              <path id="Trazado_829676" data-name="Trazado 829676" d="M260.726,287.271a107.969,107.969,0,0,0-2.7,10.622c-.388,1.783-.69,3.58-1.021,5.374-.3,1.8-.569,3.6-.842,5.4-.232,1.807-.465,3.615-.666,5.426-.169,1.815-.372,3.626-.484,5.447a106.719,106.719,0,0,0-.3,10.949c.8-3.577,1.427-7.164,2.011-10.752.315-1.791.555-3.591.845-5.383l.779-5.39.719-5.4c.212-1.8.468-3.6.655-5.41.417-3.611.8-7.23,1-10.889" transform="translate(-142.223 -78.178)" fill="#050a12"/>
              <path id="Trazado_829677" data-name="Trazado 829677" d="M352.872,313.445S336.216,272.028,332.2,256.13s-3.481-20.138-7.5-19.608-5.355,8.214-5.355,12.189a59.589,59.589,0,0,0,1.606,10.6s-58.282,4.194-63.9,4.5c-5.858.325-5.169,7.169,4.461,7.419,4.549.118,30.362,2.711,30.362,2.711s-2.861,1.662-3.129,4.577,3.265,6.193,3.265,6.193-2.721,3.028-2.721,5.654,3.673,5.519,3.673,5.519-1.659,4.858.136,7.4c2.019,2.862,32.668,1.591,32.668,1.591l5.012,22.3s9.465-.312,13.251-3.435,8.834-10.3,8.834-10.3" transform="translate(-233.37 -64.355)" fill="#dd8082"/>
              <path id="Trazado_829678" data-name="Trazado 829678" d="M314.7,266.74l-6.968.481-6.961.514c-2.319.194-4.638.378-6.955.608l-3.476.344c-1.157.139-2.316.252-3.472.408,1.167.009,2.331-.034,3.5-.052l3.491-.141c2.328-.1,4.651-.264,6.973-.441,2.321-.194,4.642-.4,6.955-.685s4.627-.578,6.915-1.036" transform="translate(-219.864 -72.59)" fill="#050a12"/>
              <path id="Trazado_829679" data-name="Trazado 829679" d="M282.181,330.629a52.594,52.594,0,0,0,6.575.1,51.889,51.889,0,0,0,6.545-.626,52.062,52.062,0,0,0-6.575-.1,52.737,52.737,0,0,0-6.545.626" transform="translate(-197.024 -89.792)" fill="#050a12"/>
              <path id="Trazado_829680" data-name="Trazado 829680" d="M281.729,354.567A45.7,45.7,0,0,1,241.884,371.4" transform="translate(-153.816 -96.492)" fill="none" stroke="#fdf" stroke-miterlimit="10" stroke-width="4"/>
              <path id="Trazado_829681" data-name="Trazado 829681" d="M273.524,427.685c-2.866-7.707-5.844-15.37-8.769-23.054L255.8,381.648l-4.486-11.486L246.769,358.7l-9.151-22.9-.767-1.919-1.158,1.744a72.1,72.1,0,0,1-6.56,8.464,30.883,30.883,0,0,1-8.045,6.707,29.578,29.578,0,0,1-10.207,2.438,70.679,70.679,0,0,1-10.779.088l-1.265-.087.182,1.213c.908,6.057,1.79,12.118,2.741,18.17l2.809,18.159,1.4,9.08,1.469,9.071c.98,6.047,1.948,12.1,2.982,18.135-.7-6.086-1.468-12.163-2.224-18.242l-1.134-9.118-1.2-9.109-2.4-18.217c-.785-6.075-1.636-12.14-2.465-18.208l-1.083,1.127a70.158,70.158,0,0,0,11.144.024,31.526,31.526,0,0,0,11-2.621,32.865,32.865,0,0,0,8.7-7.154,72.077,72.077,0,0,0,6.758-8.774l-1.925-.175,9.305,22.842,4.68,11.411,4.742,11.385,9.5,22.764c3.227,7.564,6.4,15.149,9.689,22.69" transform="translate(-113.954 -90.861)" fill="#050a12"/>
              <path id="Trazado_829682" data-name="Trazado 829682" d="M11.136,84.943c-9.7-9.813-12.161-25.325-5.817-36.7C3.2,49.353.338,47.17.041,44.83s1.088-4.478,2.542-6.308A80.9,80.9,0,0,1,15.6,25.985c-2.161-1.938-5.9-1.141-8.124-3.01a4.809,4.809,0,0,1-.791-5.947A12.454,12.454,0,0,1,11.49,12.8C26.2,4.063,43.969,1.069,61.618.116c29.373-1.585,56.37,13.454,57.432,15.428.52-2.574-2.114-5.776.516-7.875s7.667,3.3,9.907,6.8a59.3,59.3,0,0,1,6.859,14.884,36.089,36.089,0,0,1,16.414,3.81c2.16,1.115,4.42,2.786,4.634,5.07a4.826,4.826,0,0,1-2.776,4.422,16.027,16.027,0,0,1-5.521,1.449c9.728,7.532,16.534,19.4,14.84,30.837-.627,4.238-2.578,8.485-6.356,10.714s-9.59,1.7-12.263-1.906c3.451,6.756,2.077,15.033-2.545,20.745s-12.08,8.975-19.766,9.746" transform="translate(141.619 0)" fill="#273a89"/>
              <path id="Trazado_829683" data-name="Trazado 829683" d="M179.015,123.392a26.4,26.4,0,0,0,5.168,18.569,12.959,12.959,0,0,0,4.5,4c4,1.91,8.6-.173,10.912-3.8s2.75-8.4,2.577-13c-.222-5.944-1.847-12.73-6.668-16.02-7.774-5.3-15.562,2.347-16.488,10.242" transform="translate(-27.94 -30.314)" fill="#dd8082"/>
              <g id="Grupo_1095182" data-name="Grupo 1095182" transform="translate(153.911 84.98)" opacity="0.5" style="mix-blend-mode: multiply;isolation: isolate">
                <g id="Grupo_1095181" data-name="Grupo 1095181">
                  <g id="Grupo_1095180" data-name="Grupo 1095180" clip-path="url(#clip-path-6)">
                    <path id="Trazado_829684" data-name="Trazado 829684" d="M198.989,144.051a12.67,12.67,0,0,1-3.816-4.983,2.594,2.594,0,0,1-.281-1.233c.077-.791.8-1.234,1.442-1.569l3.918-2.026a1.576,1.576,0,0,0,.688-.543,1.962,1.962,0,0,0,.159-1.026c-.1-4.553-.338-9.509-3.06-13.235a6.8,6.8,0,0,0-2.746-2.35,5.158,5.158,0,0,0-4.779.638,14.244,14.244,0,0,0-3.437,3.638s-3.13,8.435,1.277,15.98,10.636,6.708,10.636,6.708" transform="translate(-185.999 -116.753)" fill="#dd8082"/>
                  </g>
                </g>
              </g>
              <path id="Trazado_829685" data-name="Trazado 829685" d="M184.794,121.133a14.264,14.264,0,0,1,4.039-3.467,4.378,4.378,0,0,1,4.576.224,9.628,9.628,0,0,1,2.873,4.022,18.676,18.676,0,0,1,1.248,5.018c.246,1.74.316,3.527.388,5.329a2.964,2.964,0,0,1-.007.783c0,.015-.078.091-.254.187l-.594.326c-.8.435-1.6.884-2.395,1.339l-1.211.694a3.136,3.136,0,0,0-1.217,1.181,1.98,1.98,0,0,0-.217.939,2.584,2.584,0,0,0,.178.839,9.584,9.584,0,0,0,.651,1.292,11.734,11.734,0,0,0,3.854,3.981,13.7,13.7,0,0,1-3.029-4.4,9.638,9.638,0,0,1-.444-1.2.976.976,0,0,1,.085-.857,5.952,5.952,0,0,1,2.032-1.18c.831-.385,1.658-.775,2.478-1.181l.624-.3a2.359,2.359,0,0,0,.83-.632,2.052,2.052,0,0,0,.4-1.079c.029-.311.019-.55.021-.772a49.119,49.119,0,0,0-.3-5.526,19.539,19.539,0,0,0-1.485-5.484,14.357,14.357,0,0,0-1.5-2.49,8.02,8.02,0,0,0-2.2-2.039,5.107,5.107,0,0,0-3.009-.764,6.031,6.031,0,0,0-2.831.958,12,12,0,0,0-3.583,4.259" transform="translate(-29.806 -31.542)" fill="#050a12"/>
              <path id="Trazado_829686" data-name="Trazado 829686" d="M60.53,79.279c-8.559,27.451-12.659,86.461,17.1,93.6,52.85,12.678,70.541-36.822,79.1-64.273s-2.742-55.222-30.478-63.693S69.089,51.828,60.53,79.279" transform="translate(106.357 -11.589)" fill="#dd8082"/>
              <path id="Trazado_829687" data-name="Trazado 829687" d="M142.773,128.212a38.858,38.858,0,0,1-27.479-17.824,38.085,38.085,0,0,1-3.374-32.345A35.3,35.3,0,0,1,96,84.3c-.959.134-2.124.148-2.675-.641a2.62,2.62,0,0,1-.082-2.17,34.316,34.316,0,0,1,7.271-13.6c-3.268,3.9-8.7,5.129-13.743,6.01-15.818,2.764-32.461,4.321-47.648-.855,1.118-3.522.991-8.132,2.109-11.655,1.239-3.9,2.5-7.863,4.759-11.293,2.784-4.236,6.924-7.425,11.248-10.114C70.994,31.422,87.977,27.19,103.8,30.8c19.062,4.35,34.443,19.883,41,38.125s4.675,41.1-2.03,59.286" transform="translate(128.162 -8.03)" fill="#273a89"/>
              <path id="Trazado_829688" data-name="Trazado 829688" d="M75.1,153.274A30.9,30.9,0,0,1,60.812,170.54a15.165,15.165,0,0,1-6.667,2.149c-5.145.162-9.03-4.183-9.756-9.094s1.074-10.176,3.441-14.968c3.057-6.194,8-12.625,14.669-13.869,10.752-2,15.37,9.722,12.6,18.516" transform="translate(197.39 -36.611)" fill="#dd8082"/>
              <g id="Grupo_1095185" data-name="Grupo 1095185" transform="translate(246.612 102.797)" opacity="0.5" style="mix-blend-mode: multiply;isolation: isolate">
                <g id="Grupo_1095184" data-name="Grupo 1095184">
                  <g id="Grupo_1095183" data-name="Grupo 1095183" clip-path="url(#clip-path-7)">
                    <path id="Trazado_829689" data-name="Trazado 829689" d="M48.68,168.076a14.869,14.869,0,0,0,6.408-3.5,3.056,3.056,0,0,0,.883-1.175,2.541,2.541,0,0,0-.783-2.332Q53.594,159.081,52,157.1a1.8,1.8,0,0,1-.471-.9,2.279,2.279,0,0,1,.318-1.161c2.271-4.775,4.872-9.914,9.524-12.6a7.956,7.956,0,0,1,4.025-1.213,5.931,5.931,0,0,1,4.758,2.9,16.325,16.325,0,0,1,1.915,5.452s-.689,10.389-8.939,16.332-14.451,2.16-14.451,2.16" transform="translate(-48.68 -141.232)" fill="#dd8082"/>
                  </g>
                </g>
              </g>
              <path id="Trazado_829690" data-name="Trazado 829690" d="M72.07,149.282A13.766,13.766,0,0,0,70.3,143.1a6.911,6.911,0,0,0-2.544-2.33,5.918,5.918,0,0,0-3.551-.591,9.39,9.39,0,0,0-3.3,1.136,16.813,16.813,0,0,0-2.77,1.941,22.868,22.868,0,0,0-4.177,5.118,57.148,57.148,0,0,0-2.945,5.712c-.1.236-.227.484-.344.827a2.369,2.369,0,0,0-.089,1.329,2.693,2.693,0,0,0,.579,1.055l.516.613c.676.81,1.367,1.609,2.065,2.4.681.806,1.5,1.593,1.592,2.194a1.135,1.135,0,0,1-.316.948,11.384,11.384,0,0,1-1.041,1.066,16.05,16.05,0,0,1-5.3,3.248,13.756,13.756,0,0,0,5.974-2.425,11.271,11.271,0,0,0,1.3-1.066,3.023,3.023,0,0,0,.587-.806,2.3,2.3,0,0,0,.217-1.1,3.6,3.6,0,0,0-.73-1.816l-.954-1.3c-.624-.851-1.255-1.7-1.9-2.531l-.474-.622a.762.762,0,0,1-.18-.317,1.721,1.721,0,0,1,.067-.218c.06-.153.176-.375.3-.615.932-1.876,1.855-3.735,2.941-5.464a21.847,21.847,0,0,1,3.7-4.735,11.3,11.3,0,0,1,4.953-2.925,5.055,5.055,0,0,1,4.954,1.89,16.351,16.351,0,0,1,2.632,5.55" transform="translate(197.932 -38.133)" fill="#050a12"/>
              <path id="Trazado_829691" data-name="Trazado 829691" d="M62.665,70.934a56.107,56.107,0,0,0-4.808,8.934,57.7,57.7,0,0,0-3.179,9.65c-.193.826-.366,1.657-.524,2.49a22.718,22.718,0,0,0-.382,2.553,5.238,5.238,0,0,0,.505,2.662A2.089,2.089,0,0,0,56.94,98.24,5.559,5.559,0,0,0,59,96.468q.825-.973,1.619-1.97,1.59-1.994,3.059-4.077L63,90.144a37.548,37.548,0,0,0-.521,5.585,40.689,40.689,0,0,0,.3,5.592,37.693,37.693,0,0,0,2.968,10.734,42.708,42.708,0,0,1-2.459-10.789,39.958,39.958,0,0,1-.136-5.518,41.989,41.989,0,0,1,.586-5.479l.292-1.624-.969,1.347Q61.588,92.042,59.994,94q-.8.979-1.623,1.936a5.25,5.25,0,0,1-1.732,1.536,1.275,1.275,0,0,1-1.656-.638,4.512,4.512,0,0,1-.431-2.251,22.446,22.446,0,0,1,.346-2.447c.149-.825.31-1.646.493-2.465a64.948,64.948,0,0,1,2.911-9.63,68.229,68.229,0,0,1,4.364-9.112" transform="translate(200.509 -19.304)" fill="#fff"/>
              <path id="Trazado_829692" data-name="Trazado 829692" d="M25.668,65.811c-.129.676-.252,1.355-.363,2.037l-.24,2.059-.1,2.073.008,2.078a37.71,37.71,0,0,0,4.179,16l1.01,1.822,1.1,1.765,1.219,1.686q.649.813,1.316,1.607-.558-.876-1.133-1.732L31.616,93.43l-.988-1.8-.894-1.848a47.033,47.033,0,0,1-4.119-15.755l-.122-2.045-.02-2.052.051-2.056q.085-1.025.143-2.058" transform="translate(253.641 -17.91)" fill="#fff"/>
              <path id="Trazado_829693" data-name="Trazado 829693" d="M143.58,32.89a90.632,90.632,0,0,0-9.114-5.662,80.122,80.122,0,0,0-9.792-4.449,84.331,84.331,0,0,0-10.292-3.191c-1.738-.469-3.515-.763-5.279-1.121-1.78-.258-3.552-.59-5.347-.748a83.524,83.524,0,0,0-10.784-.532l-2.7.068-2.7.183a48.576,48.576,0,0,0-5.375.638,29.932,29.932,0,0,0-5.261,1.39c-.427.159-.85.328-1.265.516a5.3,5.3,0,0,0-1.246.7,2.919,2.919,0,0,0-.963,1.184,1.535,1.535,0,0,0,.328,1.631,3.719,3.719,0,0,0,1.28.752l1.237.523,2.473,1.045,4.946,2.09.126-.674a56.388,56.388,0,0,0-16.939,3.474,55.471,55.471,0,0,0-14.981,8.453,54.877,54.877,0,0,1,7.262-4.6,58.74,58.74,0,0,1,7.874-3.437,55.957,55.957,0,0,1,16.813-3.188l1.578-.052-1.452-.622-4.935-2.115-2.468-1.058-1.234-.528a3.11,3.11,0,0,1-1.024-.584.767.767,0,0,1-.163-.837,2.2,2.2,0,0,1,.721-.85,4.515,4.515,0,0,1,1.087-.6c.4-.179.81-.341,1.224-.491a29.12,29.12,0,0,1,5.124-1.326,83.667,83.667,0,0,1,21.333-.416c1.78.146,3.538.468,5.305.714,1.75.349,3.514.633,5.247,1.065a83.9,83.9,0,0,1,10.27,3.015l2.509.935,2.467,1.042c.829.335,1.636.715,2.443,1.1s1.63.735,2.416,1.157a90.473,90.473,0,0,1,9.249,5.407" transform="translate(124.026 -4.676)" fill="#fff"/>
              <path id="Trazado_829694" data-name="Trazado 829694" d="M144.242,48.417c-1.776,1.6-3.6,3.141-5.5,4.591q-2.864,2.151-5.9,4.053a75.452,75.452,0,0,1-12.792,6.38c-2.225.858-4.48,1.648-6.781,2.28-1.139.34-2.317.613-3.456.893a5.013,5.013,0,0,1-3.242-.179,1.7,1.7,0,0,1-.83-1.138,3.643,3.643,0,0,1,.1-1.587c.288-1.117.669-2.248,1.07-3.347A36.306,36.306,0,0,1,110,54.024l.716-1.167-1.229.613a82.116,82.116,0,0,1-9.4,3.948Q95.267,59.1,90.31,60.4c-3.3.873-6.637,1.606-9.978,2.328s-6.7,1.361-10.054,2.041q5.071-.789,10.123-1.7t10.05-2.121c3.327-.814,6.639-1.721,9.879-2.85a83.006,83.006,0,0,0,9.511-3.926l-.513-.553a37.091,37.091,0,0,0-3.2,6.461,32.014,32.014,0,0,0-1.09,3.449,4.4,4.4,0,0,0-.093,1.943,2.51,2.51,0,0,0,1.225,1.656,4.07,4.07,0,0,0,1.928.448,8.635,8.635,0,0,0,1.873-.2c1.188-.3,2.348-.576,3.506-.928,2.322-.654,4.594-1.464,6.835-2.344a75.155,75.155,0,0,0,12.772-6.659,71.524,71.524,0,0,0,11.154-9.02" transform="translate(109.876 -13.176)" fill="#fff"/>
              <path id="Trazado_829695" data-name="Trazado 829695" d="M150.472,109.537a61.879,61.879,0,0,1,6.212-3.7,26,26,0,0,1,3.225-1.4,19.183,19.183,0,0,1,3.3-.9,13.374,13.374,0,0,1,3.323-.129l3.257.25a59.553,59.553,0,0,1,6.929,1.124l.2-.293a11.355,11.355,0,0,0-6.495-4.3,10.832,10.832,0,0,0-4.012-.268,22.529,22.529,0,0,0-3.891.88,21.636,21.636,0,0,0-3.581,1.5,28.05,28.05,0,0,0-3.193,2.037,47.906,47.906,0,0,0-5.5,4.922Z" transform="translate(18.395 -27.173)" fill="#050a12"/>
              <path id="Trazado_829696" data-name="Trazado 829696" d="M126.125,117.729a47.567,47.567,0,0,0-4.358-5.933,27.789,27.789,0,0,0-2.7-2.641,21.488,21.488,0,0,0-3.194-2.194,22.5,22.5,0,0,0-3.626-1.652,10.82,10.82,0,0,0-3.982-.552,11.416,11.416,0,0,0-7.248,2.889l.133.327a59.686,59.686,0,0,1,7.015.307l3.239.417a13.34,13.34,0,0,1,3.227.8,19.068,19.068,0,0,1,3.039,1.55,25.917,25.917,0,0,1,2.867,2.021,61.485,61.485,0,0,1,5.314,4.881Z" transform="translate(105.388 -28.505)" fill="#050a12"/>
              <path id="Trazado_829697" data-name="Trazado 829697" d="M162.653,175.679s-5.9,12.813-15.134,11.461-10-15.348-10-15.348,6.319,5.645,11.6,6.417,13.533-2.529,13.533-2.529" transform="translate(42.013 -46.751)" fill="#050a12"/>
            </g>
          </g>
          <g id="Grupo_1095189" data-name="Grupo 1095189" transform="translate(179.533 125.039)">
            <g id="Grupo_1095188" data-name="Grupo 1095188" clip-path="url(#clip-path-8)">
              <path id="Trazado_829698" data-name="Trazado 829698" d="M132.8,190.341c-.774,5.182,3.431,10.09,9.392,10.962s11.421-2.621,12.195-7.8-3.431-10.09-9.392-10.962-11.421,2.622-12.195,7.8" transform="translate(-125.803 -174.678)" fill="#d34b2a"/>
            </g>
          </g>
          <g id="Grupo_1095197" data-name="Grupo 1095197">
            <g id="Grupo_1095196" data-name="Grupo 1095196" clip-path="url(#clip-path-2)">
              <path id="Trazado_829700" data-name="Trazado 829700" d="M160.9,119.156a5.156,5.156,0,0,0,3.448,6.459,5.229,5.229,0,0,0,6.527-3.413,5.157,5.157,0,0,0-3.449-6.459,5.23,5.23,0,0,0-6.526,3.413" transform="translate(16.531 -31.435)" fill="#050a12"/>
              <g id="Grupo_1095192" data-name="Grupo 1095192" transform="translate(166.535 101.703)" opacity="0.5" style="mix-blend-mode: multiply;isolation: isolate">
                <g id="Grupo_1095191" data-name="Grupo 1095191">
                  <g id="Grupo_1095190" data-name="Grupo 1095190" clip-path="url(#clip-path-10)">
                    <path id="Trazado_829701" data-name="Trazado 829701" d="M183.981,147.454a7.479,7.479,0,1,1-7.143-7.719,7.449,7.449,0,0,1,7.143,7.719" transform="translate(-169.031 -139.728)" fill="#dd8082"/>
                  </g>
                </g>
              </g>
              <g id="Grupo_1095195" data-name="Grupo 1095195" transform="translate(210.083 110.84)" opacity="0.5" style="mix-blend-mode: multiply;isolation: isolate">
                <g id="Grupo_1095194" data-name="Grupo 1095194">
                  <g id="Grupo_1095193" data-name="Grupo 1095193" clip-path="url(#clip-path-10)">
                    <path id="Trazado_829702" data-name="Trazado 829702" d="M124.766,160.007a7.479,7.479,0,1,1-7.143-7.719,7.449,7.449,0,0,1,7.143,7.719" transform="translate(-109.816 -152.282)" fill="#dd8082"/>
                  </g>
                </g>
              </g>
              <path id="Trazado_829703" data-name="Trazado 829703" d="M161.563,116.531c-.726,2.043-1.366,4.112-2.229,6.08a24.884,24.884,0,0,1-3.087,5.551,16.537,16.537,0,0,1-2.126,2.3c-.781.7-1.642,1.338-2.51,2a24,24,0,0,0-2.539,2.182,13.19,13.19,0,0,0-3.765,9.29,11.906,11.906,0,0,0,1.842,6.487,12.383,12.383,0,0,0,5,4.442,11.6,11.6,0,0,0,6.47,1.119,12.386,12.386,0,0,1-10.487-6.144,11.159,11.159,0,0,1-1.436-5.888,12.39,12.39,0,0,1,1.6-5.857,12.069,12.069,0,0,1,1.808-2.462,26.2,26.2,0,0,1,2.373-2.095c.836-.684,1.7-1.37,2.519-2.146a15.341,15.341,0,0,0,2.18-2.57,22.837,22.837,0,0,0,2.83-5.966,57.669,57.669,0,0,0,1.556-6.324" transform="translate(37.377 -31.713)" fill="#050a12"/>
              <path id="Trazado_829704" data-name="Trazado 829704" d="M128.184,127.8a13.7,13.7,0,0,0-3.788-1.767,16.065,16.065,0,0,0-4.2-.646,16.607,16.607,0,0,0-4.257.468,15.7,15.7,0,0,0-4,1.579l-1.694.98,1.913.349c2.282.416,4.541.9,6.762,1.539,1.105.33,2.206.679,3.283,1.106a29.969,29.969,0,0,1,3.18,1.451,16.79,16.79,0,0,0-2.887-2.051,24.258,24.258,0,0,0-3.22-1.528,38.629,38.629,0,0,0-6.846-1.926l.22,1.33a17.091,17.091,0,0,1,3.649-1.472,18.358,18.358,0,0,1,3.915-.64,19.193,19.193,0,0,1,4.008.194,20.181,20.181,0,0,1,3.957,1.034" transform="translate(96.537 -34.121)" fill="#050a12"/>
              <path id="Trazado_829705" data-name="Trazado 829705" d="M268.347,221.216c1.394-1.856,2.729-3.752,4.081-5.639l3.927-5.741a57.109,57.109,0,0,0,3.773-5.841,34.121,34.121,0,0,0,2.658-6.48l-.191-.109a38.358,38.358,0,0,0-4.368,5.482,69.229,69.229,0,0,0-3.382,6.046L271.489,215l-3.329,6.1Z" transform="translate(-174.197 -53.722)" fill="#273a89"/>
              <path id="Trazado_829706" data-name="Trazado 829706" d="M245.91,228.38c2.076-1.532,4.113-3.109,6.171-4.661l6.1-4.745c2.024-1.593,4.171-3.041,6.028-4.827a44.39,44.39,0,0,0,5.237-5.739l-.143-.166a44.692,44.692,0,0,0-6.53,4.248c-2.067,1.542-3.841,3.422-5.74,5.158l-5.668,5.242c-1.864,1.776-3.75,3.528-5.6,5.324Z" transform="translate(-144.387 -56.671)" fill="#273a89"/>
              <path id="Trazado_829707" data-name="Trazado 829707" d="M233.6,240.1c2.422-.863,4.819-1.779,7.23-2.666l7.185-2.766c2.389-.935,4.855-1.7,7.141-2.866a44.21,44.21,0,0,0,6.653-3.965l-.089-.2a44.486,44.486,0,0,0-7.451,2.166c-2.416.876-4.652,2.157-6.964,3.266l-6.919,3.366c-2.292,1.157-4.6,2.284-6.876,3.465Z" transform="translate(-127.734 -61.95)" fill="#273a89"/>
              <path id="Trazado_829708" data-name="Trazado 829708" d="M374.872,241.811l-3.02-6.251-3.048-6.226a68.834,68.834,0,0,0-3.076-6.2,38.234,38.234,0,0,0-4.09-5.689l-.2.1a34.1,34.1,0,0,0,2.331,6.6,57.106,57.106,0,0,0,3.476,6.018l3.637,5.927c1.255,1.95,2.494,3.909,3.794,5.831Z" transform="translate(-334.886 -59.174)" fill="#273a89"/>
              <path id="Trazado_829709" data-name="Trazado 829709" d="M394.457,248.255c-1.755-1.884-3.55-3.727-5.324-5.591l-5.4-5.513c-1.81-1.827-3.488-3.791-5.475-5.433a44.677,44.677,0,0,0-6.309-4.561l-.152.159a44.282,44.282,0,0,0,4.944,5.988c1.764,1.874,3.838,3.427,5.779,5.116l5.855,5.037c1.978,1.652,3.934,3.326,5.931,4.957Z" transform="translate(-362.086 -61.818)" fill="#273a89"/>
              <path id="Trazado_829710" data-name="Trazado 829710" d="M405.862,259.549c-2.218-1.292-4.463-2.531-6.694-3.8l-6.742-3.7c-2.254-1.22-4.423-2.609-6.792-3.6a44.429,44.429,0,0,0-7.334-2.528l-.1.2a44.216,44.216,0,0,0,6.447,4.286c2.225,1.279,4.649,2.161,6.99,3.211l7.039,3.114c2.363,1,4.713,2.037,7.088,3.016Z" transform="translate(-378.2 -66.925)" fill="#273a89"/>
            </g>
          </g>
        </g>
      </g>
      <g id="Grupo_1095200" data-name="Grupo 1095200">
        <g id="Rectángulo_383411" data-name="Rectángulo 383411" transform="translate(844 13838)" fill="#fff" stroke="#273a89" stroke-width="1.5">
          <rect width="51" height="51" stroke="none"/>
          <rect x="0.75" y="0.75" width="49.5" height="49.5" fill="none"/>
        </g>
        <g id="Rectángulo_383412" data-name="Rectángulo 383412" transform="translate(844 13838)" fill="#ffce00" stroke="#273a89" stroke-width="1.5">
          <rect width="51" height="16" stroke="none"/>
          <rect x="0.75" y="0.75" width="49.5" height="14.5" fill="none"/>
        </g>
        <g id="Rectángulo_383413" data-name="Rectángulo 383413" transform="translate(925 13814)" fill="#fff" stroke="#273a89" stroke-width="1.5">
          <rect width="75" height="75" stroke="none"/>
          <rect x="0.75" y="0.75" width="73.5" height="73.5" fill="none"/>
        </g>
        <rect id="Rectángulo_383414" data-name="Rectángulo 383414" width="75" height="24" transform="translate(925 13814)" fill="#13215c"/>
        <path id="Trazado_829711" data-name="Trazado 829711" d="M-3529,2172.332h11.85v-17.541h18.461" transform="translate(4424 11699)" fill="none" stroke="#273a89" stroke-width="1.5"/>
      </g>
    </g>
    <g id="Grupo_1095204" data-name="Grupo 1095204" transform="translate(1315 13704.385)">
      <g id="Grupo_1072927" data-name="Grupo 1072927">
        <path id="Trazado_818457" data-name="Trazado 818457" d="M100.738,10.753l-1.686,1.92a10.573,10.573,0,0,1-16.321,0l-1.015-1.156a10.576,10.576,0,0,0-16.321,0,10.573,10.573,0,0,1-16.321,0l-.092-.105a10.576,10.576,0,0,0-16.321,0l-.83.946a10.573,10.573,0,0,1-16.321,0l-.644-.735A10.511,10.511,0,0,0,0,10.237v5.791a10.508,10.508,0,0,1,14.868,1.383l.644.735a10.573,10.573,0,0,0,16.321,0l.83-.946a10.573,10.573,0,0,1,16.321,0l.092.105a10.573,10.573,0,0,0,16.321,0,10.573,10.573,0,0,1,16.321,0l1.015,1.156a10.573,10.573,0,0,0,16.321,0l1.686-1.92Z" transform="translate(0 10.919)" fill="#ffce00"/>
        <path id="Trazado_818458" data-name="Trazado 818458" d="M100.738,3.19,99.052,5.11a10.573,10.573,0,0,1-16.321,0L81.717,3.954a10.573,10.573,0,0,0-16.321,0,10.573,10.573,0,0,1-16.321,0l-.092-.105a10.573,10.573,0,0,0-16.321,0l-.83.946a10.573,10.573,0,0,1-16.321,0l-.644-.735A10.511,10.511,0,0,0,0,2.674V8.462A10.511,10.511,0,0,1,14.868,9.848l.644.735a10.573,10.573,0,0,0,16.321,0l.83-.946a10.573,10.573,0,0,1,16.321,0l.092.105a10.573,10.573,0,0,0,16.321,0,10.573,10.573,0,0,1,16.321,0L82.732,10.9a10.573,10.573,0,0,0,16.321,0l1.686-1.92Z" transform="translate(0 0.001)" fill="#ffce00"/>
      </g>
    </g>
  </g>
</svg>
