<svg xmlns="http://www.w3.org/2000/svg" xmlns:xlink="http://www.w3.org/1999/xlink" width="295" height="172" viewBox="0 0 295 172">
  <defs>
    <clipPath id="clip-path">
      <rect id="Rect치ngulo_383424" data-name="Rect치ngulo 383424" width="125" height="87.985" fill="#fff"/>
    </clipPath>
  </defs>
  <g id="_49" data-name="49" transform="translate(-1125 -1114)">
    <rect id="Rect치ngulo_383421" data-name="Rect치ngulo 383421" width="295" height="172" rx="8" transform="translate(1125 1114)" fill="#273a89"/>
    <g id="Grupo_1095212" data-name="Grupo 1095212" transform="translate(1210 1156.007)">
      <g id="Grupo_1095211" data-name="Grupo 1095211" transform="translate(0 0)" clip-path="url(#clip-path)">
        <path id="Trazado_829720" data-name="Trazado 829720" d="M120.914,0H4.085A4.085,4.085,0,0,0,0,4.085V83.9a4.084,4.084,0,0,0,4.085,4.085H120.915A4.084,4.084,0,0,0,125,83.9V4.085A4.087,4.087,0,0,0,120.914,0M61.273,42.766H33.089V23.836H61.273ZM33.089,2.453H61.273v18.93H33.089Zm28.184,61.7H33.089V45.219H61.273Zm0,21.382H33.089V66.6H61.273ZM91.91,64.151H63.726V45.219H91.91ZM63.726,23.836H91.91v18.93H63.726Zm28.184,61.7H63.726V66.6H91.91Zm0-64.149H63.726V2.453H91.91v18.93M2.451,4.085A1.634,1.634,0,0,1,4.079,2.453H30.637v18.93H2.451Zm0,19.751H30.637v18.93H2.451Zm0,21.383H30.637V64.151H2.451Zm0,38.68V66.6H30.637V85.532H4.079A1.635,1.635,0,0,1,2.451,83.9m120.095,0a1.635,1.635,0,0,1-1.628,1.633H94.361V66.6h28.184Zm0-19.748H94.361V45.219h28.184Zm0-21.384H94.361V23.836h28.184Zm0-21.383H94.361V2.453h26.557a1.634,1.634,0,0,1,1.628,1.632Z" transform="translate(0 0)" fill="#fff"/>
        <path id="Trazado_829721" data-name="Trazado 829721" d="M22.745,4.8H6.355A1.228,1.228,0,0,0,5.129,6.022v8.062a1.228,1.228,0,0,0,1.226,1.226h16.39a1.228,1.228,0,0,0,1.226-1.226V6.022A1.228,1.228,0,0,0,22.745,4.8" transform="translate(1.995 1.865)" fill="#3ee2a8"/>
        <path id="Trazado_829722" data-name="Trazado 829722" d="M22.745,20.192H6.355a1.225,1.225,0,0,0-1.226,1.225v8.062A1.226,1.226,0,0,0,6.355,30.7h16.39a1.226,1.226,0,0,0,1.226-1.225V21.417a1.226,1.226,0,0,0-1.226-1.225" transform="translate(1.995 7.852)" fill="#ffce00"/>
        <path id="Trazado_829723" data-name="Trazado 829723" d="M22.745,35.588H6.355a1.227,1.227,0,0,0-1.226,1.226v8.062A1.228,1.228,0,0,0,6.355,46.1h16.39a1.228,1.228,0,0,0,1.226-1.226V36.814a1.228,1.228,0,0,0-1.226-1.226" transform="translate(1.995 13.839)" fill="#ffce00"/>
        <path id="Trazado_829724" data-name="Trazado 829724" d="M22.745,50.984H6.355A1.227,1.227,0,0,0,5.129,52.21v8.062A1.228,1.228,0,0,0,6.355,61.5h16.39a1.228,1.228,0,0,0,1.226-1.226V52.21a1.227,1.227,0,0,0-1.226-1.226" transform="translate(1.995 19.826)" fill="#ffce00"/>
        <path id="Trazado_829725" data-name="Trazado 829725" d="M44.8,4.8H28.413a1.228,1.228,0,0,0-1.226,1.226v8.062a1.228,1.228,0,0,0,1.226,1.226H44.8a1.228,1.228,0,0,0,1.226-1.226V6.022A1.227,1.227,0,0,0,44.8,4.8" transform="translate(10.572 1.865)" fill="#3ee2a8"/>
        <path id="Trazado_829726" data-name="Trazado 829726" d="M50.472,15.31h16.39a1.228,1.228,0,0,0,1.226-1.226V6.021A1.228,1.228,0,0,0,66.862,4.8H50.472a1.228,1.228,0,0,0-1.226,1.226v8.062a1.228,1.228,0,0,0,1.226,1.226" transform="translate(19.15 1.865)" fill="#3ee2a8"/>
        <path id="Trazado_829727" data-name="Trazado 829727" d="M88.92,4.8H72.531a1.228,1.228,0,0,0-1.226,1.226v8.062a1.228,1.228,0,0,0,1.226,1.226h16.39a1.228,1.228,0,0,0,1.226-1.226V6.022A1.228,1.228,0,0,0,88.92,4.8" transform="translate(27.729 1.865)" fill="#3ee2a8"/>
      </g>
    </g>
  </g>
</svg>
