<svg xmlns="http://www.w3.org/2000/svg" xmlns:xlink="http://www.w3.org/1999/xlink" width="505" height="294" viewBox="0 0 505 294">
  <defs>
    <linearGradient id="linear-gradient" x1="0.5" x2="0.5" y2="1" gradientUnits="objectBoundingBox">
      <stop offset="0" stop-color="#fff" stop-opacity="0"/>
      <stop offset="1" stop-color="#ffe888"/>
    </linearGradient>
    <clipPath id="clip-path">
      <rect id="Rectángulo_383442" data-name="Rectángulo 383442" width="403.844" height="204.12" fill="none"/>
    </clipPath>
    <clipPath id="clip-path-2">
      <path id="Rectángulo_383443" data-name="Rectángulo 383443" d="M19.257,0h53.79A19.256,19.256,0,0,1,92.3,19.256V43.889A19.256,19.256,0,0,1,73.047,63.145H19.256A19.256,19.256,0,0,1,0,43.889V19.257A19.257,19.257,0,0,1,19.257,0Z" fill="#273a89"/>
    </clipPath>
    <clipPath id="clip-path-4">
      <path id="Trazado_829778" data-name="Trazado 829778" d="M798.559,262.68c0,10.848,9.869,19.643,22.042,19.643s22.042-8.794,22.042-19.643-9.869-19.643-22.042-19.643-22.042,8.794-22.042,19.643" transform="translate(-798.559 -243.037)" fill="none"/>
    </clipPath>
  </defs>
  <g id="_59" data-name="59" transform="translate(-915 -7229)">
    <rect id="Rectángulo_383441" data-name="Rectángulo 383441" width="505" height="294" rx="8" transform="translate(915 7229)" fill="url(#linear-gradient)"/>
    <g id="Grupo_1095244" data-name="Grupo 1095244" transform="translate(951.156 7280.691)">
      <g id="Grupo_1095235" data-name="Grupo 1095235">
        <g id="Grupo_1095234" data-name="Grupo 1095234" clip-path="url(#clip-path)">
          <path id="Trazado_829748" data-name="Trazado 829748" d="M403.844,1046.972c0,8.413-90.4,15.232-201.922,15.232S0,1055.385,0,1046.972s90.4-15.232,201.922-15.232,201.922,6.82,201.922,15.232" transform="translate(0 -858.084)" fill="#ffce00"/>
          <path id="Trazado_829749" data-name="Trazado 829749" d="M1811.848,805.142h-85.821a3.241,3.241,0,0,1-3.241-3.241V745.238a3.241,3.241,0,0,1,3.241-3.241h85.821a3.241,3.241,0,0,1,3.241,3.241V801.9a3.241,3.241,0,0,1-3.241,3.241" transform="translate(-1432.818 -617.109)" fill="#273a89"/>
        </g>
      </g>
      <g id="Grupo_1095237" data-name="Grupo 1095237" transform="translate(289.968 124.888)">
        <g id="Grupo_1095236" data-name="Grupo 1095236" clip-path="url(#clip-path-2)">
          <path id="Trazado_829750" data-name="Trazado 829750" d="M1697.672,708.809c-2.1,2.222-5.074,3.349-7.895,4.531a106.154,106.154,0,0,0-23.837,13.882c-4.567,3.529-8.884,7.456-13.962,10.2-8.478,4.578-18.384,5.505-27.982,6.344-2.126.186-4.353.356-6.314-.484-3.493-1.5-4.956-5.6-5.822-9.3a96.954,96.954,0,0,1-1.531-36.006,18.156,18.156,0,0,1,1.672-6.013,15.478,15.478,0,0,1,5.982-5.67c10.6-6.3,23.653-6.28,35.982-6.075,11.212.186,22.494.388,33.572,2.3,5.92,1.023,18.157,2.381,16.617,11.045a48.113,48.113,0,0,1-2.69,8.12c-.941,2.515-1.915,5.14-3.792,7.125" transform="translate(-1628.417 -690.566)" fill="#273a89"/>
        </g>
      </g>
      <g id="Grupo_1095239" data-name="Grupo 1095239">
        <g id="Grupo_1095238" data-name="Grupo 1095238" clip-path="url(#clip-path)">
          <line id="Línea_250" data-name="Línea 250" x1="92.303" transform="translate(289.968 137.443)" fill="#494554"/>
          <path id="Trazado_829751" data-name="Trazado 829751" d="M1815.088,814.927l-2.884.051-2.885.038-5.769.075-11.538.094c-7.692.062-15.384.07-23.076.079l-11.538-.018c-3.846-.02-7.692-.022-11.538-.06l-11.538-.094-5.769-.076-2.885-.038-2.884-.051,2.884-.051,2.885-.038,5.769-.076,11.538-.094c3.846-.038,7.692-.04,11.538-.06l11.538-.018c7.692.008,15.384.017,23.076.079l11.538.094,5.769.075,2.885.038Z" transform="translate(-1432.818 -677.484)" fill="#828993"/>
          <path id="Trazado_829752" data-name="Trazado 829752" d="M1982.221,792.8h0a2.988,2.988,0,0,1-2.987-2.988v-6.095a2.988,2.988,0,1,1,5.975,0v6.095a2.988,2.988,0,0,1-2.988,2.988" transform="translate(-1646.103 -649.327)" fill="#fec089"/>
          <path id="Trazado_829753" data-name="Trazado 829753" d="M1240.3,364.65s-.158,2.754,0,15.581c.117,9.541,13.583,93.05,13.583,93.05h14.539l-5.082-93.835,18.928,93.835h14.1s-10.695-90.481-11.8-101.615a31.592,31.592,0,0,0-18.547-25.857Z" transform="translate(-1031.484 -287.605)" fill="#3ee2a8"/>
          <path id="Trazado_829754" data-name="Trazado 829754" d="M1408.129,477.737c-.015-.162-1.493-16.355-4.428-33.6-3.879-22.792-8.524-37.054-13.434-41.243l.2-.24c2.778,2.371,5.45,7.8,7.943,16.134a219.525,219.525,0,0,1,5.6,25.3c2.936,17.255,4.416,33.459,4.43,33.621Z" transform="translate(-1156.267 -334.884)" fill="#494554"/>
          <path id="Trazado_829755" data-name="Trazado 829755" d="M1298.257,533.085c-2.868-15.451-8.613-68.154-8.671-68.685l.313-.034c.058.531,5.8,53.222,8.667,68.661Z" transform="translate(-1072.532 -386.207)" fill="#494554"/>
          <path id="Trazado_829756" data-name="Trazado 829756" d="M1028.594,601.747l-.337,1.336-5.456-1.571,1.547-2.011Z" transform="translate(-850.65 -498.597)" fill="#df785a"/>
          <path id="Trazado_829757" data-name="Trazado 829757" d="M1040.336,406.69l-3.365-3.322-11.431,3.411,2.325,8.5a134.475,134.475,0,0,0-19.781,19.906l-.016-.01-1.556,2.07-1.1,2.661a2.227,2.227,0,0,0,1.764-.357,11.166,11.166,0,0,0,1.844-2.005,1.733,1.733,0,0,1,2.181-.471l2.931,1.55s25.971-13.83,26.854-18.273-.647-13.662-.647-13.662" transform="translate(-836.185 -335.476)" fill="#ffa184"/>
          <path id="Trazado_829758" data-name="Trazado 829758" d="M1125.013,407.752l11.239-3.215,3.557,3.125a26.777,26.777,0,0,1,.695,7.637s-4,3.227-13.166.957Z" transform="translate(-935.658 -336.448)" fill="#df785a"/>
          <path id="Trazado_829759" data-name="Trazado 829759" d="M1107.127,194.094l-31.161-30.76s1.05-12.189,9.964-19.465,26.148-6.147,26.148-6.147l19.185,38.7Z" transform="translate(-894.867 -114.489)" fill="#f8e7df"/>
          <path id="Trazado_829760" data-name="Trazado 829760" d="M1075.966,290.207l2.74,24.244,16.755-5Z" transform="translate(-894.866 -241.361)" fill="#fec089"/>
          <path id="Trazado_829761" data-name="Trazado 829761" d="M1290.516,138.035l24.287,9.594L1303.882,165Z" transform="translate(-1073.305 -114.802)" fill="#fec089"/>
          <path id="Trazado_829762" data-name="Trazado 829762" d="M1019.414,33.48l4.488,13.8a10.312,10.312,0,0,0,9.711,7.122,15.424,15.424,0,0,0,4.777,4.947l7.884,4.382.968-6.975a15.917,15.917,0,0,0-1.421-9.085l-9.937-20.665Z" transform="translate(-847.833 -22.46)" fill="#ffa184"/>
          <path id="Trazado_829763" data-name="Trazado 829763" d="M1072.637,120.47c.2.506.624.812.949.685s.428-.642.229-1.148-.624-.812-.949-.685-.428.642-.229,1.148" transform="translate(-892.013 -99.215)" fill="#494554"/>
          <path id="Trazado_829764" data-name="Trazado 829764" d="M1048.9,130.99c.18.457.564.734.858.619s.386-.58.207-1.037-.564-.734-.858-.619-.386.58-.207,1.037" transform="translate(-872.276 -108.058)" fill="#494554"/>
          <path id="Trazado_829765" data-name="Trazado 829765" d="M1063.224,120.014a11.053,11.053,0,0,0,.013,1.912,13.634,13.634,0,0,0,.288,1.89,8.264,8.264,0,0,0,.284.938,2.755,2.755,0,0,0,.238.474.886.886,0,0,0,.233.254.475.475,0,0,0,.116.057.313.313,0,0,0,.146.023.451.451,0,0,0,.189-.043,3.133,3.133,0,0,0,.86-.518,4.558,4.558,0,0,0,.682-.687c-.288.144-.565.294-.849.42a4.018,4.018,0,0,1-.835.3c-.024.006-.1.018-.04,0,.018,0,.027,0,.033,0s.018.012.013,0a.843.843,0,0,1-.066-.108,2.214,2.214,0,0,1-.147-.387c-.089-.281-.166-.579-.231-.88l-.42-1.822c-.145-.611-.3-1.223-.506-1.833" transform="translate(-884.24 -99.814)" fill="#494554"/>
          <path id="Trazado_829766" data-name="Trazado 829766" d="M1033.983,111.52a6.554,6.554,0,0,1-3.95,2.758,3.434,3.434,0,0,1,3.95-2.758" transform="translate(-856.665 -92.733)" fill="#494554"/>
          <path id="Trazado_829767" data-name="Trazado 829767" d="M1064.247,101.323a6.553,6.553,0,0,1-4.732.906,3.434,3.434,0,0,1,4.732-.906" transform="translate(-881.185 -83.794)" fill="#494554"/>
          <path id="Trazado_829768" data-name="Trazado 829768" d="M1038.713,126.919a2.325,2.325,0,1,1,1.313-3.014,2.327,2.327,0,0,1-1.313,3.014m-1.626-4.137a2.121,2.121,0,1,0,2.75,1.2,2.123,2.123,0,0,0-2.75-1.2" transform="translate(-861.243 -101.824)" fill="#494554"/>
          <path id="Trazado_829769" data-name="Trazado 829769" d="M1069.706,114.734a2.325,2.325,0,1,1,1.313-3.014,2.327,2.327,0,0,1-1.313,3.014m-1.627-4.137a2.121,2.121,0,1,0,2.749,1.2,2.123,2.123,0,0,0-2.749-1.2" transform="translate(-887.02 -91.69)" fill="#494554"/>
          <path id="Trazado_829770" data-name="Trazado 829770" d="M1071.365,153.113a6.932,6.932,0,0,0,3.756-2.4s.5,5.352-3.756,2.4" transform="translate(-891.04 -125.343)" fill="#fcf5f2"/>
          <path id="Trazado_829771" data-name="Trazado 829771" d="M1030.986,26.152s-4.915,5.867-15.554,10.607c0,0-5.808-5.12-2.459-9.913s17.409-4.153,17.409-4.153Z" transform="translate(-841.611 -18.85)" fill="#273a89"/>
          <path id="Trazado_829772" data-name="Trazado 829772" d="M1054.743,7.712s-.22,7.343,7.189,5.8l6.619,12.515,8.484-8.854S1066.735,3.089,1061.17.89c-8.693-3.435-14.9,4.181-14.9,4.181Z" transform="translate(-870.172 0)" fill="#273a89"/>
          <path id="Trazado_829773" data-name="Trazado 829773" d="M1133.983,67.03c-.5,2.4.288,4.586,1.757,4.892s3.064-1.389,3.562-3.785-.288-4.586-1.757-4.892-3.064,1.389-3.562,3.785" transform="translate(-942.994 -52.571)" fill="#ffa184"/>
          <path id="Trazado_829774" data-name="Trazado 829774" d="M1144.641,72.213c.2-.791.32-1.559.537-2.279a3.18,3.18,0,0,1,.445-.974,1.154,1.154,0,0,1,.387-.331,1.521,1.521,0,0,1,.551-.149,1.089,1.089,0,0,0-.627-.1,1.2,1.2,0,0,0-.611.291,2.341,2.341,0,0,0-.658,1.111,4.389,4.389,0,0,0-.176,1.222,4.072,4.072,0,0,0,.152,1.211" transform="translate(-951.856 -56.86)" fill="#494554"/>
          <rect id="Rectángulo_383444" data-name="Rectángulo 383444" width="9.557" height="0.168" transform="matrix(0.788, -0.616, 0.616, 0.788, 183.577, 19.249)" fill="#494554"/>
          <path id="Trazado_829775" data-name="Trazado 829775" d="M1103.772,175.293a6.843,6.843,0,0,0,4.769-2.593.823.823,0,0,1,1.468.661c-.295,1.393-1.239,3.178-3.646,5.153a9.854,9.854,0,0,1-2.591-3.221" transform="translate(-917.992 -143.351)" fill="#df785a"/>
          <path id="Trazado_829776" data-name="Trazado 829776" d="M880.521,269.146l-54.605-19.485c-.033-.012-.066-.02-.1-.03a20.949,20.949,0,0,0,.62-5.059c0-12.872-11.709-23.308-26.154-23.308s-26.154,10.435-26.154,23.308,11.71,23.307,26.154,23.307c9.624,0,18.031-4.633,22.573-11.531a1.819,1.819,0,0,0,.558.322l54.605,19.485a1.828,1.828,0,0,0,2.336-1.108l1.272-3.565a1.828,1.828,0,0,0-1.108-2.336" transform="translate(-643.833 -184.023)" fill="#273a89"/>
          <path id="Trazado_829777" data-name="Trazado 829777" d="M842.643,262.68c0,10.849-9.869,19.643-22.042,19.643s-22.042-8.794-22.042-19.643,9.869-19.643,22.042-19.643,22.042,8.795,22.042,19.643" transform="translate(-664.151 -202.131)" fill="#fff"/>
        </g>
      </g>
      <g id="Grupo_1095241" data-name="Grupo 1095241" transform="translate(134.408 40.906)">
        <g id="Grupo_1095240" data-name="Grupo 1095240" clip-path="url(#clip-path-4)">
          <rect id="Rectángulo_383446" data-name="Rectángulo 383446" width="47.662" height="13.617" transform="matrix(0.421, -0.907, 0.907, 0.421, -1.583, 37.141)" fill="#fcf5f2"/>
          <rect id="Rectángulo_383447" data-name="Rectángulo 383447" width="47.662" height="5.628" transform="translate(15.604 42.585) rotate(-65.108)" fill="#fcf5f2"/>
        </g>
      </g>
      <g id="Grupo_1095243" data-name="Grupo 1095243">
        <g id="Grupo_1095242" data-name="Grupo 1095242" clip-path="url(#clip-path)">
          <path id="Trazado_829779" data-name="Trazado 829779" d="M1294.475,223.746c-1.569-5.377-12.353-10.85-12.353-10.85l-8.183,13.012,3.627,2.43c-6.061,1.75-17.841,26.9-17.841,26.9l-5.917,4.861a.857.857,0,0,0,0,1.325c.829.675,1.2,2.185,3.047,2.611a11.925,11.925,0,0,0,5.4-.019s3.852-3.6,4.179-6.411c5.942-5.814,29.416-29.162,28.045-33.861" transform="translate(-1042.513 -177.063)" fill="#ffa184"/>
          <path id="Trazado_829780" data-name="Trazado 829780" d="M1178.683,169.859l5.028-1.516s.809-11.8-5.09-13.732a40.877,40.877,0,0,1,.063,15.248" transform="translate(-980.243 -128.588)" fill="#fec089"/>
          <path id="Trazado_829781" data-name="Trazado 829781" d="M1110.5,200.4s-1.164,6.9,9.314,11.114l2.183-3.573a70.435,70.435,0,0,1-11.5-7.54" transform="translate(-923.555 -166.673)" fill="#fec089"/>
          <path id="Trazado_829782" data-name="Trazado 829782" d="M1383.147,212.9s-2.587,11.826-6.516,14.129l-1.667-1.117Z" transform="translate(-1143.539 -177.063)" fill="#df785a"/>
          <path id="Trazado_829783" data-name="Trazado 829783" d="M229.109,823.033l55.419-26.756s68.123-18.4,105.669,22.644l-10.056,24.322Z" transform="translate(-190.547 -658.834)" fill="#fcf5f2"/>
          <path id="Trazado_829784" data-name="Trazado 829784" d="M1271.282,818l-33.26-25.634s-51.6-17.952-95.858,14.851l-15.731,21.392Z" transform="translate(-936.839 -654.923)" fill="#fff"/>
          <path id="Trazado_829785" data-name="Trazado 829785" d="M321.83,666.637s37.918-22.119,67.226-22h42.175l36.081,51.586-10.46,16.9s-22.682-65.2-135.022-46.484" transform="translate(-267.662 -536.135)" fill="#fff"/>
          <path id="Trazado_829786" data-name="Trazado 829786" d="M564.886,660.739S547.2,586.421,451.728,585.067c0,0,67-10.834,110.691,6.094,0,0,22.516,16.3,24.978,48.463Z" transform="translate(-375.696 -483.753)" fill="#fff"/>
          <path id="Trazado_829787" data-name="Trazado 829787" d="M451.728,600.41a85.84,85.84,0,0,1,9.265-.294c3.093.05,6.185.234,9.269.517a126.4,126.4,0,0,1,18.321,3.091c.755.177,1.5.379,2.255.575s1.5.407,2.244.617,1.489.437,2.231.666c.37.115.742.226,1.112.345l1.105.365q4.422,1.464,8.724,3.27c2.867,1.2,5.67,2.552,8.418,4.006s5.433,3.029,8.048,4.715q3.9,2.563,7.565,5.46l1.814,1.467,1.772,1.519c.6.5,1.162,1.033,1.738,1.556s1.153,1.044,1.7,1.6a99.6,99.6,0,0,1,12.132,14.129,106.432,106.432,0,0,1,9.323,16.081,120.236,120.236,0,0,1,6.524,17.354,139.244,139.244,0,0,0-7.219-17.014c-.175-.343-.341-.69-.519-1.031l-.547-1.016-1.094-2.031-1.156-2-.579-1c-.193-.332-.4-.653-.606-.98l-1.219-1.956c-.413-.647-.847-1.281-1.27-1.922l-.638-.959c-.212-.32-.443-.627-.663-.941l-1.337-1.874c-.459-.615-.93-1.221-1.393-1.832l-.7-.914-.727-.891c-.487-.592-.96-1.2-1.454-1.783l-1.5-1.74c-.492-.588-1.026-1.139-1.542-1.705s-1.03-1.135-1.575-1.674l-1.61-1.64-1.66-1.59c-.547-.537-1.124-1.041-1.689-1.557s-1.128-1.036-1.718-1.526l-1.75-1.488-1.793-1.437q-3.618-2.833-7.47-5.349a109.034,109.034,0,0,0-16.193-8.673q-4.219-1.834-8.578-3.333L496,607.223c-.364-.122-.73-.236-1.1-.354l-1.1-.352c-.365-.118-.734-.223-1.1-.337-.735-.223-1.468-.451-2.209-.655s-1.476-.424-2.221-.614c-2.968-.794-5.969-1.467-8.987-2.059s-6.059-1.077-9.114-1.454c-1.526-.2-3.058-.358-4.592-.505s-3.071-.249-4.609-.342-3.079-.15-4.621-.176-3.086-.034-4.628.036" transform="translate(-375.696 -499.096)" fill="#f8e7df"/>
          <path id="Trazado_829788" data-name="Trazado 829788" d="M457.255,800.437s-30.689-62.36-135.425-43.184c0,0,88.55-18.589,135.425,43.184" transform="translate(-267.662 -626.751)" fill="#f8e7df"/>
          <path id="Trazado_829789" data-name="Trazado 829789" d="M325.587,899.31s-.442-47.6-119.236-16.011l-31.8,6.523-11.04,20.21h318.4L470.436,888.7A644.33,644.33,0,0,0,393.6,875.588c-39.3-3.975-63.151,13-68.008,23.723" transform="translate(-135.993 -725.624)" fill="#f4d7c7"/>
          <path id="Trazado_829790" data-name="Trazado 829790" d="M468.212,1041.433H320.748c-.395-3.641-2.342-10.192-11.3-9.662-9.859.583-11.382,7.071-11.6,9.662h-151.4a2.342,2.342,0,1,0,0,4.684H468.212a2.342,2.342,0,1,0,0-4.684" transform="translate(-119.857 -858.085)" fill="#273a89"/>
          <path id="Trazado_829791" data-name="Trazado 829791" d="M1126.433,904.7s7.489-16.134,22.107-25.746c0,0-21.191,7.686-22.107,25.746" transform="translate(-936.839 -731.016)" fill="#f8e7df"/>
          <path id="Trazado_829792" data-name="Trazado 829792" d="M427.145,956.887s69.823-20.648,109.717,3.385c0,0-38.3-17.263-109.717-3.385" transform="translate(-355.251 -788.968)" fill="#fcf5f2"/>
          <path id="Trazado_829793" data-name="Trazado 829793" d="M1221.7,966.462s35.787-13.445,73.295-4.5c0,0-39.917-15.091-73.295,4.5" transform="translate(-1016.072 -795.437)" fill="#fcf5f2"/>
        </g>
      </g>
    </g>
  </g>
</svg>
