<svg id="_61" data-name="61" xmlns="http://www.w3.org/2000/svg" xmlns:xlink="http://www.w3.org/1999/xlink" width="91.712" height="122.706" viewBox="0 0 91.712 122.706">
  <defs>
    <clipPath id="clip-path">
      <rect id="Rectángulo_383476" data-name="Rectángulo 383476" width="91.712" height="122.706" fill="none"/>
    </clipPath>
    <clipPath id="clip-path-3">
      <rect id="Rectángulo_383452" data-name="Rectángulo 383452" width="32.308" height="14.111" fill="none"/>
    </clipPath>
    <clipPath id="clip-path-5">
      <rect id="Rectángulo_383454" data-name="Rectángulo 383454" width="70.279" height="14.776" fill="none"/>
    </clipPath>
    <clipPath id="clip-path-6">
      <rect id="Rectángulo_383455" data-name="Rectángulo 383455" width="61.892" height="13.042" fill="none"/>
    </clipPath>
    <clipPath id="clip-path-7">
      <rect id="Rectángulo_383456" data-name="Rectángulo 383456" width="38.312" height="49.253" fill="none"/>
    </clipPath>
    <clipPath id="clip-path-8">
      <rect id="Rectángulo_383457" data-name="Rectángulo 383457" width="37.695" height="16.126" fill="none"/>
    </clipPath>
    <clipPath id="clip-path-9">
      <rect id="Rectángulo_383458" data-name="Rectángulo 383458" width="30.471" height="12.222" fill="none"/>
    </clipPath>
    <clipPath id="clip-path-11">
      <rect id="Rectángulo_383460" data-name="Rectángulo 383460" width="43.057" height="17.885" fill="#e1f6ef"/>
    </clipPath>
    <clipPath id="clip-path-13">
      <rect id="Rectángulo_383462" data-name="Rectángulo 383462" width="48.655" height="21.499" fill="#e1f6ef"/>
    </clipPath>
    <clipPath id="clip-path-15">
      <rect id="Rectángulo_383464" data-name="Rectángulo 383464" width="44.169" height="11.719" fill="#bae9d9"/>
    </clipPath>
    <clipPath id="clip-path-16">
      <rect id="Rectángulo_383465" data-name="Rectángulo 383465" width="45.892" height="14.793" fill="#bae9d9"/>
    </clipPath>
    <clipPath id="clip-path-18">
      <rect id="Rectángulo_383467" data-name="Rectángulo 383467" width="49.777" height="53.59" fill="#ffce00"/>
    </clipPath>
    <clipPath id="clip-path-19">
      <rect id="Rectángulo_383468" data-name="Rectángulo 383468" width="32.033" height="3.396" fill="none"/>
    </clipPath>
    <clipPath id="clip-path-20">
      <rect id="Rectángulo_383469" data-name="Rectángulo 383469" width="30.995" height="3.285" fill="none"/>
    </clipPath>
    <clipPath id="clip-path-21">
      <rect id="Rectángulo_383470" data-name="Rectángulo 383470" width="27.21" height="3.255" fill="none"/>
    </clipPath>
    <clipPath id="clip-path-22">
      <rect id="Rectángulo_383471" data-name="Rectángulo 383471" width="30.157" height="3.279" fill="none"/>
    </clipPath>
    <clipPath id="clip-path-23">
      <rect id="Rectángulo_383472" data-name="Rectángulo 383472" width="45.44" height="41.127" fill="none"/>
    </clipPath>
    <clipPath id="clip-path-24">
      <rect id="Rectángulo_383473" data-name="Rectángulo 383473" width="26.217" height="25.94" fill="none"/>
    </clipPath>
    <clipPath id="clip-path-25">
      <rect id="Rectángulo_383474" data-name="Rectángulo 383474" width="27.141" height="6.42" fill="none"/>
    </clipPath>
  </defs>
  <g id="Grupo_1095314" data-name="Grupo 1095314" clip-path="url(#clip-path)">
    <path id="Trazado_829803" data-name="Trazado 829803" d="M32.8,215.161l.137,34.633,34.426,13.386,36.12-13.441-.4-35.812-34.661-5.55Z" transform="translate(-22.108 -140.473)" fill="#3ee2a8"/>
    <g id="Grupo_1095252" data-name="Grupo 1095252">
      <g id="Grupo_1095251" data-name="Grupo 1095251" clip-path="url(#clip-path)">
        <g id="Grupo_1095250" data-name="Grupo 1095250" transform="translate(10.749 82.678)" opacity="0.2">
          <g id="Grupo_1095249" data-name="Grupo 1095249">
            <g id="Grupo_1095248" data-name="Grupo 1095248" clip-path="url(#clip-path-3)">
              <path id="Trazado_829804" data-name="Trazado 829804" d="M32.986,261.512l22.529,6.318,9.779-14.11-32.308,4.276Z" transform="translate(-32.986 -253.719)"/>
            </g>
          </g>
        </g>
      </g>
    </g>
    <path id="Trazado_829805" data-name="Trazado 829805" d="M65.165,223.152l-32.37-7.992,35.618-6.784,34.661,5.55Z" transform="translate(-22.108 -140.474)" fill="#407bff"/>
    <g id="Grupo_1095269" data-name="Grupo 1095269">
      <g id="Grupo_1095268" data-name="Grupo 1095268" clip-path="url(#clip-path)">
        <g id="Grupo_1095255" data-name="Grupo 1095255" transform="translate(10.687 67.903)" opacity="0.2">
          <g id="Grupo_1095254" data-name="Grupo 1095254">
            <g id="Grupo_1095253" data-name="Grupo 1095253" clip-path="url(#clip-path-5)">
              <path id="Trazado_829806" data-name="Trazado 829806" d="M65.165,223.152l-32.37-7.992,35.618-6.784,34.661,5.55Z" transform="translate(-32.795 -208.376)"/>
            </g>
          </g>
        </g>
        <g id="Grupo_1095258" data-name="Grupo 1095258" transform="translate(14.709 68.748)" opacity="0.2">
          <g id="Grupo_1095257" data-name="Grupo 1095257">
            <g id="Grupo_1095256" data-name="Grupo 1095256" clip-path="url(#clip-path-6)">
              <path id="Trazado_829807" data-name="Trazado 829807" d="M45.138,217.014l31.421-6.043,30.471,4.879-33.543,8.163Z" transform="translate(-45.138 -210.971)"/>
            </g>
          </g>
        </g>
        <g id="Grupo_1095261" data-name="Grupo 1095261" transform="translate(43.057 73.453)" opacity="0.2">
          <g id="Grupo_1095260" data-name="Grupo 1095260">
            <g id="Grupo_1095259" data-name="Grupo 1095259" clip-path="url(#clip-path-7)">
              <path id="Trazado_829808" data-name="Trazado 829808" d="M134.323,274.66l-2.192-40.027,37.909-9.226.4,35.812Z" transform="translate(-132.131 -225.407)"/>
            </g>
          </g>
        </g>
        <g id="Grupo_1095264" data-name="Grupo 1095264" transform="translate(43.492 82.766)" opacity="0.2">
          <g id="Grupo_1095263" data-name="Grupo 1095263">
            <g id="Grupo_1095262" data-name="Grupo 1095262" clip-path="url(#clip-path-8)">
              <path id="Trazado_829809" data-name="Trazado 829809" d="M133.465,254.405c.036.305,8.732,15.55,9.544,15.707s28.049-7.821,28.127-7.9-.071-6.331-.071-6.331l-37.211-1.89" transform="translate(-133.465 -253.989)"/>
            </g>
          </g>
        </g>
        <g id="Grupo_1095267" data-name="Grupo 1095267" transform="translate(46.13 68.748)" opacity="0.3">
          <g id="Grupo_1095266" data-name="Grupo 1095266">
            <g id="Grupo_1095265" data-name="Grupo 1095265" clip-path="url(#clip-path-9)">
              <path id="Trazado_829810" data-name="Trazado 829810" d="M141.562,210.971l.3,12.222,30.174-7.343Z" transform="translate(-141.562 -210.971)"/>
            </g>
          </g>
        </g>
      </g>
    </g>
    <path id="Trazado_829811" data-name="Trazado 829811" d="M0,238.519l31.262,8.561,11.8-9.893L11.3,229.4l-.608-.2Z" transform="translate(0 -154.509)" fill="#407bff"/>
    <g id="Grupo_1095274" data-name="Grupo 1095274">
      <g id="Grupo_1095273" data-name="Grupo 1095273" clip-path="url(#clip-path)">
        <g id="Grupo_1095272" data-name="Grupo 1095272" transform="translate(0 74.687)">
          <g id="Grupo_1095271" data-name="Grupo 1095271">
            <g id="Grupo_1095270" data-name="Grupo 1095270" clip-path="url(#clip-path-11)">
              <path id="Trazado_829812" data-name="Trazado 829812" d="M11.3,229.395l-.608-.2L0,238.519l31.262,8.561,11.8-9.893Z" transform="translate(0 -229.196)" fill="#e1f6ef"/>
            </g>
          </g>
        </g>
      </g>
    </g>
    <path id="Trazado_829813" data-name="Trazado 829813" d="M132.131,234.633l10.583,12.272,38.072-11.649-10.746-9.85Z" transform="translate(-89.074 -151.955)" fill="#407bff"/>
    <g id="Grupo_1095279" data-name="Grupo 1095279">
      <g id="Grupo_1095278" data-name="Grupo 1095278" clip-path="url(#clip-path)">
        <g id="Grupo_1095277" data-name="Grupo 1095277" transform="translate(43.057 73.453)" opacity="0.3">
          <g id="Grupo_1095276" data-name="Grupo 1095276">
            <g id="Grupo_1095275" data-name="Grupo 1095275" clip-path="url(#clip-path-13)">
              <path id="Trazado_829814" data-name="Trazado 829814" d="M132.131,234.633l10.583,12.272,38.072-11.649-10.746-9.85Z" transform="translate(-132.131 -225.407)" fill="#e1f6ef"/>
            </g>
          </g>
        </g>
      </g>
    </g>
    <path id="Trazado_829815" data-name="Trazado 829815" d="M142.1,195.613l7.52-6.17,36.649,5.818-9.508,5.9Z" transform="translate(-95.793 -127.71)" fill="#407bff"/>
    <g id="Grupo_1095287" data-name="Grupo 1095287">
      <g id="Grupo_1095286" data-name="Grupo 1095286" clip-path="url(#clip-path)">
        <g id="Grupo_1095282" data-name="Grupo 1095282" transform="translate(46.305 61.733)">
          <g id="Grupo_1095281" data-name="Grupo 1095281">
            <g id="Grupo_1095280" data-name="Grupo 1095280" clip-path="url(#clip-path-15)">
              <path id="Trazado_829816" data-name="Trazado 829816" d="M142.1,195.613l7.52-6.17,36.649,5.818-9.508,5.9Z" transform="translate(-142.098 -189.444)" fill="#bae9d9"/>
            </g>
          </g>
        </g>
        <path id="Trazado_829817" data-name="Trazado 829817" d="M47.16,191.812,37.4,183.8,1.269,188.158S11.23,198.521,11.542,198.6c.477.114,35.783-6.607,35.618-6.784" transform="translate(-0.855 -123.909)" fill="#407bff"/>
        <g id="Grupo_1095285" data-name="Grupo 1095285" transform="translate(0.413 59.896)">
          <g id="Grupo_1095284" data-name="Grupo 1095284">
            <g id="Grupo_1095283" data-name="Grupo 1095283" clip-path="url(#clip-path-16)">
              <path id="Trazado_829818" data-name="Trazado 829818" d="M47.16,191.812,37.4,183.8,1.269,188.158S11.23,198.521,11.542,198.6c.477.114,35.783-6.607,35.618-6.784" transform="translate(-1.269 -183.805)" fill="#bae9d9"/>
            </g>
          </g>
        </g>
        <path id="Trazado_829819" data-name="Trazado 829819" d="M56.986,349.376l5.574,2.235,8.882,3.561,2.035.816c.292.117.419-.356.13-.471l-5.574-2.235-8.882-3.561-2.035-.816c-.292-.117-.419.356-.13.471" transform="translate(-38.306 -235.196)" fill="#407bff"/>
        <path id="Trazado_829820" data-name="Trazado 829820" d="M51.353,346.758l-1.045-.384-.15-.055a.246.246,0,0,0-.3.171.251.251,0,0,0,.171.3l1.045.384.15.055a.245.245,0,0,0,.3-.17.251.251,0,0,0-.17-.3" transform="translate(-33.606 -233.458)" fill="#407bff"/>
      </g>
    </g>
    <g id="Grupo_1095313" data-name="Grupo 1095313">
      <g id="Grupo_1095312" data-name="Grupo 1095312" clip-path="url(#clip-path)">
        <path id="Trazado_829821" data-name="Trazado 829821" d="M82.168,0A24.888,24.888,0,0,0,66.237,44.085c1.059.858,2.673,1.894,2.655,4.068,0,.066.155,5.438.155,5.438l26.177-.214s.065-5.583.065-5.646c-.016-1.914,1.46-2.752,2.543-3.623A24.854,24.854,0,0,0,82.168,0" transform="translate(-38.554 0)" fill="#407bff"/>
        <g id="Grupo_1095290" data-name="Grupo 1095290" transform="translate(18.637)">
          <g id="Grupo_1095289" data-name="Grupo 1095289">
            <g id="Grupo_1095288" data-name="Grupo 1095288" clip-path="url(#clip-path-18)">
              <path id="Trazado_829822" data-name="Trazado 829822" d="M82.168,0A24.888,24.888,0,0,0,66.237,44.085c1.059.858,2.673,1.894,2.655,4.068,0,.066.155,5.438.155,5.438l26.177-.214s.065-5.583.065-5.646c-.016-1.914,1.46-2.752,2.543-3.623A24.854,24.854,0,0,0,82.168,0" transform="translate(-57.191 0)" fill="#ffce00"/>
            </g>
          </g>
        </g>
        <path id="Trazado_829823" data-name="Trazado 829823" d="M108.691,94.475a68.766,68.766,0,0,0,3.066-25.522,27.983,27.983,0,0,0-.281-2.839,5.033,5.033,0,0,0-.781-2.143,1.549,1.549,0,0,0-1.642-.672,2.643,2.643,0,0,0-1.5,1.543,11.011,11.011,0,0,0-.7,5.662,17.534,17.534,0,0,0,1.563,5.548,18.133,18.133,0,0,0,3.077,4.694,6.156,6.156,0,0,0,4.5,2.328,7.135,7.135,0,0,0,4.679-2.442,15.018,15.018,0,0,0,2.892-4.363,18.649,18.649,0,0,0,1.476-5.335,14.067,14.067,0,0,0-.281-5.514c-.363-1.259-1.191-3.081-2.746-3.086-1.781-.005-2.6,2.2-2.8,3.639a16.853,16.853,0,0,0-.062,3.117q.076,1.7.2,3.394.235,3.338.636,6.662a130.14,130.14,0,0,0,2.264,13.134q.357,1.575.754,3.142a.367.367,0,0,0,.707-.2,129.976,129.976,0,0,1-3.726-24.241c-.058-.985-.117-1.973-.137-2.96a9.189,9.189,0,0,1,.319-2.982,3.015,3.015,0,0,1,1.344-1.859,1.31,1.31,0,0,1,1.571.464,7.307,7.307,0,0,1,1.343,4.511,17.139,17.139,0,0,1-.577,5.135c-.841,3.159-2.622,6.573-5.52,8.294a4.291,4.291,0,0,1-4.63.077,11.548,11.548,0,0,1-3.459-3.794,16.241,16.241,0,0,1-2.659-10.132,7.8,7.8,0,0,1,.638-2.585c.243-.5.758-1.387,1.448-1.129.591.22.827,1.061.967,1.6a14.216,14.216,0,0,1,.331,2.424,68.361,68.361,0,0,1-2.169,23.519q-.372,1.362-.8,2.707c-.144.45.564.643.707.195" transform="translate(-71.972 -42.022)" fill="#263238"/>
        <path id="Trazado_829824" data-name="Trazado 829824" d="M115.269,162.073l-28.881.236a1.575,1.575,0,0,1-1.589-1.563v-.008a1.575,1.575,0,0,1,1.563-1.588l28.882-.236a1.576,1.576,0,0,1,1.589,1.563v.008a1.576,1.576,0,0,1-1.563,1.588" transform="translate(-57.166 -107.129)" fill="#263238"/>
        <g id="Grupo_1095293" data-name="Grupo 1095293" transform="translate(27.633 51.785)" opacity="0.3">
          <g id="Grupo_1095292" data-name="Grupo 1095292">
            <g id="Grupo_1095291" data-name="Grupo 1095291" clip-path="url(#clip-path-19)">
              <path id="Trazado_829825" data-name="Trazado 829825" d="M115.269,162.073l-28.881.236a1.575,1.575,0,0,1-1.589-1.563v-.008a1.575,1.575,0,0,1,1.563-1.588l28.882-.236a1.576,1.576,0,0,1,1.589,1.563v.008a1.576,1.576,0,0,1-1.563,1.588" transform="translate(-84.799 -158.914)" fill="#fff"/>
            </g>
          </g>
        </g>
        <path id="Trazado_829826" data-name="Trazado 829826" d="M115.945,170.806,88,171.034a1.524,1.524,0,0,1-1.537-1.512v-.008a1.524,1.524,0,0,1,1.512-1.537l27.945-.228a1.525,1.525,0,0,1,1.537,1.512v.008a1.525,1.525,0,0,1-1.512,1.537" transform="translate(-58.288 -113.085)" fill="#263238"/>
        <g id="Grupo_1095296" data-name="Grupo 1095296" transform="translate(28.175 54.664)" opacity="0.3">
          <g id="Grupo_1095295" data-name="Grupo 1095295">
            <g id="Grupo_1095294" data-name="Grupo 1095294" clip-path="url(#clip-path-20)">
              <path id="Trazado_829827" data-name="Trazado 829827" d="M115.945,170.806,88,171.034a1.524,1.524,0,0,1-1.537-1.512v-.008a1.524,1.524,0,0,1,1.512-1.537l27.945-.228a1.525,1.525,0,0,1,1.537,1.512v.008a1.525,1.525,0,0,1-1.512,1.537" transform="translate(-86.463 -167.749)" fill="#fff"/>
            </g>
          </g>
        </g>
        <path id="Trazado_829828" data-name="Trazado 829828" d="M104,189.995c1.993,3.575,6.155,7.326,10.239,7.051s7.889-3.778,9.386-7.588Z" transform="translate(-70.111 -127.72)" fill="#263238"/>
        <path id="Trazado_829829" data-name="Trazado 829829" d="M118.106,187.768l-24.161.2a1.525,1.525,0,0,1-1.537-1.512v-.008a1.524,1.524,0,0,1,1.512-1.537l24.161-.2a1.525,1.525,0,0,1,1.537,1.512v.008a1.525,1.525,0,0,1-1.512,1.537" transform="translate(-62.295 -124.52)" fill="#263238"/>
        <g id="Grupo_1095299" data-name="Grupo 1095299" transform="translate(30.112 60.191)" opacity="0.3">
          <g id="Grupo_1095298" data-name="Grupo 1095298">
            <g id="Grupo_1095297" data-name="Grupo 1095297" clip-path="url(#clip-path-21)">
              <path id="Trazado_829830" data-name="Trazado 829830" d="M118.106,187.768l-24.161.2a1.525,1.525,0,0,1-1.537-1.512v-.008a1.524,1.524,0,0,1,1.512-1.537l24.161-.2a1.525,1.525,0,0,1,1.537,1.512v.008a1.525,1.525,0,0,1-1.512,1.537" transform="translate(-92.408 -184.711)" fill="#fff"/>
            </g>
          </g>
        </g>
        <path id="Trazado_829831" data-name="Trazado 829831" d="M116.461,179.126l-27.108.222a1.525,1.525,0,0,1-1.537-1.512v-.008a1.525,1.525,0,0,1,1.512-1.537l27.108-.222a1.525,1.525,0,0,1,1.537,1.512v.008a1.525,1.525,0,0,1-1.512,1.537" transform="translate(-59.2 -118.694)" fill="#263238"/>
        <g id="Grupo_1095302" data-name="Grupo 1095302" transform="translate(28.616 57.375)" opacity="0.3">
          <g id="Grupo_1095301" data-name="Grupo 1095301">
            <g id="Grupo_1095300" data-name="Grupo 1095300" clip-path="url(#clip-path-22)">
              <path id="Trazado_829832" data-name="Trazado 829832" d="M116.461,179.126l-27.108.222a1.525,1.525,0,0,1-1.537-1.512v-.008a1.525,1.525,0,0,1,1.512-1.537l27.108-.222a1.525,1.525,0,0,1,1.537,1.512v.008a1.525,1.525,0,0,1-1.512,1.537" transform="translate(-87.816 -176.069)" fill="#fff"/>
            </g>
          </g>
        </g>
        <path id="Trazado_829833" data-name="Trazado 829833" d="M88.147,168.4c7.71-.152,15.422-.123,23.132-.194q3.281-.031,6.561-.092a.245.245,0,0,0,0-.489c-7.71.152-15.422.123-23.132.194q-3.281.031-6.561.092a.245.245,0,0,0,0,.489" transform="translate(-59.264 -112.999)" fill="#263238"/>
        <path id="Trazado_829834" data-name="Trazado 829834" d="M89.645,176.747c7.426-.146,14.854-.111,22.28-.178q3.19-.028,6.378-.089a.245.245,0,0,0,0-.489c-7.426.146-14.853.111-22.28.178q-3.189.029-6.379.089a.245.245,0,0,0,0,.489" transform="translate(-60.274 -118.641)" fill="#263238"/>
        <path id="Trazado_829835" data-name="Trazado 829835" d="M93.264,185.525c7-.138,13.992-.119,20.989-.14q2.451-.007,4.9-.032a.245.245,0,0,0,0-.489c-6.511.076-13.024.022-19.536.082q-3.178.029-6.356.09a.245.245,0,0,0,0,.489" transform="translate(-62.713 -124.623)" fill="#263238"/>
        <g id="Grupo_1095305" data-name="Grupo 1095305" transform="translate(18.828 4.483)" opacity="0.2">
          <g id="Grupo_1095304" data-name="Grupo 1095304">
            <g id="Grupo_1095303" data-name="Grupo 1095303" clip-path="url(#clip-path-23)">
              <path id="Trazado_829836" data-name="Trazado 829836" d="M57.777,37.231S68.663,54.644,75.571,48.1,74.512,28.8,86.436,23.149s10.289-9.392,10.289-9.392a19.9,19.9,0,0,1,6.492,7.076s-16.253,2.45-18.6,7.1,7.611,21.721-4.745,26.025S60.636,46.1,60.636,46.1s-2.679-5.106-2.859-8.867" transform="translate(-57.777 -13.757)" fill="#fff"/>
            </g>
          </g>
        </g>
        <g id="Grupo_1095308" data-name="Grupo 1095308" transform="translate(19.71)" opacity="0.2">
          <g id="Grupo_1095307" data-name="Grupo 1095307">
            <g id="Grupo_1095306" data-name="Grupo 1095306" clip-path="url(#clip-path-24)">
              <path id="Trazado_829837" data-name="Trazado 829837" d="M76.757,5.375C82.355,2.452,85.568.729,86.7.117,85.941.044,85.17,0,84.39,0A24.9,24.9,0,0,0,60.6,17.275c-.037.123-.077.242-.114.366,0,0,.086,12.964,6.634,6.488S69.6,9.113,76.757,5.375" transform="translate(-60.486 0)" fill="#fff"/>
            </g>
          </g>
        </g>
        <g id="Grupo_1095311" data-name="Grupo 1095311" transform="translate(30.398 45.591)" opacity="0.2">
          <g id="Grupo_1095310" data-name="Grupo 1095310">
            <g id="Grupo_1095309" data-name="Grupo 1095309" clip-path="url(#clip-path-25)">
              <path id="Trazado_829838" data-name="Trazado 829838" d="M120.425,139.906a9.715,9.715,0,0,0-5.3,3.246c-2.252,2.721-21.845,1.475-21.845,1.475l.048,1.67v.029l26.241-.214V146.1l.046-4.052a3.059,3.059,0,0,1,.693-2,1.051,1.051,0,0,1,.111-.135" transform="translate(-93.284 -139.906)" fill="#fff"/>
            </g>
          </g>
        </g>
      </g>
    </g>
  </g>
</svg>
