<svg xmlns="http://www.w3.org/2000/svg" width="105" height="100" viewBox="0 0 105 100">
  <g id="_66" data-name="66" transform="translate(-950 -12087)">
    <rect id="Rectángulo_383482" data-name="Rectángulo 383482" width="105" height="100" rx="10" transform="translate(950 12087)" fill="#fff"/>
    <g id="noun-table-5813916_1_" data-name="noun-table-5813916 (1)" transform="translate(967 12101)">
      <g id="Layer_31" data-name="Layer 31" transform="translate(3 3)">
        <path id="Trazado_829597" data-name="Trazado 829597" d="M61.791,3H9.209A6.209,6.209,0,0,0,3,9.209V61.791A6.209,6.209,0,0,0,9.209,68H61.791A6.209,6.209,0,0,0,68,61.791V9.209A6.209,6.209,0,0,0,61.791,3ZM47.077,17.793H65.759V28.1H47.077Zm-20.912,0H44.835V28.1H26.165Zm0,12.552H44.835v10.31H26.165ZM5.241,17.793H23.923V28.1H5.241ZM23.923,65.759H9.209a3.978,3.978,0,0,1-3.967-3.967V55.448H23.923Zm0-12.552H5.241V42.9H23.923ZM44.835,65.759H26.165V55.448H44.835Zm20.923-3.967a3.978,3.978,0,0,1-3.967,3.967H47.077V55.448H65.759Zm0-8.584H47.077V42.9H65.759Z" transform="translate(-3 -3)" fill="#273a89"/>
      </g>
    </g>
  </g>
</svg>
