<svg xmlns="http://www.w3.org/2000/svg" xmlns:xlink="http://www.w3.org/1999/xlink" width="505" height="427" viewBox="0 0 505 427">
  <defs>
    <clipPath id="clip-path">
      <rect id="Rectángulo_383111" data-name="Rectángulo 383111" width="435.334" height="376.081" fill="#bae9d9"/>
    </clipPath>
    <clipPath id="clip-path-4">
      <rect id="Rectángulo_383485" data-name="Rectángulo 383485" width="348.864" height="342.056" fill="none"/>
    </clipPath>
    <clipPath id="clip-path-5">
      <rect id="Rectángulo_383486" data-name="Rectángulo 383486" width="97.011" height="111.691" fill="none"/>
    </clipPath>
  </defs>
  <g id="_67" data-name="67" transform="translate(-180 -12588)">
    <g id="Grupo_1074816" data-name="Grupo 1074816" transform="translate(231.479 12618.177)">
      <g id="Grupo_1074815" data-name="Grupo 1074815" clip-path="url(#clip-path)">
        <g id="Grupo_1074814" data-name="Grupo 1074814">
          <g id="Grupo_1074813" data-name="Grupo 1074813" clip-path="url(#clip-path)">
            <path id="Trazado_824663" data-name="Trazado 824663" d="M31.982,37.349a104.673,104.673,0,0,1,11.675-11.9C73.911-.753,117.146-5.745,154.514,6s69.342,38.41,95.233,69.489c11.83,14.2,23.068,29.834,38.9,38.518,20.414,11.2,44.062,8.852,66.131,12.146,80.249,11.98,106.4,124.532,51.571,183.1-21.615,23.086-51.786,36.105-80.386,45.878-39.616,13.538-81.059,22.408-122.624,20.751s-83.391-14.348-116.868-40.708C42.623,300.65,16.261,245.2,5.289,188.218c-5.553-28.837-7.527-58.843-2.017-87.689,4.429-23.192,14-45.634,28.71-63.179" transform="translate(0 0)" fill="#bae9d9"/>
            <g id="Grupo_1074812" data-name="Grupo 1074812" transform="translate(0)" opacity="0.7">
              <g id="Grupo_1074811" data-name="Grupo 1074811">
                <g id="Grupo_1074810" data-name="Grupo 1074810" clip-path="url(#clip-path)">
                  <path id="Trazado_824664" data-name="Trazado 824664" d="M354.778,126.158c-22.069-3.294-45.717-.948-66.131-12.146-15.832-8.684-27.069-24.318-38.9-38.518C223.856,44.414,191.883,17.753,154.515,6S73.911-.754,43.657,25.45a104.664,104.664,0,0,0-11.674,11.9C17.273,54.895,7.7,77.336,3.273,100.528c-5.51,28.846-3.536,58.853,2.016,87.689C16.261,245.2,42.623,300.65,86.468,335.175c33.478,26.361,75.3,39.051,116.869,40.707s83.009-7.212,122.625-20.75c28.6-9.774,58.771-22.792,80.386-45.878,54.832-58.565,28.678-171.117-51.571-183.1" transform="translate(0 0)" fill="#bae9d9"/>
                </g>
              </g>
            </g>
          </g>
        </g>
      </g>
    </g>
    <g id="Grupo_1095326" data-name="Grupo 1095326" transform="translate(292.568 12672.944)">
      <g id="Grupo_1095325" data-name="Grupo 1095325" clip-path="url(#clip-path-4)">
        <path id="Trazado_829876" data-name="Trazado 829876" d="M94.707,164.442q3.526-10.993,7.513-21.83c15.05,25.836,31.143,51.068,48.619,75.317l-70.315-.16a547.366,547.366,0,0,1,14.183-53.326" transform="translate(34.671 61.404)" fill="#e0dcfd"/>
        <path id="Trazado_829877" data-name="Trazado 829877" d="M77.76,249.89c-14.839-76.279,45.386-146.323,123.073-144.45,27.483.662,58.53,6.04,79.319,23.677,45.225,38.368,50.465,148.34,2.127,159.168C212.933,303.821,135.8,291.9,112.524,290c-8-.652-30.643-18.924-34.764-40.109" transform="translate(32.508 45.383)" fill="#ffce00"/>
        <path id="Trazado_829878" data-name="Trazado 829878" d="M224.083,125.034a154.366,154.366,0,0,1,15.6,61.723,161.106,161.106,0,0,1-10.07,63.424,150.59,150.59,0,0,1-16.8,32.232c-.433.628-1.468.033-1.031-.6a153.176,153.176,0,0,0,24.084-58.429,159.845,159.845,0,0,0-.9-63.735,149.294,149.294,0,0,0-11.921-34.01c-.339-.687.691-1.292,1.031-.6" transform="translate(91.144 53.704)" fill="#9e7035"/>
        <path id="Trazado_829879" data-name="Trazado 829879" d="M226.138,117.874s38.208,14.939,30.9,57.251c-4.356,25.24-46.758,18.6-82.555,16.39S115.566,165.994,128.7,152.89s97.44-35.016,97.44-35.016" transform="translate(53.811 50.753)" fill="#9e7035"/>
        <path id="Trazado_829880" data-name="Trazado 829880" d="M153.926,27.371S146.154,7.582,166.033,8.795c0,0,4.648-8.1,18.2-5.295S208.8,16,206.787,29.235s-4.153,30.822,7.932,35.441,22.131,10.652,22.273,24.676-6.473,22.308,0,30.248-7.589,22.258-24.928,20.311-20.53-56.223-38.6-54.011-19.493-9.6-15.616-20.57-5.223-29.347-3.926-37.959" transform="translate(65.631 1.253)" fill="#273a89"/>
        <path id="Trazado_829881" data-name="Trazado 829881" d="M176.984,13.912s1.705-15.389,16.035-13.8,12.289,25.943,0,24.38-16.035-10.583-16.035-10.583" transform="translate(76.204 0)" fill="#273a89"/>
        <path id="Trazado_829882" data-name="Trazado 829882" d="M176.679,51.561s-12.97,9.207-22.57,13.628c-9.349,4.3.237,16.11-2.256,20s-8.221,12.572-7.038,19.326S155.69,117.27,154.484,121s-9.442,35.264-12.771,45.239c-3.146,9.432,9.449,19.145,27.108,19.241s20.367,2.363,39.517-1.737c17.859-3.824,26.487-10.558,22.258-18.27S219.2,147.015,216.2,132.2s5-25.079,11.708-48.522c8.466-29.6-5.988-33.229-27.154-35.557a50.418,50.418,0,0,0-24.072,3.436" transform="translate(60.809 20.603)" fill="#1574dd"/>
        <path id="Trazado_829883" data-name="Trazado 829883" d="M152.372,61.841s-13.334,20.047-14.529,28.8,16.2,9.425,16.2,9.425,5.389-29.139-1.675-38.226" transform="translate(59.325 26.627)" fill="#1574dd"/>
        <path id="Trazado_829884" data-name="Trazado 829884" d="M147.486,121.856a100.076,100.076,0,0,0,60.161,18.218.616.616,0,0,0,0-1.23,98.973,98.973,0,0,1-59.54-18.051c-.648-.458-1.263.609-.621,1.063" transform="translate(63.386 51.961)" fill="#0559b5"/>
        <path id="Trazado_829885" data-name="Trazado 829885" d="M151.772,71.52c3.782,7.307,14.924,6.169,21.737,5.862A112.745,112.745,0,0,0,205.1,71.3c.757-.26.293-1.415-.464-1.154A111.643,111.643,0,0,1,176.5,75.96a84.017,84.017,0,0,1-13.549.123c-3.8-.339-8.123-1.358-10.023-5.027-.365-.7-1.524-.249-1.154.464" transform="translate(65.317 30.188)" fill="#0559b5"/>
        <path id="Trazado_829886" data-name="Trazado 829886" d="M152.768,98.988a134.011,134.011,0,0,1,42.983,2.758c.781.18.97-1.05.193-1.229a135.132,135.132,0,0,0-43.316-2.765.622.622,0,0,0,.14,1.236" transform="translate(65.488 41.813)" fill="#0559b5"/>
        <path id="Trazado_829887" data-name="Trazado 829887" d="M201.585,69.435c-.249,7-5.081,13.187-8.177,19.205-3.192,6.206-5.94,12.723-7.144,19.633a38.059,38.059,0,0,0,1.72,19.938c2.39,6.462,6.149,12.329,9.6,18.254,1.936,3.32,4.2,6.486,5.875,9.95a20.071,20.071,0,0,1,1.918,11.171c-.084.794,1.143.991,1.229.195.641-6.028-1.263-10.988-4.359-16.055-3.718-6.084-7.579-12.157-10.745-18.553-3.4-6.874-5.239-14.077-4.423-21.773.778-7.357,3.486-14.314,6.771-20.888,3.276-6.556,8.694-13.294,8.962-20.883.029-.791-1.2-.991-1.229-.193" transform="translate(79.938 29.678)" fill="#0559b5"/>
        <path id="Trazado_829888" data-name="Trazado 829888" d="M199.53,48.794a20.556,20.556,0,0,1-6.209,9.124,47.755,47.755,0,0,1-14.713,8.539c-4.538,1.649-10.075,1.745-13.517-2.143-2.273-2.566-3.024-5.8-3.18-9.108.4-.257.777-.511,1.14-.755.069,3.273.681,6.506,2.9,9.038,3.513,4.02,9.213,3.19,13.612,1.325,7.329-3.111,16.264-8.193,18.828-16.2.385.059.765.116,1.142.179" transform="translate(69.713 20.932)" fill="#0559b5"/>
        <path id="Trazado_829889" data-name="Trazado 829889" d="M45.713,202.016,31.6,222.446s3.473,9.066,12.37,10.365l21.491-24.1Z" transform="translate(13.607 86.982)" fill="#ffa189"/>
        <path id="Trazado_829890" data-name="Trazado 829890" d="M0,217.64l49.744,33.036a27.8,27.8,0,0,0,1.654-2.259c.232-.348.432-.705.67-1.05,4.655-6.732,14-21.091,9.483-21.061C54.9,229.7,48.4,222.1,48.4,222.1s-.637-9.838-5.333-10.1-3.33,6.064-9.914,6.543c-5.043.362-8.231-3.891-13.784-6.22a18.232,18.232,0,0,0-5.86-1.4A14.307,14.307,0,0,0,2.574,214.5,12.975,12.975,0,0,0,0,217.64" transform="translate(0 90.794)" fill="#00184c"/>
        <path id="Trazado_829891" data-name="Trazado 829891" d="M47.613,228.242A25.869,25.869,0,0,0,27.7,233.336c-.609.468-1.2-.569-.6-1.031A27.033,27.033,0,0,1,47.93,227.09c.757.122.435,1.273-.318,1.152" transform="translate(11.558 97.626)" fill="#fff"/>
        <path id="Trazado_829892" data-name="Trazado 829892" d="M24.413,215.454a.79.79,0,0,0,.232.066,9.112,9.112,0,0,1,2.176,4c.189.73-.958.959-1.146.232a7.9,7.9,0,0,0-1.868-3.433.535.535,0,0,1,.588-.868l.019.009" transform="translate(10.185 92.742)" fill="#fff"/>
        <path id="Trazado_829893" data-name="Trazado 829893" d="M22.736,215.311a.8.8,0,0,0,.232.066,9.111,9.111,0,0,1,2.176,4c.189.73-.958.958-1.146.232a7.881,7.881,0,0,0-1.868-3.433.535.535,0,0,1,.588-.868l.019.009" transform="translate(9.463 92.68)" fill="#fff"/>
        <path id="Trazado_829894" data-name="Trazado 829894" d="M20.652,214.935a.844.844,0,0,0,.232.067A9.1,9.1,0,0,1,23.06,219c.189.73-.958.958-1.146.232a7.9,7.9,0,0,0-1.868-3.433.535.535,0,0,1,.588-.868l.019.009" transform="translate(8.566 92.518)" fill="#fff"/>
        <path id="Trazado_829895" data-name="Trazado 829895" d="M18.483,213.958a.842.842,0,0,0,.232.067,9.1,9.1,0,0,1,2.176,3.994c.189.73-.958.958-1.146.232a7.9,7.9,0,0,0-1.868-3.433.535.535,0,0,1,.588-.868l.019.009" transform="translate(7.632 92.098)" fill="#fff"/>
        <path id="Trazado_829896" data-name="Trazado 829896" d="M1.8,214.5l11.735,7.794c4.157-3.2,5.15-6.957,5.064-9.971a18.213,18.213,0,0,0-5.861-1.4A14.3,14.3,0,0,0,1.8,214.5" transform="translate(0.775 90.794)" fill="#fff"/>
        <path id="Trazado_829897" data-name="Trazado 829897" d="M0,216.549l49.744,33.036a27.8,27.8,0,0,0,1.654-2.259l.69-1.037L2.574,213.406A12.975,12.975,0,0,0,0,216.549" transform="translate(0 91.886)" fill="#00184c"/>
        <path id="Trazado_829898" data-name="Trazado 829898" d="M228.5,139.755S195.139,120,139.306,110.986c-21.192-3.42-103.137,131.556-103.137,131.556l24.755,18.092c19.5-26.583,59.4-51.854,71.837-84.09,1.067-2.768,29.3,6.878,62.895,14.572,87.353,13.087,39.179-27.588,32.842-51.362" transform="translate(15.573 47.76)" fill="#273a89"/>
        <path id="Trazado_829899" data-name="Trazado 829899" d="M131.032,151.838l-11.276-1.562.734-.418a90.562,90.562,0,0,1-17.576,36.189A107.042,107.042,0,0,1,88.066,200.7c-6.189,5.226-11.944,10.924-18.284,15.977s-11.553,11.2-16.954,17.18c-.515.571-1.358-.276-.844-.845,4.672-5.174,9.191-10.54,14.472-15.118,2.835-2.458,5.834-4.712,8.651-7.2,2.958-2.609,5.835-5.312,8.781-7.938,5.3-4.727,10.814-9.051,15.53-14.4a89.31,89.31,0,0,0,11.794-17.047,88.866,88.866,0,0,0,8.128-21.77.612.612,0,0,1,.734-.416l11.276,1.562c.758.106.435,1.256-.318,1.152" transform="translate(22.314 64.205)" fill="#0d2f78"/>
        <path id="Trazado_829900" data-name="Trazado 829900" d="M189.763,55.661s-11.274,15.871-24.045,6.923l.877-7.459.958-8.14.669-5.7,16.552-10.874Z" transform="translate(71.353 13.095)" fill="#ffa189"/>
        <path id="Trazado_829901" data-name="Trazado 829901" d="M181.318,37.029c-6.429,14.364-12.668,15.424-14.987,15.246l.957-8.138Z" transform="translate(71.617 15.943)" fill="#00184c"/>
        <path id="Trazado_829902" data-name="Trazado 829902" d="M194.05,34.768c-1.272,5.722-2.748,7.675-6.548,13.4a21.1,21.1,0,0,1-12.815,8.445c-11.734,1.694-17.523-2.734-17.087-18.823.272-9.99-2.827-15.357-.546-19.354h0c.159-.189.318-.371.478-.549a22.427,22.427,0,0,1,15.072-7.272c28.64-2.109,23.267,15.942,21.441,24.154" transform="translate(67.259 4.497)" fill="#ffa189"/>
        <path id="Trazado_829903" data-name="Trazado 829903" d="M162.636,36.823a7.521,7.521,0,0,0,7.239-3.017c.448-.621-.462-1.395-.911-.771a6.336,6.336,0,0,1-6.121,2.612.6.6,0,0,0-.206,1.176" transform="translate(69.82 14.125)" fill="#00184c"/>
        <path id="Trazado_829904" data-name="Trazado 829904" d="M162.039,28.587c-.016.808-.521,1.453-1.127,1.442a1.322,1.322,0,0,1-1.069-1.486c.016-.808.521-1.455,1.129-1.442s1.083.678,1.067,1.486" transform="translate(68.823 11.669)" fill="#00184c"/>
        <path id="Trazado_829905" data-name="Trazado 829905" d="M168.432,27.879c-.016.808-.521,1.455-1.127,1.442a1.321,1.321,0,0,1-1.069-1.486c.016-.808.521-1.455,1.127-1.442s1.084.678,1.069,1.486" transform="translate(71.576 11.364)" fill="#00184c"/>
        <path id="Trazado_829906" data-name="Trazado 829906" d="M161.5,11.959c16.749-9.8,31.936.333,35.063,6.676s3.917,17.2.1,15.587-10.406,4.626-13.386.621c-1.652-2.222.87-10.124.87-10.124s-13.377,2.2-11.891-6.5c0,0-7.189-5.764-11.017.076s-3.285,10.077-3.285,10.077c-4.539.422-8.459-9.386,3.549-16.413" transform="translate(66.099 3.393)" fill="#273a89"/>
        <path id="Trazado_829907" data-name="Trazado 829907" d="M163.763,38.829a3.224,3.224,0,0,0,3.358-.619c.464-.469-.286-1.164-.748-.7a2.259,2.259,0,0,1-2.373.322c-.632-.186-.865.81-.236.994" transform="translate(70.351 16.085)" fill="#e87e64"/>
        <path id="Trazado_829908" data-name="Trazado 829908" d="M174.246,29.6c.03.854-1.273,1.6-2.913,1.654s-2.993-.587-3.024-1.441,1.273-1.594,2.913-1.654,2.994.587,3.024,1.441" transform="translate(72.468 12.124)" fill="#e87e64"/>
        <path id="Trazado_829909" data-name="Trazado 829909" d="M162.094,30.64c.03.857-1.276,1.6-2.911,1.655a4.746,4.746,0,0,1-2.014-.333q-.011-1.086.02-2.246c0-.033,0-.064,0-.093a4.943,4.943,0,0,1,1.883-.421c1.637-.059,2.991.585,3.021,1.438" transform="translate(67.671 12.572)" fill="#e87e64"/>
        <path id="Trazado_829910" data-name="Trazado 829910" d="M167.4,24.045a2.393,2.393,0,0,1,3.246.94c.515,1.2,2.472.6,1.951-.614a4.387,4.387,0,0,0-5.811-2.277c-1.2.509-.6,2.466.614,1.951" transform="translate(71.533 9.354)" fill="#00184c"/>
        <path id="Trazado_829911" data-name="Trazado 829911" d="M159.347,25.964c.75-1,1.685-2.433,3.121-2.134,1.289.266,1.762-1.722.472-1.991-2.288-.474-3.824,1.049-5.091,2.732-.783,1.043.707,2.446,1.5,1.393" transform="translate(67.87 9.365)" fill="#00184c"/>
        <path id="Trazado_829912" data-name="Trazado 829912" d="M175.061,34.549a7.147,7.147,0,0,1,.652-6.207c1.462-2.425,4.19-6.176,6.953-5.9,4.06.4,4.677,3.978,4.42,7.651s-2.478,8.555-7.548,7.975a5.178,5.178,0,0,1-4.478-3.519" transform="translate(75.19 9.657)" fill="#ffa189"/>
        <path id="Trazado_829913" data-name="Trazado 829913" d="M178.158,36.764a5.155,5.155,0,1,1,5.375,4.925,5.162,5.162,0,0,1-5.375-4.925m1.157-.05a4,4,0,1,0,3.818-4.167,4,4,0,0,0-3.818,4.167" transform="translate(76.707 13.513)" fill="#fff"/>
        <path id="Trazado_829914" data-name="Trazado 829914" d="M178.992,32.766a9.126,9.126,0,0,1-.013-4.508c.419-1.312,1.737-3.259,3.412-2.821.562.146.888-.7.322-.851a3.693,3.693,0,0,0-3.92,1.937c-1.236,1.923-1.113,4.252-.7,6.4a.455.455,0,0,0,.9-.16" transform="translate(76.557 10.545)" fill="#00184c"/>
        <path id="Trazado_829915" data-name="Trazado 829915" d="M165.7,33.535a6.837,6.837,0,0,1,.212-8.664,5.018,5.018,0,0,1,3.864-1.738c2.96.072,5.3,2.9,5.217,6.295a6.629,6.629,0,0,1-1.655,4.295,5.013,5.013,0,0,1-3.864,1.735c-.133,0-.266-.011-.4-.026a5.062,5.062,0,0,1-3.376-1.9m8.366-4.13c.07-2.887-1.861-5.28-4.313-5.345a4.1,4.1,0,0,0-3.153,1.432,5.908,5.908,0,0,0-.183,7.455,3.975,3.975,0,0,0,6.233.153A5.694,5.694,0,0,0,174.064,29.405Z" transform="translate(70.722 9.96)" fill="#fff"/>
        <path id="Trazado_829916" data-name="Trazado 829916" d="M165.882,31.251a.524.524,0,0,1,.455-.072,7.091,7.091,0,0,0,.062-.742c.083-3.4-2.256-6.223-5.217-6.294a5.018,5.018,0,0,0-3.863,1.737,6.837,6.837,0,0,0-.213,8.665,5.065,5.065,0,0,0,3.376,1.9q.2.021.4.026a5.012,5.012,0,0,0,3.863-1.735,6.114,6.114,0,0,0,.828-1.179,1.561,1.561,0,0,1,.31-2.3m-1.825,2.858a3.975,3.975,0,0,1-6.233-.153,5.91,5.91,0,0,1,.182-7.455,4.1,4.1,0,0,1,3.154-1.432c2.451.064,4.383,2.458,4.313,5.345a5.7,5.7,0,0,1-1.416,3.7" transform="translate(67.023 10.394)" fill="#fff"/>
        <path id="Trazado_829917" data-name="Trazado 829917" d="M164.231,33.145h-.009a1.988,1.988,0,0,1-.361-3.96l.542-1.734a.4.4,0,0,1,.762.237l-.612,1.958a.4.4,0,0,1-.32.275c-.057.009-1.419.24-1.356,1.326.057,1.007,1.335,1.1,1.389,1.1a.4.4,0,0,1-.036.8" transform="translate(69.784 11.699)" fill="#00184c"/>
        <path id="Trazado_829918" data-name="Trazado 829918" d="M162.747,27.471a2.324,2.324,0,0,1,2.535-.629.347.347,0,0,1-.253.647,1.6,1.6,0,0,0-1.722.4c-.3.323-.864-.086-.559-.413" transform="translate(70.036 11.495)" fill="#fff"/>
        <path id="Trazado_829919" data-name="Trazado 829919" d="M171.235,27.06a11.806,11.806,0,0,1,7.741-3.987c.443-.044.556.641.112.687a11.093,11.093,0,0,0-7.293,3.714c-.295.332-.857-.077-.559-.413" transform="translate(73.692 9.933)" fill="#fff"/>
        <path id="Trazado_829920" data-name="Trazado 829920" d="M123.792,208.843l3.6,24.567s8.719,4.266,16.115-.845l-.7-32.282Z" transform="translate(53.301 86.235)" fill="#ffa189"/>
        <path id="Trazado_829921" data-name="Trazado 829921" d="M100.641,247.826h59.715a27.624,27.624,0,0,0,.127-2.8c0-.418-.03-.827-.023-1.245.153-8.184-.007-25.314-3.751-22.79-3.665,6.5-13.28,3.767-13.28,3.767s-5.973-7.842-10.031-5.466.579,6.9-4.638,10.937c-4,3.091-9.01,1.313-14.924,2.443a18.225,18.225,0,0,0-5.658,2.074,14.293,14.293,0,0,0-7.131,9.034,12.961,12.961,0,0,0-.406,4.041" transform="translate(43.322 94.229)" fill="#00184c"/>
        <path id="Trazado_829922" data-name="Trazado 829922" d="M146.437,226.665a25.866,25.866,0,0,0-13.848,15.208c-.246.724-1.4.413-1.152-.318a27.026,27.026,0,0,1,14.4-15.922c.694-.315,1.3.714.6,1.031" transform="translate(56.578 97.125)" fill="#fff"/>
        <path id="Trazado_829923" data-name="Trazado 829923" d="M120.824,225.607a.8.8,0,0,0,.232-.073,9.109,9.109,0,0,1,4.021,2.124c.561.5-.268,1.329-.828.827a7.875,7.875,0,0,0-3.452-1.827.535.535,0,0,1,.007-1.049l.02,0" transform="translate(51.828 97.108)" fill="#fff"/>
        <path id="Trazado_829924" data-name="Trazado 829924" d="M119.349,226.416a.791.791,0,0,0,.23-.073,9.122,9.122,0,0,1,4.023,2.124c.559.5-.269,1.329-.828.827a7.888,7.888,0,0,0-3.453-1.827.535.535,0,0,1,.009-1.049l.02,0" transform="translate(51.193 97.456)" fill="#fff"/>
        <path id="Trazado_829925" data-name="Trazado 829925" d="M117.406,227.256a.776.776,0,0,0,.23-.073,9.106,9.106,0,0,1,4.023,2.124c.561.5-.269,1.329-.828.827a7.88,7.88,0,0,0-3.453-1.827.535.535,0,0,1,.009-1.049l.02,0" transform="translate(50.356 97.818)" fill="#fff"/>
        <path id="Trazado_829926" data-name="Trazado 829926" d="M115.057,227.642a.791.791,0,0,0,.23-.073,9.094,9.094,0,0,1,4.021,2.124c.562.5-.268,1.329-.827.827a7.88,7.88,0,0,0-3.453-1.827.535.535,0,0,1,.009-1.049l.02,0" transform="translate(49.345 97.984)" fill="#fff"/>
        <path id="Trazado_829927" data-name="Trazado 829927" d="M100.918,239.622h14.088c1.692-4.964.441-8.643-1.3-11.107a18.2,18.2,0,0,0-5.658,2.073,14.3,14.3,0,0,0-7.131,9.034" transform="translate(43.452 98.391)" fill="#fff"/>
        <path id="Trazado_829928" data-name="Trazado 829928" d="M100.641,240.32h59.715a27.624,27.624,0,0,0,.127-2.8V236.28H101.048a12.961,12.961,0,0,0-.406,4.041" transform="translate(43.322 101.734)" fill="#00184c"/>
        <path id="Trazado_829929" data-name="Trazado 829929" d="M245.631,141.527s-52.878-21.25-108.72-30.215S125.394,250.86,125.394,250.86l30.514-4.246s-3.983-75.086-2.3-78.449c1.328-2.654,17.171,26.314,61.516,27.508,58.218,1.522,39.588-39,30.51-54.146" transform="translate(46.807 47.76)" fill="#273a89"/>
        <path id="Trazado_829930" data-name="Trazado 829930" d="M138.131,223.715q-2.5-22.169-3.851-44.446-.689-10.991-1.127-22c-.18-4.541-1.22-11.844,4.144-13.964,5.468-2.162,10.05,2.691,13.63,6.041a59.368,59.368,0,0,0,16.316,10.645c12.022,5.4,25.577,7.781,38.664,8.621,7.968.512,16.35.079,23.623-3.529,6.181-3.067,11.362-8.217,13.226-14.987a.6.6,0,0,1,1.152.318c-3.142,11.409-14.483,17.672-25.547,19.121-6.828.9-13.759.322-20.563-.521a132.36,132.36,0,0,1-18.294-3.453,81.213,81.213,0,0,1-16.866-6.492,67.464,67.464,0,0,1-14.663-10.9c-2.519-2.369-5.805-4.888-9.5-3.986-3.765.918-4.31,5.02-4.286,8.284.051,7.169.565,14.367.974,21.523.951,16.606,2.307,33.191,4.169,49.719.086.762-1.109.757-1.195,0" transform="translate(57.246 61.473)" fill="#0d2f78"/>
        <path id="Trazado_829931" data-name="Trazado 829931" d="M185.541,125.209A61.272,61.272,0,0,0,197.29,142.6a56.5,56.5,0,0,0,8.169,7.054c2.857,2,7.92,4.137,10.06-.026.352-.684,1.382-.08,1.031.6-1.409,2.741-4.681,3.492-7.485,2.664-3.708-1.094-7.048-4.21-9.848-6.761a62.036,62.036,0,0,1-14.708-20.317c-.313-.694.715-1.3,1.031-.6" transform="translate(79.419 53.778)" fill="#0d2f78"/>
        <path id="Trazado_829932" data-name="Trazado 829932" d="M110.155,173.18Q108.43,155.393,106.7,137.6c-.817-8.436-1.353-19.994,8.229-23.742.717-.28,1.027.874.318,1.15-10.347,4.049-7.8,17.994-6.968,26.544q1.534,15.813,3.07,31.623c.073.764-1.122.76-1.195,0" transform="translate(45.767 49.007)" fill="#0d2f78"/>
        <path id="Trazado_829933" data-name="Trazado 829933" d="M39.82,198.794a274.621,274.621,0,0,0,23.858,16.822c.649.408.051,1.442-.6,1.031a277.724,277.724,0,0,1-24.1-17.009c-.6-.475.247-1.315.844-.844" transform="translate(16.693 85.535)" fill="#0d2f78"/>
        <path id="Trazado_829934" data-name="Trazado 829934" d="M119.4,201.663l30.325-2.727c.764-.069.761,1.126,0,1.195L119.4,202.857c-.765.069-.76-1.126,0-1.195" transform="translate(51.164 85.654)" fill="#0d2f78"/>
        <path id="Trazado_829935" data-name="Trazado 829935" d="M203.685,74.856s.193,36.4-2.363,41.75-49.705,7.428-49.705,7.428l-1.961,7.07s49.166,17.284,67.715,4.728c13.16-8.907,13.693-65.247,13.693-65.247Z" transform="translate(64.437 30.391)" fill="#ffa189"/>
        <path id="Trazado_829936" data-name="Trazado 829936" d="M185.979,103.888a32.743,32.743,0,0,1,7.525,2.6c.688.336,1.293-.694.6-1.031a34.19,34.19,0,0,0-7.811-2.724c-.75-.162-1.069.989-.318,1.152" transform="translate(79.892 44.228)" fill="#e87e64"/>
        <path id="Trazado_829937" data-name="Trazado 829937" d="M188.434,104.824a24.948,24.948,0,0,1,6.978-1.926c.751-.1.761-1.29,0-1.195a27.048,27.048,0,0,0-7.581,2.089c-.7.308-.1,1.336.6,1.031" transform="translate(80.74 43.788)" fill="#e87e64"/>
        <path id="Trazado_829938" data-name="Trazado 829938" d="M211.049,59.519a63.483,63.483,0,0,1,7.739,36.365l-33.145-1.059s-3.867-15.467-2.551-28.777c.835-8.437,5.01-12.43,9.7-14.188,7.552-2.835,14.234.67,18.257,7.659" transform="translate(78.716 21.905)" fill="#1574dd"/>
        <path id="Trazado_829939" data-name="Trazado 829939" d="M185.986,60.89a69.079,69.079,0,0,0,1.831,28.922.6.6,0,0,1-1.152.318,70.511,70.511,0,0,1-1.831-29.557c.113-.757,1.265-.435,1.152.318" transform="translate(79.245 25.894)" fill="#0559b5"/>
        <path id="Trazado_829940" data-name="Trazado 829940" d="M214.359,128.657l-117.866-9.47L94.12,106.6l117.867,9.47Z" transform="translate(40.525 45.897)" fill="#3ee2a8"/>
        <path id="Trazado_829941" data-name="Trazado 829941" d="M171.286,136.683,105.4,131.39a5.216,5.216,0,0,1-4.6-4.538L92,71.492c-.572-3.6,2.144-6.858,5.492-6.589l66.71,5.36a6.8,6.8,0,0,1,6,5.921l8.249,51.9c.747,4.7-2.8,8.95-7.167,8.6" transform="translate(39.58 27.938)"/>
        <path id="Trazado_829942" data-name="Trazado 829942" d="M167.5,136.378l-65.888-5.295a5.214,5.214,0,0,1-4.6-4.536l-8.8-55.36c-.572-3.6,2.144-6.858,5.492-6.589l66.71,5.36a6.8,6.8,0,0,1,6,5.921l8.249,51.9c.747,4.7-2.8,8.95-7.167,8.6" transform="translate(37.949 27.807)" fill="#3ee2a8"/>
        <path id="Trazado_829943" data-name="Trazado 829943" d="M127.348,95.542c.345,4.471-2.535,7.841-6.432,7.528s-7.336-4.192-7.681-8.661,2.535-7.841,6.432-7.529,7.336,4.192,7.681,8.662" transform="translate(48.743 37.399)" fill="#0d2f78"/>
        <path id="Trazado_829944" data-name="Trazado 829944" d="M143.511,72.231l8.6,55.542c.117.751-1.033,1.076-1.15.318q-4.3-27.772-8.6-55.542c-.116-.752,1.034-1.076,1.152-.318" transform="translate(61.292 30.914)" fill="#0d2f78"/>
      </g>
    </g>
    <g id="Grupo_1095328" data-name="Grupo 1095328" transform="translate(341.316 12679.309)">
      <g id="Grupo_1095327" data-name="Grupo 1095327" clip-path="url(#clip-path-5)">
        <path id="Trazado_829945" data-name="Trazado 829945" d="M97.011,2.843v106a2.844,2.844,0,0,1-2.843,2.843H2.843A2.844,2.844,0,0,1,0,108.848v-106A2.844,2.844,0,0,1,2.843,0H94.167a2.844,2.844,0,0,1,2.843,2.843" transform="translate(0 0)" fill="#273a89"/>
        <path id="Trazado_829946" data-name="Trazado 829946" d="M72.912,108.917H35.641a1.157,1.157,0,1,0,0,2.314H72.977a1.157,1.157,0,0,0,1.156-1.219,1.2,1.2,0,0,0-1.221-1.095" transform="translate(-5.223 -16.497)" fill="#fcfbff"/>
        <path id="Trazado_829947" data-name="Trazado 829947" d="M72.912,101.718H35.641a1.157,1.157,0,1,0,0,2.314H72.977a1.157,1.157,0,0,0,1.156-1.219,1.2,1.2,0,0,0-1.221-1.095" transform="translate(-5.223 -15.406)" fill="#fcfbff"/>
        <path id="Trazado_829948" data-name="Trazado 829948" d="M72.912,116.674H35.641a1.157,1.157,0,1,0,0,2.314H72.977a1.157,1.157,0,0,0,1.156-1.219,1.2,1.2,0,0,0-1.221-1.095" transform="translate(-5.223 -17.672)" fill="#fcfbff"/>
        <path id="Trazado_829949" data-name="Trazado 829949" d="M97.011,2.843v11.68H0V2.843A2.844,2.844,0,0,1,2.843,0H94.167a2.844,2.844,0,0,1,2.843,2.843" transform="translate(0 0)" fill="#fcfbff"/>
        <path id="Trazado_829950" data-name="Trazado 829950" d="M75.226,53.859a18.45,18.45,0,0,1-.664,4.9c3.553-.371,7.091-.857,10.622-1.4A28.689,28.689,0,0,0,56.716,25.177q-1.171,0-2.321.094c-.025,3.418-.1,6.836-.184,10.253A18.479,18.479,0,0,1,75.226,53.859" transform="translate(-8.211 -3.813)" fill="#fcfbff"/>
        <path id="Trazado_829951" data-name="Trazado 829951" d="M69.525,59.97A18.508,18.508,0,1,1,48.406,35.748c.09-3.442.161-6.883.188-10.325a28.682,28.682,0,1,0,31.75,33.141c-3.6.547-7.2,1.037-10.819,1.405" transform="translate(-3.538 -3.851)" fill="#ffce00"/>
      </g>
    </g>
    <rect id="Rectángulo_383487" data-name="Rectángulo 383487" width="505" height="411" transform="translate(180 12588)" fill="none"/>
  </g>
</svg>
