<svg xmlns="http://www.w3.org/2000/svg" width="74" height="78" viewBox="0 0 74 78">
  <g id="Grupo_1095374" data-name="Grupo 1095374" transform="translate(-446 -11433)">
    <g id="Grupo_1095372" data-name="Grupo 1095372" transform="translate(76 8743)">
      <rect id="Rectángulo_383321" data-name="Rectángulo 383321" width="74" height="78" rx="8" transform="translate(370 2690)" fill="#ffce00"/>
    </g>
    <g id="noun-conclusion-6586597" transform="translate(466 11445.704)">
      <g id="Grupo_1095373" data-name="Grupo 1095373" transform="translate(1.653 0.296)">
        <path id="Trazado_829971" data-name="Trazado 829971" d="M11.447,36.579V33.359A12.528,12.528,0,0,1,6.68,28.967a12.459,12.459,0,1,1,16.306,4.393v3.219h.388a1.858,1.858,0,0,1,1.316.546l.049.054a1.851,1.851,0,0,1,.5,1.261v1a1.859,1.859,0,0,1-.546,1.317,1.879,1.879,0,0,1-.311.25,1.737,1.737,0,0,1,.076.51v.89a1.751,1.751,0,0,1-1.745,1.745H21.249a4.054,4.054,0,0,1-3.663,3.616h-.006a3.5,3.5,0,0,1-.363.019l-.438-.026a4.056,4.056,0,0,1-3.595-3.61H11.721a1.742,1.742,0,0,1-1.233-.511l-.051-.057a1.739,1.739,0,0,1-.46-1.177v-.89A1.726,1.726,0,0,1,10.053,41a1.911,1.911,0,0,1-.308-.248A1.863,1.863,0,0,1,9.2,39.439v-1a1.871,1.871,0,0,1,1.862-1.861h.389ZM31.487,4.894A.764.764,0,1,1,32.54,6l-5.479,5.207A.764.764,0,0,1,26.008,10.1ZM1.89,6A.764.764,0,0,1,2.943,4.894L8.424,10.1a.764.764,0,1,1-1.053,1.107L1.89,6Zm14.56-4.94a.766.766,0,1,1,1.532,0V7.368a.766.766,0,0,1-1.532,0Zm-4.619,22.7a.766.766,0,1,1,1.083-1.083L15.7,25.46l5.819-5.818A.766.766,0,1,1,22.6,20.724l-6.36,6.36a.767.767,0,0,1-1.083,0l-3.326-3.326Zm.07-8.709a.765.765,0,0,1,.527,1.437,4.449,4.449,0,0,0-2.852,4.943.765.765,0,0,1-1.508.257A6,6,0,0,1,11.9,15.049Zm7.8,29.1H14.728a2.527,2.527,0,0,0,2.2,2.091l.284.013.238-.01a2.5,2.5,0,0,0,1.626-.811A2.532,2.532,0,0,0,19.7,44.15ZM22.722,41.3h-11a.214.214,0,0,0-.213.213v.89a.219.219,0,0,0,.045.134l.017.017a.215.215,0,0,0,.15.063h10.99a.215.215,0,0,0,.15-.063.206.206,0,0,0,.063-.151v-.89a.215.215,0,0,0-.2-.213Zm-1.268-4.723V32.888a.77.77,0,0,1,.44-.691,10.932,10.932,0,1,0-9.4-.021.766.766,0,0,1,.482.712v3.691h8.476Zm1.92,1.532H11.058a.332.332,0,0,0-.233.1.318.318,0,0,0-.1.232v1a.328.328,0,0,0,.331.331H23.374a.334.334,0,0,0,.331-.331v-1a.329.329,0,0,0-.075-.21l-.023-.022a.331.331,0,0,0-.233-.1Z" transform="translate(-1.653 -0.296)" fill="#273a89"/>
      </g>
    </g>
  </g>
</svg>
