<svg xmlns="http://www.w3.org/2000/svg" width="1240" height="813" viewBox="0 0 1240 813">
  <g id="Grupo_1095386" data-name="Grupo 1095386" transform="translate(-180 -15311.999)">
    <g id="Grupo_1095364" data-name="Grupo 1095364" transform="translate(0 1051.999)">
      <g id="Rectángulo_383379" data-name="Rectángulo 383379" transform="translate(180 14260)" fill="#fff" stroke="#3ee2a8" stroke-width="1">
        <rect width="1240" height="813" rx="10" stroke="none"/>
        <rect x="0.5" y="0.5" width="1239" height="812" rx="9.5" fill="none"/>
      </g>
      <ellipse id="Elipse_9992" data-name="Elipse 9992" cx="69" cy="31.5" rx="69" ry="31.5" transform="translate(351.242 14615)" fill="#ffe888"/>
      <path id="Trazado_830016" data-name="Trazado 830016" d="M6.313,0a3.036,3.036,0,0,1-.2-.891A3.225,3.225,0,0,1,3.7.156,2.984,2.984,0,0,1,1.652-.551a2.287,2.287,0,0,1-.8-1.793,2.39,2.39,0,0,1,1-2.051,4.733,4.733,0,0,1,2.824-.73H6.086v-.664A1.623,1.623,0,0,0,5.633-7,1.821,1.821,0,0,0,4.3-7.445,2.107,2.107,0,0,0,3-7.055a1.151,1.151,0,0,0-.523.945H1.023a2,2,0,0,1,.449-1.223,3.066,3.066,0,0,1,1.219-.934,4.1,4.1,0,0,1,1.691-.344,3.342,3.342,0,0,1,2.289.73,2.635,2.635,0,0,1,.859,2.012v3.891a4.757,4.757,0,0,0,.3,1.852V0Zm-2.4-1.1A2.54,2.54,0,0,0,5.2-1.453a2.127,2.127,0,0,0,.883-.914V-4.1H4.953Q2.3-4.1,2.3-2.547A1.316,1.316,0,0,0,2.75-1.484,1.742,1.742,0,0,0,3.914-1.1ZM16.938-4.133a5.062,5.062,0,0,1-.883,3.109A2.829,2.829,0,0,1,13.664.156,3.1,3.1,0,0,1,11.242-.82V3.25H9.8v-11.7h1.32l.07.938a2.977,2.977,0,0,1,2.453-1.094,2.882,2.882,0,0,1,2.41,1.148,5.117,5.117,0,0,1,.887,3.2ZM15.492-4.3a3.735,3.735,0,0,0-.609-2.258,1.963,1.963,0,0,0-1.672-.828,2.125,2.125,0,0,0-1.969,1.164V-2.18a2.129,2.129,0,0,0,1.984,1.156,1.954,1.954,0,0,0,1.652-.824A4.077,4.077,0,0,0,15.492-4.3ZM22.281.156a3.693,3.693,0,0,1-2.8-1.129,4.19,4.19,0,0,1-1.078-3.02v-.266a5.073,5.073,0,0,1,.48-2.246A3.748,3.748,0,0,1,20.23-8.051,3.378,3.378,0,0,1,22.1-8.609a3.166,3.166,0,0,1,2.563,1.086,4.7,4.7,0,0,1,.914,3.109v.6H19.852a3,3,0,0,0,.73,2.02,2.3,2.3,0,0,0,1.777.77,2.517,2.517,0,0,0,1.3-.312,3.259,3.259,0,0,0,.93-.828l.883.688A3.55,3.55,0,0,1,22.281.156ZM22.1-7.422a1.928,1.928,0,0,0-1.469.637A3.1,3.1,0,0,0,19.9-5h4.234v-.109a2.753,2.753,0,0,0-.594-1.707A1.815,1.815,0,0,0,22.1-7.422ZM28.82,0H27.375V-12H28.82ZM32.7,0H31.258V-12H32.7Zm3.883,0H35.141V-8.453h1.445ZM35.023-10.7a.863.863,0,0,1,.215-.594.807.807,0,0,1,.637-.242.819.819,0,0,1,.641.242.854.854,0,0,1,.219.594.826.826,0,0,1-.219.586.834.834,0,0,1-.641.234.821.821,0,0,1-.637-.234A.834.834,0,0,1,35.023-10.7Zm3.523,6.4a4.952,4.952,0,0,1,.922-3.129,2.915,2.915,0,0,1,2.414-1.184,2.932,2.932,0,0,1,2.352,1.016V-12H45.68V0H44.352l-.07-.906A2.943,2.943,0,0,1,41.867.156a2.887,2.887,0,0,1-2.395-1.2,5.008,5.008,0,0,1-.926-3.141Zm1.445.164a3.749,3.749,0,0,0,.594,2.25,1.92,1.92,0,0,0,1.641.813A2.108,2.108,0,0,0,44.234-2.3V-6.187a2.125,2.125,0,0,0-1.992-1.2,1.929,1.929,0,0,0-1.656.82A4.128,4.128,0,0,0,39.992-4.133ZM47.539-4.3a4.993,4.993,0,0,1,.488-2.234A3.643,3.643,0,0,1,49.387-8.07a3.7,3.7,0,0,1,1.988-.539,3.565,3.565,0,0,1,2.793,1.2,4.6,4.6,0,0,1,1.066,3.18v.1a5.036,5.036,0,0,1-.473,2.215A3.589,3.589,0,0,1,53.41-.391a3.743,3.743,0,0,1-2.02.547,3.556,3.556,0,0,1-2.785-1.2A4.575,4.575,0,0,1,47.539-4.2Zm1.453.172a3.616,3.616,0,0,0,.652,2.258,2.088,2.088,0,0,0,1.746.852,2.075,2.075,0,0,0,1.75-.863A3.955,3.955,0,0,0,53.789-4.3a3.61,3.61,0,0,0-.66-2.254,2.1,2.1,0,0,0-1.754-.863,2.075,2.075,0,0,0-1.727.852A3.925,3.925,0,0,0,48.992-4.133ZM61.969-2.242a1.064,1.064,0,0,0-.441-.91,4.249,4.249,0,0,0-1.539-.559,7.277,7.277,0,0,1-1.742-.562,2.479,2.479,0,0,1-.953-.781,1.869,1.869,0,0,1-.309-1.078,2.193,2.193,0,0,1,.879-1.758,3.432,3.432,0,0,1,2.246-.719,3.532,3.532,0,0,1,2.332.742,2.357,2.357,0,0,1,.895,1.9H61.883a1.3,1.3,0,0,0-.5-1.023,1.888,1.888,0,0,0-1.27-.43,1.976,1.976,0,0,0-1.234.344,1.082,1.082,0,0,0-.445.9.877.877,0,0,0,.414.789,5.1,5.1,0,0,0,1.5.508,7.8,7.8,0,0,1,1.754.578,2.558,2.558,0,0,1,1,.809,1.988,1.988,0,0,1,.324,1.152,2.163,2.163,0,0,1-.906,1.816,3.8,3.8,0,0,1-2.352.684,4.257,4.257,0,0,1-1.8-.359,2.922,2.922,0,0,1-1.223-1A2.42,2.42,0,0,1,56.7-2.6h1.445a1.5,1.5,0,0,0,.582,1.152,2.258,2.258,0,0,0,1.434.426,2.331,2.331,0,0,0,1.316-.332A1.02,1.02,0,0,0,61.969-2.242Z" transform="translate(388.242 14652)" fill="#12263f"/>
      <ellipse id="Elipse_9999" data-name="Elipse 9999" cx="69" cy="31.5" rx="69" ry="31.5" transform="translate(268.758 14699)" fill="#ffe888"/>
      <path id="Trazado_830017" data-name="Trazado 830017" d="M4.484-1.023a2.082,2.082,0,0,0,1.352-.469,1.649,1.649,0,0,0,.641-1.172H7.844a2.621,2.621,0,0,1-.5,1.383A3.293,3.293,0,0,1,6.113-.234,3.55,3.55,0,0,1,4.484.156,3.482,3.482,0,0,1,1.738-1,4.59,4.59,0,0,1,.719-4.148v-.242a5.089,5.089,0,0,1,.453-2.2,3.451,3.451,0,0,1,1.3-1.492,3.7,3.7,0,0,1,2-.531,3.39,3.39,0,0,1,2.363.852,3.043,3.043,0,0,1,1,2.211H6.477a1.992,1.992,0,0,0-.621-1.348,1.932,1.932,0,0,0-1.379-.527,2.023,2.023,0,0,0-1.707.793,3.724,3.724,0,0,0-.605,2.293v.273a3.65,3.65,0,0,0,.6,2.25A2.033,2.033,0,0,0,4.484-1.023ZM9.086-4.3a4.993,4.993,0,0,1,.488-2.234A3.643,3.643,0,0,1,10.934-8.07a3.7,3.7,0,0,1,1.988-.539,3.565,3.565,0,0,1,2.793,1.2,4.6,4.6,0,0,1,1.066,3.18v.1a5.036,5.036,0,0,1-.473,2.215A3.589,3.589,0,0,1,14.957-.391a3.743,3.743,0,0,1-2.02.547,3.556,3.556,0,0,1-2.785-1.2A4.575,4.575,0,0,1,9.086-4.2Zm1.453.172a3.616,3.616,0,0,0,.652,2.258,2.088,2.088,0,0,0,1.746.852,2.075,2.075,0,0,0,1.75-.863A3.955,3.955,0,0,0,15.336-4.3a3.61,3.61,0,0,0-.66-2.254,2.1,2.1,0,0,0-1.754-.863A2.075,2.075,0,0,0,11.2-6.57,3.925,3.925,0,0,0,10.539-4.133ZM22.68-7.156a4.331,4.331,0,0,0-.711-.055A1.9,1.9,0,0,0,20.039-6V0H18.594V-8.453H20l.023.977a2.251,2.251,0,0,1,2.016-1.133,1.477,1.477,0,0,1,.641.109Zm5.414,0a4.331,4.331,0,0,0-.711-.055A1.9,1.9,0,0,0,25.453-6V0H24.008V-8.453h1.406l.023.977a2.251,2.251,0,0,1,2.016-1.133,1.477,1.477,0,0,1,.641.109ZM32.781.156a3.693,3.693,0,0,1-2.8-1.129,4.19,4.19,0,0,1-1.078-3.02v-.266a5.073,5.073,0,0,1,.48-2.246A3.748,3.748,0,0,1,30.73-8.051,3.378,3.378,0,0,1,32.6-8.609a3.166,3.166,0,0,1,2.563,1.086,4.7,4.7,0,0,1,.914,3.109v.6H30.352a3,3,0,0,0,.73,2.02,2.3,2.3,0,0,0,1.777.77,2.517,2.517,0,0,0,1.3-.312,3.259,3.259,0,0,0,.93-.828l.883.688A3.55,3.55,0,0,1,32.781.156ZM32.6-7.422a1.928,1.928,0,0,0-1.469.637A3.1,3.1,0,0,0,30.4-5h4.234v-.109a2.753,2.753,0,0,0-.594-1.707A1.815,1.815,0,0,0,32.6-7.422ZM37.367-4.3a4.993,4.993,0,0,1,.488-2.234A3.643,3.643,0,0,1,39.215-8.07,3.7,3.7,0,0,1,41.2-8.609,3.565,3.565,0,0,1,44-7.414a4.6,4.6,0,0,1,1.066,3.18v.1a5.036,5.036,0,0,1-.473,2.215A3.589,3.589,0,0,1,43.238-.391a3.743,3.743,0,0,1-2.02.547,3.556,3.556,0,0,1-2.785-1.2A4.575,4.575,0,0,1,37.367-4.2Zm1.453.172a3.616,3.616,0,0,0,.652,2.258,2.088,2.088,0,0,0,1.746.852,2.075,2.075,0,0,0,1.75-.863A3.955,3.955,0,0,0,43.617-4.3a3.61,3.61,0,0,0-.66-2.254A2.1,2.1,0,0,0,41.2-7.422a2.075,2.075,0,0,0-1.727.852A3.925,3.925,0,0,0,38.82-4.133Z" transform="translate(311.242 14733)" fill="#12263f"/>
      <path id="Trazado_829598" data-name="Trazado 829598" d="M-5786.552-8106.016l53.037,46.542" transform="translate(6181.758 22855)" fill="none" stroke="#707070" stroke-width="1"/>
      <path id="Trazado_829599" data-name="Trazado 829599" d="M-5786.552-8059.475l53.037-46.542" transform="translate(6181.758 22934.746)" fill="none" stroke="#707070" stroke-width="1"/>
      <ellipse id="Elipse_9993" data-name="Elipse 9993" cx="69" cy="31.5" rx="69" ry="31.5" transform="translate(268.758 14852)" fill="#ffe888"/>
      <path id="Trazado_830018" data-name="Trazado 830018" d="M4.6.156A3.693,3.693,0,0,1,1.8-.973,4.19,4.19,0,0,1,.727-3.992v-.266A5.073,5.073,0,0,1,1.207-6.5,3.748,3.748,0,0,1,2.551-8.051a3.378,3.378,0,0,1,1.871-.559A3.166,3.166,0,0,1,6.984-7.523,4.7,4.7,0,0,1,7.9-4.414v.6H2.172a3,3,0,0,0,.73,2.02,2.3,2.3,0,0,0,1.777.77,2.517,2.517,0,0,0,1.3-.312,3.259,3.259,0,0,0,.93-.828l.883.688A3.55,3.55,0,0,1,4.6.156Zm-.18-7.578a1.928,1.928,0,0,0-1.469.637A3.1,3.1,0,0,0,2.219-5H6.453v-.109a2.753,2.753,0,0,0-.594-1.707A1.815,1.815,0,0,0,4.422-7.422ZM9.219-4.3a4.952,4.952,0,0,1,.922-3.129,2.915,2.915,0,0,1,2.414-1.184,2.932,2.932,0,0,1,2.352,1.016V-12h1.445V0H15.023l-.07-.906A2.943,2.943,0,0,1,12.539.156a2.887,2.887,0,0,1-2.395-1.2,5.008,5.008,0,0,1-.926-3.141Zm1.445.164a3.749,3.749,0,0,0,.594,2.25A1.92,1.92,0,0,0,12.9-1.07,2.108,2.108,0,0,0,14.906-2.3V-6.187a2.125,2.125,0,0,0-1.992-1.2,1.929,1.929,0,0,0-1.656.82A4.128,4.128,0,0,0,10.664-4.133ZM23.813,0a3.036,3.036,0,0,1-.2-.891A3.225,3.225,0,0,1,21.2.156a2.984,2.984,0,0,1-2.051-.707,2.287,2.287,0,0,1-.8-1.793,2.39,2.39,0,0,1,1-2.051,4.733,4.733,0,0,1,2.824-.73h1.406v-.664A1.623,1.623,0,0,0,23.133-7,1.821,1.821,0,0,0,21.8-7.445a2.108,2.108,0,0,0-1.3.391,1.151,1.151,0,0,0-.523.945H18.523a2,2,0,0,1,.449-1.223,3.066,3.066,0,0,1,1.219-.934,4.1,4.1,0,0,1,1.691-.344,3.342,3.342,0,0,1,2.289.73,2.635,2.635,0,0,1,.859,2.012v3.891a4.757,4.757,0,0,0,.3,1.852V0Zm-2.4-1.1A2.54,2.54,0,0,0,22.7-1.453a2.127,2.127,0,0,0,.883-.914V-4.1H22.453Q19.8-4.1,19.8-2.547a1.316,1.316,0,0,0,.453,1.063A1.742,1.742,0,0,0,21.414-1.1Zm5.531-3.2a4.952,4.952,0,0,1,.922-3.129,2.915,2.915,0,0,1,2.414-1.184,2.932,2.932,0,0,1,2.352,1.016V-12h1.445V0H32.75l-.07-.906A2.943,2.943,0,0,1,30.266.156a2.887,2.887,0,0,1-2.395-1.2,5.008,5.008,0,0,1-.926-3.141Zm1.445.164a3.749,3.749,0,0,0,.594,2.25,1.92,1.92,0,0,0,1.641.813A2.108,2.108,0,0,0,32.633-2.3V-6.187a2.125,2.125,0,0,0-1.992-1.2,1.929,1.929,0,0,0-1.656.82A4.128,4.128,0,0,0,28.391-4.133Z" transform="translate(319.758 14889)" fill="#12263f"/>
      <path id="Trazado_829600" data-name="Trazado 829600" d="M-5786.552-8106.016l131.484,115.383" transform="translate(6210.794 22783.16)" fill="none" stroke="#707070" stroke-width="1"/>
      <path id="Trazado_829601" data-name="Trazado 829601" d="M-5786.552-7990.633l131.484-115.383" transform="translate(6197.794 22943.016)" fill="none" stroke="#707070" stroke-width="1"/>
      <ellipse id="Elipse_9991" data-name="Elipse 9991" cx="69" cy="31.5" rx="69" ry="31.5" transform="translate(351.242 14931)" fill="#ffe888"/>
      <path id="Trazado_830013" data-name="Trazado 830013" d="M8.234-4.133a5.062,5.062,0,0,1-.883,3.109A2.829,2.829,0,0,1,4.961.156,3.1,3.1,0,0,1,2.539-.82V3.25H1.094v-11.7h1.32l.07.938A2.977,2.977,0,0,1,4.938-8.609a2.882,2.882,0,0,1,2.41,1.148,5.117,5.117,0,0,1,.887,3.2ZM6.789-4.3A3.735,3.735,0,0,0,6.18-6.555a1.963,1.963,0,0,0-1.672-.828A2.125,2.125,0,0,0,2.539-6.219V-2.18A2.129,2.129,0,0,0,4.523-1.023a1.954,1.954,0,0,0,1.652-.824A4.077,4.077,0,0,0,6.789-4.3Zm8.5,4.3a3.036,3.036,0,0,1-.2-.891A3.225,3.225,0,0,1,12.68.156a2.984,2.984,0,0,1-2.051-.707,2.287,2.287,0,0,1-.8-1.793,2.39,2.39,0,0,1,1-2.051,4.733,4.733,0,0,1,2.824-.73h1.406v-.664A1.623,1.623,0,0,0,14.609-7a1.821,1.821,0,0,0-1.336-.449,2.107,2.107,0,0,0-1.3.391,1.151,1.151,0,0,0-.523.945H10a2,2,0,0,1,.449-1.223,3.066,3.066,0,0,1,1.219-.934,4.1,4.1,0,0,1,1.691-.344,3.342,3.342,0,0,1,2.289.73,2.635,2.635,0,0,1,.859,2.012v3.891a4.757,4.757,0,0,0,.3,1.852V0Zm-2.4-1.1a2.54,2.54,0,0,0,1.289-.352,2.127,2.127,0,0,0,.883-.914V-4.1H13.93q-2.656,0-2.656,1.555a1.316,1.316,0,0,0,.453,1.063A1.742,1.742,0,0,0,12.891-1.1ZM20.344,0H18.9V-8.453h1.445ZM18.781-10.7A.863.863,0,0,1,19-11.289a.807.807,0,0,1,.637-.242.819.819,0,0,1,.641.242.854.854,0,0,1,.219.594.826.826,0,0,1-.219.586.834.834,0,0,1-.641.234A.821.821,0,0,1,19-10.109.834.834,0,0,1,18.781-10.7Zm8.8,8.453a1.064,1.064,0,0,0-.441-.91A4.249,4.249,0,0,0,25.6-3.711a7.277,7.277,0,0,1-1.742-.562,2.479,2.479,0,0,1-.953-.781,1.869,1.869,0,0,1-.309-1.078,2.193,2.193,0,0,1,.879-1.758,3.432,3.432,0,0,1,2.246-.719,3.532,3.532,0,0,1,2.332.742,2.357,2.357,0,0,1,.895,1.9H27.492a1.3,1.3,0,0,0-.5-1.023,1.888,1.888,0,0,0-1.27-.43,1.976,1.976,0,0,0-1.234.344,1.082,1.082,0,0,0-.445.9.877.877,0,0,0,.414.789,5.1,5.1,0,0,0,1.5.508A7.8,7.8,0,0,1,27.7-4.3a2.558,2.558,0,0,1,1,.809,1.988,1.988,0,0,1,.324,1.152,2.163,2.163,0,0,1-.906,1.816,3.8,3.8,0,0,1-2.352.684,4.257,4.257,0,0,1-1.8-.359,2.922,2.922,0,0,1-1.223-1A2.42,2.42,0,0,1,22.3-2.6H23.75a1.5,1.5,0,0,0,.582,1.152,2.258,2.258,0,0,0,1.434.426,2.331,2.331,0,0,0,1.316-.332A1.02,1.02,0,0,0,27.578-2.242ZM3.539,1H29.813V2H3.539Z" transform="translate(405.242 14968)" fill="#12263f"/>
      <rect id="Rectángulo_383311" data-name="Rectángulo 383311" width="190" height="58" transform="translate(444 14779)" fill="#273a89"/>
      <path id="Trazado_830014" data-name="Trazado 830014" d="M2.82-4.453V0H1.32V-11.375h4.2a4.215,4.215,0,0,1,2.926.953A3.231,3.231,0,0,1,9.5-7.9,3.189,3.189,0,0,1,8.465-5.348,4.4,4.4,0,0,1,5.5-4.453Zm0-1.227h2.7a2.7,2.7,0,0,0,1.844-.566A2.069,2.069,0,0,0,8-7.883a2.138,2.138,0,0,0-.641-1.625A2.528,2.528,0,0,0,5.6-10.141H2.82ZM14.594.156A3.693,3.693,0,0,1,11.8-.973a4.19,4.19,0,0,1-1.078-3.02v-.266A5.073,5.073,0,0,1,11.2-6.5a3.748,3.748,0,0,1,1.344-1.547,3.378,3.378,0,0,1,1.871-.559,3.166,3.166,0,0,1,2.563,1.086,4.7,4.7,0,0,1,.914,3.109v.6H12.164a3,3,0,0,0,.73,2.02,2.3,2.3,0,0,0,1.777.77,2.517,2.517,0,0,0,1.3-.312,3.259,3.259,0,0,0,.93-.828l.883.688A3.55,3.55,0,0,1,14.594.156Zm-.18-7.578a1.928,1.928,0,0,0-1.469.637A3.1,3.1,0,0,0,12.211-5h4.234v-.109a2.753,2.753,0,0,0-.594-1.707A1.815,1.815,0,0,0,14.414-7.422Zm9.234.266a4.331,4.331,0,0,0-.711-.055A1.9,1.9,0,0,0,21.008-6V0H19.563V-8.453h1.406l.023.977a2.251,2.251,0,0,1,2.016-1.133,1.477,1.477,0,0,1,.641.109ZM29.9-2.242a1.064,1.064,0,0,0-.441-.91,4.249,4.249,0,0,0-1.539-.559,7.277,7.277,0,0,1-1.742-.562,2.479,2.479,0,0,1-.953-.781,1.869,1.869,0,0,1-.309-1.078,2.193,2.193,0,0,1,.879-1.758,3.432,3.432,0,0,1,2.246-.719,3.532,3.532,0,0,1,2.332.742,2.357,2.357,0,0,1,.895,1.9H29.813a1.3,1.3,0,0,0-.5-1.023,1.888,1.888,0,0,0-1.27-.43,1.976,1.976,0,0,0-1.234.344,1.082,1.082,0,0,0-.445.9.877.877,0,0,0,.414.789,5.1,5.1,0,0,0,1.5.508,7.8,7.8,0,0,1,1.754.578,2.558,2.558,0,0,1,1,.809,1.988,1.988,0,0,1,.324,1.152,2.163,2.163,0,0,1-.906,1.816,3.8,3.8,0,0,1-2.352.684,4.257,4.257,0,0,1-1.8-.359,2.922,2.922,0,0,1-1.223-1A2.42,2.42,0,0,1,24.625-2.6H26.07a1.5,1.5,0,0,0,.582,1.152,2.258,2.258,0,0,0,1.434.426A2.331,2.331,0,0,0,29.4-1.355,1.02,1.02,0,0,0,29.9-2.242ZM32.844-4.3a4.993,4.993,0,0,1,.488-2.234A3.643,3.643,0,0,1,34.691-8.07a3.7,3.7,0,0,1,1.988-.539,3.565,3.565,0,0,1,2.793,1.2,4.6,4.6,0,0,1,1.066,3.18v.1a5.036,5.036,0,0,1-.473,2.215A3.589,3.589,0,0,1,38.715-.391,3.743,3.743,0,0,1,36.7.156a3.556,3.556,0,0,1-2.785-1.2A4.575,4.575,0,0,1,32.844-4.2Zm1.453.172a3.616,3.616,0,0,0,.652,2.258,2.088,2.088,0,0,0,1.746.852,2.075,2.075,0,0,0,1.75-.863A3.955,3.955,0,0,0,39.094-4.3a3.61,3.61,0,0,0-.66-2.254,2.1,2.1,0,0,0-1.754-.863,2.075,2.075,0,0,0-1.727.852A3.925,3.925,0,0,0,34.3-4.133Zm9.422-4.32.047,1.063A3.08,3.08,0,0,1,46.3-8.609q2.68,0,2.7,3.023V0H47.555V-5.594a1.946,1.946,0,0,0-.418-1.352,1.675,1.675,0,0,0-1.277-.437,2.086,2.086,0,0,0-1.234.375,2.546,2.546,0,0,0-.828.984V0H42.352V-8.453ZM56.4,0a3.036,3.036,0,0,1-.2-.891A3.225,3.225,0,0,1,53.789.156a2.984,2.984,0,0,1-2.051-.707,2.287,2.287,0,0,1-.8-1.793,2.39,2.39,0,0,1,1-2.051,4.733,4.733,0,0,1,2.824-.73h1.406v-.664A1.623,1.623,0,0,0,55.719-7a1.821,1.821,0,0,0-1.336-.449,2.107,2.107,0,0,0-1.3.391,1.151,1.151,0,0,0-.523.945H51.109a2,2,0,0,1,.449-1.223,3.066,3.066,0,0,1,1.219-.934,4.1,4.1,0,0,1,1.691-.344,3.342,3.342,0,0,1,2.289.73,2.635,2.635,0,0,1,.859,2.012v3.891a4.757,4.757,0,0,0,.3,1.852V0ZM54-1.1a2.54,2.54,0,0,0,1.289-.352,2.127,2.127,0,0,0,.883-.914V-4.1H55.039q-2.656,0-2.656,1.555a1.316,1.316,0,0,0,.453,1.063A1.742,1.742,0,0,0,54-1.1Z" transform="translate(510 14814)" fill="#fff"/>
      <path id="Trazado_829634" data-name="Trazado 829634" d="M-5624.234-6421v-150.937" transform="translate(6195.242 21200)" fill="none" stroke="#707070" stroke-width="1"/>
      <path id="Trazado_829635" data-name="Trazado 829635" d="M-5624.234-6421v-150.937" transform="translate(6195.242 21408.938)" fill="none" stroke="#707070" stroke-width="1"/>
      <ellipse id="Elipse_10000" data-name="Elipse 10000" cx="69" cy="31.5" rx="69" ry="31.5" transform="translate(500.242 14565)" fill="#ffe888"/>
      <path id="Trazado_830015" data-name="Trazado 830015" d="M2.461-8.453l.047,1.063A3.08,3.08,0,0,1,5.039-8.609q2.68,0,2.7,3.023V0H6.3V-5.594a1.946,1.946,0,0,0-.418-1.352A1.675,1.675,0,0,0,4.6-7.383a2.086,2.086,0,0,0-1.234.375,2.546,2.546,0,0,0-.828.984V0H1.094V-8.453ZM9.539-4.3a4.993,4.993,0,0,1,.488-2.234A3.643,3.643,0,0,1,11.387-8.07a3.7,3.7,0,0,1,1.988-.539,3.565,3.565,0,0,1,2.793,1.2,4.6,4.6,0,0,1,1.066,3.18v.1a5.036,5.036,0,0,1-.473,2.215A3.589,3.589,0,0,1,15.41-.391a3.743,3.743,0,0,1-2.02.547,3.556,3.556,0,0,1-2.785-1.2A4.575,4.575,0,0,1,9.539-4.2Zm1.453.172a3.616,3.616,0,0,0,.652,2.258,2.088,2.088,0,0,0,1.746.852,2.075,2.075,0,0,0,1.75-.863A3.955,3.955,0,0,0,15.789-4.3a3.61,3.61,0,0,0-.66-2.254,2.1,2.1,0,0,0-1.754-.863,2.075,2.075,0,0,0-1.727.852A3.925,3.925,0,0,0,10.992-4.133Zm9.414-4.32.039.938a3.122,3.122,0,0,1,2.508-1.094A2.417,2.417,0,0,1,25.367-7.25a3.2,3.2,0,0,1,1.1-.984,3.242,3.242,0,0,1,1.6-.375q2.781,0,2.828,2.945V0H29.445V-5.578a1.941,1.941,0,0,0-.414-1.355,1.823,1.823,0,0,0-1.391-.449A1.916,1.916,0,0,0,26.3-6.9a1.949,1.949,0,0,0-.617,1.293V0H24.234V-5.539a1.613,1.613,0,0,0-1.8-1.844,1.934,1.934,0,0,0-1.945,1.211V0H19.039V-8.453Zm19.82,4.32a5.026,5.026,0,0,1-.891,3.113A2.846,2.846,0,0,1,36.945.156,2.947,2.947,0,0,1,34.469-.977L34.4,0H33.07V-12h1.445v4.477A2.93,2.93,0,0,1,36.93-8.609a2.863,2.863,0,0,1,2.418,1.164,5.177,5.177,0,0,1,.879,3.188ZM38.781-4.3a3.906,3.906,0,0,0-.57-2.281,1.888,1.888,0,0,0-1.641-.8,2.122,2.122,0,0,0-2.055,1.328V-2.4a2.181,2.181,0,0,0,2.07,1.328,1.878,1.878,0,0,0,1.617-.8A4.153,4.153,0,0,0,38.781-4.3Zm7.352-2.859a4.331,4.331,0,0,0-.711-.055A1.9,1.9,0,0,0,43.492-6V0H42.047V-8.453h1.406l.023.977a2.251,2.251,0,0,1,2.016-1.133,1.477,1.477,0,0,1,.641.109ZM50.82.156a3.693,3.693,0,0,1-2.8-1.129,4.19,4.19,0,0,1-1.078-3.02v-.266a5.073,5.073,0,0,1,.48-2.246A3.748,3.748,0,0,1,48.77-8.051a3.378,3.378,0,0,1,1.871-.559A3.166,3.166,0,0,1,53.2-7.523a4.7,4.7,0,0,1,.914,3.109v.6H48.391a3,3,0,0,0,.73,2.02,2.3,2.3,0,0,0,1.777.77,2.517,2.517,0,0,0,1.3-.312,3.259,3.259,0,0,0,.93-.828l.883.688A3.55,3.55,0,0,1,50.82.156Zm-.18-7.578a1.928,1.928,0,0,0-1.469.637A3.1,3.1,0,0,0,48.438-5h4.234v-.109a2.753,2.753,0,0,0-.594-1.707A1.815,1.815,0,0,0,50.641-7.422Zm10.07,5.18a1.064,1.064,0,0,0-.441-.91,4.249,4.249,0,0,0-1.539-.559,7.277,7.277,0,0,1-1.742-.562,2.479,2.479,0,0,1-.953-.781,1.869,1.869,0,0,1-.309-1.078,2.193,2.193,0,0,1,.879-1.758,3.432,3.432,0,0,1,2.246-.719,3.532,3.532,0,0,1,2.332.742,2.357,2.357,0,0,1,.895,1.9H60.625a1.3,1.3,0,0,0-.5-1.023,1.888,1.888,0,0,0-1.27-.43,1.976,1.976,0,0,0-1.234.344,1.082,1.082,0,0,0-.445.9.877.877,0,0,0,.414.789,5.1,5.1,0,0,0,1.5.508,7.8,7.8,0,0,1,1.754.578,2.558,2.558,0,0,1,1,.809,1.988,1.988,0,0,1,.324,1.152A2.163,2.163,0,0,1,61.25-.527,3.8,3.8,0,0,1,58.9.156,4.257,4.257,0,0,1,57.1-.2a2.922,2.922,0,0,1-1.223-1A2.42,2.42,0,0,1,55.438-2.6h1.445a1.5,1.5,0,0,0,.582,1.152,2.258,2.258,0,0,0,1.434.426,2.331,2.331,0,0,0,1.316-.332A1.02,1.02,0,0,0,60.711-2.242Z" transform="translate(537.242 14602)" fill="#12263f"/>
      <ellipse id="Elipse_10001" data-name="Elipse 10001" cx="69" cy="31.5" rx="69" ry="31.5" transform="translate(500.242 14971)" fill="#ffe888"/>
      <path id="Trazado_830012" data-name="Trazado 830012" d="M2.664,0H1.219V-8.453H2.664ZM1.1-10.7a.863.863,0,0,1,.215-.594.807.807,0,0,1,.637-.242.819.819,0,0,1,.641.242.854.854,0,0,1,.219.594.826.826,0,0,1-.219.586.834.834,0,0,1-.641.234.821.821,0,0,1-.637-.234A.834.834,0,0,1,1.1-10.7ZM4.625-4.3a4.952,4.952,0,0,1,.922-3.129A2.915,2.915,0,0,1,7.961-8.609a2.932,2.932,0,0,1,2.352,1.016V-12h1.445V0H10.43l-.07-.906A2.943,2.943,0,0,1,7.945.156a2.887,2.887,0,0,1-2.395-1.2,5.008,5.008,0,0,1-.926-3.141Zm1.445.164a3.749,3.749,0,0,0,.594,2.25A1.92,1.92,0,0,0,8.3-1.07,2.108,2.108,0,0,0,10.313-2.3V-6.187a2.125,2.125,0,0,0-1.992-1.2,1.929,1.929,0,0,0-1.656.82A4.128,4.128,0,0,0,6.07-4.133ZM17.508.156a3.693,3.693,0,0,1-2.8-1.129,4.19,4.19,0,0,1-1.078-3.02v-.266a5.073,5.073,0,0,1,.48-2.246,3.748,3.748,0,0,1,1.344-1.547,3.378,3.378,0,0,1,1.871-.559,3.166,3.166,0,0,1,2.563,1.086A4.7,4.7,0,0,1,20.8-4.414v.6H15.078a3,3,0,0,0,.73,2.02,2.3,2.3,0,0,0,1.777.77,2.517,2.517,0,0,0,1.3-.312,3.259,3.259,0,0,0,.93-.828l.883.688A3.55,3.55,0,0,1,17.508.156Zm-.18-7.578a1.928,1.928,0,0,0-1.469.637A3.1,3.1,0,0,0,15.125-5h4.234v-.109a2.753,2.753,0,0,0-.594-1.707A1.815,1.815,0,0,0,17.328-7.422Zm6.516-1.031.047,1.063a3.08,3.08,0,0,1,2.531-1.219q2.68,0,2.7,3.023V0H27.68V-5.594a1.946,1.946,0,0,0-.418-1.352,1.675,1.675,0,0,0-1.277-.437,2.086,2.086,0,0,0-1.234.375,2.546,2.546,0,0,0-.828.984V0H22.477V-8.453ZM33.266-10.5v2.047h1.578v1.117H33.266v5.242a1.171,1.171,0,0,0,.211.762.888.888,0,0,0,.719.254,3.5,3.5,0,0,0,.688-.094V0a4.19,4.19,0,0,1-1.109.156A1.8,1.8,0,0,1,32.313-.43a2.517,2.517,0,0,1-.492-1.664V-7.336H30.281V-8.453H31.82V-10.5ZM38.1,0H36.656V-8.453H38.1ZM36.539-10.7a.863.863,0,0,1,.215-.594.807.807,0,0,1,.637-.242.819.819,0,0,1,.641.242.854.854,0,0,1,.219.594.826.826,0,0,1-.219.586.834.834,0,0,1-.641.234.821.821,0,0,1-.637-.234A.834.834,0,0,1,36.539-10.7ZM40.9,0V-7.336H39.563V-8.453H40.9v-.719a2.937,2.937,0,0,1,.809-2.2,3.136,3.136,0,0,1,2.285-.789,6.881,6.881,0,0,1,2.211.477l-.242,1.219a5.008,5.008,0,0,0-1.859-.391,1.819,1.819,0,0,0-1.34.418,1.723,1.723,0,0,0-.41,1.254v.734h1.727v1.117H42.352V0Zm6.023,0H45.469V-8.453h1.453Zm5.742-1.023a2.082,2.082,0,0,0,1.352-.469,1.649,1.649,0,0,0,.641-1.172h1.367a2.621,2.621,0,0,1-.5,1.383,3.293,3.293,0,0,1-1.23,1.047,3.55,3.55,0,0,1-1.629.391A3.482,3.482,0,0,1,49.918-1,4.59,4.59,0,0,1,48.9-4.148v-.242a5.089,5.089,0,0,1,.453-2.2,3.451,3.451,0,0,1,1.3-1.492,3.7,3.7,0,0,1,2-.531,3.39,3.39,0,0,1,2.363.852,3.043,3.043,0,0,1,1,2.211H54.656a1.992,1.992,0,0,0-.621-1.348,1.932,1.932,0,0,0-1.379-.527,2.023,2.023,0,0,0-1.707.793,3.724,3.724,0,0,0-.605,2.293v.273a3.65,3.65,0,0,0,.6,2.25A2.033,2.033,0,0,0,52.664-1.023ZM62.867,0a3.036,3.036,0,0,1-.2-.891A3.225,3.225,0,0,1,60.258.156a2.984,2.984,0,0,1-2.051-.707,2.287,2.287,0,0,1-.8-1.793,2.39,2.39,0,0,1,1-2.051,4.733,4.733,0,0,1,2.824-.73h1.406v-.664A1.623,1.623,0,0,0,62.188-7a1.821,1.821,0,0,0-1.336-.449,2.107,2.107,0,0,0-1.3.391,1.151,1.151,0,0,0-.523.945H57.578a2,2,0,0,1,.449-1.223,3.066,3.066,0,0,1,1.219-.934,4.1,4.1,0,0,1,1.691-.344,3.342,3.342,0,0,1,2.289.73,2.635,2.635,0,0,1,.859,2.012v3.891a4.757,4.757,0,0,0,.3,1.852V0Zm-2.4-1.1a2.54,2.54,0,0,0,1.289-.352,2.127,2.127,0,0,0,.883-.914V-4.1H61.508q-2.656,0-2.656,1.555A1.316,1.316,0,0,0,59.3-1.484,1.742,1.742,0,0,0,60.469-1.1Zm9.273.078a2.082,2.082,0,0,0,1.352-.469,1.649,1.649,0,0,0,.641-1.172H73.1a2.621,2.621,0,0,1-.5,1.383,3.293,3.293,0,0,1-1.23,1.047,3.55,3.55,0,0,1-1.629.391A3.482,3.482,0,0,1,67-1a4.59,4.59,0,0,1-1.02-3.152v-.242a5.089,5.089,0,0,1,.453-2.2,3.451,3.451,0,0,1,1.3-1.492,3.7,3.7,0,0,1,2-.531,3.39,3.39,0,0,1,2.363.852,3.043,3.043,0,0,1,1,2.211H71.734a1.992,1.992,0,0,0-.621-1.348,1.932,1.932,0,0,0-1.379-.527,2.023,2.023,0,0,0-1.707.793,3.724,3.724,0,0,0-.605,2.293v.273a3.65,3.65,0,0,0,.6,2.25A2.033,2.033,0,0,0,69.742-1.023ZM76.3,0H74.852V-8.453H76.3ZM74.734-10.7a.863.863,0,0,1,.215-.594.807.807,0,0,1,.637-.242.819.819,0,0,1,.641.242.854.854,0,0,1,.219.594.826.826,0,0,1-.219.586.834.834,0,0,1-.641.234.821.821,0,0,1-.637-.234A.834.834,0,0,1,74.734-10.7ZM78.227-4.3a4.993,4.993,0,0,1,.488-2.234A3.643,3.643,0,0,1,80.074-8.07a3.7,3.7,0,0,1,1.988-.539,3.565,3.565,0,0,1,2.793,1.2,4.6,4.6,0,0,1,1.066,3.18v.1a5.036,5.036,0,0,1-.473,2.215A3.589,3.589,0,0,1,84.1-.391a3.743,3.743,0,0,1-2.02.547,3.556,3.556,0,0,1-2.785-1.2A4.575,4.575,0,0,1,78.227-4.2Zm1.453.172a3.616,3.616,0,0,0,.652,2.258,2.088,2.088,0,0,0,1.746.852,2.075,2.075,0,0,0,1.75-.863A3.955,3.955,0,0,0,84.477-4.3a3.61,3.61,0,0,0-.66-2.254,2.1,2.1,0,0,0-1.754-.863,2.075,2.075,0,0,0-1.727.852A3.925,3.925,0,0,0,79.68-4.133ZM82.719-12h1.75L82.375-9.7H81.211ZM89.1-8.453l.047,1.063A3.08,3.08,0,0,1,91.68-8.609q2.68,0,2.7,3.023V0H92.938V-5.594a1.946,1.946,0,0,0-.418-1.352,1.675,1.675,0,0,0-1.277-.437,2.086,2.086,0,0,0-1.234.375,2.546,2.546,0,0,0-.828.984V0H87.734V-8.453Z" transform="translate(529.242 15008)" fill="#12263f"/>
      <ellipse id="Elipse_10008" data-name="Elipse 10008" cx="69" cy="31.5" rx="69" ry="31.5" transform="translate(621 14637)" fill="#ffe888"/>
      <path id="Trazado_830009" data-name="Trazado 830009" d="M2.664,0H1.219V-8.453H2.664ZM1.1-10.7a.863.863,0,0,1,.215-.594.807.807,0,0,1,.637-.242.819.819,0,0,1,.641.242.854.854,0,0,1,.219.594.826.826,0,0,1-.219.586.834.834,0,0,1-.641.234.821.821,0,0,1-.637-.234A.834.834,0,0,1,1.1-10.7ZM4.625-4.3a4.952,4.952,0,0,1,.922-3.129A2.915,2.915,0,0,1,7.961-8.609a2.932,2.932,0,0,1,2.352,1.016V-12h1.445V0H10.43l-.07-.906A2.943,2.943,0,0,1,7.945.156a2.887,2.887,0,0,1-2.395-1.2,5.008,5.008,0,0,1-.926-3.141Zm1.445.164a3.749,3.749,0,0,0,.594,2.25A1.92,1.92,0,0,0,8.3-1.07,2.108,2.108,0,0,0,10.313-2.3V-6.187a2.125,2.125,0,0,0-1.992-1.2,1.929,1.929,0,0,0-1.656.82A4.128,4.128,0,0,0,6.07-4.133Zm19.031,0a5.062,5.062,0,0,1-.883,3.109A2.829,2.829,0,0,1,21.828.156,3.1,3.1,0,0,1,19.406-.82V3.25H17.961v-11.7h1.32l.07.938A2.977,2.977,0,0,1,21.8-8.609a2.882,2.882,0,0,1,2.41,1.148,5.117,5.117,0,0,1,.887,3.2ZM23.656-4.3a3.735,3.735,0,0,0-.609-2.258,1.963,1.963,0,0,0-1.672-.828,2.125,2.125,0,0,0-1.969,1.164V-2.18a2.129,2.129,0,0,0,1.984,1.156,1.954,1.954,0,0,0,1.652-.824A4.077,4.077,0,0,0,23.656-4.3ZM30.445.156a3.693,3.693,0,0,1-2.8-1.129,4.19,4.19,0,0,1-1.078-3.02v-.266a5.073,5.073,0,0,1,.48-2.246,3.748,3.748,0,0,1,1.344-1.547,3.378,3.378,0,0,1,1.871-.559,3.166,3.166,0,0,1,2.563,1.086,4.7,4.7,0,0,1,.914,3.109v.6H28.016a3,3,0,0,0,.73,2.02,2.3,2.3,0,0,0,1.777.77,2.517,2.517,0,0,0,1.3-.312,3.259,3.259,0,0,0,.93-.828l.883.688A3.55,3.55,0,0,1,30.445.156Zm-.18-7.578a1.928,1.928,0,0,0-1.469.637A3.1,3.1,0,0,0,28.063-5H32.3v-.109A2.753,2.753,0,0,0,31.7-6.816,1.815,1.815,0,0,0,30.266-7.422Zm9.234.266a4.331,4.331,0,0,0-.711-.055A1.9,1.9,0,0,0,36.859-6V0H35.414V-8.453H36.82l.023.977a2.251,2.251,0,0,1,2.016-1.133A1.477,1.477,0,0,1,39.5-8.5Zm6.25,4.914a1.064,1.064,0,0,0-.441-.91,4.249,4.249,0,0,0-1.539-.559,7.277,7.277,0,0,1-1.742-.562,2.479,2.479,0,0,1-.953-.781,1.869,1.869,0,0,1-.309-1.078,2.193,2.193,0,0,1,.879-1.758,3.432,3.432,0,0,1,2.246-.719,3.532,3.532,0,0,1,2.332.742,2.357,2.357,0,0,1,.895,1.9H45.664a1.3,1.3,0,0,0-.5-1.023,1.888,1.888,0,0,0-1.27-.43,1.976,1.976,0,0,0-1.234.344,1.082,1.082,0,0,0-.445.9.877.877,0,0,0,.414.789,5.1,5.1,0,0,0,1.5.508,7.8,7.8,0,0,1,1.754.578,2.558,2.558,0,0,1,1,.809A1.988,1.988,0,0,1,47.2-2.344a2.163,2.163,0,0,1-.906,1.816,3.8,3.8,0,0,1-2.352.684,4.257,4.257,0,0,1-1.8-.359,2.922,2.922,0,0,1-1.223-1A2.42,2.42,0,0,1,40.477-2.6h1.445A1.5,1.5,0,0,0,42.5-1.449a2.258,2.258,0,0,0,1.434.426,2.331,2.331,0,0,0,1.316-.332A1.02,1.02,0,0,0,45.75-2.242ZM48.7-4.3a4.993,4.993,0,0,1,.488-2.234A3.643,3.643,0,0,1,50.543-8.07a3.7,3.7,0,0,1,1.988-.539,3.565,3.565,0,0,1,2.793,1.2,4.6,4.6,0,0,1,1.066,3.18v.1a5.036,5.036,0,0,1-.473,2.215A3.589,3.589,0,0,1,54.566-.391a3.743,3.743,0,0,1-2.02.547,3.556,3.556,0,0,1-2.785-1.2A4.575,4.575,0,0,1,48.7-4.2Zm1.453.172A3.616,3.616,0,0,0,50.8-1.875a2.088,2.088,0,0,0,1.746.852,2.075,2.075,0,0,0,1.75-.863A3.955,3.955,0,0,0,54.945-4.3a3.61,3.61,0,0,0-.66-2.254,2.1,2.1,0,0,0-1.754-.863A2.075,2.075,0,0,0,50.8-6.57,3.925,3.925,0,0,0,50.148-4.133Zm9.422-4.32.047,1.063a3.08,3.08,0,0,1,2.531-1.219q2.68,0,2.7,3.023V0H63.406V-5.594a1.946,1.946,0,0,0-.418-1.352,1.675,1.675,0,0,0-1.277-.437,2.086,2.086,0,0,0-1.234.375,2.546,2.546,0,0,0-.828.984V0H58.2V-8.453ZM72.25,0a3.036,3.036,0,0,1-.2-.891A3.225,3.225,0,0,1,69.641.156,2.984,2.984,0,0,1,67.59-.551a2.288,2.288,0,0,1-.8-1.793,2.39,2.39,0,0,1,1-2.051,4.733,4.733,0,0,1,2.824-.73h1.406v-.664A1.623,1.623,0,0,0,71.57-7a1.821,1.821,0,0,0-1.336-.449,2.108,2.108,0,0,0-1.3.391,1.151,1.151,0,0,0-.523.945H66.961a2,2,0,0,1,.449-1.223,3.066,3.066,0,0,1,1.219-.934,4.1,4.1,0,0,1,1.691-.344,3.342,3.342,0,0,1,2.289.73,2.635,2.635,0,0,1,.859,2.012v3.891a4.757,4.757,0,0,0,.3,1.852V0Zm-2.4-1.1a2.54,2.54,0,0,0,1.289-.352,2.127,2.127,0,0,0,.883-.914V-4.1H70.891q-2.656,0-2.656,1.555a1.316,1.316,0,0,0,.453,1.063A1.742,1.742,0,0,0,69.852-1.1ZM0,1H16.961V2H0ZM20.406,1H74.641V2H20.406Z" transform="translate(658 14674)" fill="#12263f"/>
      <path id="Trazado_829651" data-name="Trazado 829651" d="M-3739-5274l82.594-81.09" transform="translate(4325.289 20053)" fill="none" stroke="#707070" stroke-width="1"/>
      <path id="Trazado_830011" data-name="Trazado 830011" d="M6.258,0H4V-8.7l-2.7.836V-9.7l4.711-1.687h.242Z" transform="translate(650 14792)"/>
      <path id="Trazado_830007" data-name="Trazado 830007" d="M10.266,0H7.922L3.359-7.484V0H1.016V-11.375H3.359l4.57,7.5v-7.5h2.336Z" transform="translate(871.977 14794)"/>
      <ellipse id="Elipse_10019" data-name="Elipse 10019" cx="69" cy="31.5" rx="69" ry="31.5" transform="translate(1124 14618)" fill="#ffe888"/>
      <path id="Trazado_830003" data-name="Trazado 830003" d="M2.461-8.453l.047,1.063A3.08,3.08,0,0,1,5.039-8.609q2.68,0,2.7,3.023V0H6.3V-5.594a1.946,1.946,0,0,0-.418-1.352A1.675,1.675,0,0,0,4.6-7.383a2.086,2.086,0,0,0-1.234.375,2.546,2.546,0,0,0-.828.984V0H1.094V-8.453ZM15.141-.836a3.07,3.07,0,0,1-2.477.992,2.628,2.628,0,0,1-2.059-.785,3.4,3.4,0,0,1-.715-2.324v-5.5h1.445v5.461q0,1.922,1.563,1.922A2.163,2.163,0,0,0,15.1-2.3V-8.453h1.445V0H15.172ZM20.1-8.453l.039.938a3.122,3.122,0,0,1,2.508-1.094A2.417,2.417,0,0,1,25.063-7.25a3.2,3.2,0,0,1,1.1-.984,3.242,3.242,0,0,1,1.6-.375q2.781,0,2.828,2.945V0H29.141V-5.578a1.941,1.941,0,0,0-.414-1.355,1.823,1.823,0,0,0-1.391-.449A1.916,1.916,0,0,0,26-6.9a1.949,1.949,0,0,0-.617,1.293V0H23.93V-5.539a1.613,1.613,0,0,0-1.8-1.844A1.934,1.934,0,0,0,20.18-6.172V0H18.734V-8.453ZM36.273.156a3.693,3.693,0,0,1-2.8-1.129A4.19,4.19,0,0,1,32.4-3.992v-.266a5.073,5.073,0,0,1,.48-2.246,3.748,3.748,0,0,1,1.344-1.547,3.378,3.378,0,0,1,1.871-.559,3.166,3.166,0,0,1,2.563,1.086,4.7,4.7,0,0,1,.914,3.109v.6H33.844a3,3,0,0,0,.73,2.02,2.3,2.3,0,0,0,1.777.77,2.517,2.517,0,0,0,1.3-.312,3.259,3.259,0,0,0,.93-.828l.883.688A3.55,3.55,0,0,1,36.273.156Zm-.18-7.578a1.928,1.928,0,0,0-1.469.637A3.1,3.1,0,0,0,33.891-5h4.234v-.109a2.753,2.753,0,0,0-.594-1.707A1.815,1.815,0,0,0,36.094-7.422Zm9.234.266a4.331,4.331,0,0,0-.711-.055A1.9,1.9,0,0,0,42.688-6V0H41.242V-8.453h1.406l.023.977a2.251,2.251,0,0,1,2.016-1.133,1.477,1.477,0,0,1,.641.109ZM46.117-4.3a4.993,4.993,0,0,1,.488-2.234A3.643,3.643,0,0,1,47.965-8.07a3.7,3.7,0,0,1,1.988-.539,3.565,3.565,0,0,1,2.793,1.2,4.6,4.6,0,0,1,1.066,3.18v.1a5.036,5.036,0,0,1-.473,2.215A3.589,3.589,0,0,1,51.988-.391a3.743,3.743,0,0,1-2.02.547,3.556,3.556,0,0,1-2.785-1.2A4.575,4.575,0,0,1,46.117-4.2Zm1.453.172a3.616,3.616,0,0,0,.652,2.258,2.088,2.088,0,0,0,1.746.852,2.075,2.075,0,0,0,1.75-.863A3.955,3.955,0,0,0,52.367-4.3a3.61,3.61,0,0,0-.66-2.254,2.1,2.1,0,0,0-1.754-.863,2.075,2.075,0,0,0-1.727.852A3.925,3.925,0,0,0,47.57-4.133ZM62.977-1.023a2.082,2.082,0,0,0,1.352-.469,1.649,1.649,0,0,0,.641-1.172h1.367a2.621,2.621,0,0,1-.5,1.383,3.293,3.293,0,0,1-1.23,1.047,3.55,3.55,0,0,1-1.629.391A3.482,3.482,0,0,1,60.23-1a4.59,4.59,0,0,1-1.02-3.152v-.242a5.089,5.089,0,0,1,.453-2.2,3.451,3.451,0,0,1,1.3-1.492,3.7,3.7,0,0,1,2-.531,3.39,3.39,0,0,1,2.363.852,3.043,3.043,0,0,1,1,2.211H64.969a1.992,1.992,0,0,0-.621-1.348,1.932,1.932,0,0,0-1.379-.527,2.023,2.023,0,0,0-1.707.793,3.724,3.724,0,0,0-.605,2.293v.273a3.65,3.65,0,0,0,.6,2.25A2.033,2.033,0,0,0,62.977-1.023Zm10.2.188A3.07,3.07,0,0,1,70.7.156a2.628,2.628,0,0,1-2.059-.785,3.4,3.4,0,0,1-.715-2.324v-5.5h1.445v5.461q0,1.922,1.563,1.922a2.163,2.163,0,0,0,2.2-1.234V-8.453h1.445V0H73.211Zm7.109.992a3.693,3.693,0,0,1-2.8-1.129,4.19,4.19,0,0,1-1.078-3.02v-.266a5.073,5.073,0,0,1,.48-2.246,3.748,3.748,0,0,1,1.344-1.547,3.378,3.378,0,0,1,1.871-.559,3.166,3.166,0,0,1,2.563,1.086,4.7,4.7,0,0,1,.914,3.109v.6H77.859a3,3,0,0,0,.73,2.02,2.3,2.3,0,0,0,1.777.77,2.517,2.517,0,0,0,1.3-.312,3.259,3.259,0,0,0,.93-.828l.883.688A3.55,3.55,0,0,1,80.289.156Zm-.18-7.578a1.928,1.928,0,0,0-1.469.637A3.1,3.1,0,0,0,77.906-5h4.234v-.109a2.753,2.753,0,0,0-.594-1.707A1.815,1.815,0,0,0,80.109-7.422Zm6.516-1.031.047,1.063A3.08,3.08,0,0,1,89.2-8.609q2.68,0,2.7,3.023V0H90.461V-5.594a1.946,1.946,0,0,0-.418-1.352,1.675,1.675,0,0,0-1.277-.437,2.086,2.086,0,0,0-1.234.375,2.546,2.546,0,0,0-.828.984V0H85.258V-8.453ZM96.047-10.5v2.047h1.578v1.117H96.047v5.242a1.171,1.171,0,0,0,.211.762.888.888,0,0,0,.719.254,3.5,3.5,0,0,0,.688-.094V0a4.19,4.19,0,0,1-1.109.156A1.8,1.8,0,0,1,95.094-.43,2.517,2.517,0,0,1,94.6-2.094V-7.336H93.063V-8.453H94.6V-10.5ZM104.531,0a3.036,3.036,0,0,1-.2-.891A3.225,3.225,0,0,1,101.922.156a2.984,2.984,0,0,1-2.051-.707,2.288,2.288,0,0,1-.8-1.793,2.39,2.39,0,0,1,1-2.051,4.733,4.733,0,0,1,2.824-.73H104.3v-.664A1.623,1.623,0,0,0,103.852-7a1.821,1.821,0,0,0-1.336-.449,2.108,2.108,0,0,0-1.3.391,1.151,1.151,0,0,0-.523.945H99.242a2,2,0,0,1,.449-1.223,3.066,3.066,0,0,1,1.219-.934,4.1,4.1,0,0,1,1.691-.344,3.342,3.342,0,0,1,2.289.73,2.635,2.635,0,0,1,.859,2.012v3.891a4.757,4.757,0,0,0,.3,1.852V0Zm-2.4-1.1a2.54,2.54,0,0,0,1.289-.352,2.127,2.127,0,0,0,.883-.914V-4.1h-1.133q-2.656,0-2.656,1.555a1.316,1.316,0,0,0,.453,1.063A1.742,1.742,0,0,0,102.133-1.1ZM0,1H106.922V2H0Z" transform="translate(1140 14655)" fill="#12263f"/>
      <ellipse id="Elipse_10020" data-name="Elipse 10020" cx="69" cy="31.5" rx="69" ry="31.5" transform="translate(1124 14910)" fill="#ffe888"/>
      <path id="Trazado_830006" data-name="Trazado 830006" d="M1.8,0V-7.336H.469V-8.453H1.8V-9.32a2.878,2.878,0,0,1,.727-2.1,2.745,2.745,0,0,1,2.055-.742,3.793,3.793,0,0,1,.992.133L5.5-10.859a4.151,4.151,0,0,0-.781-.07,1.413,1.413,0,0,0-1.086.41A1.66,1.66,0,0,0,3.25-9.344v.891h1.8v1.117H3.25V0ZM9.969.156a3.693,3.693,0,0,1-2.8-1.129,4.19,4.19,0,0,1-1.078-3.02v-.266A5.073,5.073,0,0,1,6.574-6.5,3.748,3.748,0,0,1,7.918-8.051a3.378,3.378,0,0,1,1.871-.559,3.166,3.166,0,0,1,2.563,1.086,4.7,4.7,0,0,1,.914,3.109v.6H7.539a3,3,0,0,0,.73,2.02,2.3,2.3,0,0,0,1.777.77,2.517,2.517,0,0,0,1.3-.312,3.259,3.259,0,0,0,.93-.828l.883.688A3.55,3.55,0,0,1,9.969.156Zm-.18-7.578a1.928,1.928,0,0,0-1.469.637A3.1,3.1,0,0,0,7.586-5H11.82v-.109a2.753,2.753,0,0,0-.594-1.707A1.815,1.815,0,0,0,9.789-7.422Zm8.539,6.4a2.082,2.082,0,0,0,1.352-.469,1.649,1.649,0,0,0,.641-1.172h1.367a2.621,2.621,0,0,1-.5,1.383,3.293,3.293,0,0,1-1.23,1.047,3.55,3.55,0,0,1-1.629.391A3.482,3.482,0,0,1,15.582-1a4.59,4.59,0,0,1-1.02-3.152v-.242a5.089,5.089,0,0,1,.453-2.2,3.451,3.451,0,0,1,1.3-1.492,3.7,3.7,0,0,1,2-.531,3.39,3.39,0,0,1,2.363.852,3.043,3.043,0,0,1,1,2.211H20.32A1.992,1.992,0,0,0,19.7-6.895a1.932,1.932,0,0,0-1.379-.527,2.023,2.023,0,0,0-1.707.793,3.724,3.724,0,0,0-.605,2.293v.273a3.65,3.65,0,0,0,.6,2.25A2.033,2.033,0,0,0,18.328-1.023Zm6.43-6.406a3.073,3.073,0,0,1,2.5-1.18q2.68,0,2.7,3.023V0H28.516V-5.594A1.946,1.946,0,0,0,28.1-6.945a1.675,1.675,0,0,0-1.277-.437,2.086,2.086,0,0,0-1.234.375,2.546,2.546,0,0,0-.828.984V0H23.313V-12h1.445ZM37.344,0a3.036,3.036,0,0,1-.2-.891A3.225,3.225,0,0,1,34.734.156a2.984,2.984,0,0,1-2.051-.707,2.287,2.287,0,0,1-.8-1.793,2.39,2.39,0,0,1,1-2.051,4.733,4.733,0,0,1,2.824-.73h1.406v-.664A1.623,1.623,0,0,0,36.664-7a1.821,1.821,0,0,0-1.336-.449,2.107,2.107,0,0,0-1.3.391,1.151,1.151,0,0,0-.523.945H32.055A2,2,0,0,1,32.5-7.332a3.066,3.066,0,0,1,1.219-.934,4.1,4.1,0,0,1,1.691-.344,3.342,3.342,0,0,1,2.289.73,2.635,2.635,0,0,1,.859,2.012v3.891a4.757,4.757,0,0,0,.3,1.852V0Zm-2.4-1.1a2.54,2.54,0,0,0,1.289-.352,2.127,2.127,0,0,0,.883-.914V-4.1H35.984q-2.656,0-2.656,1.555a1.316,1.316,0,0,0,.453,1.063A1.742,1.742,0,0,0,34.945-1.1ZM46.922,1.18H39.766V0h7.156Zm4.516-2.2a2.082,2.082,0,0,0,1.352-.469,1.649,1.649,0,0,0,.641-1.172H54.8a2.621,2.621,0,0,1-.5,1.383,3.293,3.293,0,0,1-1.23,1.047,3.55,3.55,0,0,1-1.629.391A3.482,3.482,0,0,1,48.691-1a4.59,4.59,0,0,1-1.02-3.152v-.242a5.089,5.089,0,0,1,.453-2.2,3.451,3.451,0,0,1,1.3-1.492,3.7,3.7,0,0,1,2-.531,3.39,3.39,0,0,1,2.363.852,3.043,3.043,0,0,1,1,2.211H53.43a1.992,1.992,0,0,0-.621-1.348,1.932,1.932,0,0,0-1.379-.527,2.023,2.023,0,0,0-1.707.793,3.724,3.724,0,0,0-.605,2.293v.273a3.65,3.65,0,0,0,.6,2.25A2.033,2.033,0,0,0,51.438-1.023Zm9.07-6.133a4.331,4.331,0,0,0-.711-.055A1.9,1.9,0,0,0,57.867-6V0H56.422V-8.453h1.406l.023.977a2.251,2.251,0,0,1,2.016-1.133,1.477,1.477,0,0,1,.641.109ZM65.2.156A3.693,3.693,0,0,1,62.4-.973a4.19,4.19,0,0,1-1.078-3.02v-.266A5.073,5.073,0,0,1,61.8-6.5a3.748,3.748,0,0,1,1.344-1.547,3.378,3.378,0,0,1,1.871-.559,3.166,3.166,0,0,1,2.563,1.086,4.7,4.7,0,0,1,.914,3.109v.6H62.766a3,3,0,0,0,.73,2.02,2.3,2.3,0,0,0,1.777.77,2.517,2.517,0,0,0,1.3-.312,3.259,3.259,0,0,0,.93-.828l.883.688A3.55,3.55,0,0,1,65.2.156Zm-.18-7.578a1.928,1.928,0,0,0-1.469.637A3.1,3.1,0,0,0,62.813-5h4.234v-.109a2.753,2.753,0,0,0-.594-1.707A1.815,1.815,0,0,0,65.016-7.422ZM75.383,0a3.036,3.036,0,0,1-.2-.891A3.225,3.225,0,0,1,72.773.156a2.984,2.984,0,0,1-2.051-.707,2.288,2.288,0,0,1-.8-1.793,2.39,2.39,0,0,1,1-2.051,4.733,4.733,0,0,1,2.824-.73h1.406v-.664A1.623,1.623,0,0,0,74.7-7a1.821,1.821,0,0,0-1.336-.449,2.108,2.108,0,0,0-1.3.391,1.151,1.151,0,0,0-.523.945H70.094a2,2,0,0,1,.449-1.223,3.066,3.066,0,0,1,1.219-.934,4.1,4.1,0,0,1,1.691-.344,3.342,3.342,0,0,1,2.289.73A2.635,2.635,0,0,1,76.6-5.867v3.891a4.757,4.757,0,0,0,.3,1.852V0Zm-2.4-1.1a2.54,2.54,0,0,0,1.289-.352,2.127,2.127,0,0,0,.883-.914V-4.1H74.023q-2.656,0-2.656,1.555a1.316,1.316,0,0,0,.453,1.063A1.742,1.742,0,0,0,72.984-1.1Zm9.273.078a2.082,2.082,0,0,0,1.352-.469,1.649,1.649,0,0,0,.641-1.172h1.367a2.621,2.621,0,0,1-.5,1.383,3.293,3.293,0,0,1-1.23,1.047,3.55,3.55,0,0,1-1.629.391A3.482,3.482,0,0,1,79.512-1a4.59,4.59,0,0,1-1.02-3.152v-.242a5.089,5.089,0,0,1,.453-2.2,3.451,3.451,0,0,1,1.3-1.492,3.7,3.7,0,0,1,2-.531,3.39,3.39,0,0,1,2.363.852,3.043,3.043,0,0,1,1,2.211H84.25a1.992,1.992,0,0,0-.621-1.348,1.932,1.932,0,0,0-1.379-.527,2.023,2.023,0,0,0-1.707.793,3.724,3.724,0,0,0-.605,2.293v.273a3.65,3.65,0,0,0,.6,2.25A2.033,2.033,0,0,0,82.258-1.023ZM88.813,0H87.367V-8.453h1.445ZM87.25-10.7a.863.863,0,0,1,.215-.594.807.807,0,0,1,.637-.242.819.819,0,0,1,.641.242.854.854,0,0,1,.219.594.826.826,0,0,1-.219.586.834.834,0,0,1-.641.234.821.821,0,0,1-.637-.234A.834.834,0,0,1,87.25-10.7ZM90.742-4.3a4.993,4.993,0,0,1,.488-2.234A3.643,3.643,0,0,1,92.59-8.07a3.7,3.7,0,0,1,1.988-.539,3.565,3.565,0,0,1,2.793,1.2,4.6,4.6,0,0,1,1.066,3.18v.1a5.036,5.036,0,0,1-.473,2.215A3.589,3.589,0,0,1,96.613-.391a3.743,3.743,0,0,1-2.02.547,3.556,3.556,0,0,1-2.785-1.2A4.575,4.575,0,0,1,90.742-4.2Zm1.453.172a3.616,3.616,0,0,0,.652,2.258,2.088,2.088,0,0,0,1.746.852,2.075,2.075,0,0,0,1.75-.863A3.955,3.955,0,0,0,96.992-4.3a3.61,3.61,0,0,0-.66-2.254,2.1,2.1,0,0,0-1.754-.863,2.075,2.075,0,0,0-1.727.852A3.925,3.925,0,0,0,92.2-4.133ZM95.234-12h1.75L94.891-9.7H93.727Zm6.383,3.547.047,1.063A3.08,3.08,0,0,1,104.2-8.609q2.68,0,2.7,3.023V0h-1.445V-5.594a1.946,1.946,0,0,0-.418-1.352,1.675,1.675,0,0,0-1.277-.437,2.086,2.086,0,0,0-1.234.375,2.546,2.546,0,0,0-.828.984V0H100.25V-8.453Z" transform="translate(1140 14947)" fill="#12263f"/>
      <path id="Trazado_829712" data-name="Trazado 829712" d="M-5277-10591.5h-542" transform="translate(6453 25395)" fill="none" stroke="#707070" stroke-width="1"/>
      <path id="Trazado_829713" data-name="Trazado 829713" d="M-5642-10714.73l-133.109,97.512" transform="translate(6807.109 25391)" fill="none" stroke="#707070" stroke-width="1"/>
      <path id="Trazado_829714" data-name="Trazado 829714" d="M-5642-10617.219l-133.109-97.512" transform="translate(6807.109 25545.73)" fill="none" stroke="#707070" stroke-width="1"/>
      <ellipse id="Elipse_10021" data-name="Elipse 10021" cx="69" cy="31.5" rx="69" ry="31.5" transform="translate(1153 14768)" fill="#ffe888"/>
      <path id="Trazado_830005" data-name="Trazado 830005" d="M6.016-2.242a1.064,1.064,0,0,0-.441-.91,4.249,4.249,0,0,0-1.539-.559,7.277,7.277,0,0,1-1.742-.562,2.479,2.479,0,0,1-.953-.781,1.869,1.869,0,0,1-.309-1.078A2.193,2.193,0,0,1,1.91-7.891a3.432,3.432,0,0,1,2.246-.719,3.532,3.532,0,0,1,2.332.742,2.357,2.357,0,0,1,.895,1.9H5.93a1.3,1.3,0,0,0-.5-1.023,1.888,1.888,0,0,0-1.27-.43,1.976,1.976,0,0,0-1.234.344,1.082,1.082,0,0,0-.445.9.877.877,0,0,0,.414.789,5.1,5.1,0,0,0,1.5.508A7.8,7.8,0,0,1,6.141-4.3a2.558,2.558,0,0,1,1,.809,1.988,1.988,0,0,1,.324,1.152A2.163,2.163,0,0,1,6.555-.527,3.8,3.8,0,0,1,4.2.156,4.257,4.257,0,0,1,2.406-.2a2.922,2.922,0,0,1-1.223-1A2.42,2.42,0,0,1,.742-2.6H2.188A1.5,1.5,0,0,0,2.77-1.449,2.258,2.258,0,0,0,4.2-1.023,2.331,2.331,0,0,0,5.52-1.355,1.02,1.02,0,0,0,6.016-2.242ZM14.563,0a3.036,3.036,0,0,1-.2-.891A3.225,3.225,0,0,1,11.953.156,2.984,2.984,0,0,1,9.9-.551a2.287,2.287,0,0,1-.8-1.793,2.39,2.39,0,0,1,1-2.051,4.733,4.733,0,0,1,2.824-.73h1.406v-.664A1.623,1.623,0,0,0,13.883-7a1.821,1.821,0,0,0-1.336-.449,2.107,2.107,0,0,0-1.3.391,1.151,1.151,0,0,0-.523.945H9.273a2,2,0,0,1,.449-1.223,3.066,3.066,0,0,1,1.219-.934,4.1,4.1,0,0,1,1.691-.344,3.342,3.342,0,0,1,2.289.73,2.635,2.635,0,0,1,.859,2.012v3.891a4.757,4.757,0,0,0,.3,1.852V0Zm-2.4-1.1a2.54,2.54,0,0,0,1.289-.352,2.127,2.127,0,0,0,.883-.914V-4.1H13.2q-2.656,0-2.656,1.555A1.316,1.316,0,0,0,11-1.484,1.742,1.742,0,0,0,12.164-1.1ZM19.617,0H18.172V-12h1.445Zm1.961-4.3A4.952,4.952,0,0,1,22.5-7.426a2.915,2.915,0,0,1,2.414-1.184,2.932,2.932,0,0,1,2.352,1.016V-12h1.445V0H27.383l-.07-.906A2.943,2.943,0,0,1,24.9.156a2.887,2.887,0,0,1-2.395-1.2,5.008,5.008,0,0,1-.926-3.141Zm1.445.164a3.749,3.749,0,0,0,.594,2.25,1.92,1.92,0,0,0,1.641.813A2.108,2.108,0,0,0,27.266-2.3V-6.187a2.125,2.125,0,0,0-1.992-1.2,1.929,1.929,0,0,0-1.656.82A4.128,4.128,0,0,0,23.023-4.133ZM30.57-4.3a4.993,4.993,0,0,1,.488-2.234A3.643,3.643,0,0,1,32.418-8.07a3.7,3.7,0,0,1,1.988-.539,3.565,3.565,0,0,1,2.793,1.2,4.6,4.6,0,0,1,1.066,3.18v.1a5.036,5.036,0,0,1-.473,2.215A3.589,3.589,0,0,1,36.441-.391a3.743,3.743,0,0,1-2.02.547,3.556,3.556,0,0,1-2.785-1.2A4.575,4.575,0,0,1,30.57-4.2Zm1.453.172a3.616,3.616,0,0,0,.652,2.258,2.088,2.088,0,0,0,1.746.852,2.075,2.075,0,0,0,1.75-.863A3.955,3.955,0,0,0,36.82-4.3a3.61,3.61,0,0,0-.66-2.254,2.1,2.1,0,0,0-1.754-.863,2.075,2.075,0,0,0-1.727.852A3.925,3.925,0,0,0,32.023-4.133Z" transform="translate(1209 14805)" fill="#12263f"/>
      <path id="Trazado_829715" data-name="Trazado 829715" d="M-5537-10598c2.184-.109,95.3-37.051,95.3-37.051L-5347-10598l-93.7,38.979Z" transform="translate(6347 25215.021)" fill="#3ee2a8"/>
      <path id="Trazado_830001" data-name="Trazado 830001" d="M4.6.156A3.693,3.693,0,0,1,1.8-.973,4.19,4.19,0,0,1,.727-3.992v-.266A5.073,5.073,0,0,1,1.207-6.5,3.748,3.748,0,0,1,2.551-8.051a3.378,3.378,0,0,1,1.871-.559A3.166,3.166,0,0,1,6.984-7.523,4.7,4.7,0,0,1,7.9-4.414v.6H2.172a3,3,0,0,0,.73,2.02,2.3,2.3,0,0,0,1.777.77,2.517,2.517,0,0,0,1.3-.312,3.259,3.259,0,0,0,.93-.828l.883.688A3.55,3.55,0,0,1,4.6.156Zm-.18-7.578a1.928,1.928,0,0,0-1.469.637A3.1,3.1,0,0,0,2.219-5H6.453v-.109a2.753,2.753,0,0,0-.594-1.707A1.815,1.815,0,0,0,4.422-7.422Zm10.07,5.18a1.064,1.064,0,0,0-.441-.91,4.249,4.249,0,0,0-1.539-.559,7.277,7.277,0,0,1-1.742-.562,2.479,2.479,0,0,1-.953-.781,1.869,1.869,0,0,1-.309-1.078,2.193,2.193,0,0,1,.879-1.758,3.432,3.432,0,0,1,2.246-.719,3.532,3.532,0,0,1,2.332.742,2.357,2.357,0,0,1,.895,1.9H14.406a1.3,1.3,0,0,0-.5-1.023,1.888,1.888,0,0,0-1.27-.43,1.976,1.976,0,0,0-1.234.344,1.082,1.082,0,0,0-.445.9.877.877,0,0,0,.414.789,5.1,5.1,0,0,0,1.5.508,7.8,7.8,0,0,1,1.754.578,2.558,2.558,0,0,1,1,.809,1.988,1.988,0,0,1,.324,1.152,2.163,2.163,0,0,1-.906,1.816A3.8,3.8,0,0,1,12.68.156a4.257,4.257,0,0,1-1.8-.359,2.922,2.922,0,0,1-1.223-1A2.42,2.42,0,0,1,9.219-2.6h1.445a1.5,1.5,0,0,0,.582,1.152,2.258,2.258,0,0,0,1.434.426A2.331,2.331,0,0,0,14-1.355,1.02,1.02,0,0,0,14.492-2.242ZM27-.836a3.07,3.07,0,0,1-2.477.992,2.628,2.628,0,0,1-2.059-.785,3.4,3.4,0,0,1-.715-2.324v-5.5H23.2v5.461q0,1.922,1.563,1.922a2.163,2.163,0,0,0,2.2-1.234V-8.453h1.445V0H27.031Zm4.969-7.617.047,1.063a3.08,3.08,0,0,1,2.531-1.219q2.68,0,2.7,3.023V0H35.8V-5.594a1.946,1.946,0,0,0-.418-1.352,1.675,1.675,0,0,0-1.277-.437,2.086,2.086,0,0,0-1.234.375,2.546,2.546,0,0,0-.828.984V0H30.6V-8.453Z" transform="translate(882.5 14624.023)"/>
      <path id="Trazado_829716" data-name="Trazado 829716" d="M-3790,3080l237.977-138.316" transform="translate(4424 11699)" fill="none" stroke="#707070" stroke-width="1"/>
      <path id="Trazado_829717" data-name="Trazado 829717" d="M-3519,3050.611V2819.64" transform="translate(4424 11529.359)" fill="none" stroke="#707070" stroke-width="1"/>
      <rect id="Rectángulo_383416" data-name="Rectángulo 383416" width="190" height="58" transform="translate(810 14461)" fill="#273a89"/>
      <path id="Trazado_830000" data-name="Trazado 830000" d="M7.75-5.258H2.82v4.031H8.547V0H1.32V-11.375H8.469v1.234H2.82v3.656H7.75Zm3.8-3.2.039.938a3.122,3.122,0,0,1,2.508-1.094A2.417,2.417,0,0,1,16.508-7.25a3.2,3.2,0,0,1,1.1-.984,3.242,3.242,0,0,1,1.6-.375q2.781,0,2.828,2.945V0H20.586V-5.578a1.941,1.941,0,0,0-.414-1.355,1.823,1.823,0,0,0-1.391-.449,1.916,1.916,0,0,0-1.336.48,1.949,1.949,0,0,0-.617,1.293V0H15.375V-5.539a1.613,1.613,0,0,0-1.8-1.844,1.934,1.934,0,0,0-1.945,1.211V0H10.18V-8.453Zm19.8,4.32a5.062,5.062,0,0,1-.883,3.109A2.829,2.829,0,0,1,28.078.156,3.1,3.1,0,0,1,25.656-.82V3.25H24.211v-11.7h1.32l.07.938a2.977,2.977,0,0,1,2.453-1.094,2.882,2.882,0,0,1,2.41,1.148,5.117,5.117,0,0,1,.887,3.2ZM29.906-4.3A3.735,3.735,0,0,0,29.3-6.555a1.963,1.963,0,0,0-1.672-.828,2.125,2.125,0,0,0-1.969,1.164V-2.18a2.129,2.129,0,0,0,1.984,1.156,1.954,1.954,0,0,0,1.652-.824A4.077,4.077,0,0,0,29.906-4.3ZM34.758,0H33.313V-12h1.445Zm5.82.156a3.693,3.693,0,0,1-2.8-1.129A4.19,4.19,0,0,1,36.7-3.992v-.266a5.073,5.073,0,0,1,.48-2.246,3.748,3.748,0,0,1,1.344-1.547A3.378,3.378,0,0,1,40.4-8.609a3.166,3.166,0,0,1,2.563,1.086,4.7,4.7,0,0,1,.914,3.109v.6H38.148a3,3,0,0,0,.73,2.02,2.3,2.3,0,0,0,1.777.77,2.517,2.517,0,0,0,1.3-.312,3.259,3.259,0,0,0,.93-.828l.883.688A3.55,3.55,0,0,1,40.578.156ZM40.4-7.422a1.928,1.928,0,0,0-1.469.637A3.1,3.1,0,0,0,38.2-5H42.43v-.109a2.753,2.753,0,0,0-.594-1.707A1.815,1.815,0,0,0,40.4-7.422ZM50.766,0a3.036,3.036,0,0,1-.2-.891A3.225,3.225,0,0,1,48.156.156a2.984,2.984,0,0,1-2.051-.707,2.287,2.287,0,0,1-.8-1.793,2.39,2.39,0,0,1,1-2.051,4.733,4.733,0,0,1,2.824-.73h1.406v-.664A1.623,1.623,0,0,0,50.086-7a1.821,1.821,0,0,0-1.336-.449,2.107,2.107,0,0,0-1.3.391,1.151,1.151,0,0,0-.523.945H45.477a2,2,0,0,1,.449-1.223,3.066,3.066,0,0,1,1.219-.934,4.1,4.1,0,0,1,1.691-.344,3.342,3.342,0,0,1,2.289.73,2.635,2.635,0,0,1,.859,2.012v3.891a4.757,4.757,0,0,0,.3,1.852V0Zm-2.4-1.1a2.54,2.54,0,0,0,1.289-.352,2.127,2.127,0,0,0,.883-.914V-4.1H49.406q-2.656,0-2.656,1.555A1.316,1.316,0,0,0,47.2-1.484,1.742,1.742,0,0,0,48.367-1.1ZM53.9-4.3a4.952,4.952,0,0,1,.922-3.129,2.915,2.915,0,0,1,2.414-1.184,2.932,2.932,0,0,1,2.352,1.016V-12h1.445V0H59.7l-.07-.906A2.943,2.943,0,0,1,57.219.156a2.887,2.887,0,0,1-2.395-1.2A5.008,5.008,0,0,1,53.9-4.187Zm1.445.164a3.749,3.749,0,0,0,.594,2.25,1.92,1.92,0,0,0,1.641.813A2.108,2.108,0,0,0,59.586-2.3V-6.187a2.125,2.125,0,0,0-1.992-1.2,1.929,1.929,0,0,0-1.656.82A4.128,4.128,0,0,0,55.344-4.133ZM62.891-4.3a4.993,4.993,0,0,1,.488-2.234A3.643,3.643,0,0,1,64.738-8.07a3.7,3.7,0,0,1,1.988-.539,3.565,3.565,0,0,1,2.793,1.2,4.6,4.6,0,0,1,1.066,3.18v.1a5.036,5.036,0,0,1-.473,2.215A3.589,3.589,0,0,1,68.762-.391a3.743,3.743,0,0,1-2.02.547,3.556,3.556,0,0,1-2.785-1.2A4.575,4.575,0,0,1,62.891-4.2Zm1.453.172A3.616,3.616,0,0,0,65-1.875a2.088,2.088,0,0,0,1.746.852,2.075,2.075,0,0,0,1.75-.863A3.955,3.955,0,0,0,69.141-4.3a3.61,3.61,0,0,0-.66-2.254,2.1,2.1,0,0,0-1.754-.863A2.075,2.075,0,0,0,65-6.57,3.925,3.925,0,0,0,64.344-4.133Z" transform="translate(867 14496)" fill="#fff"/>
      <path id="Trazado_829656" data-name="Trazado 829656" d="M-5537-10598c2.184-.109,95.3-37.051,95.3-37.051L-5347-10598l-93.7,38.979Z" transform="translate(6187 25400.535)" fill="#3ee2a8"/>
      <path id="Trazado_830008" data-name="Trazado 830008" d="M6.313,0a3.036,3.036,0,0,1-.2-.891A3.225,3.225,0,0,1,3.7.156,2.984,2.984,0,0,1,1.652-.551a2.287,2.287,0,0,1-.8-1.793,2.39,2.39,0,0,1,1-2.051,4.733,4.733,0,0,1,2.824-.73H6.086v-.664A1.623,1.623,0,0,0,5.633-7,1.821,1.821,0,0,0,4.3-7.445,2.107,2.107,0,0,0,3-7.055a1.151,1.151,0,0,0-.523.945H1.023a2,2,0,0,1,.449-1.223,3.066,3.066,0,0,1,1.219-.934,4.1,4.1,0,0,1,1.691-.344,3.342,3.342,0,0,1,2.289.73,2.635,2.635,0,0,1,.859,2.012v3.891a4.757,4.757,0,0,0,.3,1.852V0Zm-2.4-1.1A2.54,2.54,0,0,0,5.2-1.453a2.127,2.127,0,0,0,.883-.914V-4.1H4.953Q2.3-4.1,2.3-2.547A1.316,1.316,0,0,0,2.75-1.484,1.742,1.742,0,0,0,3.914-1.1Zm11.1.266a3.07,3.07,0,0,1-2.477.992A2.628,2.628,0,0,1,10.48-.629a3.4,3.4,0,0,1-.715-2.324v-5.5h1.445v5.461q0,1.922,1.563,1.922a2.163,2.163,0,0,0,2.2-1.234V-8.453h1.445V0H15.047ZM20.578-10.5v2.047h1.578v1.117H20.578v5.242a1.171,1.171,0,0,0,.211.762.888.888,0,0,0,.719.254,3.5,3.5,0,0,0,.688-.094V0a4.19,4.19,0,0,1-1.109.156A1.8,1.8,0,0,1,19.625-.43a2.517,2.517,0,0,1-.492-1.664V-7.336H17.594V-8.453h1.539V-10.5ZM23.3-4.3a4.993,4.993,0,0,1,.488-2.234A3.643,3.643,0,0,1,25.152-8.07a3.7,3.7,0,0,1,1.988-.539,3.565,3.565,0,0,1,2.793,1.2A4.6,4.6,0,0,1,31-4.234v.1a5.036,5.036,0,0,1-.473,2.215A3.589,3.589,0,0,1,29.176-.391a3.743,3.743,0,0,1-2.02.547,3.556,3.556,0,0,1-2.785-1.2A4.575,4.575,0,0,1,23.3-4.2Zm1.453.172a3.616,3.616,0,0,0,.652,2.258,2.088,2.088,0,0,0,1.746.852,2.075,2.075,0,0,0,1.75-.863A3.955,3.955,0,0,0,29.555-4.3a3.61,3.61,0,0,0-.66-2.254,2.1,2.1,0,0,0-1.754-.863,2.075,2.075,0,0,0-1.727.852A3.925,3.925,0,0,0,24.758-4.133ZM36.9-7.156a4.331,4.331,0,0,0-.711-.055A1.9,1.9,0,0,0,34.258-6V0H32.813V-8.453h1.406l.023.977a2.251,2.251,0,0,1,2.016-1.133A1.477,1.477,0,0,1,36.9-8.5Z" transform="translate(722.5 14809.537)"/>
      <rect id="Rectángulo_383415" data-name="Rectángulo 383415" width="190" height="58" transform="translate(915 14775)" fill="#273a89"/>
      <path id="Trazado_830004" data-name="Trazado 830004" d="M9.688-3.609A4.185,4.185,0,0,1,8.355-.824a4.365,4.365,0,0,1-2.98.98,4.008,4.008,0,0,1-3.23-1.445A5.815,5.815,0,0,1,.93-5.156V-6.25A6.481,6.481,0,0,1,1.5-9.039,4.231,4.231,0,0,1,3.1-10.887a4.47,4.47,0,0,1,2.406-.645A4.11,4.11,0,0,1,8.414-10.52a4.235,4.235,0,0,1,1.273,2.8H8.18a3.254,3.254,0,0,0-.848-1.969A2.569,2.569,0,0,0,5.508-10.3,2.685,2.685,0,0,0,3.254-9.234a4.875,4.875,0,0,0-.816,3.023v1.1a5.011,5.011,0,0,0,.773,2.945A2.5,2.5,0,0,0,5.375-1.07a2.887,2.887,0,0,0,1.918-.566A3.143,3.143,0,0,0,8.18-3.609ZM16.727-.836A3.07,3.07,0,0,1,14.25.156a2.628,2.628,0,0,1-2.059-.785,3.4,3.4,0,0,1-.715-2.324v-5.5h1.445v5.461q0,1.922,1.563,1.922a2.163,2.163,0,0,0,2.2-1.234V-8.453h1.445V0H16.758Zm7.109.992a3.693,3.693,0,0,1-2.8-1.129,4.19,4.19,0,0,1-1.078-3.02v-.266a5.073,5.073,0,0,1,.48-2.246,3.748,3.748,0,0,1,1.344-1.547,3.378,3.378,0,0,1,1.871-.559,3.166,3.166,0,0,1,2.563,1.086,4.7,4.7,0,0,1,.914,3.109v.6H21.406a3,3,0,0,0,.73,2.02,2.3,2.3,0,0,0,1.777.77,2.517,2.517,0,0,0,1.3-.312,3.259,3.259,0,0,0,.93-.828l.883.688A3.55,3.55,0,0,1,23.836.156Zm-.18-7.578a1.928,1.928,0,0,0-1.469.637A3.1,3.1,0,0,0,21.453-5h4.234v-.109a2.753,2.753,0,0,0-.594-1.707A1.815,1.815,0,0,0,23.656-7.422Zm6.516-1.031.047,1.063A3.08,3.08,0,0,1,32.75-8.609q2.68,0,2.7,3.023V0H34.008V-5.594a1.946,1.946,0,0,0-.418-1.352,1.675,1.675,0,0,0-1.277-.437,2.086,2.086,0,0,0-1.234.375,2.546,2.546,0,0,0-.828.984V0H28.8V-8.453ZM39.594-10.5v2.047h1.578v1.117H39.594v5.242a1.171,1.171,0,0,0,.211.762.888.888,0,0,0,.719.254,3.5,3.5,0,0,0,.688-.094V0A4.19,4.19,0,0,1,40.1.156,1.8,1.8,0,0,1,38.641-.43a2.517,2.517,0,0,1-.492-1.664V-7.336H36.609V-8.453h1.539V-10.5ZM48.078,0a3.036,3.036,0,0,1-.2-.891A3.225,3.225,0,0,1,45.469.156a2.984,2.984,0,0,1-2.051-.707,2.287,2.287,0,0,1-.8-1.793,2.39,2.39,0,0,1,1-2.051,4.733,4.733,0,0,1,2.824-.73h1.406v-.664A1.623,1.623,0,0,0,47.4-7a1.821,1.821,0,0,0-1.336-.449,2.107,2.107,0,0,0-1.3.391,1.151,1.151,0,0,0-.523.945H42.789a2,2,0,0,1,.449-1.223,3.066,3.066,0,0,1,1.219-.934,4.1,4.1,0,0,1,1.691-.344,3.342,3.342,0,0,1,2.289.73A2.635,2.635,0,0,1,49.3-5.867v3.891a4.757,4.757,0,0,0,.3,1.852V0Zm-2.4-1.1a2.54,2.54,0,0,0,1.289-.352,2.127,2.127,0,0,0,.883-.914V-4.1H46.719q-2.656,0-2.656,1.555a1.316,1.316,0,0,0,.453,1.063A1.742,1.742,0,0,0,45.68-1.1Z" transform="translate(981 14810)" fill="#fff"/>
      <path id="Trazado_830010" data-name="Trazado 830010" d="M6.258,0H4V-8.7l-2.7.836V-9.7l4.711-1.687h.242Z" transform="translate(634 14761)"/>
      <path id="Trazado_830002" data-name="Trazado 830002" d="M6.258,0H4V-8.7l-2.7.836V-9.7l4.711-1.687h.242Z" transform="translate(915 14555)"/>
      <ellipse id="Elipse_10022" data-name="Elipse 10022" cx="69" cy="31.5" rx="69" ry="31.5" transform="translate(836 14286)" fill="#ffe888"/>
      <path id="Trazado_829997" data-name="Trazado 829997" d="M6.016-2.242a1.064,1.064,0,0,0-.441-.91,4.249,4.249,0,0,0-1.539-.559,7.277,7.277,0,0,1-1.742-.562,2.479,2.479,0,0,1-.953-.781,1.869,1.869,0,0,1-.309-1.078A2.193,2.193,0,0,1,1.91-7.891a3.432,3.432,0,0,1,2.246-.719,3.532,3.532,0,0,1,2.332.742,2.357,2.357,0,0,1,.895,1.9H5.93a1.3,1.3,0,0,0-.5-1.023,1.888,1.888,0,0,0-1.27-.43,1.976,1.976,0,0,0-1.234.344,1.082,1.082,0,0,0-.445.9.877.877,0,0,0,.414.789,5.1,5.1,0,0,0,1.5.508A7.8,7.8,0,0,1,6.141-4.3a2.558,2.558,0,0,1,1,.809,1.988,1.988,0,0,1,.324,1.152A2.163,2.163,0,0,1,6.555-.527,3.8,3.8,0,0,1,4.2.156,4.257,4.257,0,0,1,2.406-.2a2.922,2.922,0,0,1-1.223-1A2.42,2.42,0,0,1,.742-2.6H2.188A1.5,1.5,0,0,0,2.77-1.449,2.258,2.258,0,0,0,4.2-1.023,2.331,2.331,0,0,0,5.52-1.355,1.02,1.02,0,0,0,6.016-2.242ZM14.563,0a3.036,3.036,0,0,1-.2-.891A3.225,3.225,0,0,1,11.953.156,2.984,2.984,0,0,1,9.9-.551a2.287,2.287,0,0,1-.8-1.793,2.39,2.39,0,0,1,1-2.051,4.733,4.733,0,0,1,2.824-.73h1.406v-.664A1.623,1.623,0,0,0,13.883-7a1.821,1.821,0,0,0-1.336-.449,2.107,2.107,0,0,0-1.3.391,1.151,1.151,0,0,0-.523.945H9.273a2,2,0,0,1,.449-1.223,3.066,3.066,0,0,1,1.219-.934,4.1,4.1,0,0,1,1.691-.344,3.342,3.342,0,0,1,2.289.73,2.635,2.635,0,0,1,.859,2.012v3.891a4.757,4.757,0,0,0,.3,1.852V0Zm-2.4-1.1a2.54,2.54,0,0,0,1.289-.352,2.127,2.127,0,0,0,.883-.914V-4.1H13.2q-2.656,0-2.656,1.555A1.316,1.316,0,0,0,11-1.484,1.742,1.742,0,0,0,12.164-1.1ZM19.617,0H18.172V-12h1.445Zm7.531,0a3.036,3.036,0,0,1-.2-.891A3.225,3.225,0,0,1,24.539.156a2.984,2.984,0,0,1-2.051-.707,2.287,2.287,0,0,1-.8-1.793,2.39,2.39,0,0,1,1-2.051,4.733,4.733,0,0,1,2.824-.73h1.406v-.664A1.623,1.623,0,0,0,26.469-7a1.821,1.821,0,0,0-1.336-.449,2.108,2.108,0,0,0-1.3.391,1.151,1.151,0,0,0-.523.945H21.859a2,2,0,0,1,.449-1.223,3.066,3.066,0,0,1,1.219-.934,4.1,4.1,0,0,1,1.691-.344,3.342,3.342,0,0,1,2.289.73,2.635,2.635,0,0,1,.859,2.012v3.891a4.757,4.757,0,0,0,.3,1.852V0Zm-2.4-1.1a2.54,2.54,0,0,0,1.289-.352,2.127,2.127,0,0,0,.883-.914V-4.1H25.789q-2.656,0-2.656,1.555a1.316,1.316,0,0,0,.453,1.063A1.742,1.742,0,0,0,24.75-1.1Zm9.969-6.055a4.331,4.331,0,0,0-.711-.055A1.9,1.9,0,0,0,32.078-6V0H30.633V-8.453h1.406l.023.977a2.251,2.251,0,0,1,2.016-1.133,1.477,1.477,0,0,1,.641.109ZM37.617,0H36.172V-8.453h1.445ZM36.055-10.7a.863.863,0,0,1,.215-.594.807.807,0,0,1,.637-.242.819.819,0,0,1,.641.242.854.854,0,0,1,.219.594.826.826,0,0,1-.219.586.834.834,0,0,1-.641.234.821.821,0,0,1-.637-.234A.834.834,0,0,1,36.055-10.7ZM39.547-4.3a4.993,4.993,0,0,1,.488-2.234A3.643,3.643,0,0,1,41.395-8.07a3.7,3.7,0,0,1,1.988-.539,3.565,3.565,0,0,1,2.793,1.2,4.6,4.6,0,0,1,1.066,3.18v.1a5.036,5.036,0,0,1-.473,2.215A3.589,3.589,0,0,1,45.418-.391,3.743,3.743,0,0,1,43.4.156a3.556,3.556,0,0,1-2.785-1.2A4.575,4.575,0,0,1,39.547-4.2ZM41-4.133a3.616,3.616,0,0,0,.652,2.258,2.088,2.088,0,0,0,1.746.852,2.075,2.075,0,0,0,1.75-.863A3.955,3.955,0,0,0,45.8-4.3a3.61,3.61,0,0,0-.66-2.254,2.1,2.1,0,0,0-1.754-.863,2.075,2.075,0,0,0-1.727.852A3.925,3.925,0,0,0,41-4.133Z" transform="translate(881 14323)" fill="#12263f"/>
      <ellipse id="Elipse_10023" data-name="Elipse 10023" cx="69" cy="31.5" rx="69" ry="31.5" transform="translate(1020 14335)" fill="#ffe888"/>
      <path id="Trazado_829998" data-name="Trazado 829998" d="M4.484-1.023a2.082,2.082,0,0,0,1.352-.469,1.649,1.649,0,0,0,.641-1.172H7.844a2.621,2.621,0,0,1-.5,1.383A3.293,3.293,0,0,1,6.113-.234,3.55,3.55,0,0,1,4.484.156,3.482,3.482,0,0,1,1.738-1,4.59,4.59,0,0,1,.719-4.148v-.242a5.089,5.089,0,0,1,.453-2.2,3.451,3.451,0,0,1,1.3-1.492,3.7,3.7,0,0,1,2-.531,3.39,3.39,0,0,1,2.363.852,3.043,3.043,0,0,1,1,2.211H6.477a1.992,1.992,0,0,0-.621-1.348,1.932,1.932,0,0,0-1.379-.527,2.023,2.023,0,0,0-1.707.793,3.724,3.724,0,0,0-.605,2.293v.273a3.65,3.65,0,0,0,.6,2.25A2.033,2.033,0,0,0,4.484-1.023ZM14.688,0a3.036,3.036,0,0,1-.2-.891A3.225,3.225,0,0,1,12.078.156a2.984,2.984,0,0,1-2.051-.707,2.287,2.287,0,0,1-.8-1.793,2.39,2.39,0,0,1,1-2.051,4.733,4.733,0,0,1,2.824-.73h1.406v-.664A1.623,1.623,0,0,0,14.008-7a1.821,1.821,0,0,0-1.336-.449,2.107,2.107,0,0,0-1.3.391,1.151,1.151,0,0,0-.523.945H9.4a2,2,0,0,1,.449-1.223,3.066,3.066,0,0,1,1.219-.934,4.1,4.1,0,0,1,1.691-.344,3.342,3.342,0,0,1,2.289.73,2.635,2.635,0,0,1,.859,2.012v3.891a4.757,4.757,0,0,0,.3,1.852V0Zm-2.4-1.1a2.54,2.54,0,0,0,1.289-.352,2.127,2.127,0,0,0,.883-.914V-4.1H13.328q-2.656,0-2.656,1.555a1.316,1.316,0,0,0,.453,1.063A1.742,1.742,0,0,0,12.289-1.1Zm9.969-6.055a4.331,4.331,0,0,0-.711-.055A1.9,1.9,0,0,0,19.617-6V0H18.172V-8.453h1.406l.023.977a2.251,2.251,0,0,1,2.016-1.133,1.477,1.477,0,0,1,.641.109ZM23.094-4.3a4.968,4.968,0,0,1,.914-3.145A2.923,2.923,0,0,1,26.43-8.609a2.908,2.908,0,0,1,2.414,1.094l.07-.937h1.32V-.2a3.439,3.439,0,0,1-.973,2.586,3.589,3.589,0,0,1-2.613.945,4.348,4.348,0,0,1-1.789-.391,3.08,3.08,0,0,1-1.336-1.07L24.273,1a2.826,2.826,0,0,0,2.273,1.148,2.214,2.214,0,0,0,1.645-.594,2.269,2.269,0,0,0,.59-1.672V-.844a2.971,2.971,0,0,1-2.367,1,2.887,2.887,0,0,1-2.4-1.2A5.224,5.224,0,0,1,23.094-4.3Zm1.453.164a3.79,3.79,0,0,0,.586,2.246,1.9,1.9,0,0,0,1.641.816,2.117,2.117,0,0,0,2.008-1.242V-6.172a2.142,2.142,0,0,0-1.992-1.211,1.921,1.921,0,0,0-1.648.82A4.128,4.128,0,0,0,24.547-4.133ZM32.031-4.3a4.993,4.993,0,0,1,.488-2.234A3.643,3.643,0,0,1,33.879-8.07a3.7,3.7,0,0,1,1.988-.539,3.565,3.565,0,0,1,2.793,1.2,4.6,4.6,0,0,1,1.066,3.18v.1a5.036,5.036,0,0,1-.473,2.215A3.589,3.589,0,0,1,37.9-.391a3.743,3.743,0,0,1-2.02.547,3.556,3.556,0,0,1-2.785-1.2A4.575,4.575,0,0,1,32.031-4.2Zm1.453.172a3.616,3.616,0,0,0,.652,2.258,2.088,2.088,0,0,0,1.746.852,2.075,2.075,0,0,0,1.75-.863A3.955,3.955,0,0,0,38.281-4.3a3.61,3.61,0,0,0-.66-2.254,2.1,2.1,0,0,0-1.754-.863,2.075,2.075,0,0,0-1.727.852A3.925,3.925,0,0,0,33.484-4.133Z" transform="translate(1068 14372)" fill="#12263f"/>
      <ellipse id="Elipse_10024" data-name="Elipse 10024" cx="69" cy="31.5" rx="69" ry="31.5" transform="translate(1105 14427)" fill="#ffe888"/>
      <path id="Trazado_829999" data-name="Trazado 829999" d="M6.016-2.242a1.064,1.064,0,0,0-.441-.91,4.249,4.249,0,0,0-1.539-.559,7.277,7.277,0,0,1-1.742-.562,2.479,2.479,0,0,1-.953-.781,1.869,1.869,0,0,1-.309-1.078A2.193,2.193,0,0,1,1.91-7.891a3.432,3.432,0,0,1,2.246-.719,3.532,3.532,0,0,1,2.332.742,2.357,2.357,0,0,1,.895,1.9H5.93a1.3,1.3,0,0,0-.5-1.023,1.888,1.888,0,0,0-1.27-.43,1.976,1.976,0,0,0-1.234.344,1.082,1.082,0,0,0-.445.9.877.877,0,0,0,.414.789,5.1,5.1,0,0,0,1.5.508A7.8,7.8,0,0,1,6.141-4.3a2.558,2.558,0,0,1,1,.809,1.988,1.988,0,0,1,.324,1.152A2.163,2.163,0,0,1,6.555-.527,3.8,3.8,0,0,1,4.2.156,4.257,4.257,0,0,1,2.406-.2a2.922,2.922,0,0,1-1.223-1A2.42,2.42,0,0,1,.742-2.6H2.188A1.5,1.5,0,0,0,2.77-1.449,2.258,2.258,0,0,0,4.2-1.023,2.331,2.331,0,0,0,5.52-1.355,1.02,1.02,0,0,0,6.016-2.242Zm6.836,2.4a3.693,3.693,0,0,1-2.8-1.129,4.19,4.19,0,0,1-1.078-3.02v-.266A5.073,5.073,0,0,1,9.457-6.5,3.748,3.748,0,0,1,10.8-8.051a3.378,3.378,0,0,1,1.871-.559,3.166,3.166,0,0,1,2.563,1.086,4.7,4.7,0,0,1,.914,3.109v.6H10.422a3,3,0,0,0,.73,2.02,2.3,2.3,0,0,0,1.777.77,2.517,2.517,0,0,0,1.3-.312,3.259,3.259,0,0,0,.93-.828l.883.688A3.55,3.55,0,0,1,12.852.156Zm-.18-7.578a1.928,1.928,0,0,0-1.469.637A3.1,3.1,0,0,0,10.469-5H14.7v-.109a2.753,2.753,0,0,0-.594-1.707A1.815,1.815,0,0,0,12.672-7.422Zm4.8,3.125a4.952,4.952,0,0,1,.922-3.129A2.915,2.915,0,0,1,20.8-8.609a2.932,2.932,0,0,1,2.352,1.016V-12H24.6V0H23.273L23.2-.906A2.943,2.943,0,0,1,20.789.156a2.887,2.887,0,0,1-2.395-1.2,5.008,5.008,0,0,1-.926-3.141Zm1.445.164a3.749,3.749,0,0,0,.594,2.25,1.92,1.92,0,0,0,1.641.813A2.108,2.108,0,0,0,23.156-2.3V-6.187a2.125,2.125,0,0,0-1.992-1.2,1.929,1.929,0,0,0-1.656.82A4.128,4.128,0,0,0,18.914-4.133ZM30.352.156a3.693,3.693,0,0,1-2.8-1.129,4.19,4.19,0,0,1-1.078-3.02v-.266a5.073,5.073,0,0,1,.48-2.246A3.748,3.748,0,0,1,28.3-8.051a3.378,3.378,0,0,1,1.871-.559,3.166,3.166,0,0,1,2.563,1.086,4.7,4.7,0,0,1,.914,3.109v.6H27.922a3,3,0,0,0,.73,2.02,2.3,2.3,0,0,0,1.777.77,2.517,2.517,0,0,0,1.3-.312,3.259,3.259,0,0,0,.93-.828l.883.688A3.55,3.55,0,0,1,30.352.156Zm-.18-7.578a1.928,1.928,0,0,0-1.469.637A3.1,3.1,0,0,0,27.969-5H32.2v-.109a2.753,2.753,0,0,0-.594-1.707A1.815,1.815,0,0,0,30.172-7.422Z" transform="translate(1157 14464)" fill="#12263f"/>
      <path id="Trazado_829718" data-name="Trazado 829718" d="M-3486,2793l126.005-65.333" transform="translate(4424 11668)" fill="none" stroke="#707070" stroke-width="1"/>
      <path id="Trazado_829719" data-name="Trazado 829719" d="M-3424,2822l105-26.992" transform="translate(4424 11668)" fill="none" stroke="#707070" stroke-width="1"/>
    </g>
  </g>
</svg>
